999
DXF created by Inkscape
  0
SECTION
  2
HEADER
  9
$ACADVER
  1
AC1014
  9
$HANDSEED
  5
FFFF
  9
$MEASUREMENT
 70
     1
  0
ENDSEC
  0
SECTION
  2
TABLES
  0
TABLE
  2
VPORT
  5
8
330
0
100
AcDbSymbolTable
 70
     4
  0
VPORT
  5
2E
330
8
100
AcDbSymbolTableRecord
100
AcDbViewportTableRecord
  2
*ACTIVE
 70
     0
 10
0.0
 20
0.0
 11
1.0
 21
1.0
 12
210.0
 22
148.5
 13
0.0
 23
0.0
 14
10.0
 24
10.0
 15
10.0
 25
10.0
 16
0.0
 26
0.0
 36
1.0
 17
0.0
 27
0.0
 37
0.0
 40
341.0
 41
1.24
 42
50.0
 43
0.0
 44
0.0
 50
0.0
 51
0.0
 71
     0
 72
   100
 73
     1
 74
     3
 75
     0
 76
     0
 77
     0
 78
     0
  0
ENDTAB
  0
TABLE
  2
LTYPE
  5
5
330
0
100
AcDbSymbolTable
 70
     1
  0
LTYPE
  5
14
330
5
100
AcDbSymbolTableRecord
100
AcDbLinetypeTableRecord
  2
BYBLOCK
 70
     0
  3

 72
    65
 73
     0
 40
0.0
  0
LTYPE
  5
15
330
5
100
AcDbSymbolTableRecord
100
AcDbLinetypeTableRecord
  2
BYLAYER
 70
     0
  3

 72
    65
 73
     0
 40
0.0
  0
LTYPE
  5
16
330
5
100
AcDbSymbolTableRecord
100
AcDbLinetypeTableRecord
  2
CONTINUOUS
 70
     0
  3
Solid line
 72
    65
 73
     0
 40
0.0
  0
ENDTAB
  0
TABLE
  2
LAYER
  5
2
100
AcDbSymbolTable
 70
2
  0
LAYER
  5
50
100
AcDbSymbolTableRecord
100
AcDbLayerTableRecord
  2
0
 70
0
  6
CONTINUOUS
  0
LAYER
  5
51
100
AcDbSymbolTableRecord
100
AcDbLayerTableRecord
  2
new_box
 70
0
  6
CONTINUOUS
  0
ENDTAB
  0
TABLE
  2
STYLE
  5
3
330
0
100
AcDbSymbolTable
 70
     1
  0
STYLE
  5
11
330
3
100
AcDbSymbolTableRecord
100
AcDbTextStyleTableRecord
  2
STANDARD
 70
     0
 40
0.0
 41
1.0
 50
0.0
 71
     0
 42
2.5
  3
txt
  4

  0
ENDTAB
  0
TABLE
  2
VIEW
  5
6
330
0
100
AcDbSymbolTable
 70
     0
  0
ENDTAB
  0
TABLE
  2
UCS
  5
7
330
0
100
AcDbSymbolTable
 70
     0
  0
ENDTAB
  0
TABLE
  2
APPID
  5
9
330
0
100
AcDbSymbolTable
 70
     2
  0
APPID
  5
12
330
9
100
AcDbSymbolTableRecord
100
AcDbRegAppTableRecord
  2
ACAD
 70
     0
  0
ENDTAB
  0
TABLE
  2
DIMSTYLE
  5
A
330
0
100
AcDbSymbolTable
 70
     1
  0
DIMSTYLE
105
27
330
A
100
AcDbSymbolTableRecord
100
AcDbDimStyleTableRecord
  2
ISO-25
 70
     0
  3

  4

  5

  6

  7

 40
1.0
 41
2.5
 42
0.625
 43
3.75
 44
1.25
 45
0.0
 46
0.0
 47
0.0
 48
0.0
140
2.5
141
2.5
142
0.0
143
0.03937007874016
144
1.0
145
0.0
146
1.0
147
0.625
 71
     0
 72
     0
 73
     0
 74
     0
 75
     0
 76
     0
 77
     1
 78
     8
170
     0
171
     3
172
     1
173
     0
174
     0
175
     0
176
     0
177
     0
178
     0
270
     2
271
     2
272
     2
273
     2
274
     3
340
11
275
     0
280
     0
281
     0
282
     0
283
     0
284
     8
285
     0
286
     0
287
     3
288
     0
  0
ENDTAB
  0
TABLE
  2
BLOCK_RECORD
  5
1
330
0
100
AcDbSymbolTable
 70
     1
  0
BLOCK_RECORD
  5
1F
330
1
100
AcDbSymbolTableRecord
100
AcDbBlockTableRecord
  2
*MODEL_SPACE
  0
BLOCK_RECORD
  5
1B
330
1
100
AcDbSymbolTableRecord
100
AcDbBlockTableRecord
  2
*PAPER_SPACE
  0
ENDTAB
  0
ENDSEC
  0
SECTION
  2
BLOCKS
  0
BLOCK
  5
20
330
1F
100
AcDbEntity
  8
0
100
AcDbBlockBegin
  2
*MODEL_SPACE
 70
     0
 10
0.0
 20
0.0
 30
0.0
  3
*MODEL_SPACE
  1

  0
ENDBLK
  5
21
330
1F
100
AcDbEntity
  8
0
100
AcDbBlockEnd
  0
BLOCK
  5
1C
330
1B
100
AcDbEntity
 67
     1
  8
0
100
AcDbBlockBegin
  2
*PAPER_SPACE
  1

  0
ENDBLK
  5
1D
330
1B
100
AcDbEntity
 67
     1
  8
0
100
AcDbBlockEnd
  0
ENDSEC
  0
SECTION
  2
ENTITIES
  0
LINE
  5
100
100
AcDbEntity
  8
new_box
 62
7
100
AcDbLine
 10
80.750833
 20
10.251722
 30
0.0
 11
93.845944
 21
10.251722
 31
0.0
  0
LINE
  5
101
100
AcDbEntity
  8
new_box
 62
7
100
AcDbLine
 10
93.845944
 20
15.250583
 30
0.0
 11
93.845944
 21
10.251722
 31
0.0
  0
LINE
  5
102
100
AcDbEntity
  8
new_box
 62
7
100
AcDbLine
 10
93.845944
 20
15.250583
 30
0.0
 11
106.570639
 21
15.250583
 31
0.0
  0
LINE
  5
103
100
AcDbEntity
  8
new_box
 62
7
100
AcDbLine
 10
106.570639
 20
15.250583
 30
0.0
 11
106.570639
 21
10.251722
 31
0.0
  0
LINE
  5
104
100
AcDbEntity
  8
new_box
 62
7
100
AcDbLine
 10
106.570639
 20
10.251722
 30
0.0
 11
119.792750
 21
10.251722
 31
0.0
  0
LINE
  5
105
100
AcDbEntity
  8
new_box
 62
7
100
AcDbLine
 10
119.792750
 20
15.250583
 30
0.0
 11
119.792750
 21
10.251722
 31
0.0
  0
LINE
  5
106
100
AcDbEntity
  8
new_box
 62
7
100
AcDbLine
 10
119.792750
 20
15.250583
 30
0.0
 11
132.513917
 21
15.250583
 31
0.0
  0
LINE
  5
107
100
AcDbEntity
  8
new_box
 62
7
100
AcDbLine
 10
132.513917
 20
15.250583
 30
0.0
 11
132.513917
 21
10.251722
 31
0.0
  0
LINE
  5
108
100
AcDbEntity
  8
new_box
 62
7
100
AcDbLine
 10
132.513917
 20
10.251722
 30
0.0
 11
145.736028
 21
10.251722
 31
0.0
  0
LINE
  5
109
100
AcDbEntity
  8
new_box
 62
7
100
AcDbLine
 10
145.736028
 20
15.250583
 30
0.0
 11
145.736028
 21
10.251722
 31
0.0
  0
LINE
  5
10a
100
AcDbEntity
  8
new_box
 62
7
100
AcDbLine
 10
145.736028
 20
15.250583
 30
0.0
 11
158.457194
 21
15.250583
 31
0.0
  0
LINE
  5
10b
100
AcDbEntity
  8
new_box
 62
7
100
AcDbLine
 10
158.457194
 20
15.250583
 30
0.0
 11
158.457194
 21
10.251722
 31
0.0
  0
LINE
  5
10c
100
AcDbEntity
  8
new_box
 62
7
100
AcDbLine
 10
158.457194
 20
10.251722
 30
0.0
 11
171.679306
 21
10.251722
 31
0.0
  0
LINE
  5
10d
100
AcDbEntity
  8
new_box
 62
7
100
AcDbLine
 10
171.679306
 20
15.250583
 30
0.0
 11
171.679306
 21
10.251722
 31
0.0
  0
LINE
  5
10e
100
AcDbEntity
  8
new_box
 62
7
100
AcDbLine
 10
171.679306
 20
15.250583
 30
0.0
 11
184.404000
 21
15.250583
 31
0.0
  0
LINE
  5
10f
100
AcDbEntity
  8
new_box
 62
7
100
AcDbLine
 10
184.404000
 20
15.250583
 30
0.0
 11
184.404000
 21
10.251722
 31
0.0
  0
LINE
  5
110
100
AcDbEntity
  8
new_box
 62
7
100
AcDbLine
 10
184.404000
 20
10.251722
 30
0.0
 11
197.626111
 21
10.251722
 31
0.0
  0
LINE
  5
111
100
AcDbEntity
  8
new_box
 62
7
100
AcDbLine
 10
197.626111
 20
15.250583
 30
0.0
 11
197.626111
 21
10.251722
 31
0.0
  0
LINE
  5
112
100
AcDbEntity
  8
new_box
 62
7
100
AcDbLine
 10
197.626111
 20
15.250583
 30
0.0
 11
210.347278
 21
15.250583
 31
0.0
  0
LINE
  5
113
100
AcDbEntity
  8
new_box
 62
7
100
AcDbLine
 10
210.347278
 20
15.250583
 30
0.0
 11
210.347278
 21
10.251722
 31
0.0
  0
LINE
  5
114
100
AcDbEntity
  8
new_box
 62
7
100
AcDbLine
 10
210.347278
 20
10.251722
 30
0.0
 11
223.569389
 21
10.251722
 31
0.0
  0
LINE
  5
115
100
AcDbEntity
  8
new_box
 62
7
100
AcDbLine
 10
223.569389
 20
15.250583
 30
0.0
 11
223.569389
 21
10.251722
 31
0.0
  0
LINE
  5
116
100
AcDbEntity
  8
new_box
 62
7
100
AcDbLine
 10
223.569389
 20
15.250583
 30
0.0
 11
236.290556
 21
15.250583
 31
0.0
  0
LINE
  5
117
100
AcDbEntity
  8
new_box
 62
7
100
AcDbLine
 10
236.290556
 20
15.250583
 30
0.0
 11
236.290556
 21
10.251722
 31
0.0
  0
LINE
  5
118
100
AcDbEntity
  8
new_box
 62
7
100
AcDbLine
 10
236.290556
 20
10.251722
 30
0.0
 11
249.512667
 21
10.251722
 31
0.0
  0
LINE
  5
119
100
AcDbEntity
  8
new_box
 62
7
100
AcDbLine
 10
249.512667
 20
15.250583
 30
0.0
 11
249.512667
 21
10.251722
 31
0.0
  0
LINE
  5
11a
100
AcDbEntity
  8
new_box
 62
7
100
AcDbLine
 10
249.512667
 20
15.250583
 30
0.0
 11
262.237361
 21
15.250583
 31
0.0
  0
LINE
  5
11b
100
AcDbEntity
  8
new_box
 62
7
100
AcDbLine
 10
262.237361
 20
15.250583
 30
0.0
 11
262.237361
 21
10.251722
 31
0.0
  0
LINE
  5
11c
100
AcDbEntity
  8
new_box
 62
7
100
AcDbLine
 10
262.237361
 20
10.251722
 30
0.0
 11
275.459472
 21
10.251722
 31
0.0
  0
LINE
  5
11d
100
AcDbEntity
  8
new_box
 62
7
100
AcDbLine
 10
275.459472
 20
15.250583
 30
0.0
 11
275.459472
 21
10.251722
 31
0.0
  0
LINE
  5
11e
100
AcDbEntity
  8
new_box
 62
7
100
AcDbLine
 10
275.459472
 20
15.250583
 30
0.0
 11
288.180639
 21
15.250583
 31
0.0
  0
LINE
  5
11f
100
AcDbEntity
  8
new_box
 62
7
100
AcDbLine
 10
288.180639
 20
15.250583
 30
0.0
 11
288.180639
 21
10.251722
 31
0.0
  0
LINE
  5
120
100
AcDbEntity
  8
new_box
 62
7
100
AcDbLine
 10
288.180639
 20
10.251722
 30
0.0
 11
301.402750
 21
10.251722
 31
0.0
  0
LINE
  5
121
100
AcDbEntity
  8
new_box
 62
7
100
AcDbLine
 10
301.402750
 20
15.250583
 30
0.0
 11
301.402750
 21
10.251722
 31
0.0
  0
LINE
  5
122
100
AcDbEntity
  8
new_box
 62
7
100
AcDbLine
 10
301.402750
 20
15.250583
 30
0.0
 11
314.123917
 21
15.250583
 31
0.0
  0
LINE
  5
123
100
AcDbEntity
  8
new_box
 62
7
100
AcDbLine
 10
314.123917
 20
15.250583
 30
0.0
 11
314.123917
 21
10.251722
 31
0.0
  0
LINE
  5
124
100
AcDbEntity
  8
new_box
 62
7
100
AcDbLine
 10
314.123917
 20
10.251722
 30
0.0
 11
327.346028
 21
10.251722
 31
0.0
  0
LINE
  5
125
100
AcDbEntity
  8
new_box
 62
7
100
AcDbLine
 10
327.346028
 20
15.250583
 30
0.0
 11
327.346028
 21
10.251722
 31
0.0
  0
LINE
  5
126
100
AcDbEntity
  8
new_box
 62
7
100
AcDbLine
 10
327.346028
 20
15.250583
 30
0.0
 11
340.070722
 21
15.250583
 31
0.0
  0
LINE
  5
127
100
AcDbEntity
  8
new_box
 62
7
100
AcDbLine
 10
340.070722
 20
15.250583
 30
0.0
 11
340.070722
 21
10.251722
 31
0.0
  0
LINE
  5
128
100
AcDbEntity
  8
new_box
 62
7
100
AcDbLine
 10
340.070722
 20
10.251722
 30
0.0
 11
353.292833
 21
10.251722
 31
0.0
  0
LINE
  5
129
100
AcDbEntity
  8
new_box
 62
7
100
AcDbLine
 10
353.292833
 20
15.250583
 30
0.0
 11
353.292833
 21
10.251722
 31
0.0
  0
LINE
  5
12a
100
AcDbEntity
  8
new_box
 62
7
100
AcDbLine
 10
353.292833
 20
15.250583
 30
0.0
 11
366.014000
 21
15.250583
 31
0.0
  0
LINE
  5
12b
100
AcDbEntity
  8
new_box
 62
7
100
AcDbLine
 10
366.014000
 20
15.250583
 30
0.0
 11
366.014000
 21
10.251722
 31
0.0
  0
LINE
  5
12c
100
AcDbEntity
  8
new_box
 62
7
100
AcDbLine
 10
366.014000
 20
10.251722
 30
0.0
 11
379.236111
 21
10.251722
 31
0.0
  0
LINE
  5
12d
100
AcDbEntity
  8
new_box
 62
7
100
AcDbLine
 10
379.236111
 20
15.250583
 30
0.0
 11
379.236111
 21
10.251722
 31
0.0
  0
LINE
  5
12e
100
AcDbEntity
  8
new_box
 62
7
100
AcDbLine
 10
379.236111
 20
15.250583
 30
0.0
 11
391.957278
 21
15.250583
 31
0.0
  0
LINE
  5
12f
100
AcDbEntity
  8
new_box
 62
7
100
AcDbLine
 10
391.957278
 20
15.250583
 30
0.0
 11
391.957278
 21
10.251722
 31
0.0
  0
LINE
  5
130
100
AcDbEntity
  8
new_box
 62
7
100
AcDbLine
 10
391.957278
 20
10.251722
 30
0.0
 11
405.179389
 21
10.251722
 31
0.0
  0
LINE
  5
131
100
AcDbEntity
  8
new_box
 62
7
100
AcDbLine
 10
405.179389
 20
15.250583
 30
0.0
 11
405.179389
 21
10.251722
 31
0.0
  0
LINE
  5
132
100
AcDbEntity
  8
new_box
 62
7
100
AcDbLine
 10
405.179389
 20
15.250583
 30
0.0
 11
417.904083
 21
15.250583
 31
0.0
  0
LINE
  5
133
100
AcDbEntity
  8
new_box
 62
7
100
AcDbLine
 10
417.904083
 20
15.250583
 30
0.0
 11
417.904083
 21
10.251722
 31
0.0
  0
LINE
  5
134
100
AcDbEntity
  8
new_box
 62
7
100
AcDbLine
 10
417.904083
 20
10.251722
 30
0.0
 11
426.000333
 21
10.251722
 31
0.0
  0
LINE
  5
135
100
AcDbEntity
  8
new_box
 62
7
100
AcDbLine
 10
80.750833
 20
290.498389
 30
0.0
 11
93.845944
 21
290.498389
 31
0.0
  0
LINE
  5
136
100
AcDbEntity
  8
new_box
 62
7
100
AcDbLine
 10
93.845944
 20
290.498389
 30
0.0
 11
93.845944
 21
285.499528
 31
0.0
  0
LINE
  5
137
100
AcDbEntity
  8
new_box
 62
7
100
AcDbLine
 10
93.845944
 20
285.499528
 30
0.0
 11
106.570639
 21
285.499528
 31
0.0
  0
LINE
  5
138
100
AcDbEntity
  8
new_box
 62
7
100
AcDbLine
 10
106.570639
 20
290.498389
 30
0.0
 11
106.570639
 21
285.499528
 31
0.0
  0
LINE
  5
139
100
AcDbEntity
  8
new_box
 62
7
100
AcDbLine
 10
106.570639
 20
290.498389
 30
0.0
 11
119.792750
 21
290.498389
 31
0.0
  0
LINE
  5
13a
100
AcDbEntity
  8
new_box
 62
7
100
AcDbLine
 10
119.792750
 20
290.498389
 30
0.0
 11
119.792750
 21
285.499528
 31
0.0
  0
LINE
  5
13b
100
AcDbEntity
  8
new_box
 62
7
100
AcDbLine
 10
119.792750
 20
285.499528
 30
0.0
 11
132.513917
 21
285.499528
 31
0.0
  0
LINE
  5
13c
100
AcDbEntity
  8
new_box
 62
7
100
AcDbLine
 10
132.513917
 20
290.498389
 30
0.0
 11
132.513917
 21
285.499528
 31
0.0
  0
LINE
  5
13d
100
AcDbEntity
  8
new_box
 62
7
100
AcDbLine
 10
132.513917
 20
290.498389
 30
0.0
 11
145.736028
 21
290.498389
 31
0.0
  0
LINE
  5
13e
100
AcDbEntity
  8
new_box
 62
7
100
AcDbLine
 10
145.736028
 20
290.498389
 30
0.0
 11
145.736028
 21
285.499528
 31
0.0
  0
LINE
  5
13f
100
AcDbEntity
  8
new_box
 62
7
100
AcDbLine
 10
145.736028
 20
285.499528
 30
0.0
 11
158.457194
 21
285.499528
 31
0.0
  0
LINE
  5
140
100
AcDbEntity
  8
new_box
 62
7
100
AcDbLine
 10
158.457194
 20
290.498389
 30
0.0
 11
158.457194
 21
285.499528
 31
0.0
  0
LINE
  5
141
100
AcDbEntity
  8
new_box
 62
7
100
AcDbLine
 10
158.457194
 20
290.498389
 30
0.0
 11
171.679306
 21
290.498389
 31
0.0
  0
LINE
  5
142
100
AcDbEntity
  8
new_box
 62
7
100
AcDbLine
 10
171.679306
 20
290.498389
 30
0.0
 11
171.679306
 21
285.499528
 31
0.0
  0
LINE
  5
143
100
AcDbEntity
  8
new_box
 62
7
100
AcDbLine
 10
171.679306
 20
285.499528
 30
0.0
 11
184.404000
 21
285.499528
 31
0.0
  0
LINE
  5
144
100
AcDbEntity
  8
new_box
 62
7
100
AcDbLine
 10
184.404000
 20
290.498389
 30
0.0
 11
184.404000
 21
285.499528
 31
0.0
  0
LINE
  5
145
100
AcDbEntity
  8
new_box
 62
7
100
AcDbLine
 10
184.404000
 20
290.498389
 30
0.0
 11
197.626111
 21
290.498389
 31
0.0
  0
LINE
  5
146
100
AcDbEntity
  8
new_box
 62
7
100
AcDbLine
 10
197.626111
 20
290.498389
 30
0.0
 11
197.626111
 21
285.499528
 31
0.0
  0
LINE
  5
147
100
AcDbEntity
  8
new_box
 62
7
100
AcDbLine
 10
197.626111
 20
285.499528
 30
0.0
 11
210.347278
 21
285.499528
 31
0.0
  0
LINE
  5
148
100
AcDbEntity
  8
new_box
 62
7
100
AcDbLine
 10
210.347278
 20
290.498389
 30
0.0
 11
210.347278
 21
285.499528
 31
0.0
  0
LINE
  5
149
100
AcDbEntity
  8
new_box
 62
7
100
AcDbLine
 10
210.347278
 20
290.498389
 30
0.0
 11
223.569389
 21
290.498389
 31
0.0
  0
LINE
  5
14a
100
AcDbEntity
  8
new_box
 62
7
100
AcDbLine
 10
223.569389
 20
290.498389
 30
0.0
 11
223.569389
 21
285.499528
 31
0.0
  0
LINE
  5
14b
100
AcDbEntity
  8
new_box
 62
7
100
AcDbLine
 10
223.569389
 20
285.499528
 30
0.0
 11
236.290556
 21
285.499528
 31
0.0
  0
LINE
  5
14c
100
AcDbEntity
  8
new_box
 62
7
100
AcDbLine
 10
236.290556
 20
290.498389
 30
0.0
 11
236.290556
 21
285.499528
 31
0.0
  0
LINE
  5
14d
100
AcDbEntity
  8
new_box
 62
7
100
AcDbLine
 10
236.290556
 20
290.498389
 30
0.0
 11
249.512667
 21
290.498389
 31
0.0
  0
LINE
  5
14e
100
AcDbEntity
  8
new_box
 62
7
100
AcDbLine
 10
249.512667
 20
290.498389
 30
0.0
 11
249.512667
 21
285.499528
 31
0.0
  0
LINE
  5
14f
100
AcDbEntity
  8
new_box
 62
7
100
AcDbLine
 10
249.512667
 20
285.499528
 30
0.0
 11
262.237361
 21
285.499528
 31
0.0
  0
LINE
  5
150
100
AcDbEntity
  8
new_box
 62
7
100
AcDbLine
 10
262.237361
 20
290.498389
 30
0.0
 11
262.237361
 21
285.499528
 31
0.0
  0
LINE
  5
151
100
AcDbEntity
  8
new_box
 62
7
100
AcDbLine
 10
262.237361
 20
290.498389
 30
0.0
 11
275.459472
 21
290.498389
 31
0.0
  0
LINE
  5
152
100
AcDbEntity
  8
new_box
 62
7
100
AcDbLine
 10
275.459472
 20
290.498389
 30
0.0
 11
275.459472
 21
285.499528
 31
0.0
  0
LINE
  5
153
100
AcDbEntity
  8
new_box
 62
7
100
AcDbLine
 10
275.459472
 20
285.499528
 30
0.0
 11
288.180639
 21
285.499528
 31
0.0
  0
LINE
  5
154
100
AcDbEntity
  8
new_box
 62
7
100
AcDbLine
 10
288.180639
 20
290.498389
 30
0.0
 11
288.180639
 21
285.499528
 31
0.0
  0
LINE
  5
155
100
AcDbEntity
  8
new_box
 62
7
100
AcDbLine
 10
288.180639
 20
290.498389
 30
0.0
 11
301.402750
 21
290.498389
 31
0.0
  0
LINE
  5
156
100
AcDbEntity
  8
new_box
 62
7
100
AcDbLine
 10
301.402750
 20
290.498389
 30
0.0
 11
301.402750
 21
285.499528
 31
0.0
  0
LINE
  5
157
100
AcDbEntity
  8
new_box
 62
7
100
AcDbLine
 10
301.402750
 20
285.499528
 30
0.0
 11
314.123917
 21
285.499528
 31
0.0
  0
LINE
  5
158
100
AcDbEntity
  8
new_box
 62
7
100
AcDbLine
 10
314.123917
 20
290.498389
 30
0.0
 11
314.123917
 21
285.499528
 31
0.0
  0
LINE
  5
159
100
AcDbEntity
  8
new_box
 62
7
100
AcDbLine
 10
314.123917
 20
290.498389
 30
0.0
 11
327.346028
 21
290.498389
 31
0.0
  0
LINE
  5
15a
100
AcDbEntity
  8
new_box
 62
7
100
AcDbLine
 10
327.346028
 20
290.498389
 30
0.0
 11
327.346028
 21
285.499528
 31
0.0
  0
LINE
  5
15b
100
AcDbEntity
  8
new_box
 62
7
100
AcDbLine
 10
327.346028
 20
285.499528
 30
0.0
 11
340.070722
 21
285.499528
 31
0.0
  0
LINE
  5
15c
100
AcDbEntity
  8
new_box
 62
7
100
AcDbLine
 10
340.070722
 20
290.498389
 30
0.0
 11
340.070722
 21
285.499528
 31
0.0
  0
LINE
  5
15d
100
AcDbEntity
  8
new_box
 62
7
100
AcDbLine
 10
340.070722
 20
290.498389
 30
0.0
 11
353.292833
 21
290.498389
 31
0.0
  0
LINE
  5
15e
100
AcDbEntity
  8
new_box
 62
7
100
AcDbLine
 10
353.292833
 20
290.498389
 30
0.0
 11
353.292833
 21
285.499528
 31
0.0
  0
LINE
  5
15f
100
AcDbEntity
  8
new_box
 62
7
100
AcDbLine
 10
353.292833
 20
285.499528
 30
0.0
 11
366.014000
 21
285.499528
 31
0.0
  0
LINE
  5
160
100
AcDbEntity
  8
new_box
 62
7
100
AcDbLine
 10
366.014000
 20
290.498389
 30
0.0
 11
366.014000
 21
285.499528
 31
0.0
  0
LINE
  5
161
100
AcDbEntity
  8
new_box
 62
7
100
AcDbLine
 10
366.014000
 20
290.498389
 30
0.0
 11
379.236111
 21
290.498389
 31
0.0
  0
LINE
  5
162
100
AcDbEntity
  8
new_box
 62
7
100
AcDbLine
 10
379.236111
 20
290.498389
 30
0.0
 11
379.236111
 21
285.499528
 31
0.0
  0
LINE
  5
163
100
AcDbEntity
  8
new_box
 62
7
100
AcDbLine
 10
379.236111
 20
285.499528
 30
0.0
 11
391.957278
 21
285.499528
 31
0.0
  0
LINE
  5
164
100
AcDbEntity
  8
new_box
 62
7
100
AcDbLine
 10
391.957278
 20
290.498389
 30
0.0
 11
391.957278
 21
285.499528
 31
0.0
  0
LINE
  5
165
100
AcDbEntity
  8
new_box
 62
7
100
AcDbLine
 10
391.957278
 20
290.498389
 30
0.0
 11
405.179389
 21
290.498389
 31
0.0
  0
LINE
  5
166
100
AcDbEntity
  8
new_box
 62
7
100
AcDbLine
 10
405.179389
 20
290.498389
 30
0.0
 11
405.179389
 21
285.499528
 31
0.0
  0
LINE
  5
167
100
AcDbEntity
  8
new_box
 62
7
100
AcDbLine
 10
405.179389
 20
285.499528
 30
0.0
 11
417.904083
 21
285.499528
 31
0.0
  0
LINE
  5
168
100
AcDbEntity
  8
new_box
 62
7
100
AcDbLine
 10
417.904083
 20
290.498389
 30
0.0
 11
417.904083
 21
285.499528
 31
0.0
  0
LINE
  5
169
100
AcDbEntity
  8
new_box
 62
7
100
AcDbLine
 10
417.904083
 20
290.498389
 30
0.0
 11
426.000333
 21
290.498389
 31
0.0
  0
LINE
  5
16a
100
AcDbEntity
  8
new_box
 62
7
100
AcDbLine
 10
80.750833
 20
10.251722
 30
0.0
 11
80.750833
 21
23.720778
 31
0.0
  0
LINE
  5
16b
100
AcDbEntity
  8
new_box
 62
7
100
AcDbLine
 10
85.749694
 20
23.720778
 30
0.0
 11
80.750833
 21
23.720778
 31
0.0
  0
LINE
  5
16c
100
AcDbEntity
  8
new_box
 62
7
100
AcDbLine
 10
85.749694
 20
23.720778
 30
0.0
 11
85.749694
 21
36.815889
 31
0.0
  0
LINE
  5
16d
100
AcDbEntity
  8
new_box
 62
7
100
AcDbLine
 10
85.749694
 20
36.815889
 30
0.0
 11
80.750833
 21
36.815889
 31
0.0
  0
LINE
  5
16e
100
AcDbEntity
  8
new_box
 62
7
100
AcDbLine
 10
80.750833
 20
36.815889
 30
0.0
 11
80.750833
 21
50.411944
 31
0.0
  0
LINE
  5
16f
100
AcDbEntity
  8
new_box
 62
7
100
AcDbLine
 10
85.749694
 20
50.411944
 30
0.0
 11
80.750833
 21
50.411944
 31
0.0
  0
LINE
  5
170
100
AcDbEntity
  8
new_box
 62
7
100
AcDbLine
 10
85.749694
 20
50.411944
 30
0.0
 11
85.749694
 21
63.507056
 31
0.0
  0
LINE
  5
171
100
AcDbEntity
  8
new_box
 62
7
100
AcDbLine
 10
85.749694
 20
63.507056
 30
0.0
 11
80.750833
 21
63.507056
 31
0.0
  0
LINE
  5
172
100
AcDbEntity
  8
new_box
 62
7
100
AcDbLine
 10
80.750833
 20
63.507056
 30
0.0
 11
80.750833
 21
77.099583
 31
0.0
  0
LINE
  5
173
100
AcDbEntity
  8
new_box
 62
7
100
AcDbLine
 10
85.749694
 20
77.099583
 30
0.0
 11
80.750833
 21
77.099583
 31
0.0
  0
LINE
  5
174
100
AcDbEntity
  8
new_box
 62
7
100
AcDbLine
 10
85.749694
 20
77.099583
 30
0.0
 11
85.749694
 21
90.194694
 31
0.0
  0
LINE
  5
175
100
AcDbEntity
  8
new_box
 62
7
100
AcDbLine
 10
85.749694
 20
90.194694
 30
0.0
 11
80.750833
 21
90.194694
 31
0.0
  0
LINE
  5
176
100
AcDbEntity
  8
new_box
 62
7
100
AcDbLine
 10
80.750833
 20
90.194694
 30
0.0
 11
80.750833
 21
103.790750
 31
0.0
  0
LINE
  5
177
100
AcDbEntity
  8
new_box
 62
7
100
AcDbLine
 10
85.749694
 20
103.790750
 30
0.0
 11
80.750833
 21
103.790750
 31
0.0
  0
LINE
  5
178
100
AcDbEntity
  8
new_box
 62
7
100
AcDbLine
 10
85.749694
 20
103.790750
 30
0.0
 11
85.749694
 21
116.885861
 31
0.0
  0
LINE
  5
179
100
AcDbEntity
  8
new_box
 62
7
100
AcDbLine
 10
85.749694
 20
116.885861
 30
0.0
 11
80.750833
 21
116.885861
 31
0.0
  0
LINE
  5
17a
100
AcDbEntity
  8
new_box
 62
7
100
AcDbLine
 10
80.750833
 20
116.885861
 30
0.0
 11
80.750833
 21
130.481917
 31
0.0
  0
LINE
  5
17b
100
AcDbEntity
  8
new_box
 62
7
100
AcDbLine
 10
85.749694
 20
130.481917
 30
0.0
 11
80.750833
 21
130.481917
 31
0.0
  0
LINE
  5
17c
100
AcDbEntity
  8
new_box
 62
7
100
AcDbLine
 10
85.749694
 20
130.481917
 30
0.0
 11
85.749694
 21
143.577028
 31
0.0
  0
LINE
  5
17d
100
AcDbEntity
  8
new_box
 62
7
100
AcDbLine
 10
85.749694
 20
143.577028
 30
0.0
 11
80.750833
 21
143.577028
 31
0.0
  0
LINE
  5
17e
100
AcDbEntity
  8
new_box
 62
7
100
AcDbLine
 10
80.750833
 20
143.577028
 30
0.0
 11
80.750833
 21
157.173083
 31
0.0
  0
LINE
  5
17f
100
AcDbEntity
  8
new_box
 62
7
100
AcDbLine
 10
85.749694
 20
157.173083
 30
0.0
 11
80.750833
 21
157.173083
 31
0.0
  0
LINE
  5
180
100
AcDbEntity
  8
new_box
 62
7
100
AcDbLine
 10
85.749694
 20
157.173083
 30
0.0
 11
85.749694
 21
170.268194
 31
0.0
  0
LINE
  5
181
100
AcDbEntity
  8
new_box
 62
7
100
AcDbLine
 10
85.749694
 20
170.268194
 30
0.0
 11
80.750833
 21
170.268194
 31
0.0
  0
LINE
  5
182
100
AcDbEntity
  8
new_box
 62
7
100
AcDbLine
 10
80.750833
 20
170.268194
 30
0.0
 11
80.750833
 21
183.864250
 31
0.0
  0
LINE
  5
183
100
AcDbEntity
  8
new_box
 62
7
100
AcDbLine
 10
85.749694
 20
183.864250
 30
0.0
 11
80.750833
 21
183.864250
 31
0.0
  0
LINE
  5
184
100
AcDbEntity
  8
new_box
 62
7
100
AcDbLine
 10
85.749694
 20
183.864250
 30
0.0
 11
85.749694
 21
196.959361
 31
0.0
  0
LINE
  5
185
100
AcDbEntity
  8
new_box
 62
7
100
AcDbLine
 10
85.749694
 20
196.959361
 30
0.0
 11
80.750833
 21
196.959361
 31
0.0
  0
LINE
  5
186
100
AcDbEntity
  8
new_box
 62
7
100
AcDbLine
 10
80.750833
 20
196.959361
 30
0.0
 11
80.750833
 21
210.551889
 31
0.0
  0
LINE
  5
187
100
AcDbEntity
  8
new_box
 62
7
100
AcDbLine
 10
85.749694
 20
210.551889
 30
0.0
 11
80.750833
 21
210.551889
 31
0.0
  0
LINE
  5
188
100
AcDbEntity
  8
new_box
 62
7
100
AcDbLine
 10
85.749694
 20
210.551889
 30
0.0
 11
85.749694
 21
223.650528
 31
0.0
  0
LINE
  5
189
100
AcDbEntity
  8
new_box
 62
7
100
AcDbLine
 10
85.749694
 20
223.650528
 30
0.0
 11
80.750833
 21
223.650528
 31
0.0
  0
LINE
  5
18a
100
AcDbEntity
  8
new_box
 62
7
100
AcDbLine
 10
80.750833
 20
223.650528
 30
0.0
 11
80.750833
 21
237.243056
 31
0.0
  0
LINE
  5
18b
100
AcDbEntity
  8
new_box
 62
7
100
AcDbLine
 10
85.749694
 20
237.243056
 30
0.0
 11
80.750833
 21
237.243056
 31
0.0
  0
LINE
  5
18c
100
AcDbEntity
  8
new_box
 62
7
100
AcDbLine
 10
85.749694
 20
237.243056
 30
0.0
 11
85.749694
 21
250.338167
 31
0.0
  0
LINE
  5
18d
100
AcDbEntity
  8
new_box
 62
7
100
AcDbLine
 10
85.749694
 20
250.338167
 30
0.0
 11
80.750833
 21
250.338167
 31
0.0
  0
LINE
  5
18e
100
AcDbEntity
  8
new_box
 62
7
100
AcDbLine
 10
80.750833
 20
250.338167
 30
0.0
 11
80.750833
 21
263.934222
 31
0.0
  0
LINE
  5
18f
100
AcDbEntity
  8
new_box
 62
7
100
AcDbLine
 10
85.749694
 20
263.934222
 30
0.0
 11
80.750833
 21
263.934222
 31
0.0
  0
LINE
  5
190
100
AcDbEntity
  8
new_box
 62
7
100
AcDbLine
 10
85.749694
 20
263.934222
 30
0.0
 11
85.749694
 21
277.029333
 31
0.0
  0
LINE
  5
191
100
AcDbEntity
  8
new_box
 62
7
100
AcDbLine
 10
85.749694
 20
277.029333
 30
0.0
 11
80.750833
 21
277.029333
 31
0.0
  0
LINE
  5
192
100
AcDbEntity
  8
new_box
 62
7
100
AcDbLine
 10
80.750833
 20
277.029333
 30
0.0
 11
80.750833
 21
290.498389
 31
0.0
  0
LINE
  5
193
100
AcDbEntity
  8
new_box
 62
7
100
AcDbLine
 10
426.000333
 20
10.251722
 30
0.0
 11
426.000333
 21
23.470306
 31
0.0
  0
LINE
  5
194
100
AcDbEntity
  8
new_box
 62
7
100
AcDbLine
 10
430.999194
 20
23.470306
 30
0.0
 11
426.000333
 21
23.470306
 31
0.0
  0
LINE
  5
195
100
AcDbEntity
  8
new_box
 62
7
100
AcDbLine
 10
430.999194
 20
23.470306
 30
0.0
 11
430.999194
 21
37.066361
 31
0.0
  0
LINE
  5
196
100
AcDbEntity
  8
new_box
 62
7
100
AcDbLine
 10
430.999194
 20
37.066361
 30
0.0
 11
426.000333
 21
37.066361
 31
0.0
  0
LINE
  5
197
100
AcDbEntity
  8
new_box
 62
7
100
AcDbLine
 10
426.000333
 20
37.066361
 30
0.0
 11
426.000333
 21
50.161472
 31
0.0
  0
LINE
  5
198
100
AcDbEntity
  8
new_box
 62
7
100
AcDbLine
 10
430.999194
 20
50.161472
 30
0.0
 11
426.000333
 21
50.161472
 31
0.0
  0
LINE
  5
199
100
AcDbEntity
  8
new_box
 62
7
100
AcDbLine
 10
430.999194
 20
50.161472
 30
0.0
 11
430.999194
 21
63.757528
 31
0.0
  0
LINE
  5
19a
100
AcDbEntity
  8
new_box
 62
7
100
AcDbLine
 10
430.999194
 20
63.757528
 30
0.0
 11
426.000333
 21
63.757528
 31
0.0
  0
LINE
  5
19b
100
AcDbEntity
  8
new_box
 62
7
100
AcDbLine
 10
426.000333
 20
63.757528
 30
0.0
 11
426.000333
 21
76.852639
 31
0.0
  0
LINE
  5
19c
100
AcDbEntity
  8
new_box
 62
7
100
AcDbLine
 10
430.999194
 20
76.852639
 30
0.0
 11
426.000333
 21
76.852639
 31
0.0
  0
LINE
  5
19d
100
AcDbEntity
  8
new_box
 62
7
100
AcDbLine
 10
430.999194
 20
76.852639
 30
0.0
 11
430.999194
 21
90.445167
 31
0.0
  0
LINE
  5
19e
100
AcDbEntity
  8
new_box
 62
7
100
AcDbLine
 10
430.999194
 20
90.445167
 30
0.0
 11
426.000333
 21
90.445167
 31
0.0
  0
LINE
  5
19f
100
AcDbEntity
  8
new_box
 62
7
100
AcDbLine
 10
426.000333
 20
90.445167
 30
0.0
 11
426.000333
 21
103.540278
 31
0.0
  0
LINE
  5
1a0
100
AcDbEntity
  8
new_box
 62
7
100
AcDbLine
 10
430.999194
 20
103.540278
 30
0.0
 11
426.000333
 21
103.540278
 31
0.0
  0
LINE
  5
1a1
100
AcDbEntity
  8
new_box
 62
7
100
AcDbLine
 10
430.999194
 20
103.540278
 30
0.0
 11
430.999194
 21
117.136333
 31
0.0
  0
LINE
  5
1a2
100
AcDbEntity
  8
new_box
 62
7
100
AcDbLine
 10
430.999194
 20
117.136333
 30
0.0
 11
426.000333
 21
117.136333
 31
0.0
  0
LINE
  5
1a3
100
AcDbEntity
  8
new_box
 62
7
100
AcDbLine
 10
426.000333
 20
117.136333
 30
0.0
 11
426.000333
 21
130.231444
 31
0.0
  0
LINE
  5
1a4
100
AcDbEntity
  8
new_box
 62
7
100
AcDbLine
 10
430.999194
 20
130.231444
 30
0.0
 11
426.000333
 21
130.231444
 31
0.0
  0
LINE
  5
1a5
100
AcDbEntity
  8
new_box
 62
7
100
AcDbLine
 10
430.999194
 20
130.231444
 30
0.0
 11
430.999194
 21
143.827500
 31
0.0
  0
LINE
  5
1a6
100
AcDbEntity
  8
new_box
 62
7
100
AcDbLine
 10
430.999194
 20
143.827500
 30
0.0
 11
426.000333
 21
143.827500
 31
0.0
  0
LINE
  5
1a7
100
AcDbEntity
  8
new_box
 62
7
100
AcDbLine
 10
426.000333
 20
143.827500
 30
0.0
 11
426.000333
 21
156.922611
 31
0.0
  0
LINE
  5
1a8
100
AcDbEntity
  8
new_box
 62
7
100
AcDbLine
 10
430.999194
 20
156.922611
 30
0.0
 11
426.000333
 21
156.922611
 31
0.0
  0
LINE
  5
1a9
100
AcDbEntity
  8
new_box
 62
7
100
AcDbLine
 10
430.999194
 20
156.922611
 30
0.0
 11
430.999194
 21
170.518667
 31
0.0
  0
LINE
  5
1aa
100
AcDbEntity
  8
new_box
 62
7
100
AcDbLine
 10
430.999194
 20
170.518667
 30
0.0
 11
426.000333
 21
170.518667
 31
0.0
  0
LINE
  5
1ab
100
AcDbEntity
  8
new_box
 62
7
100
AcDbLine
 10
426.000333
 20
170.518667
 30
0.0
 11
426.000333
 21
183.613778
 31
0.0
  0
LINE
  5
1ac
100
AcDbEntity
  8
new_box
 62
7
100
AcDbLine
 10
430.999194
 20
183.613778
 30
0.0
 11
426.000333
 21
183.613778
 31
0.0
  0
LINE
  5
1ad
100
AcDbEntity
  8
new_box
 62
7
100
AcDbLine
 10
430.999194
 20
183.613778
 30
0.0
 11
430.999194
 21
197.209833
 31
0.0
  0
LINE
  5
1ae
100
AcDbEntity
  8
new_box
 62
7
100
AcDbLine
 10
430.999194
 20
197.209833
 30
0.0
 11
426.000333
 21
197.209833
 31
0.0
  0
LINE
  5
1af
100
AcDbEntity
  8
new_box
 62
7
100
AcDbLine
 10
426.000333
 20
197.209833
 30
0.0
 11
426.000333
 21
210.304944
 31
0.0
  0
LINE
  5
1b0
100
AcDbEntity
  8
new_box
 62
7
100
AcDbLine
 10
430.999194
 20
210.304944
 30
0.0
 11
426.000333
 21
210.304944
 31
0.0
  0
LINE
  5
1b1
100
AcDbEntity
  8
new_box
 62
7
100
AcDbLine
 10
430.999194
 20
210.304944
 30
0.0
 11
430.999194
 21
223.897472
 31
0.0
  0
LINE
  5
1b2
100
AcDbEntity
  8
new_box
 62
7
100
AcDbLine
 10
430.999194
 20
223.897472
 30
0.0
 11
426.000333
 21
223.897472
 31
0.0
  0
LINE
  5
1b3
100
AcDbEntity
  8
new_box
 62
7
100
AcDbLine
 10
426.000333
 20
223.897472
 30
0.0
 11
426.000333
 21
236.992583
 31
0.0
  0
LINE
  5
1b4
100
AcDbEntity
  8
new_box
 62
7
100
AcDbLine
 10
430.999194
 20
236.992583
 30
0.0
 11
426.000333
 21
236.992583
 31
0.0
  0
LINE
  5
1b5
100
AcDbEntity
  8
new_box
 62
7
100
AcDbLine
 10
430.999194
 20
236.992583
 30
0.0
 11
430.999194
 21
250.588639
 31
0.0
  0
LINE
  5
1b6
100
AcDbEntity
  8
new_box
 62
7
100
AcDbLine
 10
430.999194
 20
250.588639
 30
0.0
 11
426.000333
 21
250.588639
 31
0.0
  0
LINE
  5
1b7
100
AcDbEntity
  8
new_box
 62
7
100
AcDbLine
 10
426.000333
 20
250.588639
 30
0.0
 11
426.000333
 21
263.683750
 31
0.0
  0
LINE
  5
1b8
100
AcDbEntity
  8
new_box
 62
7
100
AcDbLine
 10
430.999194
 20
263.683750
 30
0.0
 11
426.000333
 21
263.683750
 31
0.0
  0
LINE
  5
1b9
100
AcDbEntity
  8
new_box
 62
7
100
AcDbLine
 10
430.999194
 20
263.683750
 30
0.0
 11
430.999194
 21
277.279806
 31
0.0
  0
LINE
  5
1ba
100
AcDbEntity
  8
new_box
 62
7
100
AcDbLine
 10
430.999194
 20
277.279806
 30
0.0
 11
426.000333
 21
277.279806
 31
0.0
  0
LINE
  5
1bb
100
AcDbEntity
  8
new_box
 62
7
100
AcDbLine
 10
426.000333
 20
277.279806
 30
0.0
 11
426.000333
 21
290.498389
 31
0.0
  0
LINE
  5
1bc
100
AcDbEntity
  8
new_box
 62
7
100
AcDbLine
 10
12.762789
 20
371.637948
 30
0.0
 11
24.937150
 21
371.637948
 31
0.0
  0
LINE
  5
1bd
100
AcDbEntity
  8
new_box
 62
7
100
AcDbLine
 10
24.937150
 20
376.636809
 30
0.0
 11
24.937150
 21
371.637948
 31
0.0
  0
LINE
  5
1be
100
AcDbEntity
  8
new_box
 62
7
100
AcDbLine
 10
24.937150
 20
376.636809
 30
0.0
 11
36.737569
 21
376.636809
 31
0.0
  0
LINE
  5
1bf
100
AcDbEntity
  8
new_box
 62
7
100
AcDbLine
 10
36.737569
 20
376.636809
 30
0.0
 11
36.737569
 21
371.637948
 31
0.0
  0
LINE
  5
1c0
100
AcDbEntity
  8
new_box
 62
7
100
AcDbLine
 10
36.737569
 20
371.637948
 30
0.0
 11
49.035402
 21
371.637948
 31
0.0
  0
LINE
  5
1c1
100
AcDbEntity
  8
new_box
 62
7
100
AcDbLine
 10
49.035402
 20
376.636809
 30
0.0
 11
49.035402
 21
371.637948
 31
0.0
  0
LINE
  5
1c2
100
AcDbEntity
  8
new_box
 62
7
100
AcDbLine
 10
49.035402
 20
376.636809
 30
0.0
 11
60.835819
 21
376.636809
 31
0.0
  0
LINE
  5
1c3
100
AcDbEntity
  8
new_box
 62
7
100
AcDbLine
 10
60.835819
 20
376.636809
 30
0.0
 11
60.835819
 21
371.637948
 31
0.0
  0
LINE
  5
1c4
100
AcDbEntity
  8
new_box
 62
7
100
AcDbLine
 10
60.835819
 20
371.637948
 30
0.0
 11
68.011319
 21
371.637948
 31
0.0
  0
LINE
  5
1c5
100
AcDbEntity
  8
new_box
 62
7
100
AcDbLine
 10
12.762789
 20
651.888142
 30
0.0
 11
24.937150
 21
651.888142
 31
0.0
  0
LINE
  5
1c6
100
AcDbEntity
  8
new_box
 62
7
100
AcDbLine
 10
24.937150
 20
651.888142
 30
0.0
 11
24.937150
 21
646.889281
 31
0.0
  0
LINE
  5
1c7
100
AcDbEntity
  8
new_box
 62
7
100
AcDbLine
 10
24.937150
 20
646.889281
 30
0.0
 11
36.737569
 21
646.889281
 31
0.0
  0
LINE
  5
1c8
100
AcDbEntity
  8
new_box
 62
7
100
AcDbLine
 10
36.737569
 20
651.888142
 30
0.0
 11
36.737569
 21
646.889281
 31
0.0
  0
LINE
  5
1c9
100
AcDbEntity
  8
new_box
 62
7
100
AcDbLine
 10
36.737569
 20
651.888142
 30
0.0
 11
49.035402
 21
651.888142
 31
0.0
  0
LINE
  5
1ca
100
AcDbEntity
  8
new_box
 62
7
100
AcDbLine
 10
49.035402
 20
651.888142
 30
0.0
 11
49.035402
 21
646.889281
 31
0.0
  0
LINE
  5
1cb
100
AcDbEntity
  8
new_box
 62
7
100
AcDbLine
 10
49.035402
 20
646.889281
 30
0.0
 11
60.835819
 21
646.889281
 31
0.0
  0
LINE
  5
1cc
100
AcDbEntity
  8
new_box
 62
7
100
AcDbLine
 10
60.835819
 20
651.888142
 30
0.0
 11
60.835819
 21
646.889281
 31
0.0
  0
LINE
  5
1cd
100
AcDbEntity
  8
new_box
 62
7
100
AcDbLine
 10
60.835819
 20
651.888142
 30
0.0
 11
68.011319
 21
651.888142
 31
0.0
  0
LINE
  5
1ce
100
AcDbEntity
  8
new_box
 62
7
100
AcDbLine
 10
12.762789
 20
371.637948
 30
0.0
 11
12.762789
 21
385.107004
 31
0.0
  0
LINE
  5
1cf
100
AcDbEntity
  8
new_box
 62
7
100
AcDbLine
 10
17.761650
 20
385.107004
 30
0.0
 11
12.762789
 21
385.107004
 31
0.0
  0
LINE
  5
1d0
100
AcDbEntity
  8
new_box
 62
7
100
AcDbLine
 10
17.761650
 20
385.107004
 30
0.0
 11
17.761650
 21
398.202115
 31
0.0
  0
LINE
  5
1d1
100
AcDbEntity
  8
new_box
 62
7
100
AcDbLine
 10
17.761650
 20
398.202115
 30
0.0
 11
12.762789
 21
398.202115
 31
0.0
  0
LINE
  5
1d2
100
AcDbEntity
  8
new_box
 62
7
100
AcDbLine
 10
12.762789
 20
398.202115
 30
0.0
 11
12.762789
 21
411.798170
 31
0.0
  0
LINE
  5
1d3
100
AcDbEntity
  8
new_box
 62
7
100
AcDbLine
 10
17.761650
 20
411.798170
 30
0.0
 11
12.762789
 21
411.798170
 31
0.0
  0
LINE
  5
1d4
100
AcDbEntity
  8
new_box
 62
7
100
AcDbLine
 10
17.761650
 20
411.798170
 30
0.0
 11
17.761650
 21
424.893281
 31
0.0
  0
LINE
  5
1d5
100
AcDbEntity
  8
new_box
 62
7
100
AcDbLine
 10
17.761650
 20
424.893281
 30
0.0
 11
12.762789
 21
424.893281
 31
0.0
  0
LINE
  5
1d6
100
AcDbEntity
  8
new_box
 62
7
100
AcDbLine
 10
12.762789
 20
424.893281
 30
0.0
 11
12.762789
 21
438.489337
 31
0.0
  0
LINE
  5
1d7
100
AcDbEntity
  8
new_box
 62
7
100
AcDbLine
 10
17.761650
 20
438.489337
 30
0.0
 11
12.762789
 21
438.489337
 31
0.0
  0
LINE
  5
1d8
100
AcDbEntity
  8
new_box
 62
7
100
AcDbLine
 10
17.761650
 20
438.489337
 30
0.0
 11
17.761650
 21
451.584448
 31
0.0
  0
LINE
  5
1d9
100
AcDbEntity
  8
new_box
 62
7
100
AcDbLine
 10
17.761650
 20
451.584448
 30
0.0
 11
12.762789
 21
451.584448
 31
0.0
  0
LINE
  5
1da
100
AcDbEntity
  8
new_box
 62
7
100
AcDbLine
 10
12.762789
 20
451.584448
 30
0.0
 11
12.762789
 21
465.180504
 31
0.0
  0
LINE
  5
1db
100
AcDbEntity
  8
new_box
 62
7
100
AcDbLine
 10
17.761650
 20
465.180504
 30
0.0
 11
12.762789
 21
465.180504
 31
0.0
  0
LINE
  5
1dc
100
AcDbEntity
  8
new_box
 62
7
100
AcDbLine
 10
17.761650
 20
465.180504
 30
0.0
 11
17.761650
 21
478.275615
 31
0.0
  0
LINE
  5
1dd
100
AcDbEntity
  8
new_box
 62
7
100
AcDbLine
 10
17.761650
 20
478.275615
 30
0.0
 11
12.762789
 21
478.275615
 31
0.0
  0
LINE
  5
1de
100
AcDbEntity
  8
new_box
 62
7
100
AcDbLine
 10
12.762789
 20
478.275615
 30
0.0
 11
12.762789
 21
491.871670
 31
0.0
  0
LINE
  5
1df
100
AcDbEntity
  8
new_box
 62
7
100
AcDbLine
 10
17.761650
 20
491.871670
 30
0.0
 11
12.762789
 21
491.871670
 31
0.0
  0
LINE
  5
1e0
100
AcDbEntity
  8
new_box
 62
7
100
AcDbLine
 10
17.761650
 20
491.871670
 30
0.0
 11
17.761650
 21
504.966781
 31
0.0
  0
LINE
  5
1e1
100
AcDbEntity
  8
new_box
 62
7
100
AcDbLine
 10
17.761650
 20
504.966781
 30
0.0
 11
12.762789
 21
504.966781
 31
0.0
  0
LINE
  5
1e2
100
AcDbEntity
  8
new_box
 62
7
100
AcDbLine
 10
12.762789
 20
504.966781
 30
0.0
 11
12.762789
 21
518.559309
 31
0.0
  0
LINE
  5
1e3
100
AcDbEntity
  8
new_box
 62
7
100
AcDbLine
 10
17.761650
 20
518.559309
 30
0.0
 11
12.762789
 21
518.559309
 31
0.0
  0
LINE
  5
1e4
100
AcDbEntity
  8
new_box
 62
7
100
AcDbLine
 10
17.761650
 20
518.559309
 30
0.0
 11
17.761650
 21
531.654420
 31
0.0
  0
LINE
  5
1e5
100
AcDbEntity
  8
new_box
 62
7
100
AcDbLine
 10
17.761650
 20
531.654420
 30
0.0
 11
12.762789
 21
531.654420
 31
0.0
  0
LINE
  5
1e6
100
AcDbEntity
  8
new_box
 62
7
100
AcDbLine
 10
12.762789
 20
531.654420
 30
0.0
 11
12.762789
 21
545.250476
 31
0.0
  0
LINE
  5
1e7
100
AcDbEntity
  8
new_box
 62
7
100
AcDbLine
 10
17.761650
 20
545.250476
 30
0.0
 11
12.762789
 21
545.250476
 31
0.0
  0
LINE
  5
1e8
100
AcDbEntity
  8
new_box
 62
7
100
AcDbLine
 10
17.761650
 20
545.250476
 30
0.0
 11
17.761650
 21
558.345587
 31
0.0
  0
LINE
  5
1e9
100
AcDbEntity
  8
new_box
 62
7
100
AcDbLine
 10
17.761650
 20
558.345587
 30
0.0
 11
12.762789
 21
558.345587
 31
0.0
  0
LINE
  5
1ea
100
AcDbEntity
  8
new_box
 62
7
100
AcDbLine
 10
12.762789
 20
558.345587
 30
0.0
 11
12.762789
 21
571.941642
 31
0.0
  0
LINE
  5
1eb
100
AcDbEntity
  8
new_box
 62
7
100
AcDbLine
 10
17.761650
 20
571.941642
 30
0.0
 11
12.762789
 21
571.941642
 31
0.0
  0
LINE
  5
1ec
100
AcDbEntity
  8
new_box
 62
7
100
AcDbLine
 10
17.761650
 20
571.941642
 30
0.0
 11
17.761650
 21
585.036754
 31
0.0
  0
LINE
  5
1ed
100
AcDbEntity
  8
new_box
 62
7
100
AcDbLine
 10
17.761650
 20
585.036754
 30
0.0
 11
12.762789
 21
585.036754
 31
0.0
  0
LINE
  5
1ee
100
AcDbEntity
  8
new_box
 62
7
100
AcDbLine
 10
12.762789
 20
585.036754
 30
0.0
 11
12.762789
 21
598.632809
 31
0.0
  0
LINE
  5
1ef
100
AcDbEntity
  8
new_box
 62
7
100
AcDbLine
 10
17.761650
 20
598.632809
 30
0.0
 11
12.762789
 21
598.632809
 31
0.0
  0
LINE
  5
1f0
100
AcDbEntity
  8
new_box
 62
7
100
AcDbLine
 10
17.761650
 20
598.632809
 30
0.0
 11
17.761650
 21
611.727920
 31
0.0
  0
LINE
  5
1f1
100
AcDbEntity
  8
new_box
 62
7
100
AcDbLine
 10
17.761650
 20
611.727920
 30
0.0
 11
12.762789
 21
611.727920
 31
0.0
  0
LINE
  5
1f2
100
AcDbEntity
  8
new_box
 62
7
100
AcDbLine
 10
12.762789
 20
611.727920
 30
0.0
 11
12.762789
 21
625.323976
 31
0.0
  0
LINE
  5
1f3
100
AcDbEntity
  8
new_box
 62
7
100
AcDbLine
 10
17.761650
 20
625.323976
 30
0.0
 11
12.762789
 21
625.323976
 31
0.0
  0
LINE
  5
1f4
100
AcDbEntity
  8
new_box
 62
7
100
AcDbLine
 10
17.761650
 20
625.323976
 30
0.0
 11
17.761650
 21
638.419087
 31
0.0
  0
LINE
  5
1f5
100
AcDbEntity
  8
new_box
 62
7
100
AcDbLine
 10
17.761650
 20
638.419087
 30
0.0
 11
12.762789
 21
638.419087
 31
0.0
  0
LINE
  5
1f6
100
AcDbEntity
  8
new_box
 62
7
100
AcDbLine
 10
12.762789
 20
638.419087
 30
0.0
 11
12.762789
 21
651.888142
 31
0.0
  0
LINE
  5
1f7
100
AcDbEntity
  8
new_box
 62
7
100
AcDbLine
 10
68.011319
 20
371.637948
 30
0.0
 11
68.011319
 21
384.856531
 31
0.0
  0
LINE
  5
1f8
100
AcDbEntity
  8
new_box
 62
7
100
AcDbLine
 10
73.010180
 20
384.856531
 30
0.0
 11
68.011319
 21
384.856531
 31
0.0
  0
LINE
  5
1f9
100
AcDbEntity
  8
new_box
 62
7
100
AcDbLine
 10
73.010180
 20
384.856531
 30
0.0
 11
73.010180
 21
398.452587
 31
0.0
  0
LINE
  5
1fa
100
AcDbEntity
  8
new_box
 62
7
100
AcDbLine
 10
73.010180
 20
398.452587
 30
0.0
 11
68.011319
 21
398.452587
 31
0.0
  0
LINE
  5
1fb
100
AcDbEntity
  8
new_box
 62
7
100
AcDbLine
 10
73.010180
 20
518.308837
 30
0.0
 11
68.011319
 21
518.308837
 31
0.0
  0
LINE
  5
1fc
100
AcDbEntity
  8
new_box
 62
7
100
AcDbLine
 10
73.010180
 20
518.308837
 30
0.0
 11
73.010180
 21
531.904892
 31
0.0
  0
LINE
  5
1fd
100
AcDbEntity
  8
new_box
 62
7
100
AcDbLine
 10
73.010180
 20
531.904892
 30
0.0
 11
68.011319
 21
531.904892
 31
0.0
  0
LINE
  5
1fe
100
AcDbEntity
  8
new_box
 62
7
100
AcDbLine
 10
68.011319
 20
531.904892
 30
0.0
 11
68.011319
 21
545.000004
 31
0.0
  0
LINE
  5
1ff
100
AcDbEntity
  8
new_box
 62
7
100
AcDbLine
 10
73.010180
 20
545.000004
 30
0.0
 11
68.011319
 21
545.000004
 31
0.0
  0
LINE
  5
200
100
AcDbEntity
  8
new_box
 62
7
100
AcDbLine
 10
73.010180
 20
545.000004
 30
0.0
 11
73.010180
 21
558.596059
 31
0.0
  0
LINE
  5
201
100
AcDbEntity
  8
new_box
 62
7
100
AcDbLine
 10
73.010180
 20
558.596059
 30
0.0
 11
68.011319
 21
558.596059
 31
0.0
  0
LINE
  5
202
100
AcDbEntity
  8
new_box
 62
7
100
AcDbLine
 10
68.011319
 20
558.596059
 30
0.0
 11
68.011319
 21
571.691170
 31
0.0
  0
LINE
  5
203
100
AcDbEntity
  8
new_box
 62
7
100
AcDbLine
 10
73.010180
 20
571.691170
 30
0.0
 11
68.011319
 21
571.691170
 31
0.0
  0
LINE
  5
204
100
AcDbEntity
  8
new_box
 62
7
100
AcDbLine
 10
73.010180
 20
571.691170
 30
0.0
 11
73.010180
 21
585.287226
 31
0.0
  0
LINE
  5
205
100
AcDbEntity
  8
new_box
 62
7
100
AcDbLine
 10
73.010180
 20
585.287226
 30
0.0
 11
68.011319
 21
585.287226
 31
0.0
  0
LINE
  5
206
100
AcDbEntity
  8
new_box
 62
7
100
AcDbLine
 10
68.011319
 20
585.287226
 30
0.0
 11
68.011319
 21
598.382337
 31
0.0
  0
LINE
  5
207
100
AcDbEntity
  8
new_box
 62
7
100
AcDbLine
 10
73.010180
 20
598.382337
 30
0.0
 11
68.011319
 21
598.382337
 31
0.0
  0
LINE
  5
208
100
AcDbEntity
  8
new_box
 62
7
100
AcDbLine
 10
73.010180
 20
598.382337
 30
0.0
 11
73.010180
 21
611.978392
 31
0.0
  0
LINE
  5
209
100
AcDbEntity
  8
new_box
 62
7
100
AcDbLine
 10
73.010180
 20
611.978392
 30
0.0
 11
68.011319
 21
611.978392
 31
0.0
  0
LINE
  5
20a
100
AcDbEntity
  8
new_box
 62
7
100
AcDbLine
 10
68.011319
 20
611.978392
 30
0.0
 11
68.011319
 21
625.073504
 31
0.0
  0
LINE
  5
20b
100
AcDbEntity
  8
new_box
 62
7
100
AcDbLine
 10
73.010180
 20
625.073504
 30
0.0
 11
68.011319
 21
625.073504
 31
0.0
  0
LINE
  5
20c
100
AcDbEntity
  8
new_box
 62
7
100
AcDbLine
 10
73.010180
 20
625.073504
 30
0.0
 11
73.010180
 21
638.666031
 31
0.0
  0
LINE
  5
20d
100
AcDbEntity
  8
new_box
 62
7
100
AcDbLine
 10
73.010180
 20
638.666031
 30
0.0
 11
68.011319
 21
638.666031
 31
0.0
  0
LINE
  5
20e
100
AcDbEntity
  8
new_box
 62
7
100
AcDbLine
 10
68.011319
 20
638.666031
 30
0.0
 11
68.011319
 21
651.888142
 31
0.0
  0
LINE
  5
20f
100
AcDbEntity
  8
new_box
 62
7
100
AcDbLine
 10
85.749694
 20
305.748972
 30
0.0
 11
93.595472
 21
305.748972
 31
0.0
  0
LINE
  5
210
100
AcDbEntity
  8
new_box
 62
7
100
AcDbLine
 10
93.595472
 20
305.748972
 30
0.0
 11
93.595472
 21
300.750111
 31
0.0
  0
LINE
  5
211
100
AcDbEntity
  8
new_box
 62
7
100
AcDbLine
 10
93.595472
 20
300.750111
 30
0.0
 11
106.821111
 21
300.750111
 31
0.0
  0
LINE
  5
212
100
AcDbEntity
  8
new_box
 62
7
100
AcDbLine
 10
106.821111
 20
305.748972
 30
0.0
 11
106.821111
 21
300.750111
 31
0.0
  0
LINE
  5
213
100
AcDbEntity
  8
new_box
 62
7
100
AcDbLine
 10
106.821111
 20
305.748972
 30
0.0
 11
119.542278
 21
305.748972
 31
0.0
  0
LINE
  5
214
100
AcDbEntity
  8
new_box
 62
7
100
AcDbLine
 10
119.542278
 20
305.748972
 30
0.0
 11
119.542278
 21
300.750111
 31
0.0
  0
LINE
  5
215
100
AcDbEntity
  8
new_box
 62
7
100
AcDbLine
 10
119.542278
 20
300.750111
 30
0.0
 11
132.764389
 21
300.750111
 31
0.0
  0
LINE
  5
216
100
AcDbEntity
  8
new_box
 62
7
100
AcDbLine
 10
132.764389
 20
305.748972
 30
0.0
 11
132.764389
 21
300.750111
 31
0.0
  0
LINE
  5
217
100
AcDbEntity
  8
new_box
 62
7
100
AcDbLine
 10
132.764389
 20
305.748972
 30
0.0
 11
145.485556
 21
305.748972
 31
0.0
  0
LINE
  5
218
100
AcDbEntity
  8
new_box
 62
7
100
AcDbLine
 10
145.485556
 20
305.748972
 30
0.0
 11
145.485556
 21
300.750111
 31
0.0
  0
LINE
  5
219
100
AcDbEntity
  8
new_box
 62
7
100
AcDbLine
 10
145.485556
 20
300.750111
 30
0.0
 11
158.707667
 21
300.750111
 31
0.0
  0
LINE
  5
21a
100
AcDbEntity
  8
new_box
 62
7
100
AcDbLine
 10
158.707667
 20
305.748972
 30
0.0
 11
158.707667
 21
300.750111
 31
0.0
  0
LINE
  5
21b
100
AcDbEntity
  8
new_box
 62
7
100
AcDbLine
 10
158.707667
 20
305.748972
 30
0.0
 11
171.428833
 21
305.748972
 31
0.0
  0
LINE
  5
21c
100
AcDbEntity
  8
new_box
 62
7
100
AcDbLine
 10
171.428833
 20
305.748972
 30
0.0
 11
171.428833
 21
300.750111
 31
0.0
  0
LINE
  5
21d
100
AcDbEntity
  8
new_box
 62
7
100
AcDbLine
 10
171.428833
 20
300.750111
 30
0.0
 11
184.654472
 21
300.750111
 31
0.0
  0
LINE
  5
21e
100
AcDbEntity
  8
new_box
 62
7
100
AcDbLine
 10
184.654472
 20
305.748972
 30
0.0
 11
184.654472
 21
300.750111
 31
0.0
  0
LINE
  5
21f
100
AcDbEntity
  8
new_box
 62
7
100
AcDbLine
 10
184.654472
 20
305.748972
 30
0.0
 11
197.375639
 21
305.748972
 31
0.0
  0
LINE
  5
220
100
AcDbEntity
  8
new_box
 62
7
100
AcDbLine
 10
197.375639
 20
305.748972
 30
0.0
 11
197.375639
 21
300.750111
 31
0.0
  0
LINE
  5
221
100
AcDbEntity
  8
new_box
 62
7
100
AcDbLine
 10
197.375639
 20
300.750111
 30
0.0
 11
210.597750
 21
300.750111
 31
0.0
  0
LINE
  5
222
100
AcDbEntity
  8
new_box
 62
7
100
AcDbLine
 10
210.597750
 20
305.748972
 30
0.0
 11
210.597750
 21
300.750111
 31
0.0
  0
LINE
  5
223
100
AcDbEntity
  8
new_box
 62
7
100
AcDbLine
 10
210.597750
 20
305.748972
 30
0.0
 11
223.318917
 21
305.748972
 31
0.0
  0
LINE
  5
224
100
AcDbEntity
  8
new_box
 62
7
100
AcDbLine
 10
223.318917
 20
305.748972
 30
0.0
 11
223.318917
 21
300.750111
 31
0.0
  0
LINE
  5
225
100
AcDbEntity
  8
new_box
 62
7
100
AcDbLine
 10
223.318917
 20
300.750111
 30
0.0
 11
236.541028
 21
300.750111
 31
0.0
  0
LINE
  5
226
100
AcDbEntity
  8
new_box
 62
7
100
AcDbLine
 10
236.541028
 20
305.748972
 30
0.0
 11
236.541028
 21
300.750111
 31
0.0
  0
LINE
  5
227
100
AcDbEntity
  8
new_box
 62
7
100
AcDbLine
 10
236.541028
 20
305.748972
 30
0.0
 11
249.262194
 21
305.748972
 31
0.0
  0
LINE
  5
228
100
AcDbEntity
  8
new_box
 62
7
100
AcDbLine
 10
249.262194
 20
305.748972
 30
0.0
 11
249.262194
 21
300.750111
 31
0.0
  0
LINE
  5
229
100
AcDbEntity
  8
new_box
 62
7
100
AcDbLine
 10
249.262194
 20
300.750111
 30
0.0
 11
262.487833
 21
300.750111
 31
0.0
  0
LINE
  5
22a
100
AcDbEntity
  8
new_box
 62
7
100
AcDbLine
 10
262.487833
 20
305.748972
 30
0.0
 11
262.487833
 21
300.750111
 31
0.0
  0
LINE
  5
22b
100
AcDbEntity
  8
new_box
 62
7
100
AcDbLine
 10
262.487833
 20
305.748972
 30
0.0
 11
275.209000
 21
305.748972
 31
0.0
  0
LINE
  5
22c
100
AcDbEntity
  8
new_box
 62
7
100
AcDbLine
 10
275.209000
 20
305.748972
 30
0.0
 11
275.209000
 21
300.750111
 31
0.0
  0
LINE
  5
22d
100
AcDbEntity
  8
new_box
 62
7
100
AcDbLine
 10
275.209000
 20
300.750111
 30
0.0
 11
288.431111
 21
300.750111
 31
0.0
  0
LINE
  5
22e
100
AcDbEntity
  8
new_box
 62
7
100
AcDbLine
 10
288.431111
 20
305.748972
 30
0.0
 11
288.431111
 21
300.750111
 31
0.0
  0
LINE
  5
22f
100
AcDbEntity
  8
new_box
 62
7
100
AcDbLine
 10
288.431111
 20
305.748972
 30
0.0
 11
301.152278
 21
305.748972
 31
0.0
  0
LINE
  5
230
100
AcDbEntity
  8
new_box
 62
7
100
AcDbLine
 10
301.152278
 20
305.748972
 30
0.0
 11
301.152278
 21
300.750111
 31
0.0
  0
LINE
  5
231
100
AcDbEntity
  8
new_box
 62
7
100
AcDbLine
 10
301.152278
 20
300.750111
 30
0.0
 11
314.374389
 21
300.750111
 31
0.0
  0
LINE
  5
232
100
AcDbEntity
  8
new_box
 62
7
100
AcDbLine
 10
314.374389
 20
305.748972
 30
0.0
 11
314.374389
 21
300.750111
 31
0.0
  0
LINE
  5
233
100
AcDbEntity
  8
new_box
 62
7
100
AcDbLine
 10
314.374389
 20
305.748972
 30
0.0
 11
327.099083
 21
305.748972
 31
0.0
  0
LINE
  5
234
100
AcDbEntity
  8
new_box
 62
7
100
AcDbLine
 10
327.099083
 20
305.748972
 30
0.0
 11
327.099083
 21
300.750111
 31
0.0
  0
LINE
  5
235
100
AcDbEntity
  8
new_box
 62
7
100
AcDbLine
 10
327.099083
 20
300.750111
 30
0.0
 11
340.321194
 21
300.750111
 31
0.0
  0
LINE
  5
236
100
AcDbEntity
  8
new_box
 62
7
100
AcDbLine
 10
340.321194
 20
305.748972
 30
0.0
 11
340.321194
 21
300.750111
 31
0.0
  0
LINE
  5
237
100
AcDbEntity
  8
new_box
 62
7
100
AcDbLine
 10
340.321194
 20
305.748972
 30
0.0
 11
353.042361
 21
305.748972
 31
0.0
  0
LINE
  5
238
100
AcDbEntity
  8
new_box
 62
7
100
AcDbLine
 10
353.042361
 20
305.748972
 30
0.0
 11
353.042361
 21
300.750111
 31
0.0
  0
LINE
  5
239
100
AcDbEntity
  8
new_box
 62
7
100
AcDbLine
 10
353.042361
 20
300.750111
 30
0.0
 11
366.264472
 21
300.750111
 31
0.0
  0
LINE
  5
23a
100
AcDbEntity
  8
new_box
 62
7
100
AcDbLine
 10
366.264472
 20
305.748972
 30
0.0
 11
366.264472
 21
300.750111
 31
0.0
  0
LINE
  5
23b
100
AcDbEntity
  8
new_box
 62
7
100
AcDbLine
 10
366.264472
 20
305.748972
 30
0.0
 11
378.985639
 21
305.748972
 31
0.0
  0
LINE
  5
23c
100
AcDbEntity
  8
new_box
 62
7
100
AcDbLine
 10
378.985639
 20
305.748972
 30
0.0
 11
378.985639
 21
300.750111
 31
0.0
  0
LINE
  5
23d
100
AcDbEntity
  8
new_box
 62
7
100
AcDbLine
 10
378.985639
 20
300.750111
 30
0.0
 11
392.207750
 21
300.750111
 31
0.0
  0
LINE
  5
23e
100
AcDbEntity
  8
new_box
 62
7
100
AcDbLine
 10
392.207750
 20
305.748972
 30
0.0
 11
392.207750
 21
300.750111
 31
0.0
  0
LINE
  5
23f
100
AcDbEntity
  8
new_box
 62
7
100
AcDbLine
 10
392.207750
 20
305.748972
 30
0.0
 11
404.932444
 21
305.748972
 31
0.0
  0
LINE
  5
240
100
AcDbEntity
  8
new_box
 62
7
100
AcDbLine
 10
404.932444
 20
305.748972
 30
0.0
 11
404.932444
 21
300.750111
 31
0.0
  0
LINE
  5
241
100
AcDbEntity
  8
new_box
 62
7
100
AcDbLine
 10
404.932444
 20
300.750111
 30
0.0
 11
418.154556
 21
300.750111
 31
0.0
  0
LINE
  5
242
100
AcDbEntity
  8
new_box
 62
7
100
AcDbLine
 10
418.154556
 20
305.748972
 30
0.0
 11
418.154556
 21
300.750111
 31
0.0
  0
LINE
  5
243
100
AcDbEntity
  8
new_box
 62
7
100
AcDbLine
 10
418.154556
 20
305.748972
 30
0.0
 11
426.000333
 21
305.748972
 31
0.0
  0
LINE
  5
244
100
AcDbEntity
  8
new_box
 62
7
100
AcDbLine
 10
85.749694
 20
355.998639
 30
0.0
 11
93.595472
 21
355.998639
 31
0.0
  0
LINE
  5
245
100
AcDbEntity
  8
new_box
 62
7
100
AcDbLine
 10
93.595472
 20
361.001028
 30
0.0
 11
93.595472
 21
355.998639
 31
0.0
  0
LINE
  5
246
100
AcDbEntity
  8
new_box
 62
7
100
AcDbLine
 10
93.595472
 20
361.001028
 30
0.0
 11
106.821111
 21
361.001028
 31
0.0
  0
LINE
  5
247
100
AcDbEntity
  8
new_box
 62
7
100
AcDbLine
 10
106.821111
 20
361.001028
 30
0.0
 11
106.821111
 21
355.998639
 31
0.0
  0
LINE
  5
248
100
AcDbEntity
  8
new_box
 62
7
100
AcDbLine
 10
106.821111
 20
355.998639
 30
0.0
 11
119.542278
 21
355.998639
 31
0.0
  0
LINE
  5
249
100
AcDbEntity
  8
new_box
 62
7
100
AcDbLine
 10
119.542278
 20
361.001028
 30
0.0
 11
119.542278
 21
355.998639
 31
0.0
  0
LINE
  5
24a
100
AcDbEntity
  8
new_box
 62
7
100
AcDbLine
 10
119.542278
 20
361.001028
 30
0.0
 11
132.764389
 21
361.001028
 31
0.0
  0
LINE
  5
24b
100
AcDbEntity
  8
new_box
 62
7
100
AcDbLine
 10
132.764389
 20
361.001028
 30
0.0
 11
132.764389
 21
355.998639
 31
0.0
  0
LINE
  5
24c
100
AcDbEntity
  8
new_box
 62
7
100
AcDbLine
 10
132.764389
 20
355.998639
 30
0.0
 11
145.485556
 21
355.998639
 31
0.0
  0
LINE
  5
24d
100
AcDbEntity
  8
new_box
 62
7
100
AcDbLine
 10
145.485556
 20
361.001028
 30
0.0
 11
145.485556
 21
355.998639
 31
0.0
  0
LINE
  5
24e
100
AcDbEntity
  8
new_box
 62
7
100
AcDbLine
 10
145.485556
 20
361.001028
 30
0.0
 11
158.707667
 21
361.001028
 31
0.0
  0
LINE
  5
24f
100
AcDbEntity
  8
new_box
 62
7
100
AcDbLine
 10
158.707667
 20
361.001028
 30
0.0
 11
158.707667
 21
355.998639
 31
0.0
  0
LINE
  5
250
100
AcDbEntity
  8
new_box
 62
7
100
AcDbLine
 10
158.707667
 20
355.998639
 30
0.0
 11
171.428833
 21
355.998639
 31
0.0
  0
LINE
  5
251
100
AcDbEntity
  8
new_box
 62
7
100
AcDbLine
 10
171.428833
 20
361.001028
 30
0.0
 11
171.428833
 21
355.998639
 31
0.0
  0
LINE
  5
252
100
AcDbEntity
  8
new_box
 62
7
100
AcDbLine
 10
171.428833
 20
361.001028
 30
0.0
 11
184.654472
 21
361.001028
 31
0.0
  0
LINE
  5
253
100
AcDbEntity
  8
new_box
 62
7
100
AcDbLine
 10
184.654472
 20
361.001028
 30
0.0
 11
184.654472
 21
355.998639
 31
0.0
  0
LINE
  5
254
100
AcDbEntity
  8
new_box
 62
7
100
AcDbLine
 10
184.654472
 20
355.998639
 30
0.0
 11
197.375639
 21
355.998639
 31
0.0
  0
LINE
  5
255
100
AcDbEntity
  8
new_box
 62
7
100
AcDbLine
 10
197.375639
 20
361.001028
 30
0.0
 11
197.375639
 21
355.998639
 31
0.0
  0
LINE
  5
256
100
AcDbEntity
  8
new_box
 62
7
100
AcDbLine
 10
197.375639
 20
361.001028
 30
0.0
 11
210.597750
 21
361.001028
 31
0.0
  0
LINE
  5
257
100
AcDbEntity
  8
new_box
 62
7
100
AcDbLine
 10
210.597750
 20
361.001028
 30
0.0
 11
210.597750
 21
355.998639
 31
0.0
  0
LINE
  5
258
100
AcDbEntity
  8
new_box
 62
7
100
AcDbLine
 10
210.597750
 20
355.998639
 30
0.0
 11
223.318917
 21
355.998639
 31
0.0
  0
LINE
  5
259
100
AcDbEntity
  8
new_box
 62
7
100
AcDbLine
 10
223.318917
 20
361.001028
 30
0.0
 11
223.318917
 21
355.998639
 31
0.0
  0
LINE
  5
25a
100
AcDbEntity
  8
new_box
 62
7
100
AcDbLine
 10
223.318917
 20
361.001028
 30
0.0
 11
236.541028
 21
361.001028
 31
0.0
  0
LINE
  5
25b
100
AcDbEntity
  8
new_box
 62
7
100
AcDbLine
 10
236.541028
 20
361.001028
 30
0.0
 11
236.541028
 21
355.998639
 31
0.0
  0
LINE
  5
25c
100
AcDbEntity
  8
new_box
 62
7
100
AcDbLine
 10
236.541028
 20
355.998639
 30
0.0
 11
249.262194
 21
355.998639
 31
0.0
  0
LINE
  5
25d
100
AcDbEntity
  8
new_box
 62
7
100
AcDbLine
 10
249.262194
 20
361.001028
 30
0.0
 11
249.262194
 21
355.998639
 31
0.0
  0
LINE
  5
25e
100
AcDbEntity
  8
new_box
 62
7
100
AcDbLine
 10
249.262194
 20
361.001028
 30
0.0
 11
262.487833
 21
361.001028
 31
0.0
  0
LINE
  5
25f
100
AcDbEntity
  8
new_box
 62
7
100
AcDbLine
 10
262.487833
 20
361.001028
 30
0.0
 11
262.487833
 21
355.998639
 31
0.0
  0
LINE
  5
260
100
AcDbEntity
  8
new_box
 62
7
100
AcDbLine
 10
262.487833
 20
355.998639
 30
0.0
 11
275.209000
 21
355.998639
 31
0.0
  0
LINE
  5
261
100
AcDbEntity
  8
new_box
 62
7
100
AcDbLine
 10
275.209000
 20
361.001028
 30
0.0
 11
275.209000
 21
355.998639
 31
0.0
  0
LINE
  5
262
100
AcDbEntity
  8
new_box
 62
7
100
AcDbLine
 10
275.209000
 20
361.001028
 30
0.0
 11
288.431111
 21
361.001028
 31
0.0
  0
LINE
  5
263
100
AcDbEntity
  8
new_box
 62
7
100
AcDbLine
 10
288.431111
 20
361.001028
 30
0.0
 11
288.431111
 21
355.998639
 31
0.0
  0
LINE
  5
264
100
AcDbEntity
  8
new_box
 62
7
100
AcDbLine
 10
288.431111
 20
355.998639
 30
0.0
 11
301.152278
 21
355.998639
 31
0.0
  0
LINE
  5
265
100
AcDbEntity
  8
new_box
 62
7
100
AcDbLine
 10
301.152278
 20
361.001028
 30
0.0
 11
301.152278
 21
355.998639
 31
0.0
  0
LINE
  5
266
100
AcDbEntity
  8
new_box
 62
7
100
AcDbLine
 10
301.152278
 20
361.001028
 30
0.0
 11
314.374389
 21
361.001028
 31
0.0
  0
LINE
  5
267
100
AcDbEntity
  8
new_box
 62
7
100
AcDbLine
 10
314.374389
 20
361.001028
 30
0.0
 11
314.374389
 21
355.998639
 31
0.0
  0
LINE
  5
268
100
AcDbEntity
  8
new_box
 62
7
100
AcDbLine
 10
314.374389
 20
355.998639
 30
0.0
 11
327.099083
 21
355.998639
 31
0.0
  0
LINE
  5
269
100
AcDbEntity
  8
new_box
 62
7
100
AcDbLine
 10
327.099083
 20
361.001028
 30
0.0
 11
327.099083
 21
355.998639
 31
0.0
  0
LINE
  5
26a
100
AcDbEntity
  8
new_box
 62
7
100
AcDbLine
 10
327.099083
 20
361.001028
 30
0.0
 11
340.321194
 21
361.001028
 31
0.0
  0
LINE
  5
26b
100
AcDbEntity
  8
new_box
 62
7
100
AcDbLine
 10
340.321194
 20
361.001028
 30
0.0
 11
340.321194
 21
355.998639
 31
0.0
  0
LINE
  5
26c
100
AcDbEntity
  8
new_box
 62
7
100
AcDbLine
 10
340.321194
 20
355.998639
 30
0.0
 11
353.042361
 21
355.998639
 31
0.0
  0
LINE
  5
26d
100
AcDbEntity
  8
new_box
 62
7
100
AcDbLine
 10
353.042361
 20
361.001028
 30
0.0
 11
353.042361
 21
355.998639
 31
0.0
  0
LINE
  5
26e
100
AcDbEntity
  8
new_box
 62
7
100
AcDbLine
 10
353.042361
 20
361.001028
 30
0.0
 11
366.264472
 21
361.001028
 31
0.0
  0
LINE
  5
26f
100
AcDbEntity
  8
new_box
 62
7
100
AcDbLine
 10
366.264472
 20
361.001028
 30
0.0
 11
366.264472
 21
355.998639
 31
0.0
  0
LINE
  5
270
100
AcDbEntity
  8
new_box
 62
7
100
AcDbLine
 10
366.264472
 20
355.998639
 30
0.0
 11
378.985639
 21
355.998639
 31
0.0
  0
LINE
  5
271
100
AcDbEntity
  8
new_box
 62
7
100
AcDbLine
 10
378.985639
 20
361.001028
 30
0.0
 11
378.985639
 21
355.998639
 31
0.0
  0
LINE
  5
272
100
AcDbEntity
  8
new_box
 62
7
100
AcDbLine
 10
378.985639
 20
361.001028
 30
0.0
 11
392.207750
 21
361.001028
 31
0.0
  0
LINE
  5
273
100
AcDbEntity
  8
new_box
 62
7
100
AcDbLine
 10
392.207750
 20
361.001028
 30
0.0
 11
392.207750
 21
355.998639
 31
0.0
  0
LINE
  5
274
100
AcDbEntity
  8
new_box
 62
7
100
AcDbLine
 10
392.207750
 20
355.998639
 30
0.0
 11
404.932444
 21
355.998639
 31
0.0
  0
LINE
  5
275
100
AcDbEntity
  8
new_box
 62
7
100
AcDbLine
 10
404.932444
 20
361.001028
 30
0.0
 11
404.932444
 21
355.998639
 31
0.0
  0
LINE
  5
276
100
AcDbEntity
  8
new_box
 62
7
100
AcDbLine
 10
404.932444
 20
361.001028
 30
0.0
 11
418.154556
 21
361.001028
 31
0.0
  0
LINE
  5
277
100
AcDbEntity
  8
new_box
 62
7
100
AcDbLine
 10
418.154556
 20
361.001028
 30
0.0
 11
418.154556
 21
355.998639
 31
0.0
  0
LINE
  5
278
100
AcDbEntity
  8
new_box
 62
7
100
AcDbLine
 10
418.154556
 20
355.998639
 30
0.0
 11
426.000333
 21
355.998639
 31
0.0
  0
LINE
  5
279
100
AcDbEntity
  8
new_box
 62
7
100
AcDbLine
 10
85.749694
 20
305.748972
 30
0.0
 11
85.749694
 21
312.674000
 31
0.0
  0
LINE
  5
27a
100
AcDbEntity
  8
new_box
 62
7
100
AcDbLine
 10
85.749694
 20
312.674000
 30
0.0
 11
80.750833
 21
312.674000
 31
0.0
  0
LINE
  5
27b
100
AcDbEntity
  8
new_box
 62
7
100
AcDbLine
 10
80.750833
 20
312.674000
 30
0.0
 11
80.750833
 21
324.975361
 31
0.0
  0
LINE
  5
27c
100
AcDbEntity
  8
new_box
 62
7
100
AcDbLine
 10
85.749694
 20
324.975361
 30
0.0
 11
80.750833
 21
324.975361
 31
0.0
  0
LINE
  5
27d
100
AcDbEntity
  8
new_box
 62
7
100
AcDbLine
 10
85.749694
 20
324.975361
 30
0.0
 11
85.749694
 21
336.775778
 31
0.0
  0
LINE
  5
27e
100
AcDbEntity
  8
new_box
 62
7
100
AcDbLine
 10
85.749694
 20
336.775778
 30
0.0
 11
80.750833
 21
336.775778
 31
0.0
  0
LINE
  5
27f
100
AcDbEntity
  8
new_box
 62
7
100
AcDbLine
 10
80.750833
 20
336.775778
 30
0.0
 11
80.750833
 21
349.073611
 31
0.0
  0
LINE
  5
280
100
AcDbEntity
  8
new_box
 62
7
100
AcDbLine
 10
85.749694
 20
349.073611
 30
0.0
 11
80.750833
 21
349.073611
 31
0.0
  0
LINE
  5
281
100
AcDbEntity
  8
new_box
 62
7
100
AcDbLine
 10
85.749694
 20
349.073611
 30
0.0
 11
85.749694
 21
355.998639
 31
0.0
  0
LINE
  5
282
100
AcDbEntity
  8
new_box
 62
7
100
AcDbLine
 10
426.000333
 20
305.748972
 30
0.0
 11
426.000333
 21
312.674000
 31
0.0
  0
LINE
  5
283
100
AcDbEntity
  8
new_box
 62
7
100
AcDbLine
 10
430.999194
 20
312.674000
 30
0.0
 11
426.000333
 21
312.674000
 31
0.0
  0
LINE
  5
284
100
AcDbEntity
  8
new_box
 62
7
100
AcDbLine
 10
430.999194
 20
312.674000
 30
0.0
 11
430.999194
 21
324.975361
 31
0.0
  0
LINE
  5
285
100
AcDbEntity
  8
new_box
 62
7
100
AcDbLine
 10
430.999194
 20
324.975361
 30
0.0
 11
426.000333
 21
324.975361
 31
0.0
  0
LINE
  5
286
100
AcDbEntity
  8
new_box
 62
7
100
AcDbLine
 10
426.000333
 20
324.975361
 30
0.0
 11
426.000333
 21
336.775778
 31
0.0
  0
LINE
  5
287
100
AcDbEntity
  8
new_box
 62
7
100
AcDbLine
 10
430.999194
 20
336.775778
 30
0.0
 11
426.000333
 21
336.775778
 31
0.0
  0
LINE
  5
288
100
AcDbEntity
  8
new_box
 62
7
100
AcDbLine
 10
430.999194
 20
336.775778
 30
0.0
 11
430.999194
 21
349.073611
 31
0.0
  0
LINE
  5
289
100
AcDbEntity
  8
new_box
 62
7
100
AcDbLine
 10
430.999194
 20
349.073611
 30
0.0
 11
426.000333
 21
349.073611
 31
0.0
  0
LINE
  5
28a
100
AcDbEntity
  8
new_box
 62
7
100
AcDbLine
 10
426.000333
 20
349.073611
 30
0.0
 11
426.000333
 21
355.998639
 31
0.0
  0
LINE
  5
28b
100
AcDbEntity
  8
new_box
 62
7
100
AcDbLine
 10
7.551420
 20
63.035769
 30
0.0
 11
19.725781
 21
63.035769
 31
0.0
  0
LINE
  5
28c
100
AcDbEntity
  8
new_box
 62
7
100
AcDbLine
 10
19.725781
 20
68.034630
 30
0.0
 11
19.725781
 21
63.035769
 31
0.0
  0
LINE
  5
28d
100
AcDbEntity
  8
new_box
 62
7
100
AcDbLine
 10
19.725781
 20
68.034630
 30
0.0
 11
31.526198
 21
68.034630
 31
0.0
  0
LINE
  5
28e
100
AcDbEntity
  8
new_box
 62
7
100
AcDbLine
 10
31.526198
 20
68.034630
 30
0.0
 11
31.526198
 21
63.035769
 31
0.0
  0
LINE
  5
28f
100
AcDbEntity
  8
new_box
 62
7
100
AcDbLine
 10
31.526198
 20
63.035769
 30
0.0
 11
43.824031
 21
63.035769
 31
0.0
  0
LINE
  5
290
100
AcDbEntity
  8
new_box
 62
7
100
AcDbLine
 10
43.824031
 20
68.034630
 30
0.0
 11
43.824031
 21
63.035769
 31
0.0
  0
LINE
  5
291
100
AcDbEntity
  8
new_box
 62
7
100
AcDbLine
 10
43.824031
 20
68.034630
 30
0.0
 11
55.624448
 21
68.034630
 31
0.0
  0
LINE
  5
292
100
AcDbEntity
  8
new_box
 62
7
100
AcDbLine
 10
55.624448
 20
68.034630
 30
0.0
 11
55.624448
 21
63.035769
 31
0.0
  0
LINE
  5
293
100
AcDbEntity
  8
new_box
 62
7
100
AcDbLine
 10
55.624448
 20
63.035769
 30
0.0
 11
62.799948
 21
63.035769
 31
0.0
  0
LINE
  5
294
100
AcDbEntity
  8
new_box
 62
7
100
AcDbLine
 10
7.551420
 20
343.285964
 30
0.0
 11
19.725781
 21
343.285964
 31
0.0
  0
LINE
  5
295
100
AcDbEntity
  8
new_box
 62
7
100
AcDbLine
 10
19.725781
 20
343.285964
 30
0.0
 11
19.725781
 21
338.287102
 31
0.0
  0
LINE
  5
296
100
AcDbEntity
  8
new_box
 62
7
100
AcDbLine
 10
19.725781
 20
338.287102
 30
0.0
 11
31.526198
 21
338.287102
 31
0.0
  0
LINE
  5
297
100
AcDbEntity
  8
new_box
 62
7
100
AcDbLine
 10
31.526198
 20
343.285964
 30
0.0
 11
31.526198
 21
338.287102
 31
0.0
  0
LINE
  5
298
100
AcDbEntity
  8
new_box
 62
7
100
AcDbLine
 10
31.526198
 20
343.285964
 30
0.0
 11
43.824031
 21
343.285964
 31
0.0
  0
LINE
  5
299
100
AcDbEntity
  8
new_box
 62
7
100
AcDbLine
 10
43.824031
 20
343.285964
 30
0.0
 11
43.824031
 21
338.287102
 31
0.0
  0
LINE
  5
29a
100
AcDbEntity
  8
new_box
 62
7
100
AcDbLine
 10
43.824031
 20
338.287102
 30
0.0
 11
55.624448
 21
338.287102
 31
0.0
  0
LINE
  5
29b
100
AcDbEntity
  8
new_box
 62
7
100
AcDbLine
 10
55.624448
 20
343.285964
 30
0.0
 11
55.624448
 21
338.287102
 31
0.0
  0
LINE
  5
29c
100
AcDbEntity
  8
new_box
 62
7
100
AcDbLine
 10
55.624448
 20
343.285964
 30
0.0
 11
62.799948
 21
343.285964
 31
0.0
  0
LINE
  5
29d
100
AcDbEntity
  8
new_box
 62
7
100
AcDbLine
 10
7.551420
 20
63.035769
 30
0.0
 11
7.551420
 21
76.504825
 31
0.0
  0
LINE
  5
29e
100
AcDbEntity
  8
new_box
 62
7
100
AcDbLine
 10
12.550281
 20
76.504825
 30
0.0
 11
7.551420
 21
76.504825
 31
0.0
  0
LINE
  5
29f
100
AcDbEntity
  8
new_box
 62
7
100
AcDbLine
 10
12.550281
 20
76.504825
 30
0.0
 11
12.550281
 21
89.599936
 31
0.0
  0
LINE
  5
2a0
100
AcDbEntity
  8
new_box
 62
7
100
AcDbLine
 10
12.550281
 20
89.599936
 30
0.0
 11
7.551420
 21
89.599936
 31
0.0
  0
LINE
  5
2a1
100
AcDbEntity
  8
new_box
 62
7
100
AcDbLine
 10
7.551420
 20
89.599936
 30
0.0
 11
7.551420
 21
103.195991
 31
0.0
  0
LINE
  5
2a2
100
AcDbEntity
  8
new_box
 62
7
100
AcDbLine
 10
12.550281
 20
103.195991
 30
0.0
 11
7.551420
 21
103.195991
 31
0.0
  0
LINE
  5
2a3
100
AcDbEntity
  8
new_box
 62
7
100
AcDbLine
 10
12.550281
 20
103.195991
 30
0.0
 11
12.550281
 21
116.291102
 31
0.0
  0
LINE
  5
2a4
100
AcDbEntity
  8
new_box
 62
7
100
AcDbLine
 10
12.550281
 20
116.291102
 30
0.0
 11
7.551420
 21
116.291102
 31
0.0
  0
LINE
  5
2a5
100
AcDbEntity
  8
new_box
 62
7
100
AcDbLine
 10
7.551420
 20
116.291102
 30
0.0
 11
7.551420
 21
129.887158
 31
0.0
  0
LINE
  5
2a6
100
AcDbEntity
  8
new_box
 62
7
100
AcDbLine
 10
12.550281
 20
129.887158
 30
0.0
 11
7.551420
 21
129.887158
 31
0.0
  0
LINE
  5
2a7
100
AcDbEntity
  8
new_box
 62
7
100
AcDbLine
 10
12.550281
 20
129.887158
 30
0.0
 11
12.550281
 21
142.982269
 31
0.0
  0
LINE
  5
2a8
100
AcDbEntity
  8
new_box
 62
7
100
AcDbLine
 10
12.550281
 20
142.982269
 30
0.0
 11
7.551420
 21
142.982269
 31
0.0
  0
LINE
  5
2a9
100
AcDbEntity
  8
new_box
 62
7
100
AcDbLine
 10
7.551420
 20
142.982269
 30
0.0
 11
7.551420
 21
156.578325
 31
0.0
  0
LINE
  5
2aa
100
AcDbEntity
  8
new_box
 62
7
100
AcDbLine
 10
12.550281
 20
156.578325
 30
0.0
 11
7.551420
 21
156.578325
 31
0.0
  0
LINE
  5
2ab
100
AcDbEntity
  8
new_box
 62
7
100
AcDbLine
 10
12.550281
 20
156.578325
 30
0.0
 11
12.550281
 21
169.673436
 31
0.0
  0
LINE
  5
2ac
100
AcDbEntity
  8
new_box
 62
7
100
AcDbLine
 10
12.550281
 20
169.673436
 30
0.0
 11
7.551420
 21
169.673436
 31
0.0
  0
LINE
  5
2ad
100
AcDbEntity
  8
new_box
 62
7
100
AcDbLine
 10
7.551420
 20
169.673436
 30
0.0
 11
7.551420
 21
183.269491
 31
0.0
  0
LINE
  5
2ae
100
AcDbEntity
  8
new_box
 62
7
100
AcDbLine
 10
12.550281
 20
183.269491
 30
0.0
 11
7.551420
 21
183.269491
 31
0.0
  0
LINE
  5
2af
100
AcDbEntity
  8
new_box
 62
7
100
AcDbLine
 10
12.550281
 20
183.269491
 30
0.0
 11
12.550281
 21
196.364602
 31
0.0
  0
LINE
  5
2b0
100
AcDbEntity
  8
new_box
 62
7
100
AcDbLine
 10
12.550281
 20
196.364602
 30
0.0
 11
7.551420
 21
196.364602
 31
0.0
  0
LINE
  5
2b1
100
AcDbEntity
  8
new_box
 62
7
100
AcDbLine
 10
7.551420
 20
196.364602
 30
0.0
 11
7.551420
 21
209.957130
 31
0.0
  0
LINE
  5
2b2
100
AcDbEntity
  8
new_box
 62
7
100
AcDbLine
 10
12.550281
 20
209.957130
 30
0.0
 11
7.551420
 21
209.957130
 31
0.0
  0
LINE
  5
2b3
100
AcDbEntity
  8
new_box
 62
7
100
AcDbLine
 10
12.550281
 20
209.957130
 30
0.0
 11
12.550281
 21
223.052241
 31
0.0
  0
LINE
  5
2b4
100
AcDbEntity
  8
new_box
 62
7
100
AcDbLine
 10
12.550281
 20
223.052241
 30
0.0
 11
7.551420
 21
223.052241
 31
0.0
  0
LINE
  5
2b5
100
AcDbEntity
  8
new_box
 62
7
100
AcDbLine
 10
7.551420
 20
223.052241
 30
0.0
 11
7.551420
 21
236.648297
 31
0.0
  0
LINE
  5
2b6
100
AcDbEntity
  8
new_box
 62
7
100
AcDbLine
 10
12.550281
 20
236.648297
 30
0.0
 11
7.551420
 21
236.648297
 31
0.0
  0
LINE
  5
2b7
100
AcDbEntity
  8
new_box
 62
7
100
AcDbLine
 10
12.550281
 20
236.648297
 30
0.0
 11
12.550281
 21
249.743408
 31
0.0
  0
LINE
  5
2b8
100
AcDbEntity
  8
new_box
 62
7
100
AcDbLine
 10
12.550281
 20
249.743408
 30
0.0
 11
7.551420
 21
249.743408
 31
0.0
  0
LINE
  5
2b9
100
AcDbEntity
  8
new_box
 62
7
100
AcDbLine
 10
7.551420
 20
249.743408
 30
0.0
 11
7.551420
 21
263.339464
 31
0.0
  0
LINE
  5
2ba
100
AcDbEntity
  8
new_box
 62
7
100
AcDbLine
 10
12.550281
 20
263.339464
 30
0.0
 11
7.551420
 21
263.339464
 31
0.0
  0
LINE
  5
2bb
100
AcDbEntity
  8
new_box
 62
7
100
AcDbLine
 10
12.550281
 20
263.339464
 30
0.0
 11
12.550281
 21
276.434575
 31
0.0
  0
LINE
  5
2bc
100
AcDbEntity
  8
new_box
 62
7
100
AcDbLine
 10
12.550281
 20
276.434575
 30
0.0
 11
7.551420
 21
276.434575
 31
0.0
  0
LINE
  5
2bd
100
AcDbEntity
  8
new_box
 62
7
100
AcDbLine
 10
7.551420
 20
276.434575
 30
0.0
 11
7.551420
 21
290.030630
 31
0.0
  0
LINE
  5
2be
100
AcDbEntity
  8
new_box
 62
7
100
AcDbLine
 10
12.550281
 20
290.030630
 30
0.0
 11
7.551420
 21
290.030630
 31
0.0
  0
LINE
  5
2bf
100
AcDbEntity
  8
new_box
 62
7
100
AcDbLine
 10
12.550281
 20
290.030630
 30
0.0
 11
12.550281
 21
303.125741
 31
0.0
  0
LINE
  5
2c0
100
AcDbEntity
  8
new_box
 62
7
100
AcDbLine
 10
12.550281
 20
303.125741
 30
0.0
 11
7.551420
 21
303.125741
 31
0.0
  0
LINE
  5
2c1
100
AcDbEntity
  8
new_box
 62
7
100
AcDbLine
 10
7.551420
 20
303.125741
 30
0.0
 11
7.551420
 21
316.721797
 31
0.0
  0
LINE
  5
2c2
100
AcDbEntity
  8
new_box
 62
7
100
AcDbLine
 10
12.550281
 20
316.721797
 30
0.0
 11
7.551420
 21
316.721797
 31
0.0
  0
LINE
  5
2c3
100
AcDbEntity
  8
new_box
 62
7
100
AcDbLine
 10
12.550281
 20
316.721797
 30
0.0
 11
12.550281
 21
329.816908
 31
0.0
  0
LINE
  5
2c4
100
AcDbEntity
  8
new_box
 62
7
100
AcDbLine
 10
12.550281
 20
329.816908
 30
0.0
 11
7.551420
 21
329.816908
 31
0.0
  0
LINE
  5
2c5
100
AcDbEntity
  8
new_box
 62
7
100
AcDbLine
 10
7.551420
 20
329.816908
 30
0.0
 11
7.551420
 21
343.285964
 31
0.0
  0
LINE
  5
2c6
100
AcDbEntity
  8
new_box
 62
7
100
AcDbLine
 10
62.799948
 20
63.035769
 30
0.0
 11
62.799948
 21
76.254352
 31
0.0
  0
LINE
  5
2c7
100
AcDbEntity
  8
new_box
 62
7
100
AcDbLine
 10
67.798809
 20
76.254352
 30
0.0
 11
62.799948
 21
76.254352
 31
0.0
  0
LINE
  5
2c8
100
AcDbEntity
  8
new_box
 62
7
100
AcDbLine
 10
67.798809
 20
76.254352
 30
0.0
 11
67.798809
 21
89.850408
 31
0.0
  0
LINE
  5
2c9
100
AcDbEntity
  8
new_box
 62
7
100
AcDbLine
 10
67.798809
 20
89.850408
 30
0.0
 11
62.799948
 21
89.850408
 31
0.0
  0
LINE
  5
2ca
100
AcDbEntity
  8
new_box
 62
7
100
AcDbLine
 10
62.799948
 20
89.850408
 30
0.0
 11
62.799948
 21
102.945519
 31
0.0
  0
LINE
  5
2cb
100
AcDbEntity
  8
new_box
 62
7
100
AcDbLine
 10
67.798809
 20
102.945519
 30
0.0
 11
62.799948
 21
102.945519
 31
0.0
  0
LINE
  5
2cc
100
AcDbEntity
  8
new_box
 62
7
100
AcDbLine
 10
67.798809
 20
102.945519
 30
0.0
 11
67.798809
 21
116.541575
 31
0.0
  0
LINE
  5
2cd
100
AcDbEntity
  8
new_box
 62
7
100
AcDbLine
 10
67.798809
 20
116.541575
 30
0.0
 11
62.799948
 21
116.541575
 31
0.0
  0
LINE
  5
2ce
100
AcDbEntity
  8
new_box
 62
7
100
AcDbLine
 10
62.799948
 20
116.541575
 30
0.0
 11
62.799948
 21
129.636686
 31
0.0
  0
LINE
  5
2cf
100
AcDbEntity
  8
new_box
 62
7
100
AcDbLine
 10
67.798809
 20
129.636686
 30
0.0
 11
62.799948
 21
129.636686
 31
0.0
  0
LINE
  5
2d0
100
AcDbEntity
  8
new_box
 62
7
100
AcDbLine
 10
67.798809
 20
129.636686
 30
0.0
 11
67.798809
 21
143.232741
 31
0.0
  0
LINE
  5
2d1
100
AcDbEntity
  8
new_box
 62
7
100
AcDbLine
 10
67.798809
 20
143.232741
 30
0.0
 11
62.799948
 21
143.232741
 31
0.0
  0
LINE
  5
2d2
100
AcDbEntity
  8
new_box
 62
7
100
AcDbLine
 10
62.799948
 20
143.232741
 30
0.0
 11
62.799948
 21
156.327852
 31
0.0
  0
LINE
  5
2d3
100
AcDbEntity
  8
new_box
 62
7
100
AcDbLine
 10
67.798809
 20
156.327852
 30
0.0
 11
62.799948
 21
156.327852
 31
0.0
  0
LINE
  5
2d4
100
AcDbEntity
  8
new_box
 62
7
100
AcDbLine
 10
67.798809
 20
156.327852
 30
0.0
 11
67.798809
 21
169.923908
 31
0.0
  0
LINE
  5
2d5
100
AcDbEntity
  8
new_box
 62
7
100
AcDbLine
 10
67.798809
 20
169.923908
 30
0.0
 11
62.799948
 21
169.923908
 31
0.0
  0
LINE
  5
2d6
100
AcDbEntity
  8
new_box
 62
7
100
AcDbLine
 10
62.799948
 20
169.923908
 30
0.0
 11
62.799948
 21
183.019019
 31
0.0
  0
LINE
  5
2d7
100
AcDbEntity
  8
new_box
 62
7
100
AcDbLine
 10
67.798809
 20
183.019019
 30
0.0
 11
62.799948
 21
183.019019
 31
0.0
  0
LINE
  5
2d8
100
AcDbEntity
  8
new_box
 62
7
100
AcDbLine
 10
67.798809
 20
183.019019
 30
0.0
 11
67.798809
 21
196.611547
 31
0.0
  0
LINE
  5
2d9
100
AcDbEntity
  8
new_box
 62
7
100
AcDbLine
 10
67.798809
 20
196.611547
 30
0.0
 11
62.799948
 21
196.611547
 31
0.0
  0
LINE
  5
2da
100
AcDbEntity
  8
new_box
 62
7
100
AcDbLine
 10
62.799948
 20
196.611547
 30
0.0
 11
62.799948
 21
209.706658
 31
0.0
  0
LINE
  5
2db
100
AcDbEntity
  8
new_box
 62
7
100
AcDbLine
 10
67.798809
 20
209.706658
 30
0.0
 11
62.799948
 21
209.706658
 31
0.0
  0
LINE
  5
2dc
100
AcDbEntity
  8
new_box
 62
7
100
AcDbLine
 10
67.798809
 20
209.706658
 30
0.0
 11
67.798809
 21
223.302714
 31
0.0
  0
LINE
  5
2dd
100
AcDbEntity
  8
new_box
 62
7
100
AcDbLine
 10
67.798809
 20
223.302714
 30
0.0
 11
62.799948
 21
223.302714
 31
0.0
  0
LINE
  5
2de
100
AcDbEntity
  8
new_box
 62
7
100
AcDbLine
 10
62.799948
 20
223.302714
 30
0.0
 11
62.799948
 21
236.397825
 31
0.0
  0
LINE
  5
2df
100
AcDbEntity
  8
new_box
 62
7
100
AcDbLine
 10
67.798809
 20
236.397825
 30
0.0
 11
62.799948
 21
236.397825
 31
0.0
  0
LINE
  5
2e0
100
AcDbEntity
  8
new_box
 62
7
100
AcDbLine
 10
67.798809
 20
236.397825
 30
0.0
 11
67.798809
 21
249.993880
 31
0.0
  0
LINE
  5
2e1
100
AcDbEntity
  8
new_box
 62
7
100
AcDbLine
 10
67.798809
 20
249.993880
 30
0.0
 11
62.799948
 21
249.993880
 31
0.0
  0
LINE
  5
2e2
100
AcDbEntity
  8
new_box
 62
7
100
AcDbLine
 10
62.799948
 20
249.993880
 30
0.0
 11
62.799948
 21
263.088991
 31
0.0
  0
LINE
  5
2e3
100
AcDbEntity
  8
new_box
 62
7
100
AcDbLine
 10
67.798809
 20
263.088991
 30
0.0
 11
62.799948
 21
263.088991
 31
0.0
  0
LINE
  5
2e4
100
AcDbEntity
  8
new_box
 62
7
100
AcDbLine
 10
67.798809
 20
263.088991
 30
0.0
 11
67.798809
 21
276.685047
 31
0.0
  0
LINE
  5
2e5
100
AcDbEntity
  8
new_box
 62
7
100
AcDbLine
 10
67.798809
 20
276.685047
 30
0.0
 11
62.799948
 21
276.685047
 31
0.0
  0
LINE
  5
2e6
100
AcDbEntity
  8
new_box
 62
7
100
AcDbLine
 10
62.799948
 20
276.685047
 30
0.0
 11
62.799948
 21
289.780158
 31
0.0
  0
LINE
  5
2e7
100
AcDbEntity
  8
new_box
 62
7
100
AcDbLine
 10
67.798809
 20
289.780158
 30
0.0
 11
62.799948
 21
289.780158
 31
0.0
  0
LINE
  5
2e8
100
AcDbEntity
  8
new_box
 62
7
100
AcDbLine
 10
67.798809
 20
289.780158
 30
0.0
 11
67.798809
 21
303.376214
 31
0.0
  0
LINE
  5
2e9
100
AcDbEntity
  8
new_box
 62
7
100
AcDbLine
 10
67.798809
 20
303.376214
 30
0.0
 11
62.799948
 21
303.376214
 31
0.0
  0
LINE
  5
2ea
100
AcDbEntity
  8
new_box
 62
7
100
AcDbLine
 10
62.799948
 20
303.376214
 30
0.0
 11
62.799948
 21
316.471325
 31
0.0
  0
LINE
  5
2eb
100
AcDbEntity
  8
new_box
 62
7
100
AcDbLine
 10
67.798809
 20
316.471325
 30
0.0
 11
62.799948
 21
316.471325
 31
0.0
  0
LINE
  5
2ec
100
AcDbEntity
  8
new_box
 62
7
100
AcDbLine
 10
67.798809
 20
316.471325
 30
0.0
 11
67.798809
 21
330.063852
 31
0.0
  0
LINE
  5
2ed
100
AcDbEntity
  8
new_box
 62
7
100
AcDbLine
 10
67.798809
 20
330.063852
 30
0.0
 11
62.799948
 21
330.063852
 31
0.0
  0
LINE
  5
2ee
100
AcDbEntity
  8
new_box
 62
7
100
AcDbLine
 10
62.799948
 20
330.063852
 30
0.0
 11
62.799948
 21
343.285964
 31
0.0
  0
LINE
  5
2ef
100
AcDbEntity
  8
new_box
 62
7
100
AcDbLine
 10
80.750833
 20
371.249222
 30
0.0
 11
93.845944
 21
371.249222
 31
0.0
  0
LINE
  5
2f0
100
AcDbEntity
  8
new_box
 62
7
100
AcDbLine
 10
93.845944
 20
376.251611
 30
0.0
 11
93.845944
 21
371.249222
 31
0.0
  0
LINE
  5
2f1
100
AcDbEntity
  8
new_box
 62
7
100
AcDbLine
 10
93.845944
 20
376.251611
 30
0.0
 11
106.570639
 21
376.251611
 31
0.0
  0
LINE
  5
2f2
100
AcDbEntity
  8
new_box
 62
7
100
AcDbLine
 10
106.570639
 20
376.251611
 30
0.0
 11
106.570639
 21
371.249222
 31
0.0
  0
LINE
  5
2f3
100
AcDbEntity
  8
new_box
 62
7
100
AcDbLine
 10
106.570639
 20
371.249222
 30
0.0
 11
119.792750
 21
371.249222
 31
0.0
  0
LINE
  5
2f4
100
AcDbEntity
  8
new_box
 62
7
100
AcDbLine
 10
119.792750
 20
376.251611
 30
0.0
 11
119.792750
 21
371.249222
 31
0.0
  0
LINE
  5
2f5
100
AcDbEntity
  8
new_box
 62
7
100
AcDbLine
 10
119.792750
 20
376.251611
 30
0.0
 11
132.513917
 21
376.251611
 31
0.0
  0
LINE
  5
2f6
100
AcDbEntity
  8
new_box
 62
7
100
AcDbLine
 10
132.513917
 20
376.251611
 30
0.0
 11
132.513917
 21
371.249222
 31
0.0
  0
LINE
  5
2f7
100
AcDbEntity
  8
new_box
 62
7
100
AcDbLine
 10
132.513917
 20
371.249222
 30
0.0
 11
145.736028
 21
371.249222
 31
0.0
  0
LINE
  5
2f8
100
AcDbEntity
  8
new_box
 62
7
100
AcDbLine
 10
145.736028
 20
376.251611
 30
0.0
 11
145.736028
 21
371.249222
 31
0.0
  0
LINE
  5
2f9
100
AcDbEntity
  8
new_box
 62
7
100
AcDbLine
 10
145.736028
 20
376.251611
 30
0.0
 11
158.457194
 21
376.251611
 31
0.0
  0
LINE
  5
2fa
100
AcDbEntity
  8
new_box
 62
7
100
AcDbLine
 10
158.457194
 20
376.251611
 30
0.0
 11
158.457194
 21
371.249222
 31
0.0
  0
LINE
  5
2fb
100
AcDbEntity
  8
new_box
 62
7
100
AcDbLine
 10
158.457194
 20
371.249222
 30
0.0
 11
171.679306
 21
371.249222
 31
0.0
  0
LINE
  5
2fc
100
AcDbEntity
  8
new_box
 62
7
100
AcDbLine
 10
171.679306
 20
376.251611
 30
0.0
 11
171.679306
 21
371.249222
 31
0.0
  0
LINE
  5
2fd
100
AcDbEntity
  8
new_box
 62
7
100
AcDbLine
 10
171.679306
 20
376.251611
 30
0.0
 11
184.404000
 21
376.251611
 31
0.0
  0
LINE
  5
2fe
100
AcDbEntity
  8
new_box
 62
7
100
AcDbLine
 10
184.404000
 20
376.251611
 30
0.0
 11
184.404000
 21
371.249222
 31
0.0
  0
LINE
  5
2ff
100
AcDbEntity
  8
new_box
 62
7
100
AcDbLine
 10
184.404000
 20
371.249222
 30
0.0
 11
197.626111
 21
371.249222
 31
0.0
  0
LINE
  5
300
100
AcDbEntity
  8
new_box
 62
7
100
AcDbLine
 10
197.626111
 20
376.251611
 30
0.0
 11
197.626111
 21
371.249222
 31
0.0
  0
LINE
  5
301
100
AcDbEntity
  8
new_box
 62
7
100
AcDbLine
 10
197.626111
 20
376.251611
 30
0.0
 11
210.347278
 21
376.251611
 31
0.0
  0
LINE
  5
302
100
AcDbEntity
  8
new_box
 62
7
100
AcDbLine
 10
210.347278
 20
376.251611
 30
0.0
 11
210.347278
 21
371.249222
 31
0.0
  0
LINE
  5
303
100
AcDbEntity
  8
new_box
 62
7
100
AcDbLine
 10
210.347278
 20
371.249222
 30
0.0
 11
223.569389
 21
371.249222
 31
0.0
  0
LINE
  5
304
100
AcDbEntity
  8
new_box
 62
7
100
AcDbLine
 10
223.569389
 20
376.251611
 30
0.0
 11
223.569389
 21
371.249222
 31
0.0
  0
LINE
  5
305
100
AcDbEntity
  8
new_box
 62
7
100
AcDbLine
 10
223.569389
 20
376.251611
 30
0.0
 11
236.290556
 21
376.251611
 31
0.0
  0
LINE
  5
306
100
AcDbEntity
  8
new_box
 62
7
100
AcDbLine
 10
236.290556
 20
376.251611
 30
0.0
 11
236.290556
 21
371.249222
 31
0.0
  0
LINE
  5
307
100
AcDbEntity
  8
new_box
 62
7
100
AcDbLine
 10
236.290556
 20
371.249222
 30
0.0
 11
249.512667
 21
371.249222
 31
0.0
  0
LINE
  5
308
100
AcDbEntity
  8
new_box
 62
7
100
AcDbLine
 10
249.512667
 20
376.251611
 30
0.0
 11
249.512667
 21
371.249222
 31
0.0
  0
LINE
  5
309
100
AcDbEntity
  8
new_box
 62
7
100
AcDbLine
 10
249.512667
 20
376.251611
 30
0.0
 11
262.237361
 21
376.251611
 31
0.0
  0
LINE
  5
30a
100
AcDbEntity
  8
new_box
 62
7
100
AcDbLine
 10
262.237361
 20
376.251611
 30
0.0
 11
262.237361
 21
371.249222
 31
0.0
  0
LINE
  5
30b
100
AcDbEntity
  8
new_box
 62
7
100
AcDbLine
 10
262.237361
 20
371.249222
 30
0.0
 11
275.459472
 21
371.249222
 31
0.0
  0
LINE
  5
30c
100
AcDbEntity
  8
new_box
 62
7
100
AcDbLine
 10
275.459472
 20
376.251611
 30
0.0
 11
275.459472
 21
371.249222
 31
0.0
  0
LINE
  5
30d
100
AcDbEntity
  8
new_box
 62
7
100
AcDbLine
 10
275.459472
 20
376.251611
 30
0.0
 11
288.180639
 21
376.251611
 31
0.0
  0
LINE
  5
30e
100
AcDbEntity
  8
new_box
 62
7
100
AcDbLine
 10
288.180639
 20
376.251611
 30
0.0
 11
288.180639
 21
371.249222
 31
0.0
  0
LINE
  5
30f
100
AcDbEntity
  8
new_box
 62
7
100
AcDbLine
 10
288.180639
 20
371.249222
 30
0.0
 11
301.402750
 21
371.249222
 31
0.0
  0
LINE
  5
310
100
AcDbEntity
  8
new_box
 62
7
100
AcDbLine
 10
301.402750
 20
376.251611
 30
0.0
 11
301.402750
 21
371.249222
 31
0.0
  0
LINE
  5
311
100
AcDbEntity
  8
new_box
 62
7
100
AcDbLine
 10
301.402750
 20
376.251611
 30
0.0
 11
314.123917
 21
376.251611
 31
0.0
  0
LINE
  5
312
100
AcDbEntity
  8
new_box
 62
7
100
AcDbLine
 10
314.123917
 20
376.251611
 30
0.0
 11
314.123917
 21
371.249222
 31
0.0
  0
LINE
  5
313
100
AcDbEntity
  8
new_box
 62
7
100
AcDbLine
 10
314.123917
 20
371.249222
 30
0.0
 11
327.346028
 21
371.249222
 31
0.0
  0
LINE
  5
314
100
AcDbEntity
  8
new_box
 62
7
100
AcDbLine
 10
327.346028
 20
376.251611
 30
0.0
 11
327.346028
 21
371.249222
 31
0.0
  0
LINE
  5
315
100
AcDbEntity
  8
new_box
 62
7
100
AcDbLine
 10
327.346028
 20
376.251611
 30
0.0
 11
340.070722
 21
376.251611
 31
0.0
  0
LINE
  5
316
100
AcDbEntity
  8
new_box
 62
7
100
AcDbLine
 10
340.070722
 20
376.251611
 30
0.0
 11
340.070722
 21
371.249222
 31
0.0
  0
LINE
  5
317
100
AcDbEntity
  8
new_box
 62
7
100
AcDbLine
 10
340.070722
 20
371.249222
 30
0.0
 11
353.292833
 21
371.249222
 31
0.0
  0
LINE
  5
318
100
AcDbEntity
  8
new_box
 62
7
100
AcDbLine
 10
353.292833
 20
376.251611
 30
0.0
 11
353.292833
 21
371.249222
 31
0.0
  0
LINE
  5
319
100
AcDbEntity
  8
new_box
 62
7
100
AcDbLine
 10
353.292833
 20
376.251611
 30
0.0
 11
366.014000
 21
376.251611
 31
0.0
  0
LINE
  5
31a
100
AcDbEntity
  8
new_box
 62
7
100
AcDbLine
 10
366.014000
 20
376.251611
 30
0.0
 11
366.014000
 21
371.249222
 31
0.0
  0
LINE
  5
31b
100
AcDbEntity
  8
new_box
 62
7
100
AcDbLine
 10
366.014000
 20
371.249222
 30
0.0
 11
379.236111
 21
371.249222
 31
0.0
  0
LINE
  5
31c
100
AcDbEntity
  8
new_box
 62
7
100
AcDbLine
 10
379.236111
 20
376.251611
 30
0.0
 11
379.236111
 21
371.249222
 31
0.0
  0
LINE
  5
31d
100
AcDbEntity
  8
new_box
 62
7
100
AcDbLine
 10
379.236111
 20
376.251611
 30
0.0
 11
391.957278
 21
376.251611
 31
0.0
  0
LINE
  5
31e
100
AcDbEntity
  8
new_box
 62
7
100
AcDbLine
 10
391.957278
 20
376.251611
 30
0.0
 11
391.957278
 21
371.249222
 31
0.0
  0
LINE
  5
31f
100
AcDbEntity
  8
new_box
 62
7
100
AcDbLine
 10
391.957278
 20
371.249222
 30
0.0
 11
405.179389
 21
371.249222
 31
0.0
  0
LINE
  5
320
100
AcDbEntity
  8
new_box
 62
7
100
AcDbLine
 10
405.179389
 20
376.251611
 30
0.0
 11
405.179389
 21
371.249222
 31
0.0
  0
LINE
  5
321
100
AcDbEntity
  8
new_box
 62
7
100
AcDbLine
 10
405.179389
 20
376.251611
 30
0.0
 11
417.904083
 21
376.251611
 31
0.0
  0
LINE
  5
322
100
AcDbEntity
  8
new_box
 62
7
100
AcDbLine
 10
417.904083
 20
376.251611
 30
0.0
 11
417.904083
 21
371.249222
 31
0.0
  0
LINE
  5
323
100
AcDbEntity
  8
new_box
 62
7
100
AcDbLine
 10
417.904083
 20
371.249222
 30
0.0
 11
426.000333
 21
371.249222
 31
0.0
  0
LINE
  5
324
100
AcDbEntity
  8
new_box
 62
7
100
AcDbLine
 10
80.750833
 20
651.499417
 30
0.0
 11
93.845944
 21
651.499417
 31
0.0
  0
LINE
  5
325
100
AcDbEntity
  8
new_box
 62
7
100
AcDbLine
 10
93.845944
 20
651.499417
 30
0.0
 11
93.845944
 21
646.500556
 31
0.0
  0
LINE
  5
326
100
AcDbEntity
  8
new_box
 62
7
100
AcDbLine
 10
93.845944
 20
646.500556
 30
0.0
 11
106.570639
 21
646.500556
 31
0.0
  0
LINE
  5
327
100
AcDbEntity
  8
new_box
 62
7
100
AcDbLine
 10
106.570639
 20
651.499417
 30
0.0
 11
106.570639
 21
646.500556
 31
0.0
  0
LINE
  5
328
100
AcDbEntity
  8
new_box
 62
7
100
AcDbLine
 10
106.570639
 20
651.499417
 30
0.0
 11
119.792750
 21
651.499417
 31
0.0
  0
LINE
  5
329
100
AcDbEntity
  8
new_box
 62
7
100
AcDbLine
 10
119.792750
 20
651.499417
 30
0.0
 11
119.792750
 21
646.500556
 31
0.0
  0
LINE
  5
32a
100
AcDbEntity
  8
new_box
 62
7
100
AcDbLine
 10
119.792750
 20
646.500556
 30
0.0
 11
132.513917
 21
646.500556
 31
0.0
  0
LINE
  5
32b
100
AcDbEntity
  8
new_box
 62
7
100
AcDbLine
 10
132.513917
 20
651.499417
 30
0.0
 11
132.513917
 21
646.500556
 31
0.0
  0
LINE
  5
32c
100
AcDbEntity
  8
new_box
 62
7
100
AcDbLine
 10
132.513917
 20
651.499417
 30
0.0
 11
145.736028
 21
651.499417
 31
0.0
  0
LINE
  5
32d
100
AcDbEntity
  8
new_box
 62
7
100
AcDbLine
 10
145.736028
 20
651.499417
 30
0.0
 11
145.736028
 21
646.500556
 31
0.0
  0
LINE
  5
32e
100
AcDbEntity
  8
new_box
 62
7
100
AcDbLine
 10
145.736028
 20
646.500556
 30
0.0
 11
158.457194
 21
646.500556
 31
0.0
  0
LINE
  5
32f
100
AcDbEntity
  8
new_box
 62
7
100
AcDbLine
 10
158.457194
 20
651.499417
 30
0.0
 11
158.457194
 21
646.500556
 31
0.0
  0
LINE
  5
330
100
AcDbEntity
  8
new_box
 62
7
100
AcDbLine
 10
158.457194
 20
651.499417
 30
0.0
 11
171.679306
 21
651.499417
 31
0.0
  0
LINE
  5
331
100
AcDbEntity
  8
new_box
 62
7
100
AcDbLine
 10
171.679306
 20
651.499417
 30
0.0
 11
171.679306
 21
646.500556
 31
0.0
  0
LINE
  5
332
100
AcDbEntity
  8
new_box
 62
7
100
AcDbLine
 10
171.679306
 20
646.500556
 30
0.0
 11
184.404000
 21
646.500556
 31
0.0
  0
LINE
  5
333
100
AcDbEntity
  8
new_box
 62
7
100
AcDbLine
 10
184.404000
 20
651.499417
 30
0.0
 11
184.404000
 21
646.500556
 31
0.0
  0
LINE
  5
334
100
AcDbEntity
  8
new_box
 62
7
100
AcDbLine
 10
184.404000
 20
651.499417
 30
0.0
 11
197.626111
 21
651.499417
 31
0.0
  0
LINE
  5
335
100
AcDbEntity
  8
new_box
 62
7
100
AcDbLine
 10
197.626111
 20
651.499417
 30
0.0
 11
197.626111
 21
646.500556
 31
0.0
  0
LINE
  5
336
100
AcDbEntity
  8
new_box
 62
7
100
AcDbLine
 10
197.626111
 20
646.500556
 30
0.0
 11
210.347278
 21
646.500556
 31
0.0
  0
LINE
  5
337
100
AcDbEntity
  8
new_box
 62
7
100
AcDbLine
 10
210.347278
 20
651.499417
 30
0.0
 11
210.347278
 21
646.500556
 31
0.0
  0
LINE
  5
338
100
AcDbEntity
  8
new_box
 62
7
100
AcDbLine
 10
210.347278
 20
651.499417
 30
0.0
 11
223.569389
 21
651.499417
 31
0.0
  0
LINE
  5
339
100
AcDbEntity
  8
new_box
 62
7
100
AcDbLine
 10
223.569389
 20
651.499417
 30
0.0
 11
223.569389
 21
646.500556
 31
0.0
  0
LINE
  5
33a
100
AcDbEntity
  8
new_box
 62
7
100
AcDbLine
 10
223.569389
 20
646.500556
 30
0.0
 11
236.290556
 21
646.500556
 31
0.0
  0
LINE
  5
33b
100
AcDbEntity
  8
new_box
 62
7
100
AcDbLine
 10
236.290556
 20
651.499417
 30
0.0
 11
236.290556
 21
646.500556
 31
0.0
  0
LINE
  5
33c
100
AcDbEntity
  8
new_box
 62
7
100
AcDbLine
 10
236.290556
 20
651.499417
 30
0.0
 11
249.512667
 21
651.499417
 31
0.0
  0
LINE
  5
33d
100
AcDbEntity
  8
new_box
 62
7
100
AcDbLine
 10
249.512667
 20
651.499417
 30
0.0
 11
249.512667
 21
646.500556
 31
0.0
  0
LINE
  5
33e
100
AcDbEntity
  8
new_box
 62
7
100
AcDbLine
 10
249.512667
 20
646.500556
 30
0.0
 11
262.237361
 21
646.500556
 31
0.0
  0
LINE
  5
33f
100
AcDbEntity
  8
new_box
 62
7
100
AcDbLine
 10
262.237361
 20
651.499417
 30
0.0
 11
262.237361
 21
646.500556
 31
0.0
  0
LINE
  5
340
100
AcDbEntity
  8
new_box
 62
7
100
AcDbLine
 10
262.237361
 20
651.499417
 30
0.0
 11
275.459472
 21
651.499417
 31
0.0
  0
LINE
  5
341
100
AcDbEntity
  8
new_box
 62
7
100
AcDbLine
 10
275.459472
 20
651.499417
 30
0.0
 11
275.459472
 21
646.500556
 31
0.0
  0
LINE
  5
342
100
AcDbEntity
  8
new_box
 62
7
100
AcDbLine
 10
275.459472
 20
646.500556
 30
0.0
 11
288.180639
 21
646.500556
 31
0.0
  0
LINE
  5
343
100
AcDbEntity
  8
new_box
 62
7
100
AcDbLine
 10
288.180639
 20
651.499417
 30
0.0
 11
288.180639
 21
646.500556
 31
0.0
  0
LINE
  5
344
100
AcDbEntity
  8
new_box
 62
7
100
AcDbLine
 10
288.180639
 20
651.499417
 30
0.0
 11
301.402750
 21
651.499417
 31
0.0
  0
LINE
  5
345
100
AcDbEntity
  8
new_box
 62
7
100
AcDbLine
 10
301.402750
 20
651.499417
 30
0.0
 11
301.402750
 21
646.500556
 31
0.0
  0
LINE
  5
346
100
AcDbEntity
  8
new_box
 62
7
100
AcDbLine
 10
301.402750
 20
646.500556
 30
0.0
 11
314.123917
 21
646.500556
 31
0.0
  0
LINE
  5
347
100
AcDbEntity
  8
new_box
 62
7
100
AcDbLine
 10
314.123917
 20
651.499417
 30
0.0
 11
314.123917
 21
646.500556
 31
0.0
  0
LINE
  5
348
100
AcDbEntity
  8
new_box
 62
7
100
AcDbLine
 10
314.123917
 20
651.499417
 30
0.0
 11
327.346028
 21
651.499417
 31
0.0
  0
LINE
  5
349
100
AcDbEntity
  8
new_box
 62
7
100
AcDbLine
 10
327.346028
 20
651.499417
 30
0.0
 11
327.346028
 21
646.500556
 31
0.0
  0
LINE
  5
34a
100
AcDbEntity
  8
new_box
 62
7
100
AcDbLine
 10
327.346028
 20
646.500556
 30
0.0
 11
340.070722
 21
646.500556
 31
0.0
  0
LINE
  5
34b
100
AcDbEntity
  8
new_box
 62
7
100
AcDbLine
 10
340.070722
 20
651.499417
 30
0.0
 11
340.070722
 21
646.500556
 31
0.0
  0
LINE
  5
34c
100
AcDbEntity
  8
new_box
 62
7
100
AcDbLine
 10
340.070722
 20
651.499417
 30
0.0
 11
353.292833
 21
651.499417
 31
0.0
  0
LINE
  5
34d
100
AcDbEntity
  8
new_box
 62
7
100
AcDbLine
 10
353.292833
 20
651.499417
 30
0.0
 11
353.292833
 21
646.500556
 31
0.0
  0
LINE
  5
34e
100
AcDbEntity
  8
new_box
 62
7
100
AcDbLine
 10
353.292833
 20
646.500556
 30
0.0
 11
366.014000
 21
646.500556
 31
0.0
  0
LINE
  5
34f
100
AcDbEntity
  8
new_box
 62
7
100
AcDbLine
 10
366.014000
 20
651.499417
 30
0.0
 11
366.014000
 21
646.500556
 31
0.0
  0
LINE
  5
350
100
AcDbEntity
  8
new_box
 62
7
100
AcDbLine
 10
366.014000
 20
651.499417
 30
0.0
 11
379.236111
 21
651.499417
 31
0.0
  0
LINE
  5
351
100
AcDbEntity
  8
new_box
 62
7
100
AcDbLine
 10
379.236111
 20
651.499417
 30
0.0
 11
379.236111
 21
646.500556
 31
0.0
  0
LINE
  5
352
100
AcDbEntity
  8
new_box
 62
7
100
AcDbLine
 10
379.236111
 20
646.500556
 30
0.0
 11
391.957278
 21
646.500556
 31
0.0
  0
LINE
  5
353
100
AcDbEntity
  8
new_box
 62
7
100
AcDbLine
 10
391.957278
 20
651.499417
 30
0.0
 11
391.957278
 21
646.500556
 31
0.0
  0
LINE
  5
354
100
AcDbEntity
  8
new_box
 62
7
100
AcDbLine
 10
391.957278
 20
651.499417
 30
0.0
 11
405.179389
 21
651.499417
 31
0.0
  0
LINE
  5
355
100
AcDbEntity
  8
new_box
 62
7
100
AcDbLine
 10
405.179389
 20
651.499417
 30
0.0
 11
405.179389
 21
646.500556
 31
0.0
  0
LINE
  5
356
100
AcDbEntity
  8
new_box
 62
7
100
AcDbLine
 10
405.179389
 20
646.500556
 30
0.0
 11
417.904083
 21
646.500556
 31
0.0
  0
LINE
  5
357
100
AcDbEntity
  8
new_box
 62
7
100
AcDbLine
 10
417.904083
 20
651.499417
 30
0.0
 11
417.904083
 21
646.500556
 31
0.0
  0
LINE
  5
358
100
AcDbEntity
  8
new_box
 62
7
100
AcDbLine
 10
417.904083
 20
651.499417
 30
0.0
 11
426.000333
 21
651.499417
 31
0.0
  0
LINE
  5
359
100
AcDbEntity
  8
new_box
 62
7
100
AcDbLine
 10
80.750833
 20
371.249222
 30
0.0
 11
80.750833
 21
384.721806
 31
0.0
  0
LINE
  5
35a
100
AcDbEntity
  8
new_box
 62
7
100
AcDbLine
 10
85.749694
 20
384.721806
 30
0.0
 11
80.750833
 21
384.721806
 31
0.0
  0
LINE
  5
35b
100
AcDbEntity
  8
new_box
 62
7
100
AcDbLine
 10
85.749694
 20
384.721806
 30
0.0
 11
85.749694
 21
397.816917
 31
0.0
  0
LINE
  5
35c
100
AcDbEntity
  8
new_box
 62
7
100
AcDbLine
 10
85.749694
 20
397.816917
 30
0.0
 11
80.750833
 21
397.816917
 31
0.0
  0
LINE
  5
35d
100
AcDbEntity
  8
new_box
 62
7
100
AcDbLine
 10
85.749694
 20
518.174111
 30
0.0
 11
80.750833
 21
518.174111
 31
0.0
  0
LINE
  5
35e
100
AcDbEntity
  8
new_box
 62
7
100
AcDbLine
 10
85.749694
 20
518.174111
 30
0.0
 11
85.749694
 21
531.269222
 31
0.0
  0
LINE
  5
35f
100
AcDbEntity
  8
new_box
 62
7
100
AcDbLine
 10
85.749694
 20
531.269222
 30
0.0
 11
80.750833
 21
531.269222
 31
0.0
  0
LINE
  5
360
100
AcDbEntity
  8
new_box
 62
7
100
AcDbLine
 10
80.750833
 20
531.269222
 30
0.0
 11
80.750833
 21
544.861750
 31
0.0
  0
LINE
  5
361
100
AcDbEntity
  8
new_box
 62
7
100
AcDbLine
 10
85.749694
 20
544.861750
 30
0.0
 11
80.750833
 21
544.861750
 31
0.0
  0
LINE
  5
362
100
AcDbEntity
  8
new_box
 62
7
100
AcDbLine
 10
85.749694
 20
544.861750
 30
0.0
 11
85.749694
 21
557.956861
 31
0.0
  0
LINE
  5
363
100
AcDbEntity
  8
new_box
 62
7
100
AcDbLine
 10
85.749694
 20
557.956861
 30
0.0
 11
80.750833
 21
557.956861
 31
0.0
  0
LINE
  5
364
100
AcDbEntity
  8
new_box
 62
7
100
AcDbLine
 10
80.750833
 20
557.956861
 30
0.0
 11
80.750833
 21
571.552917
 31
0.0
  0
LINE
  5
365
100
AcDbEntity
  8
new_box
 62
7
100
AcDbLine
 10
85.749694
 20
571.552917
 30
0.0
 11
80.750833
 21
571.552917
 31
0.0
  0
LINE
  5
366
100
AcDbEntity
  8
new_box
 62
7
100
AcDbLine
 10
85.749694
 20
571.552917
 30
0.0
 11
85.749694
 21
584.648028
 31
0.0
  0
LINE
  5
367
100
AcDbEntity
  8
new_box
 62
7
100
AcDbLine
 10
85.749694
 20
584.648028
 30
0.0
 11
80.750833
 21
584.648028
 31
0.0
  0
LINE
  5
368
100
AcDbEntity
  8
new_box
 62
7
100
AcDbLine
 10
80.750833
 20
584.648028
 30
0.0
 11
80.750833
 21
598.244083
 31
0.0
  0
LINE
  5
369
100
AcDbEntity
  8
new_box
 62
7
100
AcDbLine
 10
85.749694
 20
598.244083
 30
0.0
 11
80.750833
 21
598.244083
 31
0.0
  0
LINE
  5
36a
100
AcDbEntity
  8
new_box
 62
7
100
AcDbLine
 10
85.749694
 20
598.244083
 30
0.0
 11
85.749694
 21
611.339194
 31
0.0
  0
LINE
  5
36b
100
AcDbEntity
  8
new_box
 62
7
100
AcDbLine
 10
85.749694
 20
611.339194
 30
0.0
 11
80.750833
 21
611.339194
 31
0.0
  0
LINE
  5
36c
100
AcDbEntity
  8
new_box
 62
7
100
AcDbLine
 10
80.750833
 20
611.339194
 30
0.0
 11
80.750833
 21
624.935250
 31
0.0
  0
LINE
  5
36d
100
AcDbEntity
  8
new_box
 62
7
100
AcDbLine
 10
85.749694
 20
624.935250
 30
0.0
 11
80.750833
 21
624.935250
 31
0.0
  0
LINE
  5
36e
100
AcDbEntity
  8
new_box
 62
7
100
AcDbLine
 10
85.749694
 20
624.935250
 30
0.0
 11
85.749694
 21
638.030361
 31
0.0
  0
LINE
  5
36f
100
AcDbEntity
  8
new_box
 62
7
100
AcDbLine
 10
85.749694
 20
638.030361
 30
0.0
 11
80.750833
 21
638.030361
 31
0.0
  0
LINE
  5
370
100
AcDbEntity
  8
new_box
 62
7
100
AcDbLine
 10
80.750833
 20
638.030361
 30
0.0
 11
80.750833
 21
651.499417
 31
0.0
  0
LINE
  5
371
100
AcDbEntity
  8
new_box
 62
7
100
AcDbLine
 10
426.000333
 20
371.249222
 30
0.0
 11
426.000333
 21
384.471333
 31
0.0
  0
LINE
  5
372
100
AcDbEntity
  8
new_box
 62
7
100
AcDbLine
 10
430.999194
 20
384.471333
 30
0.0
 11
426.000333
 21
384.471333
 31
0.0
  0
LINE
  5
373
100
AcDbEntity
  8
new_box
 62
7
100
AcDbLine
 10
430.999194
 20
384.471333
 30
0.0
 11
430.999194
 21
398.063861
 31
0.0
  0
LINE
  5
374
100
AcDbEntity
  8
new_box
 62
7
100
AcDbLine
 10
430.999194
 20
398.063861
 30
0.0
 11
426.000333
 21
398.063861
 31
0.0
  0
LINE
  5
375
100
AcDbEntity
  8
new_box
 62
7
100
AcDbLine
 10
426.000333
 20
398.063861
 30
0.0
 11
426.000333
 21
411.158972
 31
0.0
  0
LINE
  5
376
100
AcDbEntity
  8
new_box
 62
7
100
AcDbLine
 10
430.999194
 20
411.158972
 30
0.0
 11
426.000333
 21
411.158972
 31
0.0
  0
LINE
  5
377
100
AcDbEntity
  8
new_box
 62
7
100
AcDbLine
 10
430.999194
 20
411.158972
 30
0.0
 11
430.999194
 21
424.755028
 31
0.0
  0
LINE
  5
378
100
AcDbEntity
  8
new_box
 62
7
100
AcDbLine
 10
430.999194
 20
424.755028
 30
0.0
 11
426.000333
 21
424.755028
 31
0.0
  0
LINE
  5
379
100
AcDbEntity
  8
new_box
 62
7
100
AcDbLine
 10
426.000333
 20
424.755028
 30
0.0
 11
426.000333
 21
437.850139
 31
0.0
  0
LINE
  5
37a
100
AcDbEntity
  8
new_box
 62
7
100
AcDbLine
 10
430.999194
 20
437.850139
 30
0.0
 11
426.000333
 21
437.850139
 31
0.0
  0
LINE
  5
37b
100
AcDbEntity
  8
new_box
 62
7
100
AcDbLine
 10
430.999194
 20
437.850139
 30
0.0
 11
430.999194
 21
451.446194
 31
0.0
  0
LINE
  5
37c
100
AcDbEntity
  8
new_box
 62
7
100
AcDbLine
 10
430.999194
 20
451.446194
 30
0.0
 11
426.000333
 21
451.446194
 31
0.0
  0
LINE
  5
37d
100
AcDbEntity
  8
new_box
 62
7
100
AcDbLine
 10
426.000333
 20
451.446194
 30
0.0
 11
426.000333
 21
464.541306
 31
0.0
  0
LINE
  5
37e
100
AcDbEntity
  8
new_box
 62
7
100
AcDbLine
 10
430.999194
 20
464.541306
 30
0.0
 11
426.000333
 21
464.541306
 31
0.0
  0
LINE
  5
37f
100
AcDbEntity
  8
new_box
 62
7
100
AcDbLine
 10
430.999194
 20
464.541306
 30
0.0
 11
430.999194
 21
478.137361
 31
0.0
  0
LINE
  5
380
100
AcDbEntity
  8
new_box
 62
7
100
AcDbLine
 10
430.999194
 20
478.137361
 30
0.0
 11
426.000333
 21
478.137361
 31
0.0
  0
LINE
  5
381
100
AcDbEntity
  8
new_box
 62
7
100
AcDbLine
 10
426.000333
 20
478.137361
 30
0.0
 11
426.000333
 21
491.232472
 31
0.0
  0
LINE
  5
382
100
AcDbEntity
  8
new_box
 62
7
100
AcDbLine
 10
430.999194
 20
491.232472
 30
0.0
 11
426.000333
 21
491.232472
 31
0.0
  0
LINE
  5
383
100
AcDbEntity
  8
new_box
 62
7
100
AcDbLine
 10
430.999194
 20
491.232472
 30
0.0
 11
430.999194
 21
504.828528
 31
0.0
  0
LINE
  5
384
100
AcDbEntity
  8
new_box
 62
7
100
AcDbLine
 10
430.999194
 20
504.828528
 30
0.0
 11
426.000333
 21
504.828528
 31
0.0
  0
LINE
  5
385
100
AcDbEntity
  8
new_box
 62
7
100
AcDbLine
 10
426.000333
 20
504.828528
 30
0.0
 11
426.000333
 21
517.923639
 31
0.0
  0
LINE
  5
386
100
AcDbEntity
  8
new_box
 62
7
100
AcDbLine
 10
430.999194
 20
517.923639
 30
0.0
 11
426.000333
 21
517.923639
 31
0.0
  0
LINE
  5
387
100
AcDbEntity
  8
new_box
 62
7
100
AcDbLine
 10
430.999194
 20
517.923639
 30
0.0
 11
430.999194
 21
531.516167
 31
0.0
  0
LINE
  5
388
100
AcDbEntity
  8
new_box
 62
7
100
AcDbLine
 10
430.999194
 20
531.516167
 30
0.0
 11
426.000333
 21
531.516167
 31
0.0
  0
LINE
  5
389
100
AcDbEntity
  8
new_box
 62
7
100
AcDbLine
 10
426.000333
 20
531.516167
 30
0.0
 11
426.000333
 21
544.614806
 31
0.0
  0
LINE
  5
38a
100
AcDbEntity
  8
new_box
 62
7
100
AcDbLine
 10
430.999194
 20
544.614806
 30
0.0
 11
426.000333
 21
544.614806
 31
0.0
  0
LINE
  5
38b
100
AcDbEntity
  8
new_box
 62
7
100
AcDbLine
 10
430.999194
 20
544.614806
 30
0.0
 11
430.999194
 21
558.207333
 31
0.0
  0
LINE
  5
38c
100
AcDbEntity
  8
new_box
 62
7
100
AcDbLine
 10
430.999194
 20
558.207333
 30
0.0
 11
426.000333
 21
558.207333
 31
0.0
  0
LINE
  5
38d
100
AcDbEntity
  8
new_box
 62
7
100
AcDbLine
 10
426.000333
 20
558.207333
 30
0.0
 11
426.000333
 21
571.302444
 31
0.0
  0
LINE
  5
38e
100
AcDbEntity
  8
new_box
 62
7
100
AcDbLine
 10
430.999194
 20
571.302444
 30
0.0
 11
426.000333
 21
571.302444
 31
0.0
  0
LINE
  5
38f
100
AcDbEntity
  8
new_box
 62
7
100
AcDbLine
 10
430.999194
 20
571.302444
 30
0.0
 11
430.999194
 21
584.898500
 31
0.0
  0
LINE
  5
390
100
AcDbEntity
  8
new_box
 62
7
100
AcDbLine
 10
430.999194
 20
584.898500
 30
0.0
 11
426.000333
 21
584.898500
 31
0.0
  0
LINE
  5
391
100
AcDbEntity
  8
new_box
 62
7
100
AcDbLine
 10
426.000333
 20
584.898500
 30
0.0
 11
426.000333
 21
597.993611
 31
0.0
  0
LINE
  5
392
100
AcDbEntity
  8
new_box
 62
7
100
AcDbLine
 10
430.999194
 20
597.993611
 30
0.0
 11
426.000333
 21
597.993611
 31
0.0
  0
LINE
  5
393
100
AcDbEntity
  8
new_box
 62
7
100
AcDbLine
 10
430.999194
 20
597.993611
 30
0.0
 11
430.999194
 21
611.589667
 31
0.0
  0
LINE
  5
394
100
AcDbEntity
  8
new_box
 62
7
100
AcDbLine
 10
430.999194
 20
611.589667
 30
0.0
 11
426.000333
 21
611.589667
 31
0.0
  0
LINE
  5
395
100
AcDbEntity
  8
new_box
 62
7
100
AcDbLine
 10
426.000333
 20
611.589667
 30
0.0
 11
426.000333
 21
624.684778
 31
0.0
  0
LINE
  5
396
100
AcDbEntity
  8
new_box
 62
7
100
AcDbLine
 10
430.999194
 20
624.684778
 30
0.0
 11
426.000333
 21
624.684778
 31
0.0
  0
LINE
  5
397
100
AcDbEntity
  8
new_box
 62
7
100
AcDbLine
 10
430.999194
 20
624.684778
 30
0.0
 11
430.999194
 21
638.280833
 31
0.0
  0
LINE
  5
398
100
AcDbEntity
  8
new_box
 62
7
100
AcDbLine
 10
430.999194
 20
638.280833
 30
0.0
 11
426.000333
 21
638.280833
 31
0.0
  0
LINE
  5
399
100
AcDbEntity
  8
new_box
 62
7
100
AcDbLine
 10
426.000333
 20
638.280833
 30
0.0
 11
426.000333
 21
651.499417
 31
0.0
  0
LINE
  5
39a
100
AcDbEntity
  8
new_box
 62
7
100
AcDbLine
 10
85.749694
 20
666.750000
 30
0.0
 11
93.595472
 21
666.750000
 31
0.0
  0
LINE
  5
39b
100
AcDbEntity
  8
new_box
 62
7
100
AcDbLine
 10
93.595472
 20
666.750000
 30
0.0
 11
93.595472
 21
661.751139
 31
0.0
  0
LINE
  5
39c
100
AcDbEntity
  8
new_box
 62
7
100
AcDbLine
 10
93.595472
 20
661.751139
 30
0.0
 11
106.821111
 21
661.751139
 31
0.0
  0
LINE
  5
39d
100
AcDbEntity
  8
new_box
 62
7
100
AcDbLine
 10
106.821111
 20
666.750000
 30
0.0
 11
106.821111
 21
661.751139
 31
0.0
  0
LINE
  5
39e
100
AcDbEntity
  8
new_box
 62
7
100
AcDbLine
 10
106.821111
 20
666.750000
 30
0.0
 11
119.542278
 21
666.750000
 31
0.0
  0
LINE
  5
39f
100
AcDbEntity
  8
new_box
 62
7
100
AcDbLine
 10
119.542278
 20
666.750000
 30
0.0
 11
119.542278
 21
661.751139
 31
0.0
  0
LINE
  5
3a0
100
AcDbEntity
  8
new_box
 62
7
100
AcDbLine
 10
119.542278
 20
661.751139
 30
0.0
 11
132.764389
 21
661.751139
 31
0.0
  0
LINE
  5
3a1
100
AcDbEntity
  8
new_box
 62
7
100
AcDbLine
 10
132.764389
 20
666.750000
 30
0.0
 11
132.764389
 21
661.751139
 31
0.0
  0
LINE
  5
3a2
100
AcDbEntity
  8
new_box
 62
7
100
AcDbLine
 10
132.764389
 20
666.750000
 30
0.0
 11
145.485556
 21
666.750000
 31
0.0
  0
LINE
  5
3a3
100
AcDbEntity
  8
new_box
 62
7
100
AcDbLine
 10
145.485556
 20
666.750000
 30
0.0
 11
145.485556
 21
661.751139
 31
0.0
  0
LINE
  5
3a4
100
AcDbEntity
  8
new_box
 62
7
100
AcDbLine
 10
145.485556
 20
661.751139
 30
0.0
 11
158.707667
 21
661.751139
 31
0.0
  0
LINE
  5
3a5
100
AcDbEntity
  8
new_box
 62
7
100
AcDbLine
 10
158.707667
 20
666.750000
 30
0.0
 11
158.707667
 21
661.751139
 31
0.0
  0
LINE
  5
3a6
100
AcDbEntity
  8
new_box
 62
7
100
AcDbLine
 10
158.707667
 20
666.750000
 30
0.0
 11
171.428833
 21
666.750000
 31
0.0
  0
LINE
  5
3a7
100
AcDbEntity
  8
new_box
 62
7
100
AcDbLine
 10
171.428833
 20
666.750000
 30
0.0
 11
171.428833
 21
661.751139
 31
0.0
  0
LINE
  5
3a8
100
AcDbEntity
  8
new_box
 62
7
100
AcDbLine
 10
171.428833
 20
661.751139
 30
0.0
 11
184.654472
 21
661.751139
 31
0.0
  0
LINE
  5
3a9
100
AcDbEntity
  8
new_box
 62
7
100
AcDbLine
 10
184.654472
 20
666.750000
 30
0.0
 11
184.654472
 21
661.751139
 31
0.0
  0
LINE
  5
3aa
100
AcDbEntity
  8
new_box
 62
7
100
AcDbLine
 10
184.654472
 20
666.750000
 30
0.0
 11
197.375639
 21
666.750000
 31
0.0
  0
LINE
  5
3ab
100
AcDbEntity
  8
new_box
 62
7
100
AcDbLine
 10
197.375639
 20
666.750000
 30
0.0
 11
197.375639
 21
661.751139
 31
0.0
  0
LINE
  5
3ac
100
AcDbEntity
  8
new_box
 62
7
100
AcDbLine
 10
197.375639
 20
661.751139
 30
0.0
 11
210.597750
 21
661.751139
 31
0.0
  0
LINE
  5
3ad
100
AcDbEntity
  8
new_box
 62
7
100
AcDbLine
 10
210.597750
 20
666.750000
 30
0.0
 11
210.597750
 21
661.751139
 31
0.0
  0
LINE
  5
3ae
100
AcDbEntity
  8
new_box
 62
7
100
AcDbLine
 10
210.597750
 20
666.750000
 30
0.0
 11
223.318917
 21
666.750000
 31
0.0
  0
LINE
  5
3af
100
AcDbEntity
  8
new_box
 62
7
100
AcDbLine
 10
223.318917
 20
666.750000
 30
0.0
 11
223.318917
 21
661.751139
 31
0.0
  0
LINE
  5
3b0
100
AcDbEntity
  8
new_box
 62
7
100
AcDbLine
 10
223.318917
 20
661.751139
 30
0.0
 11
236.541028
 21
661.751139
 31
0.0
  0
LINE
  5
3b1
100
AcDbEntity
  8
new_box
 62
7
100
AcDbLine
 10
236.541028
 20
666.750000
 30
0.0
 11
236.541028
 21
661.751139
 31
0.0
  0
LINE
  5
3b2
100
AcDbEntity
  8
new_box
 62
7
100
AcDbLine
 10
236.541028
 20
666.750000
 30
0.0
 11
249.262194
 21
666.750000
 31
0.0
  0
LINE
  5
3b3
100
AcDbEntity
  8
new_box
 62
7
100
AcDbLine
 10
249.262194
 20
666.750000
 30
0.0
 11
249.262194
 21
661.751139
 31
0.0
  0
LINE
  5
3b4
100
AcDbEntity
  8
new_box
 62
7
100
AcDbLine
 10
249.262194
 20
661.751139
 30
0.0
 11
262.487833
 21
661.751139
 31
0.0
  0
LINE
  5
3b5
100
AcDbEntity
  8
new_box
 62
7
100
AcDbLine
 10
262.487833
 20
666.750000
 30
0.0
 11
262.487833
 21
661.751139
 31
0.0
  0
LINE
  5
3b6
100
AcDbEntity
  8
new_box
 62
7
100
AcDbLine
 10
262.487833
 20
666.750000
 30
0.0
 11
275.209000
 21
666.750000
 31
0.0
  0
LINE
  5
3b7
100
AcDbEntity
  8
new_box
 62
7
100
AcDbLine
 10
275.209000
 20
666.750000
 30
0.0
 11
275.209000
 21
661.751139
 31
0.0
  0
LINE
  5
3b8
100
AcDbEntity
  8
new_box
 62
7
100
AcDbLine
 10
275.209000
 20
661.751139
 30
0.0
 11
288.431111
 21
661.751139
 31
0.0
  0
LINE
  5
3b9
100
AcDbEntity
  8
new_box
 62
7
100
AcDbLine
 10
288.431111
 20
666.750000
 30
0.0
 11
288.431111
 21
661.751139
 31
0.0
  0
LINE
  5
3ba
100
AcDbEntity
  8
new_box
 62
7
100
AcDbLine
 10
288.431111
 20
666.750000
 30
0.0
 11
301.152278
 21
666.750000
 31
0.0
  0
LINE
  5
3bb
100
AcDbEntity
  8
new_box
 62
7
100
AcDbLine
 10
301.152278
 20
666.750000
 30
0.0
 11
301.152278
 21
661.751139
 31
0.0
  0
LINE
  5
3bc
100
AcDbEntity
  8
new_box
 62
7
100
AcDbLine
 10
301.152278
 20
661.751139
 30
0.0
 11
314.374389
 21
661.751139
 31
0.0
  0
LINE
  5
3bd
100
AcDbEntity
  8
new_box
 62
7
100
AcDbLine
 10
314.374389
 20
666.750000
 30
0.0
 11
314.374389
 21
661.751139
 31
0.0
  0
LINE
  5
3be
100
AcDbEntity
  8
new_box
 62
7
100
AcDbLine
 10
314.374389
 20
666.750000
 30
0.0
 11
327.099083
 21
666.750000
 31
0.0
  0
LINE
  5
3bf
100
AcDbEntity
  8
new_box
 62
7
100
AcDbLine
 10
327.099083
 20
666.750000
 30
0.0
 11
327.099083
 21
661.751139
 31
0.0
  0
LINE
  5
3c0
100
AcDbEntity
  8
new_box
 62
7
100
AcDbLine
 10
327.099083
 20
661.751139
 30
0.0
 11
340.321194
 21
661.751139
 31
0.0
  0
LINE
  5
3c1
100
AcDbEntity
  8
new_box
 62
7
100
AcDbLine
 10
340.321194
 20
666.750000
 30
0.0
 11
340.321194
 21
661.751139
 31
0.0
  0
LINE
  5
3c2
100
AcDbEntity
  8
new_box
 62
7
100
AcDbLine
 10
340.321194
 20
666.750000
 30
0.0
 11
353.042361
 21
666.750000
 31
0.0
  0
LINE
  5
3c3
100
AcDbEntity
  8
new_box
 62
7
100
AcDbLine
 10
353.042361
 20
666.750000
 30
0.0
 11
353.042361
 21
661.751139
 31
0.0
  0
LINE
  5
3c4
100
AcDbEntity
  8
new_box
 62
7
100
AcDbLine
 10
353.042361
 20
661.751139
 30
0.0
 11
366.264472
 21
661.751139
 31
0.0
  0
LINE
  5
3c5
100
AcDbEntity
  8
new_box
 62
7
100
AcDbLine
 10
366.264472
 20
666.750000
 30
0.0
 11
366.264472
 21
661.751139
 31
0.0
  0
LINE
  5
3c6
100
AcDbEntity
  8
new_box
 62
7
100
AcDbLine
 10
366.264472
 20
666.750000
 30
0.0
 11
378.985639
 21
666.750000
 31
0.0
  0
LINE
  5
3c7
100
AcDbEntity
  8
new_box
 62
7
100
AcDbLine
 10
378.985639
 20
666.750000
 30
0.0
 11
378.985639
 21
661.751139
 31
0.0
  0
LINE
  5
3c8
100
AcDbEntity
  8
new_box
 62
7
100
AcDbLine
 10
378.985639
 20
661.751139
 30
0.0
 11
392.207750
 21
661.751139
 31
0.0
  0
LINE
  5
3c9
100
AcDbEntity
  8
new_box
 62
7
100
AcDbLine
 10
392.207750
 20
666.750000
 30
0.0
 11
392.207750
 21
661.751139
 31
0.0
  0
LINE
  5
3ca
100
AcDbEntity
  8
new_box
 62
7
100
AcDbLine
 10
392.207750
 20
666.750000
 30
0.0
 11
404.932444
 21
666.750000
 31
0.0
  0
LINE
  5
3cb
100
AcDbEntity
  8
new_box
 62
7
100
AcDbLine
 10
404.932444
 20
666.750000
 30
0.0
 11
404.932444
 21
661.751139
 31
0.0
  0
LINE
  5
3cc
100
AcDbEntity
  8
new_box
 62
7
100
AcDbLine
 10
404.932444
 20
661.751139
 30
0.0
 11
418.154556
 21
661.751139
 31
0.0
  0
LINE
  5
3cd
100
AcDbEntity
  8
new_box
 62
7
100
AcDbLine
 10
418.154556
 20
666.750000
 30
0.0
 11
418.154556
 21
661.751139
 31
0.0
  0
LINE
  5
3ce
100
AcDbEntity
  8
new_box
 62
7
100
AcDbLine
 10
418.154556
 20
666.750000
 30
0.0
 11
426.000333
 21
666.750000
 31
0.0
  0
LINE
  5
3cf
100
AcDbEntity
  8
new_box
 62
7
100
AcDbLine
 10
85.749694
 20
716.999667
 30
0.0
 11
93.595472
 21
716.999667
 31
0.0
  0
LINE
  5
3d0
100
AcDbEntity
  8
new_box
 62
7
100
AcDbLine
 10
93.595472
 20
721.998528
 30
0.0
 11
93.595472
 21
716.999667
 31
0.0
  0
LINE
  5
3d1
100
AcDbEntity
  8
new_box
 62
7
100
AcDbLine
 10
93.595472
 20
721.998528
 30
0.0
 11
106.821111
 21
721.998528
 31
0.0
  0
LINE
  5
3d2
100
AcDbEntity
  8
new_box
 62
7
100
AcDbLine
 10
106.821111
 20
721.998528
 30
0.0
 11
106.821111
 21
716.999667
 31
0.0
  0
LINE
  5
3d3
100
AcDbEntity
  8
new_box
 62
7
100
AcDbLine
 10
106.821111
 20
716.999667
 30
0.0
 11
119.542278
 21
716.999667
 31
0.0
  0
LINE
  5
3d4
100
AcDbEntity
  8
new_box
 62
7
100
AcDbLine
 10
119.542278
 20
721.998528
 30
0.0
 11
119.542278
 21
716.999667
 31
0.0
  0
LINE
  5
3d5
100
AcDbEntity
  8
new_box
 62
7
100
AcDbLine
 10
119.542278
 20
721.998528
 30
0.0
 11
132.764389
 21
721.998528
 31
0.0
  0
LINE
  5
3d6
100
AcDbEntity
  8
new_box
 62
7
100
AcDbLine
 10
132.764389
 20
721.998528
 30
0.0
 11
132.764389
 21
716.999667
 31
0.0
  0
LINE
  5
3d7
100
AcDbEntity
  8
new_box
 62
7
100
AcDbLine
 10
132.764389
 20
716.999667
 30
0.0
 11
145.485556
 21
716.999667
 31
0.0
  0
LINE
  5
3d8
100
AcDbEntity
  8
new_box
 62
7
100
AcDbLine
 10
145.485556
 20
721.998528
 30
0.0
 11
145.485556
 21
716.999667
 31
0.0
  0
LINE
  5
3d9
100
AcDbEntity
  8
new_box
 62
7
100
AcDbLine
 10
145.485556
 20
721.998528
 30
0.0
 11
158.707667
 21
721.998528
 31
0.0
  0
LINE
  5
3da
100
AcDbEntity
  8
new_box
 62
7
100
AcDbLine
 10
158.707667
 20
721.998528
 30
0.0
 11
158.707667
 21
716.999667
 31
0.0
  0
LINE
  5
3db
100
AcDbEntity
  8
new_box
 62
7
100
AcDbLine
 10
158.707667
 20
716.999667
 30
0.0
 11
171.428833
 21
716.999667
 31
0.0
  0
LINE
  5
3dc
100
AcDbEntity
  8
new_box
 62
7
100
AcDbLine
 10
171.428833
 20
721.998528
 30
0.0
 11
171.428833
 21
716.999667
 31
0.0
  0
LINE
  5
3dd
100
AcDbEntity
  8
new_box
 62
7
100
AcDbLine
 10
171.428833
 20
721.998528
 30
0.0
 11
184.654472
 21
721.998528
 31
0.0
  0
LINE
  5
3de
100
AcDbEntity
  8
new_box
 62
7
100
AcDbLine
 10
184.654472
 20
721.998528
 30
0.0
 11
184.654472
 21
716.999667
 31
0.0
  0
LINE
  5
3df
100
AcDbEntity
  8
new_box
 62
7
100
AcDbLine
 10
184.654472
 20
716.999667
 30
0.0
 11
197.375639
 21
716.999667
 31
0.0
  0
LINE
  5
3e0
100
AcDbEntity
  8
new_box
 62
7
100
AcDbLine
 10
197.375639
 20
721.998528
 30
0.0
 11
197.375639
 21
716.999667
 31
0.0
  0
LINE
  5
3e1
100
AcDbEntity
  8
new_box
 62
7
100
AcDbLine
 10
197.375639
 20
721.998528
 30
0.0
 11
210.597750
 21
721.998528
 31
0.0
  0
LINE
  5
3e2
100
AcDbEntity
  8
new_box
 62
7
100
AcDbLine
 10
210.597750
 20
721.998528
 30
0.0
 11
210.597750
 21
716.999667
 31
0.0
  0
LINE
  5
3e3
100
AcDbEntity
  8
new_box
 62
7
100
AcDbLine
 10
210.597750
 20
716.999667
 30
0.0
 11
223.318917
 21
716.999667
 31
0.0
  0
LINE
  5
3e4
100
AcDbEntity
  8
new_box
 62
7
100
AcDbLine
 10
223.318917
 20
721.998528
 30
0.0
 11
223.318917
 21
716.999667
 31
0.0
  0
LINE
  5
3e5
100
AcDbEntity
  8
new_box
 62
7
100
AcDbLine
 10
223.318917
 20
721.998528
 30
0.0
 11
236.541028
 21
721.998528
 31
0.0
  0
LINE
  5
3e6
100
AcDbEntity
  8
new_box
 62
7
100
AcDbLine
 10
236.541028
 20
721.998528
 30
0.0
 11
236.541028
 21
716.999667
 31
0.0
  0
LINE
  5
3e7
100
AcDbEntity
  8
new_box
 62
7
100
AcDbLine
 10
236.541028
 20
716.999667
 30
0.0
 11
249.262194
 21
716.999667
 31
0.0
  0
LINE
  5
3e8
100
AcDbEntity
  8
new_box
 62
7
100
AcDbLine
 10
249.262194
 20
721.998528
 30
0.0
 11
249.262194
 21
716.999667
 31
0.0
  0
LINE
  5
3e9
100
AcDbEntity
  8
new_box
 62
7
100
AcDbLine
 10
249.262194
 20
721.998528
 30
0.0
 11
262.487833
 21
721.998528
 31
0.0
  0
LINE
  5
3ea
100
AcDbEntity
  8
new_box
 62
7
100
AcDbLine
 10
262.487833
 20
721.998528
 30
0.0
 11
262.487833
 21
716.999667
 31
0.0
  0
LINE
  5
3eb
100
AcDbEntity
  8
new_box
 62
7
100
AcDbLine
 10
262.487833
 20
716.999667
 30
0.0
 11
275.209000
 21
716.999667
 31
0.0
  0
LINE
  5
3ec
100
AcDbEntity
  8
new_box
 62
7
100
AcDbLine
 10
275.209000
 20
721.998528
 30
0.0
 11
275.209000
 21
716.999667
 31
0.0
  0
LINE
  5
3ed
100
AcDbEntity
  8
new_box
 62
7
100
AcDbLine
 10
275.209000
 20
721.998528
 30
0.0
 11
288.431111
 21
721.998528
 31
0.0
  0
LINE
  5
3ee
100
AcDbEntity
  8
new_box
 62
7
100
AcDbLine
 10
288.431111
 20
721.998528
 30
0.0
 11
288.431111
 21
716.999667
 31
0.0
  0
LINE
  5
3ef
100
AcDbEntity
  8
new_box
 62
7
100
AcDbLine
 10
288.431111
 20
716.999667
 30
0.0
 11
301.152278
 21
716.999667
 31
0.0
  0
LINE
  5
3f0
100
AcDbEntity
  8
new_box
 62
7
100
AcDbLine
 10
301.152278
 20
721.998528
 30
0.0
 11
301.152278
 21
716.999667
 31
0.0
  0
LINE
  5
3f1
100
AcDbEntity
  8
new_box
 62
7
100
AcDbLine
 10
301.152278
 20
721.998528
 30
0.0
 11
314.374389
 21
721.998528
 31
0.0
  0
LINE
  5
3f2
100
AcDbEntity
  8
new_box
 62
7
100
AcDbLine
 10
314.374389
 20
721.998528
 30
0.0
 11
314.374389
 21
716.999667
 31
0.0
  0
LINE
  5
3f3
100
AcDbEntity
  8
new_box
 62
7
100
AcDbLine
 10
314.374389
 20
716.999667
 30
0.0
 11
327.099083
 21
716.999667
 31
0.0
  0
LINE
  5
3f4
100
AcDbEntity
  8
new_box
 62
7
100
AcDbLine
 10
327.099083
 20
721.998528
 30
0.0
 11
327.099083
 21
716.999667
 31
0.0
  0
LINE
  5
3f5
100
AcDbEntity
  8
new_box
 62
7
100
AcDbLine
 10
327.099083
 20
721.998528
 30
0.0
 11
340.321194
 21
721.998528
 31
0.0
  0
LINE
  5
3f6
100
AcDbEntity
  8
new_box
 62
7
100
AcDbLine
 10
340.321194
 20
721.998528
 30
0.0
 11
340.321194
 21
716.999667
 31
0.0
  0
LINE
  5
3f7
100
AcDbEntity
  8
new_box
 62
7
100
AcDbLine
 10
340.321194
 20
716.999667
 30
0.0
 11
353.042361
 21
716.999667
 31
0.0
  0
LINE
  5
3f8
100
AcDbEntity
  8
new_box
 62
7
100
AcDbLine
 10
353.042361
 20
721.998528
 30
0.0
 11
353.042361
 21
716.999667
 31
0.0
  0
LINE
  5
3f9
100
AcDbEntity
  8
new_box
 62
7
100
AcDbLine
 10
353.042361
 20
721.998528
 30
0.0
 11
366.264472
 21
721.998528
 31
0.0
  0
LINE
  5
3fa
100
AcDbEntity
  8
new_box
 62
7
100
AcDbLine
 10
366.264472
 20
721.998528
 30
0.0
 11
366.264472
 21
716.999667
 31
0.0
  0
LINE
  5
3fb
100
AcDbEntity
  8
new_box
 62
7
100
AcDbLine
 10
366.264472
 20
716.999667
 30
0.0
 11
378.985639
 21
716.999667
 31
0.0
  0
LINE
  5
3fc
100
AcDbEntity
  8
new_box
 62
7
100
AcDbLine
 10
378.985639
 20
721.998528
 30
0.0
 11
378.985639
 21
716.999667
 31
0.0
  0
LINE
  5
3fd
100
AcDbEntity
  8
new_box
 62
7
100
AcDbLine
 10
378.985639
 20
721.998528
 30
0.0
 11
392.207750
 21
721.998528
 31
0.0
  0
LINE
  5
3fe
100
AcDbEntity
  8
new_box
 62
7
100
AcDbLine
 10
392.207750
 20
721.998528
 30
0.0
 11
392.207750
 21
716.999667
 31
0.0
  0
LINE
  5
3ff
100
AcDbEntity
  8
new_box
 62
7
100
AcDbLine
 10
392.207750
 20
716.999667
 30
0.0
 11
404.932444
 21
716.999667
 31
0.0
  0
LINE
  5
400
100
AcDbEntity
  8
new_box
 62
7
100
AcDbLine
 10
404.932444
 20
721.998528
 30
0.0
 11
404.932444
 21
716.999667
 31
0.0
  0
LINE
  5
401
100
AcDbEntity
  8
new_box
 62
7
100
AcDbLine
 10
404.932444
 20
721.998528
 30
0.0
 11
418.154556
 21
721.998528
 31
0.0
  0
LINE
  5
402
100
AcDbEntity
  8
new_box
 62
7
100
AcDbLine
 10
418.154556
 20
721.998528
 30
0.0
 11
418.154556
 21
716.999667
 31
0.0
  0
LINE
  5
403
100
AcDbEntity
  8
new_box
 62
7
100
AcDbLine
 10
418.154556
 20
716.999667
 30
0.0
 11
426.000333
 21
716.999667
 31
0.0
  0
LINE
  5
404
100
AcDbEntity
  8
new_box
 62
7
100
AcDbLine
 10
85.749694
 20
666.750000
 30
0.0
 11
85.749694
 21
673.675028
 31
0.0
  0
LINE
  5
405
100
AcDbEntity
  8
new_box
 62
7
100
AcDbLine
 10
85.749694
 20
673.675028
 30
0.0
 11
80.750833
 21
673.675028
 31
0.0
  0
LINE
  5
406
100
AcDbEntity
  8
new_box
 62
7
100
AcDbLine
 10
80.750833
 20
673.675028
 30
0.0
 11
80.750833
 21
685.976389
 31
0.0
  0
LINE
  5
407
100
AcDbEntity
  8
new_box
 62
7
100
AcDbLine
 10
85.749694
 20
685.976389
 30
0.0
 11
80.750833
 21
685.976389
 31
0.0
  0
LINE
  5
408
100
AcDbEntity
  8
new_box
 62
7
100
AcDbLine
 10
85.749694
 20
685.976389
 30
0.0
 11
85.749694
 21
697.773278
 31
0.0
  0
LINE
  5
409
100
AcDbEntity
  8
new_box
 62
7
100
AcDbLine
 10
85.749694
 20
697.773278
 30
0.0
 11
80.750833
 21
697.773278
 31
0.0
  0
LINE
  5
40a
100
AcDbEntity
  8
new_box
 62
7
100
AcDbLine
 10
80.750833
 20
697.773278
 30
0.0
 11
80.750833
 21
710.074639
 31
0.0
  0
LINE
  5
40b
100
AcDbEntity
  8
new_box
 62
7
100
AcDbLine
 10
85.749694
 20
710.074639
 30
0.0
 11
80.750833
 21
710.074639
 31
0.0
  0
LINE
  5
40c
100
AcDbEntity
  8
new_box
 62
7
100
AcDbLine
 10
85.749694
 20
710.074639
 30
0.0
 11
85.749694
 21
716.999667
 31
0.0
  0
LINE
  5
40d
100
AcDbEntity
  8
new_box
 62
7
100
AcDbLine
 10
426.000333
 20
666.750000
 30
0.0
 11
426.000333
 21
673.675028
 31
0.0
  0
LINE
  5
40e
100
AcDbEntity
  8
new_box
 62
7
100
AcDbLine
 10
430.999194
 20
673.675028
 30
0.0
 11
426.000333
 21
673.675028
 31
0.0
  0
LINE
  5
40f
100
AcDbEntity
  8
new_box
 62
7
100
AcDbLine
 10
430.999194
 20
673.675028
 30
0.0
 11
430.999194
 21
685.976389
 31
0.0
  0
LINE
  5
410
100
AcDbEntity
  8
new_box
 62
7
100
AcDbLine
 10
430.999194
 20
685.976389
 30
0.0
 11
426.000333
 21
685.976389
 31
0.0
  0
LINE
  5
411
100
AcDbEntity
  8
new_box
 62
7
100
AcDbLine
 10
426.000333
 20
685.976389
 30
0.0
 11
426.000333
 21
697.773278
 31
0.0
  0
LINE
  5
412
100
AcDbEntity
  8
new_box
 62
7
100
AcDbLine
 10
430.999194
 20
697.773278
 30
0.0
 11
426.000333
 21
697.773278
 31
0.0
  0
LINE
  5
413
100
AcDbEntity
  8
new_box
 62
7
100
AcDbLine
 10
430.999194
 20
697.773278
 30
0.0
 11
430.999194
 21
710.074639
 31
0.0
  0
LINE
  5
414
100
AcDbEntity
  8
new_box
 62
7
100
AcDbLine
 10
430.999194
 20
710.074639
 30
0.0
 11
426.000333
 21
710.074639
 31
0.0
  0
LINE
  5
415
100
AcDbEntity
  8
new_box
 62
7
100
AcDbLine
 10
426.000333
 20
710.074639
 30
0.0
 11
426.000333
 21
716.999667
 31
0.0
  0
SPLINE
  5
416
100
AcDbEntity
  8
new_box
 62
7
100
AcDbSpline
 70
8
 71
3
 72
8
 73
4
 74
0
 40
0
 40
0
 40
0
 40
0
 40
1
 40
1
 40
1
 40
1
 10
80.772656
 20
517.622614
 30
0.0
 10
80.563399
 20
398.004136
 30
0.0
 10
80.563399
 20
398.004136
 30
0.0
 10
80.563399
 20
398.004136
 30
0.0
  0
LINE
  5
417
100
AcDbEntity
  8
new_box
 62
7
100
AcDbLine
 10
67.798809
 20
518.116848
 30
0.0
 11
67.798809
 21
500.120864
 31
0.0
  0
LINE
  5
418
100
AcDbEntity
  8
new_box
 62
7
100
AcDbLine
 10
67.798809
 20
500.120864
 30
0.0
 11
43.315904
 21
500.120864
 31
0.0
  0
LINE
  5
419
100
AcDbEntity
  8
new_box
 62
7
100
AcDbLine
 10
43.315904
 20
500.120864
 30
0.0
 11
43.315904
 21
410.350236
 31
0.0
  0
LINE
  5
41a
100
AcDbEntity
  8
new_box
 62
7
100
AcDbLine
 10
43.315904
 20
410.350236
 30
0.0
 11
67.798809
 21
410.350236
 31
0.0
  0
LINE
  5
41b
100
AcDbEntity
  8
new_box
 62
7
100
AcDbLine
 10
67.798809
 20
410.350236
 30
0.0
 11
67.798809
 21
398.004143
 31
0.0
  0
ENDSEC
  0
SECTION
  2
OBJECTS
  0
DICTIONARY
  5
C
330
0
100
AcDbDictionary
  3
ACAD_GROUP
350
D
  3
ACAD_MLINESTYLE
350
17
  0
DICTIONARY
  5
D
330
C
100
AcDbDictionary
  0
DICTIONARY
  5
1A
330
C
100
AcDbDictionary
  0
DICTIONARY
  5
17
330
C
100
AcDbDictionary
  3
STANDARD
350
18
  0
DICTIONARY
  5
19
330
C
100
AcDbDictionary
  0
ENDSEC
  0
EOF
