999
dxfrw 0.5.10
0
SECTION
2
HEADER
9
$ACADVER
1
AC1021
9
$HANDSEED
5
20000
9
$DWGCODEPAGE
3
ANSI_1252
9
$INSBASE
10
0
20
0
30
0
9
$EXTMIN
10
7.55142
20
10.251722
30
0
9
$EXTMAX
10
500
20
721.998528
30
0
9
$LIMMIN
10
0
20
0
9
$LIMMAX
10
420
20
297
9
$ORTHOMODE
70
0
9
$LTSCALE
40
1
9
$TEXTSTYLE
7
STANDARD
9
$CLAYER
8
0
9
$DIMASZ
40
2.5
9
$DIMLFAC
40
1
9
$DIMSCALE
40
1
9
$DIMEXO
40
0.625
9
$DIMEXE
40
1.25
9
$DIMTXT
40
2.5
9
$DIMTSZ
40
0
9
$DIMAUNIT
70
0
9
$DIMADEC
70
0
9
$DIMLUNIT
70
2
9
$DIMSTYLE
2
Standard
9
$DIMGAP
40
0.625
9
$DIMTIH
70
0
9
$LUNITS
70
2
9
$LUPREC
70
4
9
$AUNITS
70
0
9
$AUPREC
70
2
9
$SPLINESEGS
70
8
9
$GRIDMODE
70
0
9
$SNAPSTYLE
70
0
9
$PINSBASE
10
0
20
0
30
0
9
$PLIMMIN
10
0
20
0
9
$PLIMMAX
10
210
20
297
9
$INSUNITS
70
4
9
$PSVPSCALE
40
1
0
ENDSEC
0
SECTION
2
CLASSES
0
ENDSEC
0
SECTION
2
TABLES
0
TABLE
2
VPORT
5
8
330
0
100
AcDbSymbolTable
70
1
0
VPORT
5
31
330
2
100
AcDbSymbolTableRecord
100
AcDbViewportTableRecord
2
*ACTIVE
70
0
10
0
20
0
11
1
21
1
12
499.226795745
22
366.471513748
13
0
23
0
14
10
24
10
15
10
25
10
16
0
26
0
36
1
17
0
27
0
37
0
40
734.0586181
41
2.0273556231
42
50
43
0
44
0
50
0
51
0
71
0
72
100
73
1
74
3
75
0
76
0
77
0
78
0
281
0
65
1
110
0
120
0
130
0
111
1
121
0
131
0
112
0
122
1
132
0
79
0
146
0
348
10020
60
7
61
5
292
1
282
1
141
0
142
0
63
250
421
3358443
0
ENDTAB
0
TABLE
2
LTYPE
5
5
330
0
100
AcDbSymbolTable
70
4
0
LTYPE
5
14
330
5
100
AcDbSymbolTableRecord
100
AcDbLinetypeTableRecord
2
ByBlock
70
0
3

72
65
73
0
40
0
0
LTYPE
5
15
330
5
100
AcDbSymbolTableRecord
100
AcDbLinetypeTableRecord
2
ByLayer
70
0
3

72
65
73
0
40
0
0
LTYPE
5
16
330
5
100
AcDbSymbolTableRecord
100
AcDbLinetypeTableRecord
2
Continuous
70
0
3
Solid line
72
65
73
0
40
0
0
LTYPE
5
32
330
5
100
AcDbSymbolTableRecord
100
AcDbLinetypeTableRecord
2
DOT
70
0
3
Dot . . . . . . . . . . . . . . . . . . . . . .
72
65
73
2
40
6.35
49
0
74
0
49
-6.35
74
0
0
LTYPE
5
33
330
5
100
AcDbSymbolTableRecord
100
AcDbLinetypeTableRecord
2
DOT2
70
0
3
Dot (.5x) .....................................
72
65
73
2
40
3.175
49
0
74
0
49
-3.175
74
0
0
LTYPE
5
34
330
5
100
AcDbSymbolTableRecord
100
AcDbLinetypeTableRecord
2
DOTX2
70
0
3
Dot (2x) .  .  .  .  .  .  .  .  .  .  .  .  .
72
65
73
2
40
12.7
49
0
74
0
49
-12.7
74
0
0
LTYPE
5
35
330
5
100
AcDbSymbolTableRecord
100
AcDbLinetypeTableRecord
2
DASHED
70
0
3
Dot . . . . . . . . . . . . . . . . . . . . . .
72
65
73
2
40
19.05
49
12.7
74
0
49
-6.35
74
0
0
LTYPE
5
36
330
5
100
AcDbSymbolTableRecord
100
AcDbLinetypeTableRecord
2
DASHED2
70
0
3
Dashed (.5x) _ _ _ _ _ _ _ _ _ _ _ _ _ _ _ _ _
72
65
73
2
40
9.525
49
6.35
74
0
49
-3.175
74
0
0
LTYPE
5
37
330
5
100
AcDbSymbolTableRecord
100
AcDbLinetypeTableRecord
2
DASHEDX2
70
0
3
Dashed (2x) ____  ____  ____  ____  ____  ___
72
65
73
2
40
38.1
49
25.4
74
0
49
-12.7
74
0
0
LTYPE
5
38
330
5
100
AcDbSymbolTableRecord
100
AcDbLinetypeTableRecord
2
DASHDOT
70
0
3
Dash dot __ . __ . __ . __ . __ . __ . __ . __
72
65
73
4
40
25.4
49
12.7
74
0
49
-6.35
74
0
49
0
74
0
49
-6.35
74
0
0
LTYPE
5
39
330
5
100
AcDbSymbolTableRecord
100
AcDbLinetypeTableRecord
2
DASHDOT2
70
0
3
Dash dot (.5x) _._._._._._._._._._._._._._._.
72
65
73
4
40
12.7
49
6.35
74
0
49
-3.175
74
0
49
0
74
0
49
-3.175
74
0
0
LTYPE
5
3A
330
5
100
AcDbSymbolTableRecord
100
AcDbLinetypeTableRecord
2
DASHDOTX2
70
0
3
Dash dot (2x) ____  .  ____  .  ____  .  ___
72
65
73
4
40
50.8
49
25.4
74
0
49
-12.7
74
0
49
0
74
0
49
-12.7
74
0
0
LTYPE
5
3B
330
5
100
AcDbSymbolTableRecord
100
AcDbLinetypeTableRecord
2
DIVIDE
70
0
3
Divide ____ . . ____ . . ____ . . ____ . . ____
72
65
73
6
40
31.75
49
12.7
74
0
49
-6.35
74
0
49
0
74
0
49
-6.35
74
0
49
0
74
0
49
-6.35
74
0
0
LTYPE
5
3C
330
5
100
AcDbSymbolTableRecord
100
AcDbLinetypeTableRecord
2
DIVIDE2
70
0
3
Divide (.5x) __..__..__..__..__..__..__..__.._
72
65
73
6
40
15.875
49
6.35
74
0
49
-3.175
74
0
49
0
74
0
49
-3.175
74
0
49
0
74
0
49
-3.175
74
0
0
LTYPE
5
3D
330
5
100
AcDbSymbolTableRecord
100
AcDbLinetypeTableRecord
2
DIVIDEX2
70
0
3
Divide (2x) ________  .  .  ________  .  .  _
72
65
73
6
40
63.5
49
25.4
74
0
49
-12.7
74
0
49
0
74
0
49
-12.7
74
0
49
0
74
0
49
-12.7
74
0
0
LTYPE
5
3E
330
5
100
AcDbSymbolTableRecord
100
AcDbLinetypeTableRecord
2
BORDER
70
0
3
Border __ __ . __ __ . __ __ . __ __ . __ __ .
72
65
73
6
40
44.45
49
12.7
74
0
49
-6.35
74
0
49
12.7
74
0
49
-6.35
74
0
49
0
74
0
49
-6.35
74
0
0
LTYPE
5
3F
330
5
100
AcDbSymbolTableRecord
100
AcDbLinetypeTableRecord
2
BORDER2
70
0
3
Border (.5x) __.__.__.__.__.__.__.__.__.__.__.
72
65
73
6
40
22.225
49
6.35
74
0
49
-3.175
74
0
49
6.35
74
0
49
-3.175
74
0
49
0
74
0
49
-3.175
74
0
0
LTYPE
5
40
330
5
100
AcDbSymbolTableRecord
100
AcDbLinetypeTableRecord
2
BORDERX2
70
0
3
Border (2x) ____  ____  .  ____  ____  .  ___
72
65
73
6
40
88.9
49
25.4
74
0
49
-12.7
74
0
49
25.4
74
0
49
-12.7
74
0
49
0
74
0
49
-12.7
74
0
0
LTYPE
5
41
330
5
100
AcDbSymbolTableRecord
100
AcDbLinetypeTableRecord
2
CENTER
70
0
3
Center ____ _ ____ _ ____ _ ____ _ ____ _ ____
72
65
73
4
40
50.8
49
31.75
74
0
49
-6.35
74
0
49
6.35
74
0
49
-6.35
74
0
0
LTYPE
5
42
330
5
100
AcDbSymbolTableRecord
100
AcDbLinetypeTableRecord
2
CENTER2
70
0
3
Center (.5x) ___ _ ___ _ ___ _ ___ _ ___ _ ___
72
65
73
4
40
28.575
49
19.05
74
0
49
-3.175
74
0
49
3.175
74
0
49
-3.175
74
0
0
LTYPE
5
43
330
5
100
AcDbSymbolTableRecord
100
AcDbLinetypeTableRecord
2
CENTERX2
70
0
3
Center (2x) ________  __  ________  __  _____
72
65
73
4
40
101.6
49
63.5
74
0
49
-12.7
74
0
49
12.7
74
0
49
-12.7
74
0
0
ENDTAB
0
TABLE
2
LAYER
5
2
330
0
100
AcDbSymbolTable
70
1
0
LAYER
5
10
330
2
100
AcDbSymbolTableRecord
100
AcDbLayerTableRecord
2
0
70
0
62
7
6
CONTINUOUS
370
-3
390
F
0
LAYER
5
44
330
2
100
AcDbSymbolTableRecord
100
AcDbLayerTableRecord
2
new_box
70
0
62
7
6
CONTINUOUS
370
-3
390
F
0
ENDTAB
0
TABLE
2
STYLE
5
3
330
0
100
AcDbSymbolTable
70
3
0
STYLE
5
45
330
2
100
AcDbSymbolTableRecord
100
AcDbTextStyleTableRecord
2
Standard
70
0
40
0
41
1
50
0
71
0
42
1
3
txt
4

0
ENDTAB
0
TABLE
2
VIEW
5
6
330
0
100
AcDbSymbolTable
70
0
0
ENDTAB
0
TABLE
2
UCS
5
7
330
0
100
AcDbSymbolTable
70
0
0
ENDTAB
0
TABLE
2
APPID
5
9
330
0
100
AcDbSymbolTable
70
1
0
APPID
5
12
330
9
100
AcDbSymbolTableRecord
100
AcDbRegAppTableRecord
2
ACAD
70
0
0
ENDTAB
0
TABLE
2
DIMSTYLE
5
A
330
0
100
AcDbSymbolTable
70
1
100
AcDbDimStyleTable
71
1
0
DIMSTYLE
105
46
330
A
100
AcDbSymbolTableRecord
100
AcDbDimStyleTableRecord
2
Standard
70
0
40
1
41
2.5
42
0.625
43
0.38
44
1.25
45
0
46
0
47
0
48
0
140
2.5
141
0.09
142
0
143
25.4
144
1
145
0
146
1
147
0.625
148
0
71
0
72
0
73
0
74
1
75
0
76
0
77
0
78
0
79
0
170
0
171
2
172
0
173
0
174
0
175
0
176
0
177
0
178
0
179
0
271
4
272
4
273
2
274
2
275
0
276
0
277
2
278
46
279
0
280
0
281
0
282
0
283
1
284
0
285
0
286
0
288
0
289
3
340
Standard
341

371
-2
372
-2
0
ENDTAB
0
TABLE
2
BLOCK_RECORD
5
1
330
0
100
AcDbSymbolTable
70
2
0
BLOCK_RECORD
5
1F
330
1
100
AcDbSymbolTableRecord
100
AcDbBlockTableRecord
2
*Model_Space
70
0
280
1
281
0
0
BLOCK_RECORD
5
1E
330
1
100
AcDbSymbolTableRecord
100
AcDbBlockTableRecord
2
*Paper_Space
70
0
280
1
281
0
0
ENDTAB
0
ENDSEC
0
SECTION
2
BLOCKS
0
BLOCK
5
20
330
1F
100
AcDbEntity
8
0
100
AcDbBlockBegin
2
*Model_Space
70
0
10
0
20
0
30
0
3
*Model_Space
1

0
ENDBLK
5
21
330
1F
100
AcDbEntity
8
0
100
AcDbBlockEnd
0
BLOCK
5
1C
330
1B
100
AcDbEntity
8
0
100
AcDbBlockBegin
2
*Paper_Space
70
0
10
0
20
0
30
0
3
*Paper_Space
1

0
ENDBLK
5
1D
330
1F
100
AcDbEntity
8
0
100
AcDbBlockEnd
0
ENDSEC
0
SECTION
2
ENTITIES
0
LINE
5
47
100
AcDbEntity
8
new_box
6
ByLayer
62
7
370
-1
100
AcDbLine
10
80.750833
20
10.251722
11
93.845944
21
10.251722
0
LINE
5
48
100
AcDbEntity
8
new_box
6
ByLayer
62
7
370
-1
100
AcDbLine
10
93.845944
20
15.250583
11
93.845944
21
10.251722
0
LINE
5
49
100
AcDbEntity
8
new_box
6
ByLayer
62
7
370
-1
100
AcDbLine
10
93.845944
20
15.250583
11
106.570639
21
15.250583
0
LINE
5
4A
100
AcDbEntity
8
new_box
6
ByLayer
62
7
370
-1
100
AcDbLine
10
106.570639
20
15.250583
11
106.570639
21
10.251722
0
LINE
5
4B
100
AcDbEntity
8
new_box
6
ByLayer
62
7
370
-1
100
AcDbLine
10
106.570639
20
10.251722
11
119.79275
21
10.251722
0
LINE
5
4C
100
AcDbEntity
8
new_box
6
ByLayer
62
7
370
-1
100
AcDbLine
10
119.79275
20
15.250583
11
119.79275
21
10.251722
0
LINE
5
4D
100
AcDbEntity
8
new_box
6
ByLayer
62
7
370
-1
100
AcDbLine
10
119.79275
20
15.250583
11
132.513917
21
15.250583
0
LINE
5
4E
100
AcDbEntity
8
new_box
6
ByLayer
62
7
370
-1
100
AcDbLine
10
132.513917
20
15.250583
11
132.513917
21
10.251722
0
LINE
5
4F
100
AcDbEntity
8
new_box
6
ByLayer
62
7
370
-1
100
AcDbLine
10
132.513917
20
10.251722
11
145.736028
21
10.251722
0
LINE
5
50
100
AcDbEntity
8
new_box
6
ByLayer
62
7
370
-1
100
AcDbLine
10
145.736028
20
15.250583
11
145.736028
21
10.251722
0
LINE
5
51
100
AcDbEntity
8
new_box
6
ByLayer
62
7
370
-1
100
AcDbLine
10
145.736028
20
15.250583
11
158.457194
21
15.250583
0
LINE
5
52
100
AcDbEntity
8
new_box
6
ByLayer
62
7
370
-1
100
AcDbLine
10
158.457194
20
15.250583
11
158.457194
21
10.251722
0
LINE
5
53
100
AcDbEntity
8
new_box
6
ByLayer
62
7
370
-1
100
AcDbLine
10
158.457194
20
10.251722
11
171.679306
21
10.251722
0
LINE
5
54
100
AcDbEntity
8
new_box
6
ByLayer
62
7
370
-1
100
AcDbLine
10
171.679306
20
15.250583
11
171.679306
21
10.251722
0
LINE
5
55
100
AcDbEntity
8
new_box
6
ByLayer
62
7
370
-1
100
AcDbLine
10
171.679306
20
15.250583
11
184.404
21
15.250583
0
LINE
5
56
100
AcDbEntity
8
new_box
6
ByLayer
62
7
370
-1
100
AcDbLine
10
184.404
20
15.250583
11
184.404
21
10.251722
0
LINE
5
57
100
AcDbEntity
8
new_box
6
ByLayer
62
7
370
-1
100
AcDbLine
10
184.404
20
10.251722
11
197.626111
21
10.251722
0
LINE
5
58
100
AcDbEntity
8
new_box
6
ByLayer
62
7
370
-1
100
AcDbLine
10
197.626111
20
15.250583
11
197.626111
21
10.251722
0
LINE
5
59
100
AcDbEntity
8
new_box
6
ByLayer
62
7
370
-1
100
AcDbLine
10
197.626111
20
15.250583
11
210.347278
21
15.250583
0
LINE
5
5A
100
AcDbEntity
8
new_box
6
ByLayer
62
7
370
-1
100
AcDbLine
10
210.347278
20
15.250583
11
210.347278
21
10.251722
0
LINE
5
5B
100
AcDbEntity
8
new_box
6
ByLayer
62
7
370
-1
100
AcDbLine
10
210.347278
20
10.251722
11
223.569389
21
10.251722
0
LINE
5
5C
100
AcDbEntity
8
new_box
6
ByLayer
62
7
370
-1
100
AcDbLine
10
223.569389
20
15.250583
11
223.569389
21
10.251722
0
LINE
5
5D
100
AcDbEntity
8
new_box
6
ByLayer
62
7
370
-1
100
AcDbLine
10
223.569389
20
15.250583
11
236.290556
21
15.250583
0
LINE
5
5E
100
AcDbEntity
8
new_box
6
ByLayer
62
7
370
-1
100
AcDbLine
10
236.290556
20
15.250583
11
236.290556
21
10.251722
0
LINE
5
5F
100
AcDbEntity
8
new_box
6
ByLayer
62
7
370
-1
100
AcDbLine
10
236.290556
20
10.251722
11
249.512667
21
10.251722
0
LINE
5
60
100
AcDbEntity
8
new_box
6
ByLayer
62
7
370
-1
100
AcDbLine
10
249.512667
20
15.250583
11
249.512667
21
10.251722
0
LINE
5
61
100
AcDbEntity
8
new_box
6
ByLayer
62
7
370
-1
100
AcDbLine
10
249.512667
20
15.250583
11
262.237361
21
15.250583
0
LINE
5
62
100
AcDbEntity
8
new_box
6
ByLayer
62
7
370
-1
100
AcDbLine
10
262.237361
20
15.250583
11
262.237361
21
10.251722
0
LINE
5
63
100
AcDbEntity
8
new_box
6
ByLayer
62
7
370
-1
100
AcDbLine
10
262.237361
20
10.251722
11
275.459472
21
10.251722
0
LINE
5
64
100
AcDbEntity
8
new_box
6
ByLayer
62
7
370
-1
100
AcDbLine
10
275.459472
20
15.250583
11
275.459472
21
10.251722
0
LINE
5
65
100
AcDbEntity
8
new_box
6
ByLayer
62
7
370
-1
100
AcDbLine
10
275.459472
20
15.250583
11
288.180639
21
15.250583
0
LINE
5
66
100
AcDbEntity
8
new_box
6
ByLayer
62
7
370
-1
100
AcDbLine
10
288.180639
20
15.250583
11
288.180639
21
10.251722
0
LINE
5
67
100
AcDbEntity
8
new_box
6
ByLayer
62
7
370
-1
100
AcDbLine
10
288.180639
20
10.251722
11
301.40275
21
10.251722
0
LINE
5
68
100
AcDbEntity
8
new_box
6
ByLayer
62
7
370
-1
100
AcDbLine
10
301.40275
20
15.250583
11
301.40275
21
10.251722
0
LINE
5
69
100
AcDbEntity
8
new_box
6
ByLayer
62
7
370
-1
100
AcDbLine
10
301.40275
20
15.250583
11
314.123917
21
15.250583
0
LINE
5
6A
100
AcDbEntity
8
new_box
6
ByLayer
62
7
370
-1
100
AcDbLine
10
314.123917
20
15.250583
11
314.123917
21
10.251722
0
LINE
5
6B
100
AcDbEntity
8
new_box
6
ByLayer
62
7
370
-1
100
AcDbLine
10
314.123917
20
10.251722
11
327.346028
21
10.251722
0
LINE
5
6C
100
AcDbEntity
8
new_box
6
ByLayer
62
7
370
-1
100
AcDbLine
10
327.346028
20
15.250583
11
327.346028
21
10.251722
0
LINE
5
6D
100
AcDbEntity
8
new_box
6
ByLayer
62
7
370
-1
100
AcDbLine
10
327.346028
20
15.250583
11
340.070722
21
15.250583
0
LINE
5
6E
100
AcDbEntity
8
new_box
6
ByLayer
62
7
370
-1
100
AcDbLine
10
340.070722
20
15.250583
11
340.070722
21
10.251722
0
LINE
5
6F
100
AcDbEntity
8
new_box
6
ByLayer
62
7
370
-1
100
AcDbLine
10
340.070722
20
10.251722
11
353.292833
21
10.251722
0
LINE
5
70
100
AcDbEntity
8
new_box
6
ByLayer
62
7
370
-1
100
AcDbLine
10
353.292833
20
15.250583
11
353.292833
21
10.251722
0
LINE
5
71
100
AcDbEntity
8
new_box
6
ByLayer
62
7
370
-1
100
AcDbLine
10
353.292833
20
15.250583
11
366.014
21
15.250583
0
LINE
5
72
100
AcDbEntity
8
new_box
6
ByLayer
62
7
370
-1
100
AcDbLine
10
366.014
20
15.250583
11
366.014
21
10.251722
0
LINE
5
73
100
AcDbEntity
8
new_box
6
ByLayer
62
7
370
-1
100
AcDbLine
10
366.014
20
10.251722
11
379.236111
21
10.251722
0
LINE
5
74
100
AcDbEntity
8
new_box
6
ByLayer
62
7
370
-1
100
AcDbLine
10
379.236111
20
15.250583
11
379.236111
21
10.251722
0
LINE
5
75
100
AcDbEntity
8
new_box
6
ByLayer
62
7
370
-1
100
AcDbLine
10
379.236111
20
15.250583
11
391.957278
21
15.250583
0
LINE
5
76
100
AcDbEntity
8
new_box
6
ByLayer
62
7
370
-1
100
AcDbLine
10
391.957278
20
15.250583
11
391.957278
21
10.251722
0
LINE
5
77
100
AcDbEntity
8
new_box
6
ByLayer
62
7
370
-1
100
AcDbLine
10
391.957278
20
10.251722
11
405.179389
21
10.251722
0
LINE
5
78
100
AcDbEntity
8
new_box
6
ByLayer
62
7
370
-1
100
AcDbLine
10
405.179389
20
15.250583
11
405.179389
21
10.251722
0
LINE
5
79
100
AcDbEntity
8
new_box
6
ByLayer
62
7
370
-1
100
AcDbLine
10
405.179389
20
15.250583
11
417.904083
21
15.250583
0
LINE
5
7A
100
AcDbEntity
8
new_box
6
ByLayer
62
7
370
-1
100
AcDbLine
10
417.904083
20
15.250583
11
417.904083
21
10.251722
0
LINE
5
7B
100
AcDbEntity
8
new_box
6
ByLayer
62
7
370
-1
100
AcDbLine
10
417.904083
20
10.251722
11
426.000333
21
10.251722
0
LINE
5
7C
100
AcDbEntity
8
new_box
6
ByLayer
62
7
370
-1
100
AcDbLine
10
80.750833
20
290.498389
11
93.845944
21
290.498389
0
LINE
5
7D
100
AcDbEntity
8
new_box
6
ByLayer
62
7
370
-1
100
AcDbLine
10
93.845944
20
290.498389
11
93.845944
21
285.499528
0
LINE
5
7E
100
AcDbEntity
8
new_box
6
ByLayer
62
7
370
-1
100
AcDbLine
10
93.845944
20
285.499528
11
106.570639
21
285.499528
0
LINE
5
7F
100
AcDbEntity
8
new_box
6
ByLayer
62
7
370
-1
100
AcDbLine
10
106.570639
20
290.498389
11
106.570639
21
285.499528
0
LINE
5
80
100
AcDbEntity
8
new_box
6
ByLayer
62
7
370
-1
100
AcDbLine
10
106.570639
20
290.498389
11
119.79275
21
290.498389
0
LINE
5
81
100
AcDbEntity
8
new_box
6
ByLayer
62
7
370
-1
100
AcDbLine
10
119.79275
20
290.498389
11
119.79275
21
285.499528
0
LINE
5
82
100
AcDbEntity
8
new_box
6
ByLayer
62
7
370
-1
100
AcDbLine
10
119.79275
20
285.499528
11
132.513917
21
285.499528
0
LINE
5
83
100
AcDbEntity
8
new_box
6
ByLayer
62
7
370
-1
100
AcDbLine
10
132.513917
20
290.498389
11
132.513917
21
285.499528
0
LINE
5
84
100
AcDbEntity
8
new_box
6
ByLayer
62
7
370
-1
100
AcDbLine
10
132.513917
20
290.498389
11
145.736028
21
290.498389
0
LINE
5
85
100
AcDbEntity
8
new_box
6
ByLayer
62
7
370
-1
100
AcDbLine
10
145.736028
20
290.498389
11
145.736028
21
285.499528
0
LINE
5
86
100
AcDbEntity
8
new_box
6
ByLayer
62
7
370
-1
100
AcDbLine
10
145.736028
20
285.499528
11
158.457194
21
285.499528
0
LINE
5
87
100
AcDbEntity
8
new_box
6
ByLayer
62
7
370
-1
100
AcDbLine
10
158.457194
20
290.498389
11
158.457194
21
285.499528
0
LINE
5
88
100
AcDbEntity
8
new_box
6
ByLayer
62
7
370
-1
100
AcDbLine
10
158.457194
20
290.498389
11
171.679306
21
290.498389
0
LINE
5
89
100
AcDbEntity
8
new_box
6
ByLayer
62
7
370
-1
100
AcDbLine
10
171.679306
20
290.498389
11
171.679306
21
285.499528
0
LINE
5
8A
100
AcDbEntity
8
new_box
6
ByLayer
62
7
370
-1
100
AcDbLine
10
171.679306
20
285.499528
11
184.404
21
285.499528
0
LINE
5
8B
100
AcDbEntity
8
new_box
6
ByLayer
62
7
370
-1
100
AcDbLine
10
184.404
20
290.498389
11
184.404
21
285.499528
0
LINE
5
8C
100
AcDbEntity
8
new_box
6
ByLayer
62
7
370
-1
100
AcDbLine
10
184.404
20
290.498389
11
197.626111
21
290.498389
0
LINE
5
8D
100
AcDbEntity
8
new_box
6
ByLayer
62
7
370
-1
100
AcDbLine
10
197.626111
20
290.498389
11
197.626111
21
285.499528
0
LINE
5
8E
100
AcDbEntity
8
new_box
6
ByLayer
62
7
370
-1
100
AcDbLine
10
197.626111
20
285.499528
11
210.347278
21
285.499528
0
LINE
5
8F
100
AcDbEntity
8
new_box
6
ByLayer
62
7
370
-1
100
AcDbLine
10
210.347278
20
290.498389
11
210.347278
21
285.499528
0
LINE
5
90
100
AcDbEntity
8
new_box
6
ByLayer
62
7
370
-1
100
AcDbLine
10
210.347278
20
290.498389
11
223.569389
21
290.498389
0
LINE
5
91
100
AcDbEntity
8
new_box
6
ByLayer
62
7
370
-1
100
AcDbLine
10
223.569389
20
290.498389
11
223.569389
21
285.499528
0
LINE
5
92
100
AcDbEntity
8
new_box
6
ByLayer
62
7
370
-1
100
AcDbLine
10
223.569389
20
285.499528
11
236.290556
21
285.499528
0
LINE
5
93
100
AcDbEntity
8
new_box
6
ByLayer
62
7
370
-1
100
AcDbLine
10
236.290556
20
290.498389
11
236.290556
21
285.499528
0
LINE
5
94
100
AcDbEntity
8
new_box
6
ByLayer
62
7
370
-1
100
AcDbLine
10
236.290556
20
290.498389
11
249.512667
21
290.498389
0
LINE
5
95
100
AcDbEntity
8
new_box
6
ByLayer
62
7
370
-1
100
AcDbLine
10
249.512667
20
290.498389
11
249.512667
21
285.499528
0
LINE
5
96
100
AcDbEntity
8
new_box
6
ByLayer
62
7
370
-1
100
AcDbLine
10
249.512667
20
285.499528
11
262.237361
21
285.499528
0
LINE
5
97
100
AcDbEntity
8
new_box
6
ByLayer
62
7
370
-1
100
AcDbLine
10
262.237361
20
290.498389
11
262.237361
21
285.499528
0
LINE
5
98
100
AcDbEntity
8
new_box
6
ByLayer
62
7
370
-1
100
AcDbLine
10
262.237361
20
290.498389
11
275.459472
21
290.498389
0
LINE
5
99
100
AcDbEntity
8
new_box
6
ByLayer
62
7
370
-1
100
AcDbLine
10
275.459472
20
290.498389
11
275.459472
21
285.499528
0
LINE
5
9A
100
AcDbEntity
8
new_box
6
ByLayer
62
7
370
-1
100
AcDbLine
10
275.459472
20
285.499528
11
288.180639
21
285.499528
0
LINE
5
9B
100
AcDbEntity
8
new_box
6
ByLayer
62
7
370
-1
100
AcDbLine
10
288.180639
20
290.498389
11
288.180639
21
285.499528
0
LINE
5
9C
100
AcDbEntity
8
new_box
6
ByLayer
62
7
370
-1
100
AcDbLine
10
288.180639
20
290.498389
11
301.40275
21
290.498389
0
LINE
5
9D
100
AcDbEntity
8
new_box
6
ByLayer
62
7
370
-1
100
AcDbLine
10
301.40275
20
290.498389
11
301.40275
21
285.499528
0
LINE
5
9E
100
AcDbEntity
8
new_box
6
ByLayer
62
7
370
-1
100
AcDbLine
10
301.40275
20
285.499528
11
314.123917
21
285.499528
0
LINE
5
9F
100
AcDbEntity
8
new_box
6
ByLayer
62
7
370
-1
100
AcDbLine
10
314.123917
20
290.498389
11
314.123917
21
285.499528
0
LINE
5
A0
100
AcDbEntity
8
new_box
6
ByLayer
62
7
370
-1
100
AcDbLine
10
314.123917
20
290.498389
11
327.346028
21
290.498389
0
LINE
5
A1
100
AcDbEntity
8
new_box
6
ByLayer
62
7
370
-1
100
AcDbLine
10
327.346028
20
290.498389
11
327.346028
21
285.499528
0
LINE
5
A2
100
AcDbEntity
8
new_box
6
ByLayer
62
7
370
-1
100
AcDbLine
10
327.346028
20
285.499528
11
340.070722
21
285.499528
0
LINE
5
A3
100
AcDbEntity
8
new_box
6
ByLayer
62
7
370
-1
100
AcDbLine
10
340.070722
20
290.498389
11
340.070722
21
285.499528
0
LINE
5
A4
100
AcDbEntity
8
new_box
6
ByLayer
62
7
370
-1
100
AcDbLine
10
340.070722
20
290.498389
11
353.292833
21
290.498389
0
LINE
5
A5
100
AcDbEntity
8
new_box
6
ByLayer
62
7
370
-1
100
AcDbLine
10
353.292833
20
290.498389
11
353.292833
21
285.499528
0
LINE
5
A6
100
AcDbEntity
8
new_box
6
ByLayer
62
7
370
-1
100
AcDbLine
10
353.292833
20
285.499528
11
366.014
21
285.499528
0
LINE
5
A7
100
AcDbEntity
8
new_box
6
ByLayer
62
7
370
-1
100
AcDbLine
10
366.014
20
290.498389
11
366.014
21
285.499528
0
LINE
5
A8
100
AcDbEntity
8
new_box
6
ByLayer
62
7
370
-1
100
AcDbLine
10
366.014
20
290.498389
11
379.236111
21
290.498389
0
LINE
5
A9
100
AcDbEntity
8
new_box
6
ByLayer
62
7
370
-1
100
AcDbLine
10
379.236111
20
290.498389
11
379.236111
21
285.499528
0
LINE
5
AA
100
AcDbEntity
8
new_box
6
ByLayer
62
7
370
-1
100
AcDbLine
10
379.236111
20
285.499528
11
391.957278
21
285.499528
0
LINE
5
AB
100
AcDbEntity
8
new_box
6
ByLayer
62
7
370
-1
100
AcDbLine
10
391.957278
20
290.498389
11
391.957278
21
285.499528
0
LINE
5
AC
100
AcDbEntity
8
new_box
6
ByLayer
62
7
370
-1
100
AcDbLine
10
391.957278
20
290.498389
11
405.179389
21
290.498389
0
LINE
5
AD
100
AcDbEntity
8
new_box
6
ByLayer
62
7
370
-1
100
AcDbLine
10
405.179389
20
290.498389
11
405.179389
21
285.499528
0
LINE
5
AE
100
AcDbEntity
8
new_box
6
ByLayer
62
7
370
-1
100
AcDbLine
10
405.179389
20
285.499528
11
417.904083
21
285.499528
0
LINE
5
AF
100
AcDbEntity
8
new_box
6
ByLayer
62
7
370
-1
100
AcDbLine
10
417.904083
20
290.498389
11
417.904083
21
285.499528
0
LINE
5
B0
100
AcDbEntity
8
new_box
6
ByLayer
62
7
370
-1
100
AcDbLine
10
417.904083
20
290.498389
11
426.000333
21
290.498389
0
LINE
5
B1
100
AcDbEntity
8
new_box
6
ByLayer
62
7
370
-1
100
AcDbLine
10
80.750833
20
10.251722
11
80.750833
21
23.720778
0
LINE
5
B2
100
AcDbEntity
8
new_box
6
ByLayer
62
7
370
-1
100
AcDbLine
10
85.749694
20
23.720778
11
80.750833
21
23.720778
0
LINE
5
B3
100
AcDbEntity
8
new_box
6
ByLayer
62
7
370
-1
100
AcDbLine
10
85.749694
20
23.720778
11
85.749694
21
36.815889
0
LINE
5
B4
100
AcDbEntity
8
new_box
6
ByLayer
62
7
370
-1
100
AcDbLine
10
85.749694
20
36.815889
11
80.750833
21
36.815889
0
LINE
5
B5
100
AcDbEntity
8
new_box
6
ByLayer
62
7
370
-1
100
AcDbLine
10
80.750833
20
36.815889
11
80.750833
21
50.411944
0
LINE
5
B6
100
AcDbEntity
8
new_box
6
ByLayer
62
7
370
-1
100
AcDbLine
10
85.749694
20
50.411944
11
80.750833
21
50.411944
0
LINE
5
B7
100
AcDbEntity
8
new_box
6
ByLayer
62
7
370
-1
100
AcDbLine
10
85.749694
20
50.411944
11
85.749694
21
63.507056
0
LINE
5
B8
100
AcDbEntity
8
new_box
6
ByLayer
62
7
370
-1
100
AcDbLine
10
85.749694
20
63.507056
11
80.750833
21
63.507056
0
LINE
5
B9
100
AcDbEntity
8
new_box
6
ByLayer
62
7
370
-1
100
AcDbLine
10
80.750833
20
63.507056
11
80.750833
21
77.099583
0
LINE
5
BA
100
AcDbEntity
8
new_box
6
ByLayer
62
7
370
-1
100
AcDbLine
10
85.749694
20
77.099583
11
80.750833
21
77.099583
0
LINE
5
BB
100
AcDbEntity
8
new_box
6
ByLayer
62
7
370
-1
100
AcDbLine
10
85.749694
20
77.099583
11
85.749694
21
90.194694
0
LINE
5
BC
100
AcDbEntity
8
new_box
6
ByLayer
62
7
370
-1
100
AcDbLine
10
85.749694
20
90.194694
11
80.750833
21
90.194694
0
LINE
5
BD
100
AcDbEntity
8
new_box
6
ByLayer
62
7
370
-1
100
AcDbLine
10
80.750833
20
90.194694
11
80.750833
21
103.79075
0
LINE
5
BE
100
AcDbEntity
8
new_box
6
ByLayer
62
7
370
-1
100
AcDbLine
10
85.749694
20
103.79075
11
80.750833
21
103.79075
0
LINE
5
BF
100
AcDbEntity
8
new_box
6
ByLayer
62
7
370
-1
100
AcDbLine
10
85.749694
20
103.79075
11
85.749694
21
116.885861
0
LINE
5
C0
100
AcDbEntity
8
new_box
6
ByLayer
62
7
370
-1
100
AcDbLine
10
85.749694
20
116.885861
11
80.750833
21
116.885861
0
LINE
5
C1
100
AcDbEntity
8
new_box
6
ByLayer
62
7
370
-1
100
AcDbLine
10
80.750833
20
116.885861
11
80.750833
21
130.481917
0
LINE
5
C2
100
AcDbEntity
8
new_box
6
ByLayer
62
7
370
-1
100
AcDbLine
10
85.749694
20
130.481917
11
80.750833
21
130.481917
0
LINE
5
C3
100
AcDbEntity
8
new_box
6
ByLayer
62
7
370
-1
100
AcDbLine
10
85.749694
20
130.481917
11
85.749694
21
143.577028
0
LINE
5
C4
100
AcDbEntity
8
new_box
6
ByLayer
62
7
370
-1
100
AcDbLine
10
85.749694
20
143.577028
11
80.750833
21
143.577028
0
LINE
5
C5
100
AcDbEntity
8
new_box
6
ByLayer
62
7
370
-1
100
AcDbLine
10
80.750833
20
143.577028
11
80.750833
21
157.173083
0
LINE
5
C6
100
AcDbEntity
8
new_box
6
ByLayer
62
7
370
-1
100
AcDbLine
10
85.749694
20
157.173083
11
80.750833
21
157.173083
0
LINE
5
C7
100
AcDbEntity
8
new_box
6
ByLayer
62
7
370
-1
100
AcDbLine
10
85.749694
20
157.173083
11
85.749694
21
170.268194
0
LINE
5
C8
100
AcDbEntity
8
new_box
6
ByLayer
62
7
370
-1
100
AcDbLine
10
85.749694
20
170.268194
11
80.750833
21
170.268194
0
LINE
5
C9
100
AcDbEntity
8
new_box
6
ByLayer
62
7
370
-1
100
AcDbLine
10
80.750833
20
170.268194
11
80.750833
21
183.86425
0
LINE
5
CA
100
AcDbEntity
8
new_box
6
ByLayer
62
7
370
-1
100
AcDbLine
10
85.749694
20
183.86425
11
80.750833
21
183.86425
0
LINE
5
CB
100
AcDbEntity
8
new_box
6
ByLayer
62
7
370
-1
100
AcDbLine
10
85.749694
20
183.86425
11
85.749694
21
196.959361
0
LINE
5
CC
100
AcDbEntity
8
new_box
6
ByLayer
62
7
370
-1
100
AcDbLine
10
85.749694
20
196.959361
11
80.750833
21
196.959361
0
LINE
5
CD
100
AcDbEntity
8
new_box
6
ByLayer
62
7
370
-1
100
AcDbLine
10
80.750833
20
196.959361
11
80.750833
21
210.551889
0
LINE
5
CE
100
AcDbEntity
8
new_box
6
ByLayer
62
7
370
-1
100
AcDbLine
10
85.749694
20
210.551889
11
80.750833
21
210.551889
0
LINE
5
CF
100
AcDbEntity
8
new_box
6
ByLayer
62
7
370
-1
100
AcDbLine
10
85.749694
20
210.551889
11
85.749694
21
223.650528
0
LINE
5
D0
100
AcDbEntity
8
new_box
6
ByLayer
62
7
370
-1
100
AcDbLine
10
85.749694
20
223.650528
11
80.750833
21
223.650528
0
LINE
5
D1
100
AcDbEntity
8
new_box
6
ByLayer
62
7
370
-1
100
AcDbLine
10
80.750833
20
223.650528
11
80.750833
21
237.243056
0
LINE
5
D2
100
AcDbEntity
8
new_box
6
ByLayer
62
7
370
-1
100
AcDbLine
10
85.749694
20
237.243056
11
80.750833
21
237.243056
0
LINE
5
D3
100
AcDbEntity
8
new_box
6
ByLayer
62
7
370
-1
100
AcDbLine
10
85.749694
20
237.243056
11
85.749694
21
250.338167
0
LINE
5
D4
100
AcDbEntity
8
new_box
6
ByLayer
62
7
370
-1
100
AcDbLine
10
85.749694
20
250.338167
11
80.750833
21
250.338167
0
LINE
5
D5
100
AcDbEntity
8
new_box
6
ByLayer
62
7
370
-1
100
AcDbLine
10
80.750833
20
250.338167
11
80.750833
21
263.934222
0
LINE
5
D6
100
AcDbEntity
8
new_box
6
ByLayer
62
7
370
-1
100
AcDbLine
10
85.749694
20
263.934222
11
80.750833
21
263.934222
0
LINE
5
D7
100
AcDbEntity
8
new_box
6
ByLayer
62
7
370
-1
100
AcDbLine
10
85.749694
20
263.934222
11
85.749694
21
277.029333
0
LINE
5
D8
100
AcDbEntity
8
new_box
6
ByLayer
62
7
370
-1
100
AcDbLine
10
85.749694
20
277.029333
11
80.750833
21
277.029333
0
LINE
5
D9
100
AcDbEntity
8
new_box
6
ByLayer
62
7
370
-1
100
AcDbLine
10
80.750833
20
277.029333
11
80.750833
21
290.498389
0
LINE
5
DA
100
AcDbEntity
8
new_box
6
ByLayer
62
7
370
-1
100
AcDbLine
10
426.000333
20
10.251722
11
426.000333
21
23.470306
0
LINE
5
DB
100
AcDbEntity
8
new_box
6
ByLayer
62
7
370
-1
100
AcDbLine
10
430.999194
20
23.470306
11
426.000333
21
23.470306
0
LINE
5
DC
100
AcDbEntity
8
new_box
6
ByLayer
62
7
370
-1
100
AcDbLine
10
430.999194
20
23.470306
11
430.999194
21
37.066361
0
LINE
5
DD
100
AcDbEntity
8
new_box
6
ByLayer
62
7
370
-1
100
AcDbLine
10
430.999194
20
37.066361
11
426.000333
21
37.066361
0
LINE
5
DE
100
AcDbEntity
8
new_box
6
ByLayer
62
7
370
-1
100
AcDbLine
10
426.000333
20
37.066361
11
426.000333
21
50.161472
0
LINE
5
DF
100
AcDbEntity
8
new_box
6
ByLayer
62
7
370
-1
100
AcDbLine
10
430.999194
20
50.161472
11
426.000333
21
50.161472
0
LINE
5
E0
100
AcDbEntity
8
new_box
6
ByLayer
62
7
370
-1
100
AcDbLine
10
430.999194
20
50.161472
11
430.999194
21
63.757528
0
LINE
5
E1
100
AcDbEntity
8
new_box
6
ByLayer
62
7
370
-1
100
AcDbLine
10
430.999194
20
63.757528
11
426.000333
21
63.757528
0
LINE
5
E2
100
AcDbEntity
8
new_box
6
ByLayer
62
7
370
-1
100
AcDbLine
10
426.000333
20
63.757528
11
426.000333
21
76.852639
0
LINE
5
E3
100
AcDbEntity
8
new_box
6
ByLayer
62
7
370
-1
100
AcDbLine
10
430.999194
20
76.852639
11
426.000333
21
76.852639
0
LINE
5
E4
100
AcDbEntity
8
new_box
6
ByLayer
62
7
370
-1
100
AcDbLine
10
430.999194
20
76.852639
11
430.999194
21
90.445167
0
LINE
5
E5
100
AcDbEntity
8
new_box
6
ByLayer
62
7
370
-1
100
AcDbLine
10
430.999194
20
90.445167
11
426.000333
21
90.445167
0
LINE
5
E6
100
AcDbEntity
8
new_box
6
ByLayer
62
7
370
-1
100
AcDbLine
10
426.000333
20
90.445167
11
426.000333
21
103.540278
0
LINE
5
E7
100
AcDbEntity
8
new_box
6
ByLayer
62
7
370
-1
100
AcDbLine
10
430.999194
20
103.540278
11
426.000333
21
103.540278
0
LINE
5
E8
100
AcDbEntity
8
new_box
6
ByLayer
62
7
370
-1
100
AcDbLine
10
430.999194
20
103.540278
11
430.999194
21
117.136333
0
LINE
5
E9
100
AcDbEntity
8
new_box
6
ByLayer
62
7
370
-1
100
AcDbLine
10
430.999194
20
117.136333
11
426.000333
21
117.136333
0
LINE
5
EA
100
AcDbEntity
8
new_box
6
ByLayer
62
7
370
-1
100
AcDbLine
10
426.000333
20
117.136333
11
426.000333
21
130.231444
0
LINE
5
EB
100
AcDbEntity
8
new_box
6
ByLayer
62
7
370
-1
100
AcDbLine
10
430.999194
20
130.231444
11
426.000333
21
130.231444
0
LINE
5
EC
100
AcDbEntity
8
new_box
6
ByLayer
62
7
370
-1
100
AcDbLine
10
430.999194
20
130.231444
11
430.999194
21
143.8275
0
LINE
5
ED
100
AcDbEntity
8
new_box
6
ByLayer
62
7
370
-1
100
AcDbLine
10
430.999194
20
143.8275
11
426.000333
21
143.8275
0
LINE
5
EE
100
AcDbEntity
8
new_box
6
ByLayer
62
7
370
-1
100
AcDbLine
10
426.000333
20
143.8275
11
426.000333
21
156.922611
0
LINE
5
EF
100
AcDbEntity
8
new_box
6
ByLayer
62
7
370
-1
100
AcDbLine
10
430.999194
20
156.922611
11
426.000333
21
156.922611
0
LINE
5
F0
100
AcDbEntity
8
new_box
6
ByLayer
62
7
370
-1
100
AcDbLine
10
430.999194
20
156.922611
11
430.999194
21
170.518667
0
LINE
5
F1
100
AcDbEntity
8
new_box
6
ByLayer
62
7
370
-1
100
AcDbLine
10
430.999194
20
170.518667
11
426.000333
21
170.518667
0
LINE
5
F2
100
AcDbEntity
8
new_box
6
ByLayer
62
7
370
-1
100
AcDbLine
10
426.000333
20
170.518667
11
426.000333
21
183.613778
0
LINE
5
F3
100
AcDbEntity
8
new_box
6
ByLayer
62
7
370
-1
100
AcDbLine
10
430.999194
20
183.613778
11
426.000333
21
183.613778
0
LINE
5
F4
100
AcDbEntity
8
new_box
6
ByLayer
62
7
370
-1
100
AcDbLine
10
430.999194
20
183.613778
11
430.999194
21
197.209833
0
LINE
5
F5
100
AcDbEntity
8
new_box
6
ByLayer
62
7
370
-1
100
AcDbLine
10
430.999194
20
197.209833
11
426.000333
21
197.209833
0
LINE
5
F6
100
AcDbEntity
8
new_box
6
ByLayer
62
7
370
-1
100
AcDbLine
10
426.000333
20
197.209833
11
426.000333
21
210.304944
0
LINE
5
F7
100
AcDbEntity
8
new_box
6
ByLayer
62
7
370
-1
100
AcDbLine
10
430.999194
20
210.304944
11
426.000333
21
210.304944
0
LINE
5
F8
100
AcDbEntity
8
new_box
6
ByLayer
62
7
370
-1
100
AcDbLine
10
430.999194
20
210.304944
11
430.999194
21
223.897472
0
LINE
5
F9
100
AcDbEntity
8
new_box
6
ByLayer
62
7
370
-1
100
AcDbLine
10
430.999194
20
223.897472
11
426.000333
21
223.897472
0
LINE
5
FA
100
AcDbEntity
8
new_box
6
ByLayer
62
7
370
-1
100
AcDbLine
10
426.000333
20
223.897472
11
426.000333
21
236.992583
0
LINE
5
FB
100
AcDbEntity
8
new_box
6
ByLayer
62
7
370
-1
100
AcDbLine
10
430.999194
20
236.992583
11
426.000333
21
236.992583
0
LINE
5
FC
100
AcDbEntity
8
new_box
6
ByLayer
62
7
370
-1
100
AcDbLine
10
430.999194
20
236.992583
11
430.999194
21
250.588639
0
LINE
5
FD
100
AcDbEntity
8
new_box
6
ByLayer
62
7
370
-1
100
AcDbLine
10
430.999194
20
250.588639
11
426.000333
21
250.588639
0
LINE
5
FE
100
AcDbEntity
8
new_box
6
ByLayer
62
7
370
-1
100
AcDbLine
10
426.000333
20
250.588639
11
426.000333
21
263.68375
0
LINE
5
FF
100
AcDbEntity
8
new_box
6
ByLayer
62
7
370
-1
100
AcDbLine
10
430.999194
20
263.68375
11
426.000333
21
263.68375
0
LINE
5
100
100
AcDbEntity
8
new_box
6
ByLayer
62
7
370
-1
100
AcDbLine
10
430.999194
20
263.68375
11
430.999194
21
277.279806
0
LINE
5
101
100
AcDbEntity
8
new_box
6
ByLayer
62
7
370
-1
100
AcDbLine
10
430.999194
20
277.279806
11
426.000333
21
277.279806
0
LINE
5
102
100
AcDbEntity
8
new_box
6
ByLayer
62
7
370
-1
100
AcDbLine
10
426.000333
20
277.279806
11
426.000333
21
290.498389
0
LINE
5
103
100
AcDbEntity
8
new_box
6
ByLayer
62
7
370
-1
100
AcDbLine
10
12.762789
20
371.637948
11
24.93715
21
371.637948
0
LINE
5
104
100
AcDbEntity
8
new_box
6
ByLayer
62
7
370
-1
100
AcDbLine
10
24.93715
20
376.636809
11
24.93715
21
371.637948
0
LINE
5
105
100
AcDbEntity
8
new_box
6
ByLayer
62
7
370
-1
100
AcDbLine
10
24.93715
20
376.636809
11
36.737569
21
376.636809
0
LINE
5
106
100
AcDbEntity
8
new_box
6
ByLayer
62
7
370
-1
100
AcDbLine
10
36.737569
20
376.636809
11
36.737569
21
371.637948
0
LINE
5
107
100
AcDbEntity
8
new_box
6
ByLayer
62
7
370
-1
100
AcDbLine
10
36.737569
20
371.637948
11
49.035402
21
371.637948
0
LINE
5
108
100
AcDbEntity
8
new_box
6
ByLayer
62
7
370
-1
100
AcDbLine
10
49.035402
20
376.636809
11
49.035402
21
371.637948
0
LINE
5
109
100
AcDbEntity
8
new_box
6
ByLayer
62
7
370
-1
100
AcDbLine
10
49.035402
20
376.636809
11
60.835819
21
376.636809
0
LINE
5
10A
100
AcDbEntity
8
new_box
6
ByLayer
62
7
370
-1
100
AcDbLine
10
60.835819
20
376.636809
11
60.835819
21
371.637948
0
LINE
5
10B
100
AcDbEntity
8
new_box
6
ByLayer
62
7
370
-1
100
AcDbLine
10
60.835819
20
371.637948
11
68.011319
21
371.637948
0
LINE
5
10C
100
AcDbEntity
8
new_box
6
ByLayer
62
7
370
-1
100
AcDbLine
10
12.762789
20
651.888142
11
24.93715
21
651.888142
0
LINE
5
10D
100
AcDbEntity
8
new_box
6
ByLayer
62
7
370
-1
100
AcDbLine
10
24.93715
20
651.888142
11
24.93715
21
646.889281
0
LINE
5
10E
100
AcDbEntity
8
new_box
6
ByLayer
62
7
370
-1
100
AcDbLine
10
24.93715
20
646.889281
11
36.737569
21
646.889281
0
LINE
5
10F
100
AcDbEntity
8
new_box
6
ByLayer
62
7
370
-1
100
AcDbLine
10
36.737569
20
651.888142
11
36.737569
21
646.889281
0
LINE
5
110
100
AcDbEntity
8
new_box
6
ByLayer
62
7
370
-1
100
AcDbLine
10
36.737569
20
651.888142
11
49.035402
21
651.888142
0
LINE
5
111
100
AcDbEntity
8
new_box
6
ByLayer
62
7
370
-1
100
AcDbLine
10
49.035402
20
651.888142
11
49.035402
21
646.889281
0
LINE
5
112
100
AcDbEntity
8
new_box
6
ByLayer
62
7
370
-1
100
AcDbLine
10
49.035402
20
646.889281
11
60.835819
21
646.889281
0
LINE
5
113
100
AcDbEntity
8
new_box
6
ByLayer
62
7
370
-1
100
AcDbLine
10
60.835819
20
651.888142
11
60.835819
21
646.889281
0
LINE
5
114
100
AcDbEntity
8
new_box
6
ByLayer
62
7
370
-1
100
AcDbLine
10
60.835819
20
651.888142
11
68.011319
21
651.888142
0
LINE
5
115
100
AcDbEntity
8
new_box
6
ByLayer
62
7
370
-1
100
AcDbLine
10
12.762789
20
371.637948
11
12.762789
21
385.107004
0
LINE
5
116
100
AcDbEntity
8
new_box
6
ByLayer
62
7
370
-1
100
AcDbLine
10
17.76165
20
385.107004
11
12.762789
21
385.107004
0
LINE
5
117
100
AcDbEntity
8
new_box
6
ByLayer
62
7
370
-1
100
AcDbLine
10
17.76165
20
385.107004
11
17.76165
21
398.202115
0
LINE
5
118
100
AcDbEntity
8
new_box
6
ByLayer
62
7
370
-1
100
AcDbLine
10
17.76165
20
398.202115
11
12.762789
21
398.202115
0
LINE
5
119
100
AcDbEntity
8
new_box
6
ByLayer
62
7
370
-1
100
AcDbLine
10
12.762789
20
398.202115
11
12.762789
21
411.79817
0
LINE
5
11A
100
AcDbEntity
8
new_box
6
ByLayer
62
7
370
-1
100
AcDbLine
10
17.76165
20
411.79817
11
12.762789
21
411.79817
0
LINE
5
11B
100
AcDbEntity
8
new_box
6
ByLayer
62
7
370
-1
100
AcDbLine
10
17.76165
20
411.79817
11
17.76165
21
424.893281
0
LINE
5
11C
100
AcDbEntity
8
new_box
6
ByLayer
62
7
370
-1
100
AcDbLine
10
17.76165
20
424.893281
11
12.762789
21
424.893281
0
LINE
5
11D
100
AcDbEntity
8
new_box
6
ByLayer
62
7
370
-1
100
AcDbLine
10
12.762789
20
424.893281
11
12.762789
21
438.489337
0
LINE
5
11E
100
AcDbEntity
8
new_box
6
ByLayer
62
7
370
-1
100
AcDbLine
10
17.76165
20
438.489337
11
12.762789
21
438.489337
0
LINE
5
11F
100
AcDbEntity
8
new_box
6
ByLayer
62
7
370
-1
100
AcDbLine
10
17.76165
20
438.489337
11
17.76165
21
451.584448
0
LINE
5
120
100
AcDbEntity
8
new_box
6
ByLayer
62
7
370
-1
100
AcDbLine
10
17.76165
20
451.584448
11
12.762789
21
451.584448
0
LINE
5
121
100
AcDbEntity
8
new_box
6
ByLayer
62
7
370
-1
100
AcDbLine
10
12.762789
20
451.584448
11
12.762789
21
465.180504
0
LINE
5
122
100
AcDbEntity
8
new_box
6
ByLayer
62
7
370
-1
100
AcDbLine
10
17.76165
20
465.180504
11
12.762789
21
465.180504
0
LINE
5
123
100
AcDbEntity
8
new_box
6
ByLayer
62
7
370
-1
100
AcDbLine
10
17.76165
20
465.180504
11
17.76165
21
478.275615
0
LINE
5
124
100
AcDbEntity
8
new_box
6
ByLayer
62
7
370
-1
100
AcDbLine
10
17.76165
20
478.275615
11
12.762789
21
478.275615
0
LINE
5
125
100
AcDbEntity
8
new_box
6
ByLayer
62
7
370
-1
100
AcDbLine
10
12.762789
20
478.275615
11
12.762789
21
491.87167
0
LINE
5
126
100
AcDbEntity
8
new_box
6
ByLayer
62
7
370
-1
100
AcDbLine
10
17.76165
20
491.87167
11
12.762789
21
491.87167
0
LINE
5
127
100
AcDbEntity
8
new_box
6
ByLayer
62
7
370
-1
100
AcDbLine
10
17.76165
20
491.87167
11
17.76165
21
504.966781
0
LINE
5
128
100
AcDbEntity
8
new_box
6
ByLayer
62
7
370
-1
100
AcDbLine
10
17.76165
20
504.966781
11
12.762789
21
504.966781
0
LINE
5
129
100
AcDbEntity
8
new_box
6
ByLayer
62
7
370
-1
100
AcDbLine
10
12.762789
20
504.966781
11
12.762789
21
518.559309
0
LINE
5
12A
100
AcDbEntity
8
new_box
6
ByLayer
62
7
370
-1
100
AcDbLine
10
17.76165
20
518.559309
11
12.762789
21
518.559309
0
LINE
5
12B
100
AcDbEntity
8
new_box
6
ByLayer
62
7
370
-1
100
AcDbLine
10
17.76165
20
518.559309
11
17.76165
21
531.65442
0
LINE
5
12C
100
AcDbEntity
8
new_box
6
ByLayer
62
7
370
-1
100
AcDbLine
10
17.76165
20
531.65442
11
12.762789
21
531.65442
0
LINE
5
12D
100
AcDbEntity
8
new_box
6
ByLayer
62
7
370
-1
100
AcDbLine
10
12.762789
20
531.65442
11
12.762789
21
545.250476
0
LINE
5
12E
100
AcDbEntity
8
new_box
6
ByLayer
62
7
370
-1
100
AcDbLine
10
17.76165
20
545.250476
11
12.762789
21
545.250476
0
LINE
5
12F
100
AcDbEntity
8
new_box
6
ByLayer
62
7
370
-1
100
AcDbLine
10
17.76165
20
545.250476
11
17.76165
21
558.345587
0
LINE
5
130
100
AcDbEntity
8
new_box
6
ByLayer
62
7
370
-1
100
AcDbLine
10
17.76165
20
558.345587
11
12.762789
21
558.345587
0
LINE
5
131
100
AcDbEntity
8
new_box
6
ByLayer
62
7
370
-1
100
AcDbLine
10
12.762789
20
558.345587
11
12.762789
21
571.941642
0
LINE
5
132
100
AcDbEntity
8
new_box
6
ByLayer
62
7
370
-1
100
AcDbLine
10
17.76165
20
571.941642
11
12.762789
21
571.941642
0
LINE
5
133
100
AcDbEntity
8
new_box
6
ByLayer
62
7
370
-1
100
AcDbLine
10
17.76165
20
571.941642
11
17.76165
21
585.036754
0
LINE
5
134
100
AcDbEntity
8
new_box
6
ByLayer
62
7
370
-1
100
AcDbLine
10
17.76165
20
585.036754
11
12.762789
21
585.036754
0
LINE
5
135
100
AcDbEntity
8
new_box
6
ByLayer
62
7
370
-1
100
AcDbLine
10
12.762789
20
585.036754
11
12.762789
21
598.632809
0
LINE
5
136
100
AcDbEntity
8
new_box
6
ByLayer
62
7
370
-1
100
AcDbLine
10
17.76165
20
598.632809
11
12.762789
21
598.632809
0
LINE
5
137
100
AcDbEntity
8
new_box
6
ByLayer
62
7
370
-1
100
AcDbLine
10
17.76165
20
598.632809
11
17.76165
21
611.72792
0
LINE
5
138
100
AcDbEntity
8
new_box
6
ByLayer
62
7
370
-1
100
AcDbLine
10
17.76165
20
611.72792
11
12.762789
21
611.72792
0
LINE
5
139
100
AcDbEntity
8
new_box
6
ByLayer
62
7
370
-1
100
AcDbLine
10
12.762789
20
611.72792
11
12.762789
21
625.323976
0
LINE
5
13A
100
AcDbEntity
8
new_box
6
ByLayer
62
7
370
-1
100
AcDbLine
10
17.76165
20
625.323976
11
12.762789
21
625.323976
0
LINE
5
13B
100
AcDbEntity
8
new_box
6
ByLayer
62
7
370
-1
100
AcDbLine
10
17.76165
20
625.323976
11
17.76165
21
638.419087
0
LINE
5
13C
100
AcDbEntity
8
new_box
6
ByLayer
62
7
370
-1
100
AcDbLine
10
17.76165
20
638.419087
11
12.762789
21
638.419087
0
LINE
5
13D
100
AcDbEntity
8
new_box
6
ByLayer
62
7
370
-1
100
AcDbLine
10
12.762789
20
638.419087
11
12.762789
21
651.888142
0
LINE
5
13E
100
AcDbEntity
8
new_box
6
ByLayer
62
7
370
-1
100
AcDbLine
10
68.011319
20
371.637948
11
68.011319
21
384.856531
0
LINE
5
13F
100
AcDbEntity
8
new_box
6
ByLayer
62
7
370
-1
100
AcDbLine
10
73.01018
20
384.856531
11
68.011319
21
384.856531
0
LINE
5
140
100
AcDbEntity
8
new_box
6
ByLayer
62
7
370
-1
100
AcDbLine
10
73.01018
20
384.856531
11
73.01018
21
398.452587
0
LINE
5
141
100
AcDbEntity
8
new_box
6
ByLayer
62
7
370
-1
100
AcDbLine
10
73.01018
20
398.452587
11
68.011319
21
398.452587
0
LINE
5
142
100
AcDbEntity
8
new_box
6
ByLayer
62
7
370
-1
100
AcDbLine
10
73.01018
20
518.308837
11
68.011319
21
518.308837
0
LINE
5
143
100
AcDbEntity
8
new_box
6
ByLayer
62
7
370
-1
100
AcDbLine
10
73.01018
20
518.308837
11
73.01018
21
531.904892
0
LINE
5
144
100
AcDbEntity
8
new_box
6
ByLayer
62
7
370
-1
100
AcDbLine
10
73.01018
20
531.904892
11
68.011319
21
531.904892
0
LINE
5
145
100
AcDbEntity
8
new_box
6
ByLayer
62
7
370
-1
100
AcDbLine
10
68.011319
20
531.904892
11
68.011319
21
545.000004
0
LINE
5
146
100
AcDbEntity
8
new_box
6
ByLayer
62
7
370
-1
100
AcDbLine
10
73.01018
20
545.000004
11
68.011319
21
545.000004
0
LINE
5
147
100
AcDbEntity
8
new_box
6
ByLayer
62
7
370
-1
100
AcDbLine
10
73.01018
20
545.000004
11
73.01018
21
558.596059
0
LINE
5
148
100
AcDbEntity
8
new_box
6
ByLayer
62
7
370
-1
100
AcDbLine
10
73.01018
20
558.596059
11
68.011319
21
558.596059
0
LINE
5
149
100
AcDbEntity
8
new_box
6
ByLayer
62
7
370
-1
100
AcDbLine
10
68.011319
20
558.596059
11
68.011319
21
571.69117
0
LINE
5
14A
100
AcDbEntity
8
new_box
6
ByLayer
62
7
370
-1
100
AcDbLine
10
73.01018
20
571.69117
11
68.011319
21
571.69117
0
LINE
5
14B
100
AcDbEntity
8
new_box
6
ByLayer
62
7
370
-1
100
AcDbLine
10
73.01018
20
571.69117
11
73.01018
21
585.287226
0
LINE
5
14C
100
AcDbEntity
8
new_box
6
ByLayer
62
7
370
-1
100
AcDbLine
10
73.01018
20
585.287226
11
68.011319
21
585.287226
0
LINE
5
14D
100
AcDbEntity
8
new_box
6
ByLayer
62
7
370
-1
100
AcDbLine
10
68.011319
20
585.287226
11
68.011319
21
598.382337
0
LINE
5
14E
100
AcDbEntity
8
new_box
6
ByLayer
62
7
370
-1
100
AcDbLine
10
73.01018
20
598.382337
11
68.011319
21
598.382337
0
LINE
5
14F
100
AcDbEntity
8
new_box
6
ByLayer
62
7
370
-1
100
AcDbLine
10
73.01018
20
598.382337
11
73.01018
21
611.978392
0
LINE
5
150
100
AcDbEntity
8
new_box
6
ByLayer
62
7
370
-1
100
AcDbLine
10
73.01018
20
611.978392
11
68.011319
21
611.978392
0
LINE
5
151
100
AcDbEntity
8
new_box
6
ByLayer
62
7
370
-1
100
AcDbLine
10
68.011319
20
611.978392
11
68.011319
21
625.073504
0
LINE
5
152
100
AcDbEntity
8
new_box
6
ByLayer
62
7
370
-1
100
AcDbLine
10
73.01018
20
625.073504
11
68.011319
21
625.073504
0
LINE
5
153
100
AcDbEntity
8
new_box
6
ByLayer
62
7
370
-1
100
AcDbLine
10
73.01018
20
625.073504
11
73.01018
21
638.666031
0
LINE
5
154
100
AcDbEntity
8
new_box
6
ByLayer
62
7
370
-1
100
AcDbLine
10
73.01018
20
638.666031
11
68.011319
21
638.666031
0
LINE
5
155
100
AcDbEntity
8
new_box
6
ByLayer
62
7
370
-1
100
AcDbLine
10
68.011319
20
638.666031
11
68.011319
21
651.888142
0
LINE
5
156
100
AcDbEntity
8
new_box
6
ByLayer
62
7
370
-1
100
AcDbLine
10
85.749694
20
305.748972
11
93.595472
21
305.748972
0
LINE
5
157
100
AcDbEntity
8
new_box
6
ByLayer
62
7
370
-1
100
AcDbLine
10
93.595472
20
305.748972
11
93.595472
21
300.750111
0
LINE
5
158
100
AcDbEntity
8
new_box
6
ByLayer
62
7
370
-1
100
AcDbLine
10
93.595472
20
300.750111
11
106.821111
21
300.750111
0
LINE
5
159
100
AcDbEntity
8
new_box
6
ByLayer
62
7
370
-1
100
AcDbLine
10
106.821111
20
305.748972
11
106.821111
21
300.750111
0
LINE
5
15A
100
AcDbEntity
8
new_box
6
ByLayer
62
7
370
-1
100
AcDbLine
10
106.821111
20
305.748972
11
119.542278
21
305.748972
0
LINE
5
15B
100
AcDbEntity
8
new_box
6
ByLayer
62
7
370
-1
100
AcDbLine
10
119.542278
20
305.748972
11
119.542278
21
300.750111
0
LINE
5
15C
100
AcDbEntity
8
new_box
6
ByLayer
62
7
370
-1
100
AcDbLine
10
119.542278
20
300.750111
11
132.764389
21
300.750111
0
LINE
5
15D
100
AcDbEntity
8
new_box
6
ByLayer
62
7
370
-1
100
AcDbLine
10
132.764389
20
305.748972
11
132.764389
21
300.750111
0
LINE
5
15E
100
AcDbEntity
8
new_box
6
ByLayer
62
7
370
-1
100
AcDbLine
10
132.764389
20
305.748972
11
145.485556
21
305.748972
0
LINE
5
15F
100
AcDbEntity
8
new_box
6
ByLayer
62
7
370
-1
100
AcDbLine
10
145.485556
20
305.748972
11
145.485556
21
300.750111
0
LINE
5
160
100
AcDbEntity
8
new_box
6
ByLayer
62
7
370
-1
100
AcDbLine
10
145.485556
20
300.750111
11
158.707667
21
300.750111
0
LINE
5
161
100
AcDbEntity
8
new_box
6
ByLayer
62
7
370
-1
100
AcDbLine
10
158.707667
20
305.748972
11
158.707667
21
300.750111
0
LINE
5
162
100
AcDbEntity
8
new_box
6
ByLayer
62
7
370
-1
100
AcDbLine
10
158.707667
20
305.748972
11
171.428833
21
305.748972
0
LINE
5
163
100
AcDbEntity
8
new_box
6
ByLayer
62
7
370
-1
100
AcDbLine
10
171.428833
20
305.748972
11
171.428833
21
300.750111
0
LINE
5
164
100
AcDbEntity
8
new_box
6
ByLayer
62
7
370
-1
100
AcDbLine
10
171.428833
20
300.750111
11
184.654472
21
300.750111
0
LINE
5
165
100
AcDbEntity
8
new_box
6
ByLayer
62
7
370
-1
100
AcDbLine
10
184.654472
20
305.748972
11
184.654472
21
300.750111
0
LINE
5
166
100
AcDbEntity
8
new_box
6
ByLayer
62
7
370
-1
100
AcDbLine
10
184.654472
20
305.748972
11
197.375639
21
305.748972
0
LINE
5
167
100
AcDbEntity
8
new_box
6
ByLayer
62
7
370
-1
100
AcDbLine
10
197.375639
20
305.748972
11
197.375639
21
300.750111
0
LINE
5
168
100
AcDbEntity
8
new_box
6
ByLayer
62
7
370
-1
100
AcDbLine
10
197.375639
20
300.750111
11
210.59775
21
300.750111
0
LINE
5
169
100
AcDbEntity
8
new_box
6
ByLayer
62
7
370
-1
100
AcDbLine
10
210.59775
20
305.748972
11
210.59775
21
300.750111
0
LINE
5
16A
100
AcDbEntity
8
new_box
6
ByLayer
62
7
370
-1
100
AcDbLine
10
210.59775
20
305.748972
11
223.318917
21
305.748972
0
LINE
5
16B
100
AcDbEntity
8
new_box
6
ByLayer
62
7
370
-1
100
AcDbLine
10
223.318917
20
305.748972
11
223.318917
21
300.750111
0
LINE
5
16C
100
AcDbEntity
8
new_box
6
ByLayer
62
7
370
-1
100
AcDbLine
10
223.318917
20
300.750111
11
236.541028
21
300.750111
0
LINE
5
16D
100
AcDbEntity
8
new_box
6
ByLayer
62
7
370
-1
100
AcDbLine
10
236.541028
20
305.748972
11
236.541028
21
300.750111
0
LINE
5
16E
100
AcDbEntity
8
new_box
6
ByLayer
62
7
370
-1
100
AcDbLine
10
236.541028
20
305.748972
11
249.262194
21
305.748972
0
LINE
5
16F
100
AcDbEntity
8
new_box
6
ByLayer
62
7
370
-1
100
AcDbLine
10
249.262194
20
305.748972
11
249.262194
21
300.750111
0
LINE
5
170
100
AcDbEntity
8
new_box
6
ByLayer
62
7
370
-1
100
AcDbLine
10
249.262194
20
300.750111
11
262.487833
21
300.750111
0
LINE
5
171
100
AcDbEntity
8
new_box
6
ByLayer
62
7
370
-1
100
AcDbLine
10
262.487833
20
305.748972
11
262.487833
21
300.750111
0
LINE
5
172
100
AcDbEntity
8
new_box
6
ByLayer
62
7
370
-1
100
AcDbLine
10
262.487833
20
305.748972
11
275.209
21
305.748972
0
LINE
5
173
100
AcDbEntity
8
new_box
6
ByLayer
62
7
370
-1
100
AcDbLine
10
275.209
20
305.748972
11
275.209
21
300.750111
0
LINE
5
174
100
AcDbEntity
8
new_box
6
ByLayer
62
7
370
-1
100
AcDbLine
10
275.209
20
300.750111
11
288.431111
21
300.750111
0
LINE
5
175
100
AcDbEntity
8
new_box
6
ByLayer
62
7
370
-1
100
AcDbLine
10
288.431111
20
305.748972
11
288.431111
21
300.750111
0
LINE
5
176
100
AcDbEntity
8
new_box
6
ByLayer
62
7
370
-1
100
AcDbLine
10
288.431111
20
305.748972
11
301.152278
21
305.748972
0
LINE
5
177
100
AcDbEntity
8
new_box
6
ByLayer
62
7
370
-1
100
AcDbLine
10
301.152278
20
305.748972
11
301.152278
21
300.750111
0
LINE
5
178
100
AcDbEntity
8
new_box
6
ByLayer
62
7
370
-1
100
AcDbLine
10
301.152278
20
300.750111
11
314.374389
21
300.750111
0
LINE
5
179
100
AcDbEntity
8
new_box
6
ByLayer
62
7
370
-1
100
AcDbLine
10
314.374389
20
305.748972
11
314.374389
21
300.750111
0
LINE
5
17A
100
AcDbEntity
8
new_box
6
ByLayer
62
7
370
-1
100
AcDbLine
10
314.374389
20
305.748972
11
327.099083
21
305.748972
0
LINE
5
17B
100
AcDbEntity
8
new_box
6
ByLayer
62
7
370
-1
100
AcDbLine
10
327.099083
20
305.748972
11
327.099083
21
300.750111
0
LINE
5
17C
100
AcDbEntity
8
new_box
6
ByLayer
62
7
370
-1
100
AcDbLine
10
327.099083
20
300.750111
11
340.321194
21
300.750111
0
LINE
5
17D
100
AcDbEntity
8
new_box
6
ByLayer
62
7
370
-1
100
AcDbLine
10
340.321194
20
305.748972
11
340.321194
21
300.750111
0
LINE
5
17E
100
AcDbEntity
8
new_box
6
ByLayer
62
7
370
-1
100
AcDbLine
10
340.321194
20
305.748972
11
353.042361
21
305.748972
0
LINE
5
17F
100
AcDbEntity
8
new_box
6
ByLayer
62
7
370
-1
100
AcDbLine
10
353.042361
20
305.748972
11
353.042361
21
300.750111
0
LINE
5
180
100
AcDbEntity
8
new_box
6
ByLayer
62
7
370
-1
100
AcDbLine
10
353.042361
20
300.750111
11
366.264472
21
300.750111
0
LINE
5
181
100
AcDbEntity
8
new_box
6
ByLayer
62
7
370
-1
100
AcDbLine
10
366.264472
20
305.748972
11
366.264472
21
300.750111
0
LINE
5
182
100
AcDbEntity
8
new_box
6
ByLayer
62
7
370
-1
100
AcDbLine
10
366.264472
20
305.748972
11
378.985639
21
305.748972
0
LINE
5
183
100
AcDbEntity
8
new_box
6
ByLayer
62
7
370
-1
100
AcDbLine
10
378.985639
20
305.748972
11
378.985639
21
300.750111
0
LINE
5
184
100
AcDbEntity
8
new_box
6
ByLayer
62
7
370
-1
100
AcDbLine
10
378.985639
20
300.750111
11
392.20775
21
300.750111
0
LINE
5
185
100
AcDbEntity
8
new_box
6
ByLayer
62
7
370
-1
100
AcDbLine
10
392.20775
20
305.748972
11
392.20775
21
300.750111
0
LINE
5
186
100
AcDbEntity
8
new_box
6
ByLayer
62
7
370
-1
100
AcDbLine
10
392.20775
20
305.748972
11
404.932444
21
305.748972
0
LINE
5
187
100
AcDbEntity
8
new_box
6
ByLayer
62
7
370
-1
100
AcDbLine
10
404.932444
20
305.748972
11
404.932444
21
300.750111
0
LINE
5
188
100
AcDbEntity
8
new_box
6
ByLayer
62
7
370
-1
100
AcDbLine
10
404.932444
20
300.750111
11
418.154556
21
300.750111
0
LINE
5
189
100
AcDbEntity
8
new_box
6
ByLayer
62
7
370
-1
100
AcDbLine
10
418.154556
20
305.748972
11
418.154556
21
300.750111
0
LINE
5
18A
100
AcDbEntity
8
new_box
6
ByLayer
62
7
370
-1
100
AcDbLine
10
418.154556
20
305.748972
11
426.000333
21
305.748972
0
LINE
5
18B
100
AcDbEntity
8
new_box
6
ByLayer
62
7
370
-1
100
AcDbLine
10
85.749694
20
355.998639
11
93.595472
21
355.998639
0
LINE
5
18C
100
AcDbEntity
8
new_box
6
ByLayer
62
7
370
-1
100
AcDbLine
10
93.595472
20
361.001028
11
93.595472
21
355.998639
0
LINE
5
18D
100
AcDbEntity
8
new_box
6
ByLayer
62
7
370
-1
100
AcDbLine
10
93.595472
20
361.001028
11
106.821111
21
361.001028
0
LINE
5
18E
100
AcDbEntity
8
new_box
6
ByLayer
62
7
370
-1
100
AcDbLine
10
106.821111
20
361.001028
11
106.821111
21
355.998639
0
LINE
5
18F
100
AcDbEntity
8
new_box
6
ByLayer
62
7
370
-1
100
AcDbLine
10
106.821111
20
355.998639
11
119.542278
21
355.998639
0
LINE
5
190
100
AcDbEntity
8
new_box
6
ByLayer
62
7
370
-1
100
AcDbLine
10
119.542278
20
361.001028
11
119.542278
21
355.998639
0
LINE
5
191
100
AcDbEntity
8
new_box
6
ByLayer
62
7
370
-1
100
AcDbLine
10
119.542278
20
361.001028
11
132.764389
21
361.001028
0
LINE
5
192
100
AcDbEntity
8
new_box
6
ByLayer
62
7
370
-1
100
AcDbLine
10
132.764389
20
361.001028
11
132.764389
21
355.998639
0
LINE
5
193
100
AcDbEntity
8
new_box
6
ByLayer
62
7
370
-1
100
AcDbLine
10
132.764389
20
355.998639
11
145.485556
21
355.998639
0
LINE
5
194
100
AcDbEntity
8
new_box
6
ByLayer
62
7
370
-1
100
AcDbLine
10
145.485556
20
361.001028
11
145.485556
21
355.998639
0
LINE
5
195
100
AcDbEntity
8
new_box
6
ByLayer
62
7
370
-1
100
AcDbLine
10
145.485556
20
361.001028
11
158.707667
21
361.001028
0
LINE
5
196
100
AcDbEntity
8
new_box
6
ByLayer
62
7
370
-1
100
AcDbLine
10
158.707667
20
361.001028
11
158.707667
21
355.998639
0
LINE
5
197
100
AcDbEntity
8
new_box
6
ByLayer
62
7
370
-1
100
AcDbLine
10
158.707667
20
355.998639
11
171.428833
21
355.998639
0
LINE
5
198
100
AcDbEntity
8
new_box
6
ByLayer
62
7
370
-1
100
AcDbLine
10
171.428833
20
361.001028
11
171.428833
21
355.998639
0
LINE
5
199
100
AcDbEntity
8
new_box
6
ByLayer
62
7
370
-1
100
AcDbLine
10
171.428833
20
361.001028
11
184.654472
21
361.001028
0
LINE
5
19A
100
AcDbEntity
8
new_box
6
ByLayer
62
7
370
-1
100
AcDbLine
10
184.654472
20
361.001028
11
184.654472
21
355.998639
0
LINE
5
19B
100
AcDbEntity
8
new_box
6
ByLayer
62
7
370
-1
100
AcDbLine
10
184.654472
20
355.998639
11
197.375639
21
355.998639
0
LINE
5
19C
100
AcDbEntity
8
new_box
6
ByLayer
62
7
370
-1
100
AcDbLine
10
197.375639
20
361.001028
11
197.375639
21
355.998639
0
LINE
5
19D
100
AcDbEntity
8
new_box
6
ByLayer
62
7
370
-1
100
AcDbLine
10
197.375639
20
361.001028
11
210.59775
21
361.001028
0
LINE
5
19E
100
AcDbEntity
8
new_box
6
ByLayer
62
7
370
-1
100
AcDbLine
10
210.59775
20
361.001028
11
210.59775
21
355.998639
0
LINE
5
19F
100
AcDbEntity
8
new_box
6
ByLayer
62
7
370
-1
100
AcDbLine
10
210.59775
20
355.998639
11
223.318917
21
355.998639
0
LINE
5
1A0
100
AcDbEntity
8
new_box
6
ByLayer
62
7
370
-1
100
AcDbLine
10
223.318917
20
361.001028
11
223.318917
21
355.998639
0
LINE
5
1A1
100
AcDbEntity
8
new_box
6
ByLayer
62
7
370
-1
100
AcDbLine
10
223.318917
20
361.001028
11
236.541028
21
361.001028
0
LINE
5
1A2
100
AcDbEntity
8
new_box
6
ByLayer
62
7
370
-1
100
AcDbLine
10
236.541028
20
361.001028
11
236.541028
21
355.998639
0
LINE
5
1A3
100
AcDbEntity
8
new_box
6
ByLayer
62
7
370
-1
100
AcDbLine
10
236.541028
20
355.998639
11
249.262194
21
355.998639
0
LINE
5
1A4
100
AcDbEntity
8
new_box
6
ByLayer
62
7
370
-1
100
AcDbLine
10
249.262194
20
361.001028
11
249.262194
21
355.998639
0
LINE
5
1A5
100
AcDbEntity
8
new_box
6
ByLayer
62
7
370
-1
100
AcDbLine
10
249.262194
20
361.001028
11
262.487833
21
361.001028
0
LINE
5
1A6
100
AcDbEntity
8
new_box
6
ByLayer
62
7
370
-1
100
AcDbLine
10
262.487833
20
361.001028
11
262.487833
21
355.998639
0
LINE
5
1A7
100
AcDbEntity
8
new_box
6
ByLayer
62
7
370
-1
100
AcDbLine
10
262.487833
20
355.998639
11
275.209
21
355.998639
0
LINE
5
1A8
100
AcDbEntity
8
new_box
6
ByLayer
62
7
370
-1
100
AcDbLine
10
275.209
20
361.001028
11
275.209
21
355.998639
0
LINE
5
1A9
100
AcDbEntity
8
new_box
6
ByLayer
62
7
370
-1
100
AcDbLine
10
275.209
20
361.001028
11
288.431111
21
361.001028
0
LINE
5
1AA
100
AcDbEntity
8
new_box
6
ByLayer
62
7
370
-1
100
AcDbLine
10
288.431111
20
361.001028
11
288.431111
21
355.998639
0
LINE
5
1AB
100
AcDbEntity
8
new_box
6
ByLayer
62
7
370
-1
100
AcDbLine
10
288.431111
20
355.998639
11
301.152278
21
355.998639
0
LINE
5
1AC
100
AcDbEntity
8
new_box
6
ByLayer
62
7
370
-1
100
AcDbLine
10
301.152278
20
361.001028
11
301.152278
21
355.998639
0
LINE
5
1AD
100
AcDbEntity
8
new_box
6
ByLayer
62
7
370
-1
100
AcDbLine
10
301.152278
20
361.001028
11
314.374389
21
361.001028
0
LINE
5
1AE
100
AcDbEntity
8
new_box
6
ByLayer
62
7
370
-1
100
AcDbLine
10
314.374389
20
361.001028
11
314.374389
21
355.998639
0
LINE
5
1AF
100
AcDbEntity
8
new_box
6
ByLayer
62
7
370
-1
100
AcDbLine
10
314.374389
20
355.998639
11
327.099083
21
355.998639
0
LINE
5
1B0
100
AcDbEntity
8
new_box
6
ByLayer
62
7
370
-1
100
AcDbLine
10
327.099083
20
361.001028
11
327.099083
21
355.998639
0
LINE
5
1B1
100
AcDbEntity
8
new_box
6
ByLayer
62
7
370
-1
100
AcDbLine
10
327.099083
20
361.001028
11
340.321194
21
361.001028
0
LINE
5
1B2
100
AcDbEntity
8
new_box
6
ByLayer
62
7
370
-1
100
AcDbLine
10
340.321194
20
361.001028
11
340.321194
21
355.998639
0
LINE
5
1B3
100
AcDbEntity
8
new_box
6
ByLayer
62
7
370
-1
100
AcDbLine
10
340.321194
20
355.998639
11
353.042361
21
355.998639
0
LINE
5
1B4
100
AcDbEntity
8
new_box
6
ByLayer
62
7
370
-1
100
AcDbLine
10
353.042361
20
361.001028
11
353.042361
21
355.998639
0
LINE
5
1B5
100
AcDbEntity
8
new_box
6
ByLayer
62
7
370
-1
100
AcDbLine
10
353.042361
20
361.001028
11
366.264472
21
361.001028
0
LINE
5
1B6
100
AcDbEntity
8
new_box
6
ByLayer
62
7
370
-1
100
AcDbLine
10
366.264472
20
361.001028
11
366.264472
21
355.998639
0
LINE
5
1B7
100
AcDbEntity
8
new_box
6
ByLayer
62
7
370
-1
100
AcDbLine
10
366.264472
20
355.998639
11
378.985639
21
355.998639
0
LINE
5
1B8
100
AcDbEntity
8
new_box
6
ByLayer
62
7
370
-1
100
AcDbLine
10
378.985639
20
361.001028
11
378.985639
21
355.998639
0
LINE
5
1B9
100
AcDbEntity
8
new_box
6
ByLayer
62
7
370
-1
100
AcDbLine
10
378.985639
20
361.001028
11
392.20775
21
361.001028
0
LINE
5
1BA
100
AcDbEntity
8
new_box
6
ByLayer
62
7
370
-1
100
AcDbLine
10
392.20775
20
361.001028
11
392.20775
21
355.998639
0
LINE
5
1BB
100
AcDbEntity
8
new_box
6
ByLayer
62
7
370
-1
100
AcDbLine
10
392.20775
20
355.998639
11
404.932444
21
355.998639
0
LINE
5
1BC
100
AcDbEntity
8
new_box
6
ByLayer
62
7
370
-1
100
AcDbLine
10
404.932444
20
361.001028
11
404.932444
21
355.998639
0
LINE
5
1BD
100
AcDbEntity
8
new_box
6
ByLayer
62
7
370
-1
100
AcDbLine
10
404.932444
20
361.001028
11
418.154556
21
361.001028
0
LINE
5
1BE
100
AcDbEntity
8
new_box
6
ByLayer
62
7
370
-1
100
AcDbLine
10
418.154556
20
361.001028
11
418.154556
21
355.998639
0
LINE
5
1BF
100
AcDbEntity
8
new_box
6
ByLayer
62
7
370
-1
100
AcDbLine
10
418.154556
20
355.998639
11
426.000333
21
355.998639
0
LINE
5
1C0
100
AcDbEntity
8
new_box
6
ByLayer
62
7
370
-1
100
AcDbLine
10
85.749694
20
305.748972
11
85.749694
21
312.674
0
LINE
5
1C1
100
AcDbEntity
8
new_box
6
ByLayer
62
7
370
-1
100
AcDbLine
10
85.749694
20
312.674
11
80.750833
21
312.674
0
LINE
5
1C2
100
AcDbEntity
8
new_box
6
ByLayer
62
7
370
-1
100
AcDbLine
10
80.750833
20
312.674
11
80.750833
21
324.975361
0
LINE
5
1C3
100
AcDbEntity
8
new_box
6
ByLayer
62
7
370
-1
100
AcDbLine
10
85.749694
20
324.975361
11
80.750833
21
324.975361
0
LINE
5
1C4
100
AcDbEntity
8
new_box
6
ByLayer
62
7
370
-1
100
AcDbLine
10
85.749694
20
324.975361
11
85.749694
21
336.775778
0
LINE
5
1C5
100
AcDbEntity
8
new_box
6
ByLayer
62
7
370
-1
100
AcDbLine
10
85.749694
20
336.775778
11
80.750833
21
336.775778
0
LINE
5
1C6
100
AcDbEntity
8
new_box
6
ByLayer
62
7
370
-1
100
AcDbLine
10
80.750833
20
336.775778
11
80.750833
21
349.073611
0
LINE
5
1C7
100
AcDbEntity
8
new_box
6
ByLayer
62
7
370
-1
100
AcDbLine
10
85.749694
20
349.073611
11
80.750833
21
349.073611
0
LINE
5
1C8
100
AcDbEntity
8
new_box
6
ByLayer
62
7
370
-1
100
AcDbLine
10
85.749694
20
349.073611
11
85.749694
21
355.998639
0
LINE
5
1C9
100
AcDbEntity
8
new_box
6
ByLayer
62
7
370
-1
100
AcDbLine
10
426.000333
20
305.748972
11
426.000333
21
312.674
0
LINE
5
1CA
100
AcDbEntity
8
new_box
6
ByLayer
62
7
370
-1
100
AcDbLine
10
430.999194
20
312.674
11
426.000333
21
312.674
0
LINE
5
1CB
100
AcDbEntity
8
new_box
6
ByLayer
62
7
370
-1
100
AcDbLine
10
430.999194
20
312.674
11
430.999194
21
324.975361
0
LINE
5
1CC
100
AcDbEntity
8
new_box
6
ByLayer
62
7
370
-1
100
AcDbLine
10
430.999194
20
324.975361
11
426.000333
21
324.975361
0
LINE
5
1CD
100
AcDbEntity
8
new_box
6
ByLayer
62
7
370
-1
100
AcDbLine
10
426.000333
20
324.975361
11
426.000333
21
336.775778
0
LINE
5
1CE
100
AcDbEntity
8
new_box
6
ByLayer
62
7
370
-1
100
AcDbLine
10
430.999194
20
336.775778
11
426.000333
21
336.775778
0
LINE
5
1CF
100
AcDbEntity
8
new_box
6
ByLayer
62
7
370
-1
100
AcDbLine
10
430.999194
20
336.775778
11
430.999194
21
349.073611
0
LINE
5
1D0
100
AcDbEntity
8
new_box
6
ByLayer
62
7
370
-1
100
AcDbLine
10
430.999194
20
349.073611
11
426.000333
21
349.073611
0
LINE
5
1D1
100
AcDbEntity
8
new_box
6
ByLayer
62
7
370
-1
100
AcDbLine
10
426.000333
20
349.073611
11
426.000333
21
355.998639
0
LINE
5
1D2
100
AcDbEntity
8
new_box
6
ByLayer
62
7
370
-1
100
AcDbLine
10
7.55142
20
63.035769
11
19.725781
21
63.035769
0
LINE
5
1D3
100
AcDbEntity
8
new_box
6
ByLayer
62
7
370
-1
100
AcDbLine
10
19.725781
20
68.03463
11
19.725781
21
63.035769
0
LINE
5
1D4
100
AcDbEntity
8
new_box
6
ByLayer
62
7
370
-1
100
AcDbLine
10
19.725781
20
68.03463
11
31.526198
21
68.03463
0
LINE
5
1D5
100
AcDbEntity
8
new_box
6
ByLayer
62
7
370
-1
100
AcDbLine
10
31.526198
20
68.03463
11
31.526198
21
63.035769
0
LINE
5
1D6
100
AcDbEntity
8
new_box
6
ByLayer
62
7
370
-1
100
AcDbLine
10
31.526198
20
63.035769
11
43.824031
21
63.035769
0
LINE
5
1D7
100
AcDbEntity
8
new_box
6
ByLayer
62
7
370
-1
100
AcDbLine
10
43.824031
20
68.03463
11
43.824031
21
63.035769
0
LINE
5
1D8
100
AcDbEntity
8
new_box
6
ByLayer
62
7
370
-1
100
AcDbLine
10
43.824031
20
68.03463
11
55.624448
21
68.03463
0
LINE
5
1D9
100
AcDbEntity
8
new_box
6
ByLayer
62
7
370
-1
100
AcDbLine
10
55.624448
20
68.03463
11
55.624448
21
63.035769
0
LINE
5
1DA
100
AcDbEntity
8
new_box
6
ByLayer
62
7
370
-1
100
AcDbLine
10
55.624448
20
63.035769
11
62.799948
21
63.035769
0
LINE
5
1DB
100
AcDbEntity
8
new_box
6
ByLayer
62
7
370
-1
100
AcDbLine
10
7.55142
20
343.285964
11
19.725781
21
343.285964
0
LINE
5
1DC
100
AcDbEntity
8
new_box
6
ByLayer
62
7
370
-1
100
AcDbLine
10
19.725781
20
343.285964
11
19.725781
21
338.287102
0
LINE
5
1DD
100
AcDbEntity
8
new_box
6
ByLayer
62
7
370
-1
100
AcDbLine
10
19.725781
20
338.287102
11
31.526198
21
338.287102
0
LINE
5
1DE
100
AcDbEntity
8
new_box
6
ByLayer
62
7
370
-1
100
AcDbLine
10
31.526198
20
343.285964
11
31.526198
21
338.287102
0
LINE
5
1DF
100
AcDbEntity
8
new_box
6
ByLayer
62
7
370
-1
100
AcDbLine
10
31.526198
20
343.285964
11
43.824031
21
343.285964
0
LINE
5
1E0
100
AcDbEntity
8
new_box
6
ByLayer
62
7
370
-1
100
AcDbLine
10
43.824031
20
343.285964
11
43.824031
21
338.287102
0
LINE
5
1E1
100
AcDbEntity
8
new_box
6
ByLayer
62
7
370
-1
100
AcDbLine
10
43.824031
20
338.287102
11
55.624448
21
338.287102
0
LINE
5
1E2
100
AcDbEntity
8
new_box
6
ByLayer
62
7
370
-1
100
AcDbLine
10
55.624448
20
343.285964
11
55.624448
21
338.287102
0
LINE
5
1E3
100
AcDbEntity
8
new_box
6
ByLayer
62
7
370
-1
100
AcDbLine
10
55.624448
20
343.285964
11
62.799948
21
343.285964
0
LINE
5
1E4
100
AcDbEntity
8
new_box
6
ByLayer
62
7
370
-1
100
AcDbLine
10
7.55142
20
63.035769
11
7.55142
21
76.504825
0
LINE
5
1E5
100
AcDbEntity
8
new_box
6
ByLayer
62
7
370
-1
100
AcDbLine
10
12.550281
20
76.504825
11
7.55142
21
76.504825
0
LINE
5
1E6
100
AcDbEntity
8
new_box
6
ByLayer
62
7
370
-1
100
AcDbLine
10
12.550281
20
76.504825
11
12.550281
21
89.599936
0
LINE
5
1E7
100
AcDbEntity
8
new_box
6
ByLayer
62
7
370
-1
100
AcDbLine
10
12.550281
20
89.599936
11
7.55142
21
89.599936
0
LINE
5
1E8
100
AcDbEntity
8
new_box
6
ByLayer
62
7
370
-1
100
AcDbLine
10
7.55142
20
89.599936
11
7.55142
21
103.195991
0
LINE
5
1E9
100
AcDbEntity
8
new_box
6
ByLayer
62
7
370
-1
100
AcDbLine
10
12.550281
20
103.195991
11
7.55142
21
103.195991
0
LINE
5
1EA
100
AcDbEntity
8
new_box
6
ByLayer
62
7
370
-1
100
AcDbLine
10
12.550281
20
103.195991
11
12.550281
21
116.291102
0
LINE
5
1EB
100
AcDbEntity
8
new_box
6
ByLayer
62
7
370
-1
100
AcDbLine
10
12.550281
20
116.291102
11
7.55142
21
116.291102
0
LINE
5
1EC
100
AcDbEntity
8
new_box
6
ByLayer
62
7
370
-1
100
AcDbLine
10
7.55142
20
116.291102
11
7.55142
21
129.887158
0
LINE
5
1ED
100
AcDbEntity
8
new_box
6
ByLayer
62
7
370
-1
100
AcDbLine
10
12.550281
20
129.887158
11
7.55142
21
129.887158
0
LINE
5
1EE
100
AcDbEntity
8
new_box
6
ByLayer
62
7
370
-1
100
AcDbLine
10
12.550281
20
129.887158
11
12.550281
21
142.982269
0
LINE
5
1EF
100
AcDbEntity
8
new_box
6
ByLayer
62
7
370
-1
100
AcDbLine
10
12.550281
20
142.982269
11
7.55142
21
142.982269
0
LINE
5
1F0
100
AcDbEntity
8
new_box
6
ByLayer
62
7
370
-1
100
AcDbLine
10
7.55142
20
142.982269
11
7.55142
21
156.578325
0
LINE
5
1F1
100
AcDbEntity
8
new_box
6
ByLayer
62
7
370
-1
100
AcDbLine
10
12.550281
20
156.578325
11
7.55142
21
156.578325
0
LINE
5
1F2
100
AcDbEntity
8
new_box
6
ByLayer
62
7
370
-1
100
AcDbLine
10
12.550281
20
156.578325
11
12.550281
21
169.673436
0
LINE
5
1F3
100
AcDbEntity
8
new_box
6
ByLayer
62
7
370
-1
100
AcDbLine
10
12.550281
20
169.673436
11
7.55142
21
169.673436
0
LINE
5
1F4
100
AcDbEntity
8
new_box
6
ByLayer
62
7
370
-1
100
AcDbLine
10
7.55142
20
169.673436
11
7.55142
21
183.269491
0
LINE
5
1F5
100
AcDbEntity
8
new_box
6
ByLayer
62
7
370
-1
100
AcDbLine
10
12.550281
20
183.269491
11
7.55142
21
183.269491
0
LINE
5
1F6
100
AcDbEntity
8
new_box
6
ByLayer
62
7
370
-1
100
AcDbLine
10
12.550281
20
183.269491
11
12.550281
21
196.364602
0
LINE
5
1F7
100
AcDbEntity
8
new_box
6
ByLayer
62
7
370
-1
100
AcDbLine
10
12.550281
20
196.364602
11
7.55142
21
196.364602
0
LINE
5
1F8
100
AcDbEntity
8
new_box
6
ByLayer
62
7
370
-1
100
AcDbLine
10
7.55142
20
196.364602
11
7.55142
21
209.95713
0
LINE
5
1F9
100
AcDbEntity
8
new_box
6
ByLayer
62
7
370
-1
100
AcDbLine
10
12.550281
20
209.95713
11
7.55142
21
209.95713
0
LINE
5
1FA
100
AcDbEntity
8
new_box
6
ByLayer
62
7
370
-1
100
AcDbLine
10
12.550281
20
209.95713
11
12.550281
21
223.052241
0
LINE
5
1FB
100
AcDbEntity
8
new_box
6
ByLayer
62
7
370
-1
100
AcDbLine
10
12.550281
20
223.052241
11
7.55142
21
223.052241
0
LINE
5
1FC
100
AcDbEntity
8
new_box
6
ByLayer
62
7
370
-1
100
AcDbLine
10
7.55142
20
223.052241
11
7.55142
21
236.648297
0
LINE
5
1FD
100
AcDbEntity
8
new_box
6
ByLayer
62
7
370
-1
100
AcDbLine
10
12.550281
20
236.648297
11
7.55142
21
236.648297
0
LINE
5
1FE
100
AcDbEntity
8
new_box
6
ByLayer
62
7
370
-1
100
AcDbLine
10
12.550281
20
236.648297
11
12.550281
21
249.743408
0
LINE
5
1FF
100
AcDbEntity
8
new_box
6
ByLayer
62
7
370
-1
100
AcDbLine
10
12.550281
20
249.743408
11
7.55142
21
249.743408
0
LINE
5
200
100
AcDbEntity
8
new_box
6
ByLayer
62
7
370
-1
100
AcDbLine
10
7.55142
20
249.743408
11
7.55142
21
263.339464
0
LINE
5
201
100
AcDbEntity
8
new_box
6
ByLayer
62
7
370
-1
100
AcDbLine
10
12.550281
20
263.339464
11
7.55142
21
263.339464
0
LINE
5
202
100
AcDbEntity
8
new_box
6
ByLayer
62
7
370
-1
100
AcDbLine
10
12.550281
20
263.339464
11
12.550281
21
276.434575
0
LINE
5
203
100
AcDbEntity
8
new_box
6
ByLayer
62
7
370
-1
100
AcDbLine
10
12.550281
20
276.434575
11
7.55142
21
276.434575
0
LINE
5
204
100
AcDbEntity
8
new_box
6
ByLayer
62
7
370
-1
100
AcDbLine
10
7.55142
20
276.434575
11
7.55142
21
290.03063
0
LINE
5
205
100
AcDbEntity
8
new_box
6
ByLayer
62
7
370
-1
100
AcDbLine
10
12.550281
20
290.03063
11
7.55142
21
290.03063
0
LINE
5
206
100
AcDbEntity
8
new_box
6
ByLayer
62
7
370
-1
100
AcDbLine
10
12.550281
20
290.03063
11
12.550281
21
303.125741
0
LINE
5
207
100
AcDbEntity
8
new_box
6
ByLayer
62
7
370
-1
100
AcDbLine
10
12.550281
20
303.125741
11
7.55142
21
303.125741
0
LINE
5
208
100
AcDbEntity
8
new_box
6
ByLayer
62
7
370
-1
100
AcDbLine
10
7.55142
20
303.125741
11
7.55142
21
316.721797
0
LINE
5
209
100
AcDbEntity
8
new_box
6
ByLayer
62
7
370
-1
100
AcDbLine
10
12.550281
20
316.721797
11
7.55142
21
316.721797
0
LINE
5
20A
100
AcDbEntity
8
new_box
6
ByLayer
62
7
370
-1
100
AcDbLine
10
12.550281
20
316.721797
11
12.550281
21
329.816908
0
LINE
5
20B
100
AcDbEntity
8
new_box
6
ByLayer
62
7
370
-1
100
AcDbLine
10
12.550281
20
329.816908
11
7.55142
21
329.816908
0
LINE
5
20C
100
AcDbEntity
8
new_box
6
ByLayer
62
7
370
-1
100
AcDbLine
10
7.55142
20
329.816908
11
7.55142
21
343.285964
0
LINE
5
20D
100
AcDbEntity
8
new_box
6
ByLayer
62
7
370
-1
100
AcDbLine
10
62.799948
20
63.035769
11
62.799948
21
76.254352
0
LINE
5
20E
100
AcDbEntity
8
new_box
6
ByLayer
62
7
370
-1
100
AcDbLine
10
67.798809
20
76.254352
11
62.799948
21
76.254352
0
LINE
5
20F
100
AcDbEntity
8
new_box
6
ByLayer
62
7
370
-1
100
AcDbLine
10
67.798809
20
76.254352
11
67.798809
21
89.850408
0
LINE
5
210
100
AcDbEntity
8
new_box
6
ByLayer
62
7
370
-1
100
AcDbLine
10
67.798809
20
89.850408
11
62.799948
21
89.850408
0
LINE
5
211
100
AcDbEntity
8
new_box
6
ByLayer
62
7
370
-1
100
AcDbLine
10
62.799948
20
89.850408
11
62.799948
21
102.945519
0
LINE
5
212
100
AcDbEntity
8
new_box
6
ByLayer
62
7
370
-1
100
AcDbLine
10
67.798809
20
102.945519
11
62.799948
21
102.945519
0
LINE
5
213
100
AcDbEntity
8
new_box
6
ByLayer
62
7
370
-1
100
AcDbLine
10
67.798809
20
102.945519
11
67.798809
21
116.541575
0
LINE
5
214
100
AcDbEntity
8
new_box
6
ByLayer
62
7
370
-1
100
AcDbLine
10
67.798809
20
116.541575
11
62.799948
21
116.541575
0
LINE
5
215
100
AcDbEntity
8
new_box
6
ByLayer
62
7
370
-1
100
AcDbLine
10
62.799948
20
116.541575
11
62.799948
21
129.636686
0
LINE
5
216
100
AcDbEntity
8
new_box
6
ByLayer
62
7
370
-1
100
AcDbLine
10
67.798809
20
129.636686
11
62.799948
21
129.636686
0
LINE
5
217
100
AcDbEntity
8
new_box
6
ByLayer
62
7
370
-1
100
AcDbLine
10
67.798809
20
129.636686
11
67.798809
21
143.232741
0
LINE
5
218
100
AcDbEntity
8
new_box
6
ByLayer
62
7
370
-1
100
AcDbLine
10
67.798809
20
143.232741
11
62.799948
21
143.232741
0
LINE
5
219
100
AcDbEntity
8
new_box
6
ByLayer
62
7
370
-1
100
AcDbLine
10
62.799948
20
143.232741
11
62.799948
21
156.327852
0
LINE
5
21A
100
AcDbEntity
8
new_box
6
ByLayer
62
7
370
-1
100
AcDbLine
10
67.798809
20
156.327852
11
62.799948
21
156.327852
0
LINE
5
21B
100
AcDbEntity
8
new_box
6
ByLayer
62
7
370
-1
100
AcDbLine
10
67.798809
20
156.327852
11
67.798809
21
169.923908
0
LINE
5
21C
100
AcDbEntity
8
new_box
6
ByLayer
62
7
370
-1
100
AcDbLine
10
67.798809
20
169.923908
11
62.799948
21
169.923908
0
LINE
5
21D
100
AcDbEntity
8
new_box
6
ByLayer
62
7
370
-1
100
AcDbLine
10
62.799948
20
169.923908
11
62.799948
21
183.019019
0
LINE
5
21E
100
AcDbEntity
8
new_box
6
ByLayer
62
7
370
-1
100
AcDbLine
10
67.798809
20
183.019019
11
62.799948
21
183.019019
0
LINE
5
21F
100
AcDbEntity
8
new_box
6
ByLayer
62
7
370
-1
100
AcDbLine
10
67.798809
20
183.019019
11
67.798809
21
196.611547
0
LINE
5
220
100
AcDbEntity
8
new_box
6
ByLayer
62
7
370
-1
100
AcDbLine
10
67.798809
20
196.611547
11
62.799948
21
196.611547
0
LINE
5
221
100
AcDbEntity
8
new_box
6
ByLayer
62
7
370
-1
100
AcDbLine
10
62.799948
20
196.611547
11
62.799948
21
209.706658
0
LINE
5
222
100
AcDbEntity
8
new_box
6
ByLayer
62
7
370
-1
100
AcDbLine
10
67.798809
20
209.706658
11
62.799948
21
209.706658
0
LINE
5
223
100
AcDbEntity
8
new_box
6
ByLayer
62
7
370
-1
100
AcDbLine
10
67.798809
20
209.706658
11
67.798809
21
223.302714
0
LINE
5
224
100
AcDbEntity
8
new_box
6
ByLayer
62
7
370
-1
100
AcDbLine
10
67.798809
20
223.302714
11
62.799948
21
223.302714
0
LINE
5
225
100
AcDbEntity
8
new_box
6
ByLayer
62
7
370
-1
100
AcDbLine
10
62.799948
20
223.302714
11
62.799948
21
236.397825
0
LINE
5
226
100
AcDbEntity
8
new_box
6
ByLayer
62
7
370
-1
100
AcDbLine
10
67.798809
20
236.397825
11
62.799948
21
236.397825
0
LINE
5
227
100
AcDbEntity
8
new_box
6
ByLayer
62
7
370
-1
100
AcDbLine
10
67.798809
20
236.397825
11
67.798809
21
249.99388
0
LINE
5
228
100
AcDbEntity
8
new_box
6
ByLayer
62
7
370
-1
100
AcDbLine
10
67.798809
20
249.99388
11
62.799948
21
249.99388
0
LINE
5
229
100
AcDbEntity
8
new_box
6
ByLayer
62
7
370
-1
100
AcDbLine
10
62.799948
20
249.99388
11
62.799948
21
263.088991
0
LINE
5
22A
100
AcDbEntity
8
new_box
6
ByLayer
62
7
370
-1
100
AcDbLine
10
67.798809
20
263.088991
11
62.799948
21
263.088991
0
LINE
5
22B
100
AcDbEntity
8
new_box
6
ByLayer
62
7
370
-1
100
AcDbLine
10
67.798809
20
263.088991
11
67.798809
21
276.685047
0
LINE
5
22C
100
AcDbEntity
8
new_box
6
ByLayer
62
7
370
-1
100
AcDbLine
10
67.798809
20
276.685047
11
62.799948
21
276.685047
0
LINE
5
22D
100
AcDbEntity
8
new_box
6
ByLayer
62
7
370
-1
100
AcDbLine
10
62.799948
20
276.685047
11
62.799948
21
289.780158
0
LINE
5
22E
100
AcDbEntity
8
new_box
6
ByLayer
62
7
370
-1
100
AcDbLine
10
67.798809
20
289.780158
11
62.799948
21
289.780158
0
LINE
5
22F
100
AcDbEntity
8
new_box
6
ByLayer
62
7
370
-1
100
AcDbLine
10
67.798809
20
289.780158
11
67.798809
21
303.376214
0
LINE
5
230
100
AcDbEntity
8
new_box
6
ByLayer
62
7
370
-1
100
AcDbLine
10
67.798809
20
303.376214
11
62.799948
21
303.376214
0
LINE
5
231
100
AcDbEntity
8
new_box
6
ByLayer
62
7
370
-1
100
AcDbLine
10
62.799948
20
303.376214
11
62.799948
21
316.471325
0
LINE
5
232
100
AcDbEntity
8
new_box
6
ByLayer
62
7
370
-1
100
AcDbLine
10
67.798809
20
316.471325
11
62.799948
21
316.471325
0
LINE
5
233
100
AcDbEntity
8
new_box
6
ByLayer
62
7
370
-1
100
AcDbLine
10
67.798809
20
316.471325
11
67.798809
21
330.063852
0
LINE
5
234
100
AcDbEntity
8
new_box
6
ByLayer
62
7
370
-1
100
AcDbLine
10
67.798809
20
330.063852
11
62.799948
21
330.063852
0
LINE
5
235
100
AcDbEntity
8
new_box
6
ByLayer
62
7
370
-1
100
AcDbLine
10
62.799948
20
330.063852
11
62.799948
21
343.285964
0
LINE
5
236
100
AcDbEntity
8
new_box
6
ByLayer
62
7
370
-1
100
AcDbLine
10
80.750833
20
371.249222
11
93.845944
21
371.249222
0
LINE
5
237
100
AcDbEntity
8
new_box
6
ByLayer
62
7
370
-1
100
AcDbLine
10
93.845944
20
376.251611
11
93.845944
21
371.249222
0
LINE
5
238
100
AcDbEntity
8
new_box
6
ByLayer
62
7
370
-1
100
AcDbLine
10
93.845944
20
376.251611
11
106.570639
21
376.251611
0
LINE
5
239
100
AcDbEntity
8
new_box
6
ByLayer
62
7
370
-1
100
AcDbLine
10
106.570639
20
376.251611
11
106.570639
21
371.249222
0
LINE
5
23A
100
AcDbEntity
8
new_box
6
ByLayer
62
7
370
-1
100
AcDbLine
10
106.570639
20
371.249222
11
119.79275
21
371.249222
0
LINE
5
23B
100
AcDbEntity
8
new_box
6
ByLayer
62
7
370
-1
100
AcDbLine
10
119.79275
20
376.251611
11
119.79275
21
371.249222
0
LINE
5
23C
100
AcDbEntity
8
new_box
6
ByLayer
62
7
370
-1
100
AcDbLine
10
119.79275
20
376.251611
11
132.513917
21
376.251611
0
LINE
5
23D
100
AcDbEntity
8
new_box
6
ByLayer
62
7
370
-1
100
AcDbLine
10
132.513917
20
376.251611
11
132.513917
21
371.249222
0
LINE
5
23E
100
AcDbEntity
8
new_box
6
ByLayer
62
7
370
-1
100
AcDbLine
10
132.513917
20
371.249222
11
145.736028
21
371.249222
0
LINE
5
23F
100
AcDbEntity
8
new_box
6
ByLayer
62
7
370
-1
100
AcDbLine
10
145.736028
20
376.251611
11
145.736028
21
371.249222
0
LINE
5
240
100
AcDbEntity
8
new_box
6
ByLayer
62
7
370
-1
100
AcDbLine
10
145.736028
20
376.251611
11
158.457194
21
376.251611
0
LINE
5
241
100
AcDbEntity
8
new_box
6
ByLayer
62
7
370
-1
100
AcDbLine
10
158.457194
20
376.251611
11
158.457194
21
371.249222
0
LINE
5
242
100
AcDbEntity
8
new_box
6
ByLayer
62
7
370
-1
100
AcDbLine
10
158.457194
20
371.249222
11
171.679306
21
371.249222
0
LINE
5
243
100
AcDbEntity
8
new_box
6
ByLayer
62
7
370
-1
100
AcDbLine
10
171.679306
20
376.251611
11
171.679306
21
371.249222
0
LINE
5
244
100
AcDbEntity
8
new_box
6
ByLayer
62
7
370
-1
100
AcDbLine
10
171.679306
20
376.251611
11
184.404
21
376.251611
0
LINE
5
245
100
AcDbEntity
8
new_box
6
ByLayer
62
7
370
-1
100
AcDbLine
10
184.404
20
376.251611
11
184.404
21
371.249222
0
LINE
5
246
100
AcDbEntity
8
new_box
6
ByLayer
62
7
370
-1
100
AcDbLine
10
184.404
20
371.249222
11
197.626111
21
371.249222
0
LINE
5
247
100
AcDbEntity
8
new_box
6
ByLayer
62
7
370
-1
100
AcDbLine
10
197.626111
20
376.251611
11
197.626111
21
371.249222
0
LINE
5
248
100
AcDbEntity
8
new_box
6
ByLayer
62
7
370
-1
100
AcDbLine
10
197.626111
20
376.251611
11
210.347278
21
376.251611
0
LINE
5
249
100
AcDbEntity
8
new_box
6
ByLayer
62
7
370
-1
100
AcDbLine
10
210.347278
20
376.251611
11
210.347278
21
371.249222
0
LINE
5
24A
100
AcDbEntity
8
new_box
6
ByLayer
62
7
370
-1
100
AcDbLine
10
210.347278
20
371.249222
11
223.569389
21
371.249222
0
LINE
5
24B
100
AcDbEntity
8
new_box
6
ByLayer
62
7
370
-1
100
AcDbLine
10
223.569389
20
376.251611
11
223.569389
21
371.249222
0
LINE
5
24C
100
AcDbEntity
8
new_box
6
ByLayer
62
7
370
-1
100
AcDbLine
10
223.569389
20
376.251611
11
236.290556
21
376.251611
0
LINE
5
24D
100
AcDbEntity
8
new_box
6
ByLayer
62
7
370
-1
100
AcDbLine
10
236.290556
20
376.251611
11
236.290556
21
371.249222
0
LINE
5
24E
100
AcDbEntity
8
new_box
6
ByLayer
62
7
370
-1
100
AcDbLine
10
236.290556
20
371.249222
11
249.512667
21
371.249222
0
LINE
5
24F
100
AcDbEntity
8
new_box
6
ByLayer
62
7
370
-1
100
AcDbLine
10
249.512667
20
376.251611
11
249.512667
21
371.249222
0
LINE
5
250
100
AcDbEntity
8
new_box
6
ByLayer
62
7
370
-1
100
AcDbLine
10
249.512667
20
376.251611
11
262.237361
21
376.251611
0
LINE
5
251
100
AcDbEntity
8
new_box
6
ByLayer
62
7
370
-1
100
AcDbLine
10
262.237361
20
376.251611
11
262.237361
21
371.249222
0
LINE
5
252
100
AcDbEntity
8
new_box
6
ByLayer
62
7
370
-1
100
AcDbLine
10
262.237361
20
371.249222
11
275.459472
21
371.249222
0
LINE
5
253
100
AcDbEntity
8
new_box
6
ByLayer
62
7
370
-1
100
AcDbLine
10
275.459472
20
376.251611
11
275.459472
21
371.249222
0
LINE
5
254
100
AcDbEntity
8
new_box
6
ByLayer
62
7
370
-1
100
AcDbLine
10
275.459472
20
376.251611
11
288.180639
21
376.251611
0
LINE
5
255
100
AcDbEntity
8
new_box
6
ByLayer
62
7
370
-1
100
AcDbLine
10
288.180639
20
376.251611
11
288.180639
21
371.249222
0
LINE
5
256
100
AcDbEntity
8
new_box
6
ByLayer
62
7
370
-1
100
AcDbLine
10
288.180639
20
371.249222
11
301.40275
21
371.249222
0
LINE
5
257
100
AcDbEntity
8
new_box
6
ByLayer
62
7
370
-1
100
AcDbLine
10
301.40275
20
376.251611
11
301.40275
21
371.249222
0
LINE
5
258
100
AcDbEntity
8
new_box
6
ByLayer
62
7
370
-1
100
AcDbLine
10
301.40275
20
376.251611
11
314.123917
21
376.251611
0
LINE
5
259
100
AcDbEntity
8
new_box
6
ByLayer
62
7
370
-1
100
AcDbLine
10
314.123917
20
376.251611
11
314.123917
21
371.249222
0
LINE
5
25A
100
AcDbEntity
8
new_box
6
ByLayer
62
7
370
-1
100
AcDbLine
10
314.123917
20
371.249222
11
327.346028
21
371.249222
0
LINE
5
25B
100
AcDbEntity
8
new_box
6
ByLayer
62
7
370
-1
100
AcDbLine
10
327.346028
20
376.251611
11
327.346028
21
371.249222
0
LINE
5
25C
100
AcDbEntity
8
new_box
6
ByLayer
62
7
370
-1
100
AcDbLine
10
327.346028
20
376.251611
11
340.070722
21
376.251611
0
LINE
5
25D
100
AcDbEntity
8
new_box
6
ByLayer
62
7
370
-1
100
AcDbLine
10
340.070722
20
376.251611
11
340.070722
21
371.249222
0
LINE
5
25E
100
AcDbEntity
8
new_box
6
ByLayer
62
7
370
-1
100
AcDbLine
10
340.070722
20
371.249222
11
353.292833
21
371.249222
0
LINE
5
25F
100
AcDbEntity
8
new_box
6
ByLayer
62
7
370
-1
100
AcDbLine
10
353.292833
20
376.251611
11
353.292833
21
371.249222
0
LINE
5
260
100
AcDbEntity
8
new_box
6
ByLayer
62
7
370
-1
100
AcDbLine
10
353.292833
20
376.251611
11
366.014
21
376.251611
0
LINE
5
261
100
AcDbEntity
8
new_box
6
ByLayer
62
7
370
-1
100
AcDbLine
10
366.014
20
376.251611
11
366.014
21
371.249222
0
LINE
5
262
100
AcDbEntity
8
new_box
6
ByLayer
62
7
370
-1
100
AcDbLine
10
366.014
20
371.249222
11
379.236111
21
371.249222
0
LINE
5
263
100
AcDbEntity
8
new_box
6
ByLayer
62
7
370
-1
100
AcDbLine
10
379.236111
20
376.251611
11
379.236111
21
371.249222
0
LINE
5
264
100
AcDbEntity
8
new_box
6
ByLayer
62
7
370
-1
100
AcDbLine
10
379.236111
20
376.251611
11
391.957278
21
376.251611
0
LINE
5
265
100
AcDbEntity
8
new_box
6
ByLayer
62
7
370
-1
100
AcDbLine
10
391.957278
20
376.251611
11
391.957278
21
371.249222
0
LINE
5
266
100
AcDbEntity
8
new_box
6
ByLayer
62
7
370
-1
100
AcDbLine
10
391.957278
20
371.249222
11
405.179389
21
371.249222
0
LINE
5
267
100
AcDbEntity
8
new_box
6
ByLayer
62
7
370
-1
100
AcDbLine
10
405.179389
20
376.251611
11
405.179389
21
371.249222
0
LINE
5
268
100
AcDbEntity
8
new_box
6
ByLayer
62
7
370
-1
100
AcDbLine
10
405.179389
20
376.251611
11
417.904083
21
376.251611
0
LINE
5
269
100
AcDbEntity
8
new_box
6
ByLayer
62
7
370
-1
100
AcDbLine
10
417.904083
20
376.251611
11
417.904083
21
371.249222
0
LINE
5
26A
100
AcDbEntity
8
new_box
6
ByLayer
62
7
370
-1
100
AcDbLine
10
417.904083
20
371.249222
11
426.000333
21
371.249222
0
LINE
5
26B
100
AcDbEntity
8
new_box
6
ByLayer
62
7
370
-1
100
AcDbLine
10
80.750833
20
651.499417
11
93.845944
21
651.499417
0
LINE
5
26C
100
AcDbEntity
8
new_box
6
ByLayer
62
7
370
-1
100
AcDbLine
10
93.845944
20
651.499417
11
93.845944
21
646.500556
0
LINE
5
26D
100
AcDbEntity
8
new_box
6
ByLayer
62
7
370
-1
100
AcDbLine
10
93.845944
20
646.500556
11
106.570639
21
646.500556
0
LINE
5
26E
100
AcDbEntity
8
new_box
6
ByLayer
62
7
370
-1
100
AcDbLine
10
106.570639
20
651.499417
11
106.570639
21
646.500556
0
LINE
5
26F
100
AcDbEntity
8
new_box
6
ByLayer
62
7
370
-1
100
AcDbLine
10
106.570639
20
651.499417
11
119.79275
21
651.499417
0
LINE
5
270
100
AcDbEntity
8
new_box
6
ByLayer
62
7
370
-1
100
AcDbLine
10
119.79275
20
651.499417
11
119.79275
21
646.500556
0
LINE
5
271
100
AcDbEntity
8
new_box
6
ByLayer
62
7
370
-1
100
AcDbLine
10
119.79275
20
646.500556
11
132.513917
21
646.500556
0
LINE
5
272
100
AcDbEntity
8
new_box
6
ByLayer
62
7
370
-1
100
AcDbLine
10
132.513917
20
651.499417
11
132.513917
21
646.500556
0
LINE
5
273
100
AcDbEntity
8
new_box
6
ByLayer
62
7
370
-1
100
AcDbLine
10
132.513917
20
651.499417
11
145.736028
21
651.499417
0
LINE
5
274
100
AcDbEntity
8
new_box
6
ByLayer
62
7
370
-1
100
AcDbLine
10
145.736028
20
651.499417
11
145.736028
21
646.500556
0
LINE
5
275
100
AcDbEntity
8
new_box
6
ByLayer
62
7
370
-1
100
AcDbLine
10
145.736028
20
646.500556
11
158.457194
21
646.500556
0
LINE
5
276
100
AcDbEntity
8
new_box
6
ByLayer
62
7
370
-1
100
AcDbLine
10
158.457194
20
651.499417
11
158.457194
21
646.500556
0
LINE
5
277
100
AcDbEntity
8
new_box
6
ByLayer
62
7
370
-1
100
AcDbLine
10
158.457194
20
651.499417
11
171.679306
21
651.499417
0
LINE
5
278
100
AcDbEntity
8
new_box
6
ByLayer
62
7
370
-1
100
AcDbLine
10
171.679306
20
651.499417
11
171.679306
21
646.500556
0
LINE
5
279
100
AcDbEntity
8
new_box
6
ByLayer
62
7
370
-1
100
AcDbLine
10
171.679306
20
646.500556
11
184.404
21
646.500556
0
LINE
5
27A
100
AcDbEntity
8
new_box
6
ByLayer
62
7
370
-1
100
AcDbLine
10
184.404
20
651.499417
11
184.404
21
646.500556
0
LINE
5
27B
100
AcDbEntity
8
new_box
6
ByLayer
62
7
370
-1
100
AcDbLine
10
184.404
20
651.499417
11
197.626111
21
651.499417
0
LINE
5
27C
100
AcDbEntity
8
new_box
6
ByLayer
62
7
370
-1
100
AcDbLine
10
197.626111
20
651.499417
11
197.626111
21
646.500556
0
LINE
5
27D
100
AcDbEntity
8
new_box
6
ByLayer
62
7
370
-1
100
AcDbLine
10
197.626111
20
646.500556
11
210.347278
21
646.500556
0
LINE
5
27E
100
AcDbEntity
8
new_box
6
ByLayer
62
7
370
-1
100
AcDbLine
10
210.347278
20
651.499417
11
210.347278
21
646.500556
0
LINE
5
27F
100
AcDbEntity
8
new_box
6
ByLayer
62
7
370
-1
100
AcDbLine
10
210.347278
20
651.499417
11
223.569389
21
651.499417
0
LINE
5
280
100
AcDbEntity
8
new_box
6
ByLayer
62
7
370
-1
100
AcDbLine
10
223.569389
20
651.499417
11
223.569389
21
646.500556
0
LINE
5
281
100
AcDbEntity
8
new_box
6
ByLayer
62
7
370
-1
100
AcDbLine
10
223.569389
20
646.500556
11
236.290556
21
646.500556
0
LINE
5
282
100
AcDbEntity
8
new_box
6
ByLayer
62
7
370
-1
100
AcDbLine
10
236.290556
20
651.499417
11
236.290556
21
646.500556
0
LINE
5
283
100
AcDbEntity
8
new_box
6
ByLayer
62
7
370
-1
100
AcDbLine
10
236.290556
20
651.499417
11
249.512667
21
651.499417
0
LINE
5
284
100
AcDbEntity
8
new_box
6
ByLayer
62
7
370
-1
100
AcDbLine
10
249.512667
20
651.499417
11
249.512667
21
646.500556
0
LINE
5
285
100
AcDbEntity
8
new_box
6
ByLayer
62
7
370
-1
100
AcDbLine
10
249.512667
20
646.500556
11
262.237361
21
646.500556
0
LINE
5
286
100
AcDbEntity
8
new_box
6
ByLayer
62
7
370
-1
100
AcDbLine
10
262.237361
20
651.499417
11
262.237361
21
646.500556
0
LINE
5
287
100
AcDbEntity
8
new_box
6
ByLayer
62
7
370
-1
100
AcDbLine
10
262.237361
20
651.499417
11
275.459472
21
651.499417
0
LINE
5
288
100
AcDbEntity
8
new_box
6
ByLayer
62
7
370
-1
100
AcDbLine
10
275.459472
20
651.499417
11
275.459472
21
646.500556
0
LINE
5
289
100
AcDbEntity
8
new_box
6
ByLayer
62
7
370
-1
100
AcDbLine
10
275.459472
20
646.500556
11
288.180639
21
646.500556
0
LINE
5
28A
100
AcDbEntity
8
new_box
6
ByLayer
62
7
370
-1
100
AcDbLine
10
288.180639
20
651.499417
11
288.180639
21
646.500556
0
LINE
5
28B
100
AcDbEntity
8
new_box
6
ByLayer
62
7
370
-1
100
AcDbLine
10
288.180639
20
651.499417
11
301.40275
21
651.499417
0
LINE
5
28C
100
AcDbEntity
8
new_box
6
ByLayer
62
7
370
-1
100
AcDbLine
10
301.40275
20
651.499417
11
301.40275
21
646.500556
0
LINE
5
28D
100
AcDbEntity
8
new_box
6
ByLayer
62
7
370
-1
100
AcDbLine
10
301.40275
20
646.500556
11
314.123917
21
646.500556
0
LINE
5
28E
100
AcDbEntity
8
new_box
6
ByLayer
62
7
370
-1
100
AcDbLine
10
314.123917
20
651.499417
11
314.123917
21
646.500556
0
LINE
5
28F
100
AcDbEntity
8
new_box
6
ByLayer
62
7
370
-1
100
AcDbLine
10
314.123917
20
651.499417
11
327.346028
21
651.499417
0
LINE
5
290
100
AcDbEntity
8
new_box
6
ByLayer
62
7
370
-1
100
AcDbLine
10
327.346028
20
651.499417
11
327.346028
21
646.500556
0
LINE
5
291
100
AcDbEntity
8
new_box
6
ByLayer
62
7
370
-1
100
AcDbLine
10
327.346028
20
646.500556
11
340.070722
21
646.500556
0
LINE
5
292
100
AcDbEntity
8
new_box
6
ByLayer
62
7
370
-1
100
AcDbLine
10
340.070722
20
651.499417
11
340.070722
21
646.500556
0
LINE
5
293
100
AcDbEntity
8
new_box
6
ByLayer
62
7
370
-1
100
AcDbLine
10
340.070722
20
651.499417
11
353.292833
21
651.499417
0
LINE
5
294
100
AcDbEntity
8
new_box
6
ByLayer
62
7
370
-1
100
AcDbLine
10
353.292833
20
651.499417
11
353.292833
21
646.500556
0
LINE
5
295
100
AcDbEntity
8
new_box
6
ByLayer
62
7
370
-1
100
AcDbLine
10
353.292833
20
646.500556
11
366.014
21
646.500556
0
LINE
5
296
100
AcDbEntity
8
new_box
6
ByLayer
62
7
370
-1
100
AcDbLine
10
366.014
20
651.499417
11
366.014
21
646.500556
0
LINE
5
297
100
AcDbEntity
8
new_box
6
ByLayer
62
7
370
-1
100
AcDbLine
10
366.014
20
651.499417
11
379.236111
21
651.499417
0
LINE
5
298
100
AcDbEntity
8
new_box
6
ByLayer
62
7
370
-1
100
AcDbLine
10
379.236111
20
651.499417
11
379.236111
21
646.500556
0
LINE
5
299
100
AcDbEntity
8
new_box
6
ByLayer
62
7
370
-1
100
AcDbLine
10
379.236111
20
646.500556
11
391.957278
21
646.500556
0
LINE
5
29A
100
AcDbEntity
8
new_box
6
ByLayer
62
7
370
-1
100
AcDbLine
10
391.957278
20
651.499417
11
391.957278
21
646.500556
0
LINE
5
29B
100
AcDbEntity
8
new_box
6
ByLayer
62
7
370
-1
100
AcDbLine
10
391.957278
20
651.499417
11
405.179389
21
651.499417
0
LINE
5
29C
100
AcDbEntity
8
new_box
6
ByLayer
62
7
370
-1
100
AcDbLine
10
405.179389
20
651.499417
11
405.179389
21
646.500556
0
LINE
5
29D
100
AcDbEntity
8
new_box
6
ByLayer
62
7
370
-1
100
AcDbLine
10
405.179389
20
646.500556
11
417.904083
21
646.500556
0
LINE
5
29E
100
AcDbEntity
8
new_box
6
ByLayer
62
7
370
-1
100
AcDbLine
10
417.904083
20
651.499417
11
417.904083
21
646.500556
0
LINE
5
29F
100
AcDbEntity
8
new_box
6
ByLayer
62
7
370
-1
100
AcDbLine
10
417.904083
20
651.499417
11
426.000333
21
651.499417
0
LINE
5
2A0
100
AcDbEntity
8
new_box
6
ByLayer
62
7
370
-1
100
AcDbLine
10
80.750833
20
371.249222
11
80.750833
21
384.721806
0
LINE
5
2A1
100
AcDbEntity
8
new_box
6
ByLayer
62
7
370
-1
100
AcDbLine
10
85.749694
20
384.721806
11
80.750833
21
384.721806
0
LINE
5
2A2
100
AcDbEntity
8
new_box
6
ByLayer
62
7
370
-1
100
AcDbLine
10
85.749694
20
384.721806
11
85.749694
21
397.816917
0
LINE
5
2A3
100
AcDbEntity
8
new_box
6
ByLayer
62
7
370
-1
100
AcDbLine
10
85.749694
20
397.816917
11
80.750833
21
397.816917
0
LINE
5
2A4
100
AcDbEntity
8
new_box
6
ByLayer
62
7
370
-1
100
AcDbLine
10
85.749694
20
518.174111
11
80.750833
21
518.174111
0
LINE
5
2A5
100
AcDbEntity
8
new_box
6
ByLayer
62
7
370
-1
100
AcDbLine
10
85.749694
20
518.174111
11
85.749694
21
531.269222
0
LINE
5
2A6
100
AcDbEntity
8
new_box
6
ByLayer
62
7
370
-1
100
AcDbLine
10
85.749694
20
531.269222
11
80.750833
21
531.269222
0
LINE
5
2A7
100
AcDbEntity
8
new_box
6
ByLayer
62
7
370
-1
100
AcDbLine
10
80.750833
20
531.269222
11
80.750833
21
544.86175
0
LINE
5
2A8
100
AcDbEntity
8
new_box
6
ByLayer
62
7
370
-1
100
AcDbLine
10
85.749694
20
544.86175
11
80.750833
21
544.86175
0
LINE
5
2A9
100
AcDbEntity
8
new_box
6
ByLayer
62
7
370
-1
100
AcDbLine
10
85.749694
20
544.86175
11
85.749694
21
557.956861
0
LINE
5
2AA
100
AcDbEntity
8
new_box
6
ByLayer
62
7
370
-1
100
AcDbLine
10
85.749694
20
557.956861
11
80.750833
21
557.956861
0
LINE
5
2AB
100
AcDbEntity
8
new_box
6
ByLayer
62
7
370
-1
100
AcDbLine
10
80.750833
20
557.956861
11
80.750833
21
571.552917
0
LINE
5
2AC
100
AcDbEntity
8
new_box
6
ByLayer
62
7
370
-1
100
AcDbLine
10
85.749694
20
571.552917
11
80.750833
21
571.552917
0
LINE
5
2AD
100
AcDbEntity
8
new_box
6
ByLayer
62
7
370
-1
100
AcDbLine
10
85.749694
20
571.552917
11
85.749694
21
584.648028
0
LINE
5
2AE
100
AcDbEntity
8
new_box
6
ByLayer
62
7
370
-1
100
AcDbLine
10
85.749694
20
584.648028
11
80.750833
21
584.648028
0
LINE
5
2AF
100
AcDbEntity
8
new_box
6
ByLayer
62
7
370
-1
100
AcDbLine
10
80.750833
20
584.648028
11
80.750833
21
598.244083
0
LINE
5
2B0
100
AcDbEntity
8
new_box
6
ByLayer
62
7
370
-1
100
AcDbLine
10
85.749694
20
598.244083
11
80.750833
21
598.244083
0
LINE
5
2B1
100
AcDbEntity
8
new_box
6
ByLayer
62
7
370
-1
100
AcDbLine
10
85.749694
20
598.244083
11
85.749694
21
611.339194
0
LINE
5
2B2
100
AcDbEntity
8
new_box
6
ByLayer
62
7
370
-1
100
AcDbLine
10
85.749694
20
611.339194
11
80.750833
21
611.339194
0
LINE
5
2B3
100
AcDbEntity
8
new_box
6
ByLayer
62
7
370
-1
100
AcDbLine
10
80.750833
20
611.339194
11
80.750833
21
624.93525
0
LINE
5
2B4
100
AcDbEntity
8
new_box
6
ByLayer
62
7
370
-1
100
AcDbLine
10
85.749694
20
624.93525
11
80.750833
21
624.93525
0
LINE
5
2B5
100
AcDbEntity
8
new_box
6
ByLayer
62
7
370
-1
100
AcDbLine
10
85.749694
20
624.93525
11
85.749694
21
638.030361
0
LINE
5
2B6
100
AcDbEntity
8
new_box
6
ByLayer
62
7
370
-1
100
AcDbLine
10
85.749694
20
638.030361
11
80.750833
21
638.030361
0
LINE
5
2B7
100
AcDbEntity
8
new_box
6
ByLayer
62
7
370
-1
100
AcDbLine
10
80.750833
20
638.030361
11
80.750833
21
651.499417
0
LINE
5
2B8
100
AcDbEntity
8
new_box
6
ByLayer
62
7
370
-1
100
AcDbLine
10
426.000333
20
371.249222
11
426.000333
21
384.471333
0
LINE
5
2B9
100
AcDbEntity
8
new_box
6
ByLayer
62
7
370
-1
100
AcDbLine
10
430.999194
20
384.471333
11
426.000333
21
384.471333
0
LINE
5
2BA
100
AcDbEntity
8
new_box
6
ByLayer
62
7
370
-1
100
AcDbLine
10
430.999194
20
384.471333
11
430.999194
21
398.063861
0
LINE
5
2BB
100
AcDbEntity
8
new_box
6
ByLayer
62
7
370
-1
100
AcDbLine
10
430.999194
20
398.063861
11
426.000333
21
398.063861
0
LINE
5
2BC
100
AcDbEntity
8
new_box
6
ByLayer
62
7
370
-1
100
AcDbLine
10
426.000333
20
398.063861
11
426.000333
21
411.158972
0
LINE
5
2BD
100
AcDbEntity
8
new_box
6
ByLayer
62
7
370
-1
100
AcDbLine
10
430.999194
20
411.158972
11
426.000333
21
411.158972
0
LINE
5
2BE
100
AcDbEntity
8
new_box
6
ByLayer
62
7
370
-1
100
AcDbLine
10
430.999194
20
411.158972
11
430.999194
21
424.755028
0
LINE
5
2BF
100
AcDbEntity
8
new_box
6
ByLayer
62
7
370
-1
100
AcDbLine
10
430.999194
20
424.755028
11
426.000333
21
424.755028
0
LINE
5
2C0
100
AcDbEntity
8
new_box
6
ByLayer
62
7
370
-1
100
AcDbLine
10
426.000333
20
424.755028
11
426.000333
21
437.850139
0
LINE
5
2C1
100
AcDbEntity
8
new_box
6
ByLayer
62
7
370
-1
100
AcDbLine
10
430.999194
20
437.850139
11
426.000333
21
437.850139
0
LINE
5
2C2
100
AcDbEntity
8
new_box
6
ByLayer
62
7
370
-1
100
AcDbLine
10
430.999194
20
437.850139
11
430.999194
21
451.446194
0
LINE
5
2C3
100
AcDbEntity
8
new_box
6
ByLayer
62
7
370
-1
100
AcDbLine
10
430.999194
20
451.446194
11
426.000333
21
451.446194
0
LINE
5
2C4
100
AcDbEntity
8
new_box
6
ByLayer
62
7
370
-1
100
AcDbLine
10
426.000333
20
451.446194
11
426.000333
21
464.541306
0
LINE
5
2C5
100
AcDbEntity
8
new_box
6
ByLayer
62
7
370
-1
100
AcDbLine
10
430.999194
20
464.541306
11
426.000333
21
464.541306
0
LINE
5
2C6
100
AcDbEntity
8
new_box
6
ByLayer
62
7
370
-1
100
AcDbLine
10
430.999194
20
464.541306
11
430.999194
21
478.137361
0
LINE
5
2C7
100
AcDbEntity
8
new_box
6
ByLayer
62
7
370
-1
100
AcDbLine
10
430.999194
20
478.137361
11
426.000333
21
478.137361
0
LINE
5
2C8
100
AcDbEntity
8
new_box
6
ByLayer
62
7
370
-1
100
AcDbLine
10
426.000333
20
478.137361
11
426.000333
21
491.232472
0
LINE
5
2C9
100
AcDbEntity
8
new_box
6
ByLayer
62
7
370
-1
100
AcDbLine
10
430.999194
20
491.232472
11
426.000333
21
491.232472
0
LINE
5
2CA
100
AcDbEntity
8
new_box
6
ByLayer
62
7
370
-1
100
AcDbLine
10
430.999194
20
491.232472
11
430.999194
21
504.828528
0
LINE
5
2CB
100
AcDbEntity
8
new_box
6
ByLayer
62
7
370
-1
100
AcDbLine
10
430.999194
20
504.828528
11
426.000333
21
504.828528
0
LINE
5
2CC
100
AcDbEntity
8
new_box
6
ByLayer
62
7
370
-1
100
AcDbLine
10
426.000333
20
504.828528
11
426.000333
21
517.923639
0
LINE
5
2CD
100
AcDbEntity
8
new_box
6
ByLayer
62
7
370
-1
100
AcDbLine
10
430.999194
20
517.923639
11
426.000333
21
517.923639
0
LINE
5
2CE
100
AcDbEntity
8
new_box
6
ByLayer
62
7
370
-1
100
AcDbLine
10
430.999194
20
517.923639
11
430.999194
21
531.516167
0
LINE
5
2CF
100
AcDbEntity
8
new_box
6
ByLayer
62
7
370
-1
100
AcDbLine
10
430.999194
20
531.516167
11
426.000333
21
531.516167
0
LINE
5
2D0
100
AcDbEntity
8
new_box
6
ByLayer
62
7
370
-1
100
AcDbLine
10
426.000333
20
531.516167
11
426.000333
21
544.614806
0
LINE
5
2D1
100
AcDbEntity
8
new_box
6
ByLayer
62
7
370
-1
100
AcDbLine
10
430.999194
20
544.614806
11
426.000333
21
544.614806
0
LINE
5
2D2
100
AcDbEntity
8
new_box
6
ByLayer
62
7
370
-1
100
AcDbLine
10
430.999194
20
544.614806
11
430.999194
21
558.207333
0
LINE
5
2D3
100
AcDbEntity
8
new_box
6
ByLayer
62
7
370
-1
100
AcDbLine
10
430.999194
20
558.207333
11
426.000333
21
558.207333
0
LINE
5
2D4
100
AcDbEntity
8
new_box
6
ByLayer
62
7
370
-1
100
AcDbLine
10
426.000333
20
558.207333
11
426.000333
21
571.302444
0
LINE
5
2D5
100
AcDbEntity
8
new_box
6
ByLayer
62
7
370
-1
100
AcDbLine
10
430.999194
20
571.302444
11
426.000333
21
571.302444
0
LINE
5
2D6
100
AcDbEntity
8
new_box
6
ByLayer
62
7
370
-1
100
AcDbLine
10
430.999194
20
571.302444
11
430.999194
21
584.8985
0
LINE
5
2D7
100
AcDbEntity
8
new_box
6
ByLayer
62
7
370
-1
100
AcDbLine
10
430.999194
20
584.8985
11
426.000333
21
584.8985
0
LINE
5
2D8
100
AcDbEntity
8
new_box
6
ByLayer
62
7
370
-1
100
AcDbLine
10
426.000333
20
584.8985
11
426.000333
21
597.993611
0
LINE
5
2D9
100
AcDbEntity
8
new_box
6
ByLayer
62
7
370
-1
100
AcDbLine
10
430.999194
20
597.993611
11
426.000333
21
597.993611
0
LINE
5
2DA
100
AcDbEntity
8
new_box
6
ByLayer
62
7
370
-1
100
AcDbLine
10
430.999194
20
597.993611
11
430.999194
21
611.589667
0
LINE
5
2DB
100
AcDbEntity
8
new_box
6
ByLayer
62
7
370
-1
100
AcDbLine
10
430.999194
20
611.589667
11
426.000333
21
611.589667
0
LINE
5
2DC
100
AcDbEntity
8
new_box
6
ByLayer
62
7
370
-1
100
AcDbLine
10
426.000333
20
611.589667
11
426.000333
21
624.684778
0
LINE
5
2DD
100
AcDbEntity
8
new_box
6
ByLayer
62
7
370
-1
100
AcDbLine
10
430.999194
20
624.684778
11
426.000333
21
624.684778
0
LINE
5
2DE
100
AcDbEntity
8
new_box
6
ByLayer
62
7
370
-1
100
AcDbLine
10
430.999194
20
624.684778
11
430.999194
21
638.280833
0
LINE
5
2DF
100
AcDbEntity
8
new_box
6
ByLayer
62
7
370
-1
100
AcDbLine
10
430.999194
20
638.280833
11
426.000333
21
638.280833
0
LINE
5
2E0
100
AcDbEntity
8
new_box
6
ByLayer
62
7
370
-1
100
AcDbLine
10
426.000333
20
638.280833
11
426.000333
21
651.499417
0
LINE
5
2E1
100
AcDbEntity
8
new_box
6
ByLayer
62
7
370
-1
100
AcDbLine
10
85.749694
20
666.75
11
93.595472
21
666.75
0
LINE
5
2E2
100
AcDbEntity
8
new_box
6
ByLayer
62
7
370
-1
100
AcDbLine
10
93.595472
20
666.75
11
93.595472
21
661.751139
0
LINE
5
2E3
100
AcDbEntity
8
new_box
6
ByLayer
62
7
370
-1
100
AcDbLine
10
93.595472
20
661.751139
11
106.821111
21
661.751139
0
LINE
5
2E4
100
AcDbEntity
8
new_box
6
ByLayer
62
7
370
-1
100
AcDbLine
10
106.821111
20
666.75
11
106.821111
21
661.751139
0
LINE
5
2E5
100
AcDbEntity
8
new_box
6
ByLayer
62
7
370
-1
100
AcDbLine
10
106.821111
20
666.75
11
119.542278
21
666.75
0
LINE
5
2E6
100
AcDbEntity
8
new_box
6
ByLayer
62
7
370
-1
100
AcDbLine
10
119.542278
20
666.75
11
119.542278
21
661.751139
0
LINE
5
2E7
100
AcDbEntity
8
new_box
6
ByLayer
62
7
370
-1
100
AcDbLine
10
119.542278
20
661.751139
11
132.764389
21
661.751139
0
LINE
5
2E8
100
AcDbEntity
8
new_box
6
ByLayer
62
7
370
-1
100
AcDbLine
10
132.764389
20
666.75
11
132.764389
21
661.751139
0
LINE
5
2E9
100
AcDbEntity
8
new_box
6
ByLayer
62
7
370
-1
100
AcDbLine
10
132.764389
20
666.75
11
145.485556
21
666.75
0
LINE
5
2EA
100
AcDbEntity
8
new_box
6
ByLayer
62
7
370
-1
100
AcDbLine
10
145.485556
20
666.75
11
145.485556
21
661.751139
0
LINE
5
2EB
100
AcDbEntity
8
new_box
6
ByLayer
62
7
370
-1
100
AcDbLine
10
145.485556
20
661.751139
11
158.707667
21
661.751139
0
LINE
5
2EC
100
AcDbEntity
8
new_box
6
ByLayer
62
7
370
-1
100
AcDbLine
10
158.707667
20
666.75
11
158.707667
21
661.751139
0
LINE
5
2ED
100
AcDbEntity
8
new_box
6
ByLayer
62
7
370
-1
100
AcDbLine
10
158.707667
20
666.75
11
171.428833
21
666.75
0
LINE
5
2EE
100
AcDbEntity
8
new_box
6
ByLayer
62
7
370
-1
100
AcDbLine
10
171.428833
20
666.75
11
171.428833
21
661.751139
0
LINE
5
2EF
100
AcDbEntity
8
new_box
6
ByLayer
62
7
370
-1
100
AcDbLine
10
171.428833
20
661.751139
11
184.654472
21
661.751139
0
LINE
5
2F0
100
AcDbEntity
8
new_box
6
ByLayer
62
7
370
-1
100
AcDbLine
10
184.654472
20
666.75
11
184.654472
21
661.751139
0
LINE
5
2F1
100
AcDbEntity
8
new_box
6
ByLayer
62
7
370
-1
100
AcDbLine
10
184.654472
20
666.75
11
197.375639
21
666.75
0
LINE
5
2F2
100
AcDbEntity
8
new_box
6
ByLayer
62
7
370
-1
100
AcDbLine
10
197.375639
20
666.75
11
197.375639
21
661.751139
0
LINE
5
2F3
100
AcDbEntity
8
new_box
6
ByLayer
62
7
370
-1
100
AcDbLine
10
197.375639
20
661.751139
11
210.59775
21
661.751139
0
LINE
5
2F4
100
AcDbEntity
8
new_box
6
ByLayer
62
7
370
-1
100
AcDbLine
10
210.59775
20
666.75
11
210.59775
21
661.751139
0
LINE
5
2F5
100
AcDbEntity
8
new_box
6
ByLayer
62
7
370
-1
100
AcDbLine
10
210.59775
20
666.75
11
223.318917
21
666.75
0
LINE
5
2F6
100
AcDbEntity
8
new_box
6
ByLayer
62
7
370
-1
100
AcDbLine
10
223.318917
20
666.75
11
223.318917
21
661.751139
0
LINE
5
2F7
100
AcDbEntity
8
new_box
6
ByLayer
62
7
370
-1
100
AcDbLine
10
223.318917
20
661.751139
11
236.541028
21
661.751139
0
LINE
5
2F8
100
AcDbEntity
8
new_box
6
ByLayer
62
7
370
-1
100
AcDbLine
10
236.541028
20
666.75
11
236.541028
21
661.751139
0
LINE
5
2F9
100
AcDbEntity
8
new_box
6
ByLayer
62
7
370
-1
100
AcDbLine
10
236.541028
20
666.75
11
249.262194
21
666.75
0
LINE
5
2FA
100
AcDbEntity
8
new_box
6
ByLayer
62
7
370
-1
100
AcDbLine
10
249.262194
20
666.75
11
249.262194
21
661.751139
0
LINE
5
2FB
100
AcDbEntity
8
new_box
6
ByLayer
62
7
370
-1
100
AcDbLine
10
249.262194
20
661.751139
11
262.487833
21
661.751139
0
LINE
5
2FC
100
AcDbEntity
8
new_box
6
ByLayer
62
7
370
-1
100
AcDbLine
10
262.487833
20
666.75
11
262.487833
21
661.751139
0
LINE
5
2FD
100
AcDbEntity
8
new_box
6
ByLayer
62
7
370
-1
100
AcDbLine
10
262.487833
20
666.75
11
275.209
21
666.75
0
LINE
5
2FE
100
AcDbEntity
8
new_box
6
ByLayer
62
7
370
-1
100
AcDbLine
10
275.209
20
666.75
11
275.209
21
661.751139
0
LINE
5
2FF
100
AcDbEntity
8
new_box
6
ByLayer
62
7
370
-1
100
AcDbLine
10
275.209
20
661.751139
11
288.431111
21
661.751139
0
LINE
5
300
100
AcDbEntity
8
new_box
6
ByLayer
62
7
370
-1
100
AcDbLine
10
288.431111
20
666.75
11
288.431111
21
661.751139
0
LINE
5
301
100
AcDbEntity
8
new_box
6
ByLayer
62
7
370
-1
100
AcDbLine
10
288.431111
20
666.75
11
301.152278
21
666.75
0
LINE
5
302
100
AcDbEntity
8
new_box
6
ByLayer
62
7
370
-1
100
AcDbLine
10
301.152278
20
666.75
11
301.152278
21
661.751139
0
LINE
5
303
100
AcDbEntity
8
new_box
6
ByLayer
62
7
370
-1
100
AcDbLine
10
301.152278
20
661.751139
11
314.374389
21
661.751139
0
LINE
5
304
100
AcDbEntity
8
new_box
6
ByLayer
62
7
370
-1
100
AcDbLine
10
314.374389
20
666.75
11
314.374389
21
661.751139
0
LINE
5
305
100
AcDbEntity
8
new_box
6
ByLayer
62
7
370
-1
100
AcDbLine
10
314.374389
20
666.75
11
327.099083
21
666.75
0
LINE
5
306
100
AcDbEntity
8
new_box
6
ByLayer
62
7
370
-1
100
AcDbLine
10
327.099083
20
666.75
11
327.099083
21
661.751139
0
LINE
5
307
100
AcDbEntity
8
new_box
6
ByLayer
62
7
370
-1
100
AcDbLine
10
327.099083
20
661.751139
11
340.321194
21
661.751139
0
LINE
5
308
100
AcDbEntity
8
new_box
6
ByLayer
62
7
370
-1
100
AcDbLine
10
340.321194
20
666.75
11
340.321194
21
661.751139
0
LINE
5
309
100
AcDbEntity
8
new_box
6
ByLayer
62
7
370
-1
100
AcDbLine
10
340.321194
20
666.75
11
353.042361
21
666.75
0
LINE
5
30A
100
AcDbEntity
8
new_box
6
ByLayer
62
7
370
-1
100
AcDbLine
10
353.042361
20
666.75
11
353.042361
21
661.751139
0
LINE
5
30B
100
AcDbEntity
8
new_box
6
ByLayer
62
7
370
-1
100
AcDbLine
10
353.042361
20
661.751139
11
366.264472
21
661.751139
0
LINE
5
30C
100
AcDbEntity
8
new_box
6
ByLayer
62
7
370
-1
100
AcDbLine
10
366.264472
20
666.75
11
366.264472
21
661.751139
0
LINE
5
30D
100
AcDbEntity
8
new_box
6
ByLayer
62
7
370
-1
100
AcDbLine
10
366.264472
20
666.75
11
378.985639
21
666.75
0
LINE
5
30E
100
AcDbEntity
8
new_box
6
ByLayer
62
7
370
-1
100
AcDbLine
10
378.985639
20
666.75
11
378.985639
21
661.751139
0
LINE
5
30F
100
AcDbEntity
8
new_box
6
ByLayer
62
7
370
-1
100
AcDbLine
10
378.985639
20
661.751139
11
392.20775
21
661.751139
0
LINE
5
310
100
AcDbEntity
8
new_box
6
ByLayer
62
7
370
-1
100
AcDbLine
10
392.20775
20
666.75
11
392.20775
21
661.751139
0
LINE
5
311
100
AcDbEntity
8
new_box
6
ByLayer
62
7
370
-1
100
AcDbLine
10
392.20775
20
666.75
11
404.932444
21
666.75
0
LINE
5
312
100
AcDbEntity
8
new_box
6
ByLayer
62
7
370
-1
100
AcDbLine
10
404.932444
20
666.75
11
404.932444
21
661.751139
0
LINE
5
313
100
AcDbEntity
8
new_box
6
ByLayer
62
7
370
-1
100
AcDbLine
10
404.932444
20
661.751139
11
418.154556
21
661.751139
0
LINE
5
314
100
AcDbEntity
8
new_box
6
ByLayer
62
7
370
-1
100
AcDbLine
10
418.154556
20
666.75
11
418.154556
21
661.751139
0
LINE
5
315
100
AcDbEntity
8
new_box
6
ByLayer
62
7
370
-1
100
AcDbLine
10
418.154556
20
666.75
11
426.000333
21
666.75
0
LINE
5
316
100
AcDbEntity
8
new_box
6
ByLayer
62
7
370
-1
100
AcDbLine
10
85.749694
20
716.999667
11
93.595472
21
716.999667
0
LINE
5
317
100
AcDbEntity
8
new_box
6
ByLayer
62
7
370
-1
100
AcDbLine
10
93.595472
20
721.998528
11
93.595472
21
716.999667
0
LINE
5
318
100
AcDbEntity
8
new_box
6
ByLayer
62
7
370
-1
100
AcDbLine
10
93.595472
20
721.998528
11
106.821111
21
721.998528
0
LINE
5
319
100
AcDbEntity
8
new_box
6
ByLayer
62
7
370
-1
100
AcDbLine
10
106.821111
20
721.998528
11
106.821111
21
716.999667
0
LINE
5
31A
100
AcDbEntity
8
new_box
6
ByLayer
62
7
370
-1
100
AcDbLine
10
106.821111
20
716.999667
11
119.542278
21
716.999667
0
LINE
5
31B
100
AcDbEntity
8
new_box
6
ByLayer
62
7
370
-1
100
AcDbLine
10
119.542278
20
721.998528
11
119.542278
21
716.999667
0
LINE
5
31C
100
AcDbEntity
8
new_box
6
ByLayer
62
7
370
-1
100
AcDbLine
10
119.542278
20
721.998528
11
132.764389
21
721.998528
0
LINE
5
31D
100
AcDbEntity
8
new_box
6
ByLayer
62
7
370
-1
100
AcDbLine
10
132.764389
20
721.998528
11
132.764389
21
716.999667
0
LINE
5
31E
100
AcDbEntity
8
new_box
6
ByLayer
62
7
370
-1
100
AcDbLine
10
132.764389
20
716.999667
11
145.485556
21
716.999667
0
LINE
5
31F
100
AcDbEntity
8
new_box
6
ByLayer
62
7
370
-1
100
AcDbLine
10
145.485556
20
721.998528
11
145.485556
21
716.999667
0
LINE
5
320
100
AcDbEntity
8
new_box
6
ByLayer
62
7
370
-1
100
AcDbLine
10
145.485556
20
721.998528
11
158.707667
21
721.998528
0
LINE
5
321
100
AcDbEntity
8
new_box
6
ByLayer
62
7
370
-1
100
AcDbLine
10
158.707667
20
721.998528
11
158.707667
21
716.999667
0
LINE
5
322
100
AcDbEntity
8
new_box
6
ByLayer
62
7
370
-1
100
AcDbLine
10
158.707667
20
716.999667
11
171.428833
21
716.999667
0
LINE
5
323
100
AcDbEntity
8
new_box
6
ByLayer
62
7
370
-1
100
AcDbLine
10
171.428833
20
721.998528
11
171.428833
21
716.999667
0
LINE
5
324
100
AcDbEntity
8
new_box
6
ByLayer
62
7
370
-1
100
AcDbLine
10
171.428833
20
721.998528
11
184.654472
21
721.998528
0
LINE
5
325
100
AcDbEntity
8
new_box
6
ByLayer
62
7
370
-1
100
AcDbLine
10
184.654472
20
721.998528
11
184.654472
21
716.999667
0
LINE
5
326
100
AcDbEntity
8
new_box
6
ByLayer
62
7
370
-1
100
AcDbLine
10
184.654472
20
716.999667
11
197.375639
21
716.999667
0
LINE
5
327
100
AcDbEntity
8
new_box
6
ByLayer
62
7
370
-1
100
AcDbLine
10
197.375639
20
721.998528
11
197.375639
21
716.999667
0
LINE
5
328
100
AcDbEntity
8
new_box
6
ByLayer
62
7
370
-1
100
AcDbLine
10
197.375639
20
721.998528
11
210.59775
21
721.998528
0
LINE
5
329
100
AcDbEntity
8
new_box
6
ByLayer
62
7
370
-1
100
AcDbLine
10
210.59775
20
721.998528
11
210.59775
21
716.999667
0
LINE
5
32A
100
AcDbEntity
8
new_box
6
ByLayer
62
7
370
-1
100
AcDbLine
10
210.59775
20
716.999667
11
223.318917
21
716.999667
0
LINE
5
32B
100
AcDbEntity
8
new_box
6
ByLayer
62
7
370
-1
100
AcDbLine
10
223.318917
20
721.998528
11
223.318917
21
716.999667
0
LINE
5
32C
100
AcDbEntity
8
new_box
6
ByLayer
62
7
370
-1
100
AcDbLine
10
223.318917
20
721.998528
11
236.541028
21
721.998528
0
LINE
5
32D
100
AcDbEntity
8
new_box
6
ByLayer
62
7
370
-1
100
AcDbLine
10
236.541028
20
721.998528
11
236.541028
21
716.999667
0
LINE
5
32E
100
AcDbEntity
8
new_box
6
ByLayer
62
7
370
-1
100
AcDbLine
10
236.541028
20
716.999667
11
249.262194
21
716.999667
0
LINE
5
32F
100
AcDbEntity
8
new_box
6
ByLayer
62
7
370
-1
100
AcDbLine
10
249.262194
20
721.998528
11
249.262194
21
716.999667
0
LINE
5
330
100
AcDbEntity
8
new_box
6
ByLayer
62
7
370
-1
100
AcDbLine
10
249.262194
20
721.998528
11
262.487833
21
721.998528
0
LINE
5
331
100
AcDbEntity
8
new_box
6
ByLayer
62
7
370
-1
100
AcDbLine
10
262.487833
20
721.998528
11
262.487833
21
716.999667
0
LINE
5
332
100
AcDbEntity
8
new_box
6
ByLayer
62
7
370
-1
100
AcDbLine
10
262.487833
20
716.999667
11
275.209
21
716.999667
0
LINE
5
333
100
AcDbEntity
8
new_box
6
ByLayer
62
7
370
-1
100
AcDbLine
10
275.209
20
721.998528
11
275.209
21
716.999667
0
LINE
5
334
100
AcDbEntity
8
new_box
6
ByLayer
62
7
370
-1
100
AcDbLine
10
275.209
20
721.998528
11
288.431111
21
721.998528
0
LINE
5
335
100
AcDbEntity
8
new_box
6
ByLayer
62
7
370
-1
100
AcDbLine
10
288.431111
20
721.998528
11
288.431111
21
716.999667
0
LINE
5
336
100
AcDbEntity
8
new_box
6
ByLayer
62
7
370
-1
100
AcDbLine
10
288.431111
20
716.999667
11
301.152278
21
716.999667
0
LINE
5
337
100
AcDbEntity
8
new_box
6
ByLayer
62
7
370
-1
100
AcDbLine
10
301.152278
20
721.998528
11
301.152278
21
716.999667
0
LINE
5
338
100
AcDbEntity
8
new_box
6
ByLayer
62
7
370
-1
100
AcDbLine
10
301.152278
20
721.998528
11
314.374389
21
721.998528
0
LINE
5
339
100
AcDbEntity
8
new_box
6
ByLayer
62
7
370
-1
100
AcDbLine
10
314.374389
20
721.998528
11
314.374389
21
716.999667
0
LINE
5
33A
100
AcDbEntity
8
new_box
6
ByLayer
62
7
370
-1
100
AcDbLine
10
314.374389
20
716.999667
11
327.099083
21
716.999667
0
LINE
5
33B
100
AcDbEntity
8
new_box
6
ByLayer
62
7
370
-1
100
AcDbLine
10
327.099083
20
721.998528
11
327.099083
21
716.999667
0
LINE
5
33C
100
AcDbEntity
8
new_box
6
ByLayer
62
7
370
-1
100
AcDbLine
10
327.099083
20
721.998528
11
340.321194
21
721.998528
0
LINE
5
33D
100
AcDbEntity
8
new_box
6
ByLayer
62
7
370
-1
100
AcDbLine
10
340.321194
20
721.998528
11
340.321194
21
716.999667
0
LINE
5
33E
100
AcDbEntity
8
new_box
6
ByLayer
62
7
370
-1
100
AcDbLine
10
340.321194
20
716.999667
11
353.042361
21
716.999667
0
LINE
5
33F
100
AcDbEntity
8
new_box
6
ByLayer
62
7
370
-1
100
AcDbLine
10
353.042361
20
721.998528
11
353.042361
21
716.999667
0
LINE
5
340
100
AcDbEntity
8
new_box
6
ByLayer
62
7
370
-1
100
AcDbLine
10
353.042361
20
721.998528
11
366.264472
21
721.998528
0
LINE
5
341
100
AcDbEntity
8
new_box
6
ByLayer
62
7
370
-1
100
AcDbLine
10
366.264472
20
721.998528
11
366.264472
21
716.999667
0
LINE
5
342
100
AcDbEntity
8
new_box
6
ByLayer
62
7
370
-1
100
AcDbLine
10
366.264472
20
716.999667
11
378.985639
21
716.999667
0
LINE
5
343
100
AcDbEntity
8
new_box
6
ByLayer
62
7
370
-1
100
AcDbLine
10
378.985639
20
721.998528
11
378.985639
21
716.999667
0
LINE
5
344
100
AcDbEntity
8
new_box
6
ByLayer
62
7
370
-1
100
AcDbLine
10
378.985639
20
721.998528
11
392.20775
21
721.998528
0
LINE
5
345
100
AcDbEntity
8
new_box
6
ByLayer
62
7
370
-1
100
AcDbLine
10
392.20775
20
721.998528
11
392.20775
21
716.999667
0
LINE
5
346
100
AcDbEntity
8
new_box
6
ByLayer
62
7
370
-1
100
AcDbLine
10
392.20775
20
716.999667
11
404.932444
21
716.999667
0
LINE
5
347
100
AcDbEntity
8
new_box
6
ByLayer
62
7
370
-1
100
AcDbLine
10
404.932444
20
721.998528
11
404.932444
21
716.999667
0
LINE
5
348
100
AcDbEntity
8
new_box
6
ByLayer
62
7
370
-1
100
AcDbLine
10
404.932444
20
721.998528
11
418.154556
21
721.998528
0
LINE
5
349
100
AcDbEntity
8
new_box
6
ByLayer
62
7
370
-1
100
AcDbLine
10
418.154556
20
721.998528
11
418.154556
21
716.999667
0
LINE
5
34A
100
AcDbEntity
8
new_box
6
ByLayer
62
7
370
-1
100
AcDbLine
10
418.154556
20
716.999667
11
426.000333
21
716.999667
0
LINE
5
34B
100
AcDbEntity
8
new_box
6
ByLayer
62
7
370
-1
100
AcDbLine
10
85.749694
20
666.75
11
85.749694
21
673.675028
0
LINE
5
34C
100
AcDbEntity
8
new_box
6
ByLayer
62
7
370
-1
100
AcDbLine
10
85.749694
20
673.675028
11
80.750833
21
673.675028
0
LINE
5
34D
100
AcDbEntity
8
new_box
6
ByLayer
62
7
370
-1
100
AcDbLine
10
80.750833
20
673.675028
11
80.750833
21
685.976389
0
LINE
5
34E
100
AcDbEntity
8
new_box
6
ByLayer
62
7
370
-1
100
AcDbLine
10
85.749694
20
685.976389
11
80.750833
21
685.976389
0
LINE
5
34F
100
AcDbEntity
8
new_box
6
ByLayer
62
7
370
-1
100
AcDbLine
10
85.749694
20
685.976389
11
85.749694
21
697.773278
0
LINE
5
350
100
AcDbEntity
8
new_box
6
ByLayer
62
7
370
-1
100
AcDbLine
10
85.749694
20
697.773278
11
80.750833
21
697.773278
0
LINE
5
351
100
AcDbEntity
8
new_box
6
ByLayer
62
7
370
-1
100
AcDbLine
10
80.750833
20
697.773278
11
80.750833
21
710.074639
0
LINE
5
352
100
AcDbEntity
8
new_box
6
ByLayer
62
7
370
-1
100
AcDbLine
10
85.749694
20
710.074639
11
80.750833
21
710.074639
0
LINE
5
353
100
AcDbEntity
8
new_box
6
ByLayer
62
7
370
-1
100
AcDbLine
10
85.749694
20
710.074639
11
85.749694
21
716.999667
0
LINE
5
354
100
AcDbEntity
8
new_box
6
ByLayer
62
7
370
-1
100
AcDbLine
10
426.000333
20
666.75
11
426.000333
21
673.675028
0
LINE
5
355
100
AcDbEntity
8
new_box
6
ByLayer
62
7
370
-1
100
AcDbLine
10
430.999194
20
673.675028
11
426.000333
21
673.675028
0
LINE
5
356
100
AcDbEntity
8
new_box
6
ByLayer
62
7
370
-1
100
AcDbLine
10
430.999194
20
673.675028
11
430.999194
21
685.976389
0
LINE
5
357
100
AcDbEntity
8
new_box
6
ByLayer
62
7
370
-1
100
AcDbLine
10
430.999194
20
685.976389
11
426.000333
21
685.976389
0
LINE
5
358
100
AcDbEntity
8
new_box
6
ByLayer
62
7
370
-1
100
AcDbLine
10
426.000333
20
685.976389
11
426.000333
21
697.773278
0
LINE
5
359
100
AcDbEntity
8
new_box
6
ByLayer
62
7
370
-1
100
AcDbLine
10
430.999194
20
697.773278
11
426.000333
21
697.773278
0
LINE
5
35A
100
AcDbEntity
8
new_box
6
ByLayer
62
7
370
-1
100
AcDbLine
10
430.999194
20
697.773278
11
430.999194
21
710.074639
0
LINE
5
35B
100
AcDbEntity
8
new_box
6
ByLayer
62
7
370
-1
100
AcDbLine
10
430.999194
20
710.074639
11
426.000333
21
710.074639
0
LINE
5
35C
100
AcDbEntity
8
new_box
6
ByLayer
62
7
370
-1
100
AcDbLine
10
426.000333
20
710.074639
11
426.000333
21
716.999667
0
SPLINE
5
35D
100
AcDbEntity
8
new_box
6
ByLayer
62
7
370
-1
100
AcDbSpline
210
0
220
0
230
1
70
8
71
3
72
8
73
4
74
0
42
1e-07
43
1e-07
40
0
40
0
40
0
40
0
40
1
40
1
40
1
40
1
10
80.772656
20
517.622614
30
0
10
80.563399
20
398.004136
30
0
10
80.563399
20
398.004136
30
0
10
80.563399
20
398.004136
30
0
0
LINE
5
35E
100
AcDbEntity
8
new_box
6
ByLayer
62
7
370
-1
100
AcDbLine
10
67.798809
20
518.116848
11
67.798809
21
500.120864
0
LINE
5
35F
100
AcDbEntity
8
new_box
6
ByLayer
62
7
370
-1
100
AcDbLine
10
67.798809
20
500.120864
11
43.315904
21
500.120864
0
LINE
5
360
100
AcDbEntity
8
new_box
6
ByLayer
62
7
370
-1
100
AcDbLine
10
43.315904
20
500.120864
11
43.315904
21
410.350236
0
LINE
5
361
100
AcDbEntity
8
new_box
6
ByLayer
62
7
370
-1
100
AcDbLine
10
43.315904
20
410.350236
11
67.798809
21
410.350236
0
LINE
5
362
100
AcDbEntity
8
new_box
6
ByLayer
62
7
370
-1
100
AcDbLine
10
67.798809
20
410.350236
11
67.798809
21
398.004143
0
LINE
5
363
100
AcDbEntity
8
0
6
ByLayer
62
256
370
-1
100
AcDbLine
10
460
20
90
11
500
21
90
0
LINE
5
364
100
AcDbEntity
8
0
6
ByLayer
62
256
370
-1
100
AcDbLine
10
460
20
362
11
500
21
362
0
LINE
5
365
100
AcDbEntity
8
0
6
ByLayer
62
256
370
-1
100
AcDbLine
10
500
20
90
11
500
21
362
0
LINE
5
366
100
AcDbEntity
8
0
6
ByLayer
62
256
370
-1
100
AcDbLine
10
465
20
130.35
11
469
21
130.35
0
LINE
5
367
100
AcDbEntity
8
0
6
ByLayer
62
256
370
-1
100
AcDbLine
10
465
20
135.65
11
469
21
135.65
0
LINE
5
368
100
AcDbEntity
8
0
6
ByLayer
62
256
370
-1
100
AcDbLine
10
460
20
131.5
11
465
21
131.5
0
LINE
5
369
100
AcDbEntity
8
0
6
ByLayer
62
256
370
-1
100
AcDbLine
10
460
20
134.5
11
465
21
134.5
0
LINE
5
36A
100
AcDbEntity
8
0
6
ByLayer
62
256
370
-1
100
AcDbLine
10
465
20
131.5
11
465
21
130.35
0
LINE
5
36B
100
AcDbEntity
8
0
6
ByLayer
62
256
370
-1
100
AcDbLine
10
469
20
130.35
11
469
21
135.65
0
LINE
5
36C
100
AcDbEntity
8
0
6
ByLayer
62
256
370
-1
100
AcDbLine
10
465
20
135.65
11
465
21
134.5
0
LINE
5
36D
100
AcDbEntity
8
0
6
ByLayer
62
256
370
-1
100
AcDbLine
10
465
20
220.35
11
469
21
220.35
0
LINE
5
36E
100
AcDbEntity
8
0
6
ByLayer
62
256
370
-1
100
AcDbLine
10
465
20
225.65
11
469
21
225.65
0
LINE
5
36F
100
AcDbEntity
8
0
6
ByLayer
62
256
370
-1
100
AcDbLine
10
460
20
221.5
11
465
21
221.5
0
LINE
5
370
100
AcDbEntity
8
0
6
ByLayer
62
256
370
-1
100
AcDbLine
10
460
20
224.5
11
465
21
224.5
0
LINE
5
371
100
AcDbEntity
8
0
6
ByLayer
62
256
370
-1
100
AcDbLine
10
465
20
221.5
11
465
21
220.35
0
LINE
5
372
100
AcDbEntity
8
0
6
ByLayer
62
256
370
-1
100
AcDbLine
10
469
20
220.35
11
469
21
225.65
0
LINE
5
373
100
AcDbEntity
8
0
6
ByLayer
62
256
370
-1
100
AcDbLine
10
465
20
225.65
11
465
21
224.5
0
LINE
5
374
100
AcDbEntity
8
0
6
ByLayer
62
256
370
-1
100
AcDbLine
10
465
20
250.35
11
469
21
250.35
0
LINE
5
375
100
AcDbEntity
8
0
6
ByLayer
62
256
370
-1
100
AcDbLine
10
465
20
255.65
11
469
21
255.65
0
LINE
5
376
100
AcDbEntity
8
0
6
ByLayer
62
256
370
-1
100
AcDbLine
10
460
20
251.5
11
465
21
251.5
0
LINE
5
377
100
AcDbEntity
8
0
6
ByLayer
62
256
370
-1
100
AcDbLine
10
460
20
254.5
11
465
21
254.5
0
LINE
5
378
100
AcDbEntity
8
0
6
ByLayer
62
256
370
-1
100
AcDbLine
10
465
20
251.5
11
465
21
250.35
0
LINE
5
379
100
AcDbEntity
8
0
6
ByLayer
62
256
370
-1
100
AcDbLine
10
469
20
250.35
11
469
21
255.65
0
LINE
5
37A
100
AcDbEntity
8
0
6
ByLayer
62
256
370
-1
100
AcDbLine
10
465
20
255.65
11
465
21
254.5
0
LINE
5
37B
100
AcDbEntity
8
0
6
ByLayer
62
256
370
-1
100
AcDbLine
10
465
20
340.35
11
469
21
340.35
0
LINE
5
37C
100
AcDbEntity
8
0
6
ByLayer
62
256
370
-1
100
AcDbLine
10
465
20
345.65
11
469
21
345.65
0
LINE
5
37D
100
AcDbEntity
8
0
6
ByLayer
62
256
370
-1
100
AcDbLine
10
460
20
341.5
11
465
21
341.5
0
LINE
5
37E
100
AcDbEntity
8
0
6
ByLayer
62
256
370
-1
100
AcDbLine
10
460
20
344.5
11
465
21
344.5
0
LINE
5
37F
100
AcDbEntity
8
0
6
ByLayer
62
256
370
-1
100
AcDbLine
10
465
20
341.5
11
465
21
340.35
0
LINE
5
380
100
AcDbEntity
8
0
6
ByLayer
62
256
370
-1
100
AcDbLine
10
469
20
340.35
11
469
21
345.65
0
LINE
5
381
100
AcDbEntity
8
0
6
ByLayer
62
256
370
-1
100
AcDbLine
10
465
20
345.65
11
465
21
344.5
0
LINE
5
382
100
AcDbEntity
8
0
6
ByLayer
62
256
370
-1
100
AcDbLine
10
460
20
90
11
460
21
131.5
0
LINE
5
383
100
AcDbEntity
8
0
6
ByLayer
62
256
370
-1
100
AcDbLine
10
460
20
134.5
11
460
21
221.5
0
LINE
5
384
100
AcDbEntity
8
0
6
ByLayer
62
256
370
-1
100
AcDbLine
10
460
20
224.5
11
460
21
251.5
0
LINE
5
385
100
AcDbEntity
8
0
6
ByLayer
62
256
370
-1
100
AcDbLine
10
460
20
254.5
11
460
21
341.5
0
LINE
5
386
100
AcDbEntity
8
0
6
ByLayer
62
256
370
-1
100
AcDbLine
10
460
20
344.5
11
460
21
362
0
LINE
5
387
100
AcDbEntity
8
0
6
ByLayer
62
256
370
-1
100
AcDbLine
10
460
20
380
11
500
21
380
0
LINE
5
388
100
AcDbEntity
8
0
6
ByLayer
62
256
370
-1
100
AcDbLine
10
460
20
652
11
500
21
652
0
LINE
5
389
100
AcDbEntity
8
0
6
ByLayer
62
256
370
-1
100
AcDbLine
10
500
20
380
11
500
21
652
0
LINE
5
38A
100
AcDbEntity
8
0
6
ByLayer
62
256
370
-1
100
AcDbLine
10
465
20
420.35
11
469
21
420.35
0
LINE
5
38B
100
AcDbEntity
8
0
6
ByLayer
62
256
370
-1
100
AcDbLine
10
465
20
425.65
11
469
21
425.65
0
LINE
5
38C
100
AcDbEntity
8
0
6
ByLayer
62
256
370
-1
100
AcDbLine
10
460
20
421.5
11
465
21
421.5
0
LINE
5
38D
100
AcDbEntity
8
0
6
ByLayer
62
256
370
-1
100
AcDbLine
10
460
20
424.5
11
465
21
424.5
0
LINE
5
38E
100
AcDbEntity
8
0
6
ByLayer
62
256
370
-1
100
AcDbLine
10
465
20
421.5
11
465
21
420.35
0
LINE
5
38F
100
AcDbEntity
8
0
6
ByLayer
62
256
370
-1
100
AcDbLine
10
469
20
420.35
11
469
21
425.65
0
LINE
5
390
100
AcDbEntity
8
0
6
ByLayer
62
256
370
-1
100
AcDbLine
10
465
20
425.65
11
465
21
424.5
0
LINE
5
391
100
AcDbEntity
8
0
6
ByLayer
62
256
370
-1
100
AcDbLine
10
465
20
510.35
11
469
21
510.35
0
LINE
5
392
100
AcDbEntity
8
0
6
ByLayer
62
256
370
-1
100
AcDbLine
10
465
20
515.65
11
469
21
515.65
0
LINE
5
393
100
AcDbEntity
8
0
6
ByLayer
62
256
370
-1
100
AcDbLine
10
460
20
511.5
11
465
21
511.5
0
LINE
5
394
100
AcDbEntity
8
0
6
ByLayer
62
256
370
-1
100
AcDbLine
10
460
20
514.5
11
465
21
514.5
0
LINE
5
395
100
AcDbEntity
8
0
6
ByLayer
62
256
370
-1
100
AcDbLine
10
465
20
511.5
11
465
21
510.35
0
LINE
5
396
100
AcDbEntity
8
0
6
ByLayer
62
256
370
-1
100
AcDbLine
10
469
20
510.35
11
469
21
515.65
0
LINE
5
397
100
AcDbEntity
8
0
6
ByLayer
62
256
370
-1
100
AcDbLine
10
465
20
515.65
11
465
21
514.5
0
LINE
5
398
100
AcDbEntity
8
0
6
ByLayer
62
256
370
-1
100
AcDbLine
10
465
20
540.35
11
469
21
540.35
0
LINE
5
399
100
AcDbEntity
8
0
6
ByLayer
62
256
370
-1
100
AcDbLine
10
465
20
545.65
11
469
21
545.65
0
LINE
5
39A
100
AcDbEntity
8
0
6
ByLayer
62
256
370
-1
100
AcDbLine
10
460
20
541.5
11
465
21
541.5
0
LINE
5
39B
100
AcDbEntity
8
0
6
ByLayer
62
256
370
-1
100
AcDbLine
10
460
20
544.5
11
465
21
544.5
0
LINE
5
39C
100
AcDbEntity
8
0
6
ByLayer
62
256
370
-1
100
AcDbLine
10
465
20
541.5
11
465
21
540.35
0
LINE
5
39D
100
AcDbEntity
8
0
6
ByLayer
62
256
370
-1
100
AcDbLine
10
469
20
540.35
11
469
21
545.65
0
LINE
5
39E
100
AcDbEntity
8
0
6
ByLayer
62
256
370
-1
100
AcDbLine
10
465
20
545.65
11
465
21
544.5
0
LINE
5
39F
100
AcDbEntity
8
0
6
ByLayer
62
256
370
-1
100
AcDbLine
10
465
20
630.35
11
469
21
630.35
0
LINE
5
3A0
100
AcDbEntity
8
0
6
ByLayer
62
256
370
-1
100
AcDbLine
10
465
20
635.65
11
469
21
635.65
0
LINE
5
3A1
100
AcDbEntity
8
0
6
ByLayer
62
256
370
-1
100
AcDbLine
10
460
20
631.5
11
465
21
631.5
0
LINE
5
3A2
100
AcDbEntity
8
0
6
ByLayer
62
256
370
-1
100
AcDbLine
10
460
20
634.5
11
465
21
634.5
0
LINE
5
3A3
100
AcDbEntity
8
0
6
ByLayer
62
256
370
-1
100
AcDbLine
10
465
20
631.5
11
465
21
630.35
0
LINE
5
3A4
100
AcDbEntity
8
0
6
ByLayer
62
256
370
-1
100
AcDbLine
10
469
20
630.35
11
469
21
635.65
0
LINE
5
3A5
100
AcDbEntity
8
0
6
ByLayer
62
256
370
-1
100
AcDbLine
10
465
20
635.65
11
465
21
634.5
0
LINE
5
3A6
100
AcDbEntity
8
0
6
ByLayer
62
256
370
-1
100
AcDbLine
10
460
20
380
11
460
21
421.5
0
LINE
5
3A7
100
AcDbEntity
8
0
6
ByLayer
62
256
370
-1
100
AcDbLine
10
460
20
424.5
11
460
21
511.5
0
LINE
5
3A8
100
AcDbEntity
8
0
6
ByLayer
62
256
370
-1
100
AcDbLine
10
460
20
514.5
11
460
21
541.5
0
LINE
5
3A9
100
AcDbEntity
8
0
6
ByLayer
62
256
370
-1
100
AcDbLine
10
460
20
544.5
11
460
21
631.5
0
LINE
5
3AA
100
AcDbEntity
8
0
6
ByLayer
62
256
370
-1
100
AcDbLine
10
460
20
634.5
11
460
21
652
0
ENDSEC
0
SECTION
2
OBJECTS
0
DICTIONARY
5
C
330
0
100
AcDbDictionary
281
1
3
ACAD_GROUP
350
D
0
DICTIONARY
5
D
330
C
100
AcDbDictionary
281
1
0
ENDSEC
0
EOF
