G04 (created by PCBNEW-RS274X (2012-01-19 BZR 3256)-stable) date 5/20/2013 9:38:39 PM*
G01*
G70*
G90*
%MOIN*%
G04 Gerber Fmt 3.4, Leading zero omitted, Abs format*
%FSLAX34Y34*%
G04 APERTURE LIST*
%ADD10C,0.006000*%
%ADD11C,0.010000*%
%ADD12C,0.015000*%
G04 APERTURE END LIST*
G54D10*
G54D11*
X73778Y-41262D02*
X73778Y-40862D01*
X73606Y-41262D02*
X73606Y-41052D01*
X73625Y-41014D01*
X73663Y-40995D01*
X73721Y-40995D01*
X73759Y-41014D01*
X73778Y-41033D01*
X73473Y-40995D02*
X73321Y-40995D01*
X73416Y-40862D02*
X73416Y-41205D01*
X73397Y-41243D01*
X73359Y-41262D01*
X73321Y-41262D01*
X73244Y-40995D02*
X73092Y-40995D01*
X73187Y-40862D02*
X73187Y-41205D01*
X73168Y-41243D01*
X73130Y-41262D01*
X73092Y-41262D01*
X72958Y-40995D02*
X72958Y-41395D01*
X72958Y-41014D02*
X72920Y-40995D01*
X72843Y-40995D01*
X72805Y-41014D01*
X72786Y-41033D01*
X72767Y-41071D01*
X72767Y-41186D01*
X72786Y-41224D01*
X72805Y-41243D01*
X72843Y-41262D01*
X72920Y-41262D01*
X72958Y-41243D01*
X72615Y-41243D02*
X72577Y-41262D01*
X72501Y-41262D01*
X72462Y-41243D01*
X72443Y-41205D01*
X72443Y-41186D01*
X72462Y-41148D01*
X72501Y-41129D01*
X72558Y-41129D01*
X72596Y-41110D01*
X72615Y-41071D01*
X72615Y-41052D01*
X72596Y-41014D01*
X72558Y-40995D01*
X72501Y-40995D01*
X72462Y-41014D01*
X72272Y-41224D02*
X72253Y-41243D01*
X72272Y-41262D01*
X72291Y-41243D01*
X72272Y-41224D01*
X72272Y-41262D01*
X72272Y-41014D02*
X72253Y-41033D01*
X72272Y-41052D01*
X72291Y-41033D01*
X72272Y-41014D01*
X72272Y-41052D01*
X71796Y-40843D02*
X72139Y-41357D01*
X71377Y-40843D02*
X71720Y-41357D01*
X71072Y-40995D02*
X71072Y-41319D01*
X71091Y-41357D01*
X71110Y-41376D01*
X71149Y-41395D01*
X71206Y-41395D01*
X71244Y-41376D01*
X71072Y-41243D02*
X71110Y-41262D01*
X71187Y-41262D01*
X71225Y-41243D01*
X71244Y-41224D01*
X71263Y-41186D01*
X71263Y-41071D01*
X71244Y-41033D01*
X71225Y-41014D01*
X71187Y-40995D01*
X71110Y-40995D01*
X71072Y-41014D01*
X70882Y-41262D02*
X70882Y-40995D01*
X70882Y-40862D02*
X70901Y-40881D01*
X70882Y-40900D01*
X70863Y-40881D01*
X70882Y-40862D01*
X70882Y-40900D01*
X70749Y-40995D02*
X70597Y-40995D01*
X70692Y-40862D02*
X70692Y-41205D01*
X70673Y-41243D01*
X70635Y-41262D01*
X70597Y-41262D01*
X70463Y-41262D02*
X70463Y-40862D01*
X70291Y-41262D02*
X70291Y-41052D01*
X70310Y-41014D01*
X70348Y-40995D01*
X70406Y-40995D01*
X70444Y-41014D01*
X70463Y-41033D01*
X69929Y-40995D02*
X69929Y-41262D01*
X70101Y-40995D02*
X70101Y-41205D01*
X70082Y-41243D01*
X70044Y-41262D01*
X69986Y-41262D01*
X69948Y-41243D01*
X69929Y-41224D01*
X69739Y-41262D02*
X69739Y-40862D01*
X69739Y-41014D02*
X69701Y-40995D01*
X69624Y-40995D01*
X69586Y-41014D01*
X69567Y-41033D01*
X69548Y-41071D01*
X69548Y-41186D01*
X69567Y-41224D01*
X69586Y-41243D01*
X69624Y-41262D01*
X69701Y-41262D01*
X69739Y-41243D01*
X69377Y-41224D02*
X69358Y-41243D01*
X69377Y-41262D01*
X69396Y-41243D01*
X69377Y-41224D01*
X69377Y-41262D01*
X69015Y-41243D02*
X69053Y-41262D01*
X69130Y-41262D01*
X69168Y-41243D01*
X69187Y-41224D01*
X69206Y-41186D01*
X69206Y-41071D01*
X69187Y-41033D01*
X69168Y-41014D01*
X69130Y-40995D01*
X69053Y-40995D01*
X69015Y-41014D01*
X68787Y-41262D02*
X68825Y-41243D01*
X68844Y-41224D01*
X68863Y-41186D01*
X68863Y-41071D01*
X68844Y-41033D01*
X68825Y-41014D01*
X68787Y-40995D01*
X68729Y-40995D01*
X68691Y-41014D01*
X68672Y-41033D01*
X68653Y-41071D01*
X68653Y-41186D01*
X68672Y-41224D01*
X68691Y-41243D01*
X68729Y-41262D01*
X68787Y-41262D01*
X68482Y-41262D02*
X68482Y-40995D01*
X68482Y-41033D02*
X68463Y-41014D01*
X68425Y-40995D01*
X68367Y-40995D01*
X68329Y-41014D01*
X68310Y-41052D01*
X68310Y-41262D01*
X68310Y-41052D02*
X68291Y-41014D01*
X68253Y-40995D01*
X68196Y-40995D01*
X68158Y-41014D01*
X68139Y-41052D01*
X68139Y-41262D01*
X67663Y-40843D02*
X68006Y-41357D01*
X67396Y-41052D02*
X67339Y-41071D01*
X67320Y-41090D01*
X67301Y-41129D01*
X67301Y-41186D01*
X67320Y-41224D01*
X67339Y-41243D01*
X67377Y-41262D01*
X67530Y-41262D01*
X67530Y-40862D01*
X67396Y-40862D01*
X67358Y-40881D01*
X67339Y-40900D01*
X67320Y-40938D01*
X67320Y-40976D01*
X67339Y-41014D01*
X67358Y-41033D01*
X67396Y-41052D01*
X67530Y-41052D01*
X67130Y-41262D02*
X67130Y-40995D01*
X67130Y-41071D02*
X67111Y-41033D01*
X67092Y-41014D01*
X67054Y-40995D01*
X67015Y-40995D01*
X66710Y-40995D02*
X66710Y-41262D01*
X66882Y-40995D02*
X66882Y-41205D01*
X66863Y-41243D01*
X66825Y-41262D01*
X66767Y-41262D01*
X66729Y-41243D01*
X66710Y-41224D01*
X66348Y-41243D02*
X66386Y-41262D01*
X66463Y-41262D01*
X66501Y-41243D01*
X66520Y-41224D01*
X66539Y-41186D01*
X66539Y-41071D01*
X66520Y-41033D01*
X66501Y-41014D01*
X66463Y-40995D01*
X66386Y-40995D01*
X66348Y-41014D01*
X66024Y-41243D02*
X66062Y-41262D01*
X66139Y-41262D01*
X66177Y-41243D01*
X66196Y-41205D01*
X66196Y-41052D01*
X66177Y-41014D01*
X66139Y-40995D01*
X66062Y-40995D01*
X66024Y-41014D01*
X66005Y-41052D01*
X66005Y-41090D01*
X66196Y-41129D01*
X65700Y-41052D02*
X65834Y-41052D01*
X65834Y-41262D02*
X65834Y-40862D01*
X65643Y-40862D01*
X65434Y-41262D02*
X65472Y-41243D01*
X65491Y-41205D01*
X65491Y-40862D01*
X65128Y-41243D02*
X65166Y-41262D01*
X65243Y-41262D01*
X65281Y-41243D01*
X65300Y-41205D01*
X65300Y-41052D01*
X65281Y-41014D01*
X65243Y-40995D01*
X65166Y-40995D01*
X65128Y-41014D01*
X65109Y-41052D01*
X65109Y-41090D01*
X65300Y-41129D01*
X64995Y-40995D02*
X64843Y-40995D01*
X64938Y-40862D02*
X64938Y-41205D01*
X64919Y-41243D01*
X64881Y-41262D01*
X64843Y-41262D01*
X64537Y-41243D02*
X64575Y-41262D01*
X64652Y-41262D01*
X64690Y-41243D01*
X64709Y-41224D01*
X64728Y-41186D01*
X64728Y-41071D01*
X64709Y-41033D01*
X64690Y-41014D01*
X64652Y-40995D01*
X64575Y-40995D01*
X64537Y-41014D01*
X64366Y-41262D02*
X64366Y-40862D01*
X64194Y-41262D02*
X64194Y-41052D01*
X64213Y-41014D01*
X64251Y-40995D01*
X64309Y-40995D01*
X64347Y-41014D01*
X64366Y-41033D01*
X63851Y-41243D02*
X63889Y-41262D01*
X63966Y-41262D01*
X64004Y-41243D01*
X64023Y-41205D01*
X64023Y-41052D01*
X64004Y-41014D01*
X63966Y-40995D01*
X63889Y-40995D01*
X63851Y-41014D01*
X63832Y-41052D01*
X63832Y-41090D01*
X64023Y-41129D01*
X63661Y-41262D02*
X63661Y-40995D01*
X63661Y-41071D02*
X63642Y-41033D01*
X63623Y-41014D01*
X63585Y-40995D01*
X63546Y-40995D01*
X63127Y-40843D02*
X63470Y-41357D01*
X63013Y-41243D02*
X62956Y-41262D01*
X62860Y-41262D01*
X62822Y-41243D01*
X62803Y-41224D01*
X62784Y-41186D01*
X62784Y-41148D01*
X62803Y-41110D01*
X62822Y-41090D01*
X62860Y-41071D01*
X62937Y-41052D01*
X62975Y-41033D01*
X62994Y-41014D01*
X63013Y-40976D01*
X63013Y-40938D01*
X62994Y-40900D01*
X62975Y-40881D01*
X62937Y-40862D01*
X62841Y-40862D01*
X62784Y-40881D01*
X62613Y-40995D02*
X62613Y-41395D01*
X62613Y-41014D02*
X62575Y-40995D01*
X62498Y-40995D01*
X62460Y-41014D01*
X62441Y-41033D01*
X62422Y-41071D01*
X62422Y-41186D01*
X62441Y-41224D01*
X62460Y-41243D01*
X62498Y-41262D01*
X62575Y-41262D01*
X62613Y-41243D01*
X62079Y-41262D02*
X62079Y-41052D01*
X62098Y-41014D01*
X62136Y-40995D01*
X62213Y-40995D01*
X62251Y-41014D01*
X62079Y-41243D02*
X62117Y-41262D01*
X62213Y-41262D01*
X62251Y-41243D01*
X62270Y-41205D01*
X62270Y-41167D01*
X62251Y-41129D01*
X62213Y-41110D01*
X62117Y-41110D01*
X62079Y-41090D01*
X61717Y-41243D02*
X61755Y-41262D01*
X61832Y-41262D01*
X61870Y-41243D01*
X61889Y-41224D01*
X61908Y-41186D01*
X61908Y-41071D01*
X61889Y-41033D01*
X61870Y-41014D01*
X61832Y-40995D01*
X61755Y-40995D01*
X61717Y-41014D01*
X61393Y-41243D02*
X61431Y-41262D01*
X61508Y-41262D01*
X61546Y-41243D01*
X61565Y-41205D01*
X61565Y-41052D01*
X61546Y-41014D01*
X61508Y-40995D01*
X61431Y-40995D01*
X61393Y-41014D01*
X61374Y-41052D01*
X61374Y-41090D01*
X61565Y-41129D01*
X61260Y-40862D02*
X61031Y-40862D01*
X61146Y-41262D02*
X61146Y-40862D01*
X60898Y-41262D02*
X60898Y-40995D01*
X60898Y-40862D02*
X60917Y-40881D01*
X60898Y-40900D01*
X60879Y-40881D01*
X60898Y-40862D01*
X60898Y-40900D01*
X60708Y-41262D02*
X60708Y-40995D01*
X60708Y-41033D02*
X60689Y-41014D01*
X60651Y-40995D01*
X60593Y-40995D01*
X60555Y-41014D01*
X60536Y-41052D01*
X60536Y-41262D01*
X60536Y-41052D02*
X60517Y-41014D01*
X60479Y-40995D01*
X60422Y-40995D01*
X60384Y-41014D01*
X60365Y-41052D01*
X60365Y-41262D01*
X60022Y-41243D02*
X60060Y-41262D01*
X60137Y-41262D01*
X60175Y-41243D01*
X60194Y-41205D01*
X60194Y-41052D01*
X60175Y-41014D01*
X60137Y-40995D01*
X60060Y-40995D01*
X60022Y-41014D01*
X60003Y-41052D01*
X60003Y-41090D01*
X60194Y-41129D01*
X73815Y-39862D02*
X73720Y-40262D01*
X73643Y-39976D01*
X73567Y-40262D01*
X73472Y-39862D01*
X73167Y-40243D02*
X73205Y-40262D01*
X73282Y-40262D01*
X73320Y-40243D01*
X73339Y-40205D01*
X73339Y-40052D01*
X73320Y-40014D01*
X73282Y-39995D01*
X73205Y-39995D01*
X73167Y-40014D01*
X73148Y-40052D01*
X73148Y-40090D01*
X73339Y-40129D01*
X72977Y-40262D02*
X72977Y-39995D01*
X72977Y-39862D02*
X72996Y-39881D01*
X72977Y-39900D01*
X72958Y-39881D01*
X72977Y-39862D01*
X72977Y-39900D01*
X72787Y-40262D02*
X72787Y-39995D01*
X72787Y-40071D02*
X72768Y-40033D01*
X72749Y-40014D01*
X72711Y-39995D01*
X72672Y-39995D01*
X72367Y-40262D02*
X72367Y-39862D01*
X72367Y-40243D02*
X72405Y-40262D01*
X72482Y-40262D01*
X72520Y-40243D01*
X72539Y-40224D01*
X72558Y-40186D01*
X72558Y-40071D01*
X72539Y-40033D01*
X72520Y-40014D01*
X72482Y-39995D01*
X72405Y-39995D01*
X72367Y-40014D01*
X72177Y-39995D02*
X72177Y-40262D01*
X72177Y-40033D02*
X72158Y-40014D01*
X72120Y-39995D01*
X72062Y-39995D01*
X72024Y-40014D01*
X72005Y-40052D01*
X72005Y-40262D01*
X71662Y-40243D02*
X71700Y-40262D01*
X71777Y-40262D01*
X71815Y-40243D01*
X71834Y-40205D01*
X71834Y-40052D01*
X71815Y-40014D01*
X71777Y-39995D01*
X71700Y-39995D01*
X71662Y-40014D01*
X71643Y-40052D01*
X71643Y-40090D01*
X71834Y-40129D01*
X71491Y-40243D02*
X71453Y-40262D01*
X71377Y-40262D01*
X71338Y-40243D01*
X71319Y-40205D01*
X71319Y-40186D01*
X71338Y-40148D01*
X71377Y-40129D01*
X71434Y-40129D01*
X71472Y-40110D01*
X71491Y-40071D01*
X71491Y-40052D01*
X71472Y-40014D01*
X71434Y-39995D01*
X71377Y-39995D01*
X71338Y-40014D01*
X71167Y-40243D02*
X71129Y-40262D01*
X71053Y-40262D01*
X71014Y-40243D01*
X70995Y-40205D01*
X70995Y-40186D01*
X71014Y-40148D01*
X71053Y-40129D01*
X71110Y-40129D01*
X71148Y-40110D01*
X71167Y-40071D01*
X71167Y-40052D01*
X71148Y-40014D01*
X71110Y-39995D01*
X71053Y-39995D01*
X71014Y-40014D01*
X70347Y-40262D02*
X70347Y-40052D01*
X70366Y-40014D01*
X70404Y-39995D01*
X70481Y-39995D01*
X70519Y-40014D01*
X70347Y-40243D02*
X70385Y-40262D01*
X70481Y-40262D01*
X70519Y-40243D01*
X70538Y-40205D01*
X70538Y-40167D01*
X70519Y-40129D01*
X70481Y-40110D01*
X70385Y-40110D01*
X70347Y-40090D01*
X70157Y-40262D02*
X70157Y-39995D01*
X70157Y-40071D02*
X70138Y-40033D01*
X70119Y-40014D01*
X70081Y-39995D01*
X70042Y-39995D01*
X69852Y-40262D02*
X69890Y-40243D01*
X69909Y-40224D01*
X69928Y-40186D01*
X69928Y-40071D01*
X69909Y-40033D01*
X69890Y-40014D01*
X69852Y-39995D01*
X69794Y-39995D01*
X69756Y-40014D01*
X69737Y-40033D01*
X69718Y-40071D01*
X69718Y-40186D01*
X69737Y-40224D01*
X69756Y-40243D01*
X69794Y-40262D01*
X69852Y-40262D01*
X69375Y-39995D02*
X69375Y-40262D01*
X69547Y-39995D02*
X69547Y-40205D01*
X69528Y-40243D01*
X69490Y-40262D01*
X69432Y-40262D01*
X69394Y-40243D01*
X69375Y-40224D01*
X69185Y-39995D02*
X69185Y-40262D01*
X69185Y-40033D02*
X69166Y-40014D01*
X69128Y-39995D01*
X69070Y-39995D01*
X69032Y-40014D01*
X69013Y-40052D01*
X69013Y-40262D01*
X68651Y-40262D02*
X68651Y-39862D01*
X68651Y-40243D02*
X68689Y-40262D01*
X68766Y-40262D01*
X68804Y-40243D01*
X68823Y-40224D01*
X68842Y-40186D01*
X68842Y-40071D01*
X68823Y-40033D01*
X68804Y-40014D01*
X68766Y-39995D01*
X68689Y-39995D01*
X68651Y-40014D01*
X68156Y-40262D02*
X68156Y-39862D01*
X68156Y-40014D02*
X68118Y-39995D01*
X68041Y-39995D01*
X68003Y-40014D01*
X67984Y-40033D01*
X67965Y-40071D01*
X67965Y-40186D01*
X67984Y-40224D01*
X68003Y-40243D01*
X68041Y-40262D01*
X68118Y-40262D01*
X68156Y-40243D01*
X67622Y-40262D02*
X67622Y-40052D01*
X67641Y-40014D01*
X67679Y-39995D01*
X67756Y-39995D01*
X67794Y-40014D01*
X67622Y-40243D02*
X67660Y-40262D01*
X67756Y-40262D01*
X67794Y-40243D01*
X67813Y-40205D01*
X67813Y-40167D01*
X67794Y-40129D01*
X67756Y-40110D01*
X67660Y-40110D01*
X67622Y-40090D01*
X67432Y-40262D02*
X67432Y-39995D01*
X67432Y-40071D02*
X67413Y-40033D01*
X67394Y-40014D01*
X67356Y-39995D01*
X67317Y-39995D01*
X67184Y-40262D02*
X67184Y-39995D01*
X67184Y-40071D02*
X67165Y-40033D01*
X67146Y-40014D01*
X67108Y-39995D01*
X67069Y-39995D01*
X66783Y-40243D02*
X66821Y-40262D01*
X66898Y-40262D01*
X66936Y-40243D01*
X66955Y-40205D01*
X66955Y-40052D01*
X66936Y-40014D01*
X66898Y-39995D01*
X66821Y-39995D01*
X66783Y-40014D01*
X66764Y-40052D01*
X66764Y-40090D01*
X66955Y-40129D01*
X66536Y-40262D02*
X66574Y-40243D01*
X66593Y-40205D01*
X66593Y-39862D01*
X66078Y-39995D02*
X66078Y-40338D01*
X66097Y-40376D01*
X66135Y-40395D01*
X66154Y-40395D01*
X66078Y-39862D02*
X66097Y-39881D01*
X66078Y-39900D01*
X66059Y-39881D01*
X66078Y-39862D01*
X66078Y-39900D01*
X65716Y-40262D02*
X65716Y-40052D01*
X65735Y-40014D01*
X65773Y-39995D01*
X65850Y-39995D01*
X65888Y-40014D01*
X65716Y-40243D02*
X65754Y-40262D01*
X65850Y-40262D01*
X65888Y-40243D01*
X65907Y-40205D01*
X65907Y-40167D01*
X65888Y-40129D01*
X65850Y-40110D01*
X65754Y-40110D01*
X65716Y-40090D01*
X65354Y-40243D02*
X65392Y-40262D01*
X65469Y-40262D01*
X65507Y-40243D01*
X65526Y-40224D01*
X65545Y-40186D01*
X65545Y-40071D01*
X65526Y-40033D01*
X65507Y-40014D01*
X65469Y-39995D01*
X65392Y-39995D01*
X65354Y-40014D01*
X65183Y-40262D02*
X65183Y-39862D01*
X65145Y-40110D02*
X65030Y-40262D01*
X65030Y-39995D02*
X65183Y-40148D01*
X64382Y-40262D02*
X64382Y-40052D01*
X64401Y-40014D01*
X64439Y-39995D01*
X64516Y-39995D01*
X64554Y-40014D01*
X64382Y-40243D02*
X64420Y-40262D01*
X64516Y-40262D01*
X64554Y-40243D01*
X64573Y-40205D01*
X64573Y-40167D01*
X64554Y-40129D01*
X64516Y-40110D01*
X64420Y-40110D01*
X64382Y-40090D01*
X64135Y-40262D02*
X64173Y-40243D01*
X64192Y-40205D01*
X64192Y-39862D01*
X63925Y-40262D02*
X63963Y-40243D01*
X63982Y-40205D01*
X63982Y-39862D01*
X63715Y-40262D02*
X63753Y-40243D01*
X63772Y-40224D01*
X63791Y-40186D01*
X63791Y-40071D01*
X63772Y-40033D01*
X63753Y-40014D01*
X63715Y-39995D01*
X63657Y-39995D01*
X63619Y-40014D01*
X63600Y-40033D01*
X63581Y-40071D01*
X63581Y-40186D01*
X63600Y-40224D01*
X63619Y-40243D01*
X63657Y-40262D01*
X63715Y-40262D01*
X63448Y-39995D02*
X63372Y-40262D01*
X63295Y-40071D01*
X63219Y-40262D01*
X63143Y-39995D01*
X63010Y-40243D02*
X62972Y-40262D01*
X62896Y-40262D01*
X62857Y-40243D01*
X62838Y-40205D01*
X62838Y-40186D01*
X62857Y-40148D01*
X62896Y-40129D01*
X62953Y-40129D01*
X62991Y-40110D01*
X63010Y-40071D01*
X63010Y-40052D01*
X62991Y-40014D01*
X62953Y-39995D01*
X62896Y-39995D01*
X62857Y-40014D01*
X62362Y-40262D02*
X62362Y-39995D01*
X62362Y-40071D02*
X62343Y-40033D01*
X62324Y-40014D01*
X62286Y-39995D01*
X62247Y-39995D01*
X61961Y-40243D02*
X61999Y-40262D01*
X62076Y-40262D01*
X62114Y-40243D01*
X62133Y-40205D01*
X62133Y-40052D01*
X62114Y-40014D01*
X62076Y-39995D01*
X61999Y-39995D01*
X61961Y-40014D01*
X61942Y-40052D01*
X61942Y-40090D01*
X62133Y-40129D01*
X61809Y-39995D02*
X61733Y-40262D01*
X61656Y-40071D01*
X61580Y-40262D01*
X61504Y-39995D01*
X61352Y-40262D02*
X61352Y-39995D01*
X61352Y-39862D02*
X61371Y-39881D01*
X61352Y-39900D01*
X61333Y-39881D01*
X61352Y-39862D01*
X61352Y-39900D01*
X61162Y-40262D02*
X61162Y-39995D01*
X61162Y-40071D02*
X61143Y-40033D01*
X61124Y-40014D01*
X61086Y-39995D01*
X61047Y-39995D01*
X60914Y-40262D02*
X60914Y-39995D01*
X60914Y-39862D02*
X60933Y-39881D01*
X60914Y-39900D01*
X60895Y-39881D01*
X60914Y-39862D01*
X60914Y-39900D01*
X60724Y-39995D02*
X60724Y-40262D01*
X60724Y-40033D02*
X60705Y-40014D01*
X60667Y-39995D01*
X60609Y-39995D01*
X60571Y-40014D01*
X60552Y-40052D01*
X60552Y-40262D01*
X60190Y-39995D02*
X60190Y-40319D01*
X60209Y-40357D01*
X60228Y-40376D01*
X60267Y-40395D01*
X60324Y-40395D01*
X60362Y-40376D01*
X60190Y-40243D02*
X60228Y-40262D01*
X60305Y-40262D01*
X60343Y-40243D01*
X60362Y-40224D01*
X60381Y-40186D01*
X60381Y-40071D01*
X60362Y-40033D01*
X60343Y-40014D01*
X60305Y-39995D01*
X60228Y-39995D01*
X60190Y-40014D01*
X59695Y-40262D02*
X59695Y-39995D01*
X59695Y-39862D02*
X59714Y-39881D01*
X59695Y-39900D01*
X59676Y-39881D01*
X59695Y-39862D01*
X59695Y-39900D01*
X59562Y-39995D02*
X59410Y-39995D01*
X59505Y-40262D02*
X59505Y-39919D01*
X59486Y-39881D01*
X59448Y-39862D01*
X59410Y-39862D01*
X58971Y-40262D02*
X58971Y-39862D01*
X58304Y-40262D02*
X58304Y-39862D01*
X58304Y-40243D02*
X58342Y-40262D01*
X58419Y-40262D01*
X58457Y-40243D01*
X58476Y-40224D01*
X58495Y-40186D01*
X58495Y-40071D01*
X58476Y-40033D01*
X58457Y-40014D01*
X58419Y-39995D01*
X58342Y-39995D01*
X58304Y-40014D01*
X58057Y-40262D02*
X58095Y-40243D01*
X58114Y-40224D01*
X58133Y-40186D01*
X58133Y-40071D01*
X58114Y-40033D01*
X58095Y-40014D01*
X58057Y-39995D01*
X57999Y-39995D01*
X57961Y-40014D01*
X57942Y-40033D01*
X57923Y-40071D01*
X57923Y-40186D01*
X57942Y-40224D01*
X57961Y-40243D01*
X57999Y-40262D01*
X58057Y-40262D01*
X57752Y-39995D02*
X57752Y-40262D01*
X57752Y-40033D02*
X57733Y-40014D01*
X57695Y-39995D01*
X57637Y-39995D01*
X57599Y-40014D01*
X57580Y-40052D01*
X57580Y-40262D01*
X57371Y-39862D02*
X57409Y-39938D01*
X57257Y-39995D02*
X57105Y-39995D01*
X57200Y-39862D02*
X57200Y-40205D01*
X57181Y-40243D01*
X57143Y-40262D01*
X57105Y-40262D01*
X56494Y-39995D02*
X56494Y-40262D01*
X56666Y-39995D02*
X56666Y-40205D01*
X56647Y-40243D01*
X56609Y-40262D01*
X56551Y-40262D01*
X56513Y-40243D01*
X56494Y-40224D01*
X56304Y-39995D02*
X56304Y-40262D01*
X56304Y-40033D02*
X56285Y-40014D01*
X56247Y-39995D01*
X56189Y-39995D01*
X56151Y-40014D01*
X56132Y-40052D01*
X56132Y-40262D01*
X55770Y-40262D02*
X55770Y-39862D01*
X55770Y-40243D02*
X55808Y-40262D01*
X55885Y-40262D01*
X55923Y-40243D01*
X55942Y-40224D01*
X55961Y-40186D01*
X55961Y-40071D01*
X55942Y-40033D01*
X55923Y-40014D01*
X55885Y-39995D01*
X55808Y-39995D01*
X55770Y-40014D01*
X55427Y-40243D02*
X55465Y-40262D01*
X55542Y-40262D01*
X55580Y-40243D01*
X55599Y-40205D01*
X55599Y-40052D01*
X55580Y-40014D01*
X55542Y-39995D01*
X55465Y-39995D01*
X55427Y-40014D01*
X55408Y-40052D01*
X55408Y-40090D01*
X55599Y-40129D01*
X55237Y-40262D02*
X55237Y-39995D01*
X55237Y-40071D02*
X55218Y-40033D01*
X55199Y-40014D01*
X55161Y-39995D01*
X55122Y-39995D01*
X55008Y-40243D02*
X54970Y-40262D01*
X54894Y-40262D01*
X54855Y-40243D01*
X54836Y-40205D01*
X54836Y-40186D01*
X54855Y-40148D01*
X54894Y-40129D01*
X54951Y-40129D01*
X54989Y-40110D01*
X55008Y-40071D01*
X55008Y-40052D01*
X54989Y-40014D01*
X54951Y-39995D01*
X54894Y-39995D01*
X54855Y-40014D01*
X54722Y-39995D02*
X54570Y-39995D01*
X54665Y-39862D02*
X54665Y-40205D01*
X54646Y-40243D01*
X54608Y-40262D01*
X54570Y-40262D01*
X54264Y-40262D02*
X54264Y-40052D01*
X54283Y-40014D01*
X54321Y-39995D01*
X54398Y-39995D01*
X54436Y-40014D01*
X54264Y-40243D02*
X54302Y-40262D01*
X54398Y-40262D01*
X54436Y-40243D01*
X54455Y-40205D01*
X54455Y-40167D01*
X54436Y-40129D01*
X54398Y-40110D01*
X54302Y-40110D01*
X54264Y-40090D01*
X54074Y-39995D02*
X54074Y-40262D01*
X54074Y-40033D02*
X54055Y-40014D01*
X54017Y-39995D01*
X53959Y-39995D01*
X53921Y-40014D01*
X53902Y-40052D01*
X53902Y-40262D01*
X53540Y-40262D02*
X53540Y-39862D01*
X53540Y-40243D02*
X53578Y-40262D01*
X53655Y-40262D01*
X53693Y-40243D01*
X53712Y-40224D01*
X53731Y-40186D01*
X53731Y-40071D01*
X53712Y-40033D01*
X53693Y-40014D01*
X53655Y-39995D01*
X53578Y-39995D01*
X53540Y-40014D01*
X53045Y-40262D02*
X53045Y-39862D01*
X52873Y-40262D02*
X52873Y-40052D01*
X52892Y-40014D01*
X52930Y-39995D01*
X52988Y-39995D01*
X53026Y-40014D01*
X53045Y-40033D01*
X52626Y-40262D02*
X52664Y-40243D01*
X52683Y-40224D01*
X52702Y-40186D01*
X52702Y-40071D01*
X52683Y-40033D01*
X52664Y-40014D01*
X52626Y-39995D01*
X52568Y-39995D01*
X52530Y-40014D01*
X52511Y-40033D01*
X52492Y-40071D01*
X52492Y-40186D01*
X52511Y-40224D01*
X52530Y-40243D01*
X52568Y-40262D01*
X52626Y-40262D01*
X52359Y-39995D02*
X52283Y-40262D01*
X52206Y-40071D01*
X52130Y-40262D01*
X52054Y-39995D01*
X51654Y-39995D02*
X51502Y-39995D01*
X51597Y-39862D02*
X51597Y-40205D01*
X51578Y-40243D01*
X51540Y-40262D01*
X51502Y-40262D01*
X51368Y-40262D02*
X51368Y-39862D01*
X51196Y-40262D02*
X51196Y-40052D01*
X51215Y-40014D01*
X51253Y-39995D01*
X51311Y-39995D01*
X51349Y-40014D01*
X51368Y-40033D01*
X50853Y-40243D02*
X50891Y-40262D01*
X50968Y-40262D01*
X51006Y-40243D01*
X51025Y-40205D01*
X51025Y-40052D01*
X51006Y-40014D01*
X50968Y-39995D01*
X50891Y-39995D01*
X50853Y-40014D01*
X50834Y-40052D01*
X50834Y-40090D01*
X51025Y-40129D01*
X50358Y-39995D02*
X50358Y-40338D01*
X50377Y-40376D01*
X50415Y-40395D01*
X50434Y-40395D01*
X50358Y-39862D02*
X50377Y-39881D01*
X50358Y-39900D01*
X50339Y-39881D01*
X50358Y-39862D01*
X50358Y-39900D01*
X49996Y-40262D02*
X49996Y-40052D01*
X50015Y-40014D01*
X50053Y-39995D01*
X50130Y-39995D01*
X50168Y-40014D01*
X49996Y-40243D02*
X50034Y-40262D01*
X50130Y-40262D01*
X50168Y-40243D01*
X50187Y-40205D01*
X50187Y-40167D01*
X50168Y-40129D01*
X50130Y-40110D01*
X50034Y-40110D01*
X49996Y-40090D01*
X49634Y-40243D02*
X49672Y-40262D01*
X49749Y-40262D01*
X49787Y-40243D01*
X49806Y-40224D01*
X49825Y-40186D01*
X49825Y-40071D01*
X49806Y-40033D01*
X49787Y-40014D01*
X49749Y-39995D01*
X49672Y-39995D01*
X49634Y-40014D01*
X49463Y-40262D02*
X49463Y-39862D01*
X49425Y-40110D02*
X49310Y-40262D01*
X49310Y-39995D02*
X49463Y-40148D01*
X48834Y-40262D02*
X48834Y-39995D01*
X48834Y-39862D02*
X48853Y-39881D01*
X48834Y-39900D01*
X48815Y-39881D01*
X48834Y-39862D01*
X48834Y-39900D01*
X48663Y-40243D02*
X48625Y-40262D01*
X48549Y-40262D01*
X48510Y-40243D01*
X48491Y-40205D01*
X48491Y-40186D01*
X48510Y-40148D01*
X48549Y-40129D01*
X48606Y-40129D01*
X48644Y-40110D01*
X48663Y-40071D01*
X48663Y-40052D01*
X48644Y-40014D01*
X48606Y-39995D01*
X48549Y-39995D01*
X48510Y-40014D01*
X48053Y-39995D02*
X47977Y-40262D01*
X47900Y-40071D01*
X47824Y-40262D01*
X47748Y-39995D01*
X47596Y-40262D02*
X47596Y-39995D01*
X47596Y-39862D02*
X47615Y-39881D01*
X47596Y-39900D01*
X47577Y-39881D01*
X47596Y-39862D01*
X47596Y-39900D01*
X47406Y-40262D02*
X47406Y-39995D01*
X47406Y-40071D02*
X47387Y-40033D01*
X47368Y-40014D01*
X47330Y-39995D01*
X47291Y-39995D01*
X47005Y-40243D02*
X47043Y-40262D01*
X47120Y-40262D01*
X47158Y-40243D01*
X47177Y-40205D01*
X47177Y-40052D01*
X47158Y-40014D01*
X47120Y-39995D01*
X47043Y-39995D01*
X47005Y-40014D01*
X46986Y-40052D01*
X46986Y-40090D01*
X47177Y-40129D01*
X46643Y-40262D02*
X46643Y-39862D01*
X46643Y-40243D02*
X46681Y-40262D01*
X46758Y-40262D01*
X46796Y-40243D01*
X46815Y-40224D01*
X46834Y-40186D01*
X46834Y-40071D01*
X46815Y-40033D01*
X46796Y-40014D01*
X46758Y-39995D01*
X46681Y-39995D01*
X46643Y-40014D01*
X46434Y-40243D02*
X46434Y-40262D01*
X46453Y-40300D01*
X46472Y-40319D01*
X45996Y-39995D02*
X45920Y-40262D01*
X45843Y-40071D01*
X45767Y-40262D01*
X45691Y-39995D01*
X45539Y-40262D02*
X45539Y-39862D01*
X45367Y-40262D02*
X45367Y-40052D01*
X45386Y-40014D01*
X45424Y-39995D01*
X45482Y-39995D01*
X45520Y-40014D01*
X45539Y-40033D01*
X45177Y-40262D02*
X45177Y-39995D01*
X45177Y-39862D02*
X45196Y-39881D01*
X45177Y-39900D01*
X45158Y-39881D01*
X45177Y-39862D01*
X45177Y-39900D01*
X44815Y-40243D02*
X44853Y-40262D01*
X44930Y-40262D01*
X44968Y-40243D01*
X44987Y-40224D01*
X45006Y-40186D01*
X45006Y-40071D01*
X44987Y-40033D01*
X44968Y-40014D01*
X44930Y-39995D01*
X44853Y-39995D01*
X44815Y-40014D01*
X44644Y-40262D02*
X44644Y-39862D01*
X44472Y-40262D02*
X44472Y-40052D01*
X44491Y-40014D01*
X44529Y-39995D01*
X44587Y-39995D01*
X44625Y-40014D01*
X44644Y-40033D01*
X43996Y-40243D02*
X43958Y-40262D01*
X43882Y-40262D01*
X43843Y-40243D01*
X43824Y-40205D01*
X43824Y-40186D01*
X43843Y-40148D01*
X43882Y-40129D01*
X43939Y-40129D01*
X43977Y-40110D01*
X43996Y-40071D01*
X43996Y-40052D01*
X43977Y-40014D01*
X43939Y-39995D01*
X43882Y-39995D01*
X43843Y-40014D01*
X43500Y-40243D02*
X43538Y-40262D01*
X43615Y-40262D01*
X43653Y-40243D01*
X43672Y-40205D01*
X43672Y-40052D01*
X43653Y-40014D01*
X43615Y-39995D01*
X43538Y-39995D01*
X43500Y-40014D01*
X43481Y-40052D01*
X43481Y-40090D01*
X43672Y-40129D01*
X43157Y-40243D02*
X43195Y-40262D01*
X43272Y-40262D01*
X43310Y-40243D01*
X43329Y-40205D01*
X43329Y-40052D01*
X43310Y-40014D01*
X43272Y-39995D01*
X43195Y-39995D01*
X43157Y-40014D01*
X43138Y-40052D01*
X43138Y-40090D01*
X43329Y-40129D01*
X42967Y-40262D02*
X42967Y-39995D01*
X42967Y-40033D02*
X42948Y-40014D01*
X42910Y-39995D01*
X42852Y-39995D01*
X42814Y-40014D01*
X42795Y-40052D01*
X42795Y-40262D01*
X42795Y-40052D02*
X42776Y-40014D01*
X42738Y-39995D01*
X42681Y-39995D01*
X42643Y-40014D01*
X42624Y-40052D01*
X42624Y-40262D01*
X42453Y-40243D02*
X42415Y-40262D01*
X42339Y-40262D01*
X42300Y-40243D01*
X42281Y-40205D01*
X42281Y-40186D01*
X42300Y-40148D01*
X42339Y-40129D01*
X42396Y-40129D01*
X42434Y-40110D01*
X42453Y-40071D01*
X42453Y-40052D01*
X42434Y-40014D01*
X42396Y-39995D01*
X42339Y-39995D01*
X42300Y-40014D01*
X41748Y-40262D02*
X41786Y-40243D01*
X41805Y-40205D01*
X41805Y-39862D01*
X41595Y-40262D02*
X41595Y-39995D01*
X41595Y-39862D02*
X41614Y-39881D01*
X41595Y-39900D01*
X41576Y-39881D01*
X41595Y-39862D01*
X41595Y-39900D01*
X41405Y-40262D02*
X41405Y-39862D01*
X41367Y-40110D02*
X41252Y-40262D01*
X41252Y-39995D02*
X41405Y-40148D01*
X40928Y-40243D02*
X40966Y-40262D01*
X41043Y-40262D01*
X41081Y-40243D01*
X41100Y-40205D01*
X41100Y-40052D01*
X41081Y-40014D01*
X41043Y-39995D01*
X40966Y-39995D01*
X40928Y-40014D01*
X40909Y-40052D01*
X40909Y-40090D01*
X41100Y-40129D01*
X40681Y-40262D02*
X40719Y-40243D01*
X40738Y-40205D01*
X40738Y-39862D01*
X40566Y-39995D02*
X40471Y-40262D01*
X40375Y-39995D02*
X40471Y-40262D01*
X40509Y-40357D01*
X40528Y-40376D01*
X40566Y-40395D01*
X40223Y-40224D02*
X40204Y-40243D01*
X40223Y-40262D01*
X40242Y-40243D01*
X40223Y-40224D01*
X40223Y-40262D01*
X73465Y-39262D02*
X73599Y-39071D01*
X73694Y-39262D02*
X73694Y-38862D01*
X73541Y-38862D01*
X73503Y-38881D01*
X73484Y-38900D01*
X73465Y-38938D01*
X73465Y-38995D01*
X73484Y-39033D01*
X73503Y-39052D01*
X73541Y-39071D01*
X73694Y-39071D01*
X73141Y-39243D02*
X73179Y-39262D01*
X73256Y-39262D01*
X73294Y-39243D01*
X73313Y-39205D01*
X73313Y-39052D01*
X73294Y-39014D01*
X73256Y-38995D01*
X73179Y-38995D01*
X73141Y-39014D01*
X73122Y-39052D01*
X73122Y-39090D01*
X73313Y-39129D01*
X72779Y-38995D02*
X72779Y-39395D01*
X72779Y-39243D02*
X72817Y-39262D01*
X72894Y-39262D01*
X72932Y-39243D01*
X72951Y-39224D01*
X72970Y-39186D01*
X72970Y-39071D01*
X72951Y-39033D01*
X72932Y-39014D01*
X72894Y-38995D01*
X72817Y-38995D01*
X72779Y-39014D01*
X72417Y-38995D02*
X72417Y-39262D01*
X72589Y-38995D02*
X72589Y-39205D01*
X72570Y-39243D01*
X72532Y-39262D01*
X72474Y-39262D01*
X72436Y-39243D01*
X72417Y-39224D01*
X72227Y-39262D02*
X72227Y-38995D01*
X72227Y-38862D02*
X72246Y-38881D01*
X72227Y-38900D01*
X72208Y-38881D01*
X72227Y-38862D01*
X72227Y-38900D01*
X72037Y-39262D02*
X72037Y-38995D01*
X72037Y-39071D02*
X72018Y-39033D01*
X71999Y-39014D01*
X71961Y-38995D01*
X71922Y-38995D01*
X71636Y-39243D02*
X71674Y-39262D01*
X71751Y-39262D01*
X71789Y-39243D01*
X71808Y-39205D01*
X71808Y-39052D01*
X71789Y-39014D01*
X71751Y-38995D01*
X71674Y-38995D01*
X71636Y-39014D01*
X71617Y-39052D01*
X71617Y-39090D01*
X71808Y-39129D01*
X71465Y-39243D02*
X71427Y-39262D01*
X71351Y-39262D01*
X71312Y-39243D01*
X71293Y-39205D01*
X71293Y-39186D01*
X71312Y-39148D01*
X71351Y-39129D01*
X71408Y-39129D01*
X71446Y-39110D01*
X71465Y-39071D01*
X71465Y-39052D01*
X71446Y-39014D01*
X71408Y-38995D01*
X71351Y-38995D01*
X71312Y-39014D01*
X70817Y-39262D02*
X70817Y-38995D01*
X70817Y-39071D02*
X70798Y-39033D01*
X70779Y-39014D01*
X70741Y-38995D01*
X70702Y-38995D01*
X70416Y-39243D02*
X70454Y-39262D01*
X70531Y-39262D01*
X70569Y-39243D01*
X70588Y-39205D01*
X70588Y-39052D01*
X70569Y-39014D01*
X70531Y-38995D01*
X70454Y-38995D01*
X70416Y-39014D01*
X70397Y-39052D01*
X70397Y-39090D01*
X70588Y-39129D01*
X70054Y-38995D02*
X70054Y-39319D01*
X70073Y-39357D01*
X70092Y-39376D01*
X70131Y-39395D01*
X70188Y-39395D01*
X70226Y-39376D01*
X70054Y-39243D02*
X70092Y-39262D01*
X70169Y-39262D01*
X70207Y-39243D01*
X70226Y-39224D01*
X70245Y-39186D01*
X70245Y-39071D01*
X70226Y-39033D01*
X70207Y-39014D01*
X70169Y-38995D01*
X70092Y-38995D01*
X70054Y-39014D01*
X69692Y-38995D02*
X69692Y-39262D01*
X69864Y-38995D02*
X69864Y-39205D01*
X69845Y-39243D01*
X69807Y-39262D01*
X69749Y-39262D01*
X69711Y-39243D01*
X69692Y-39224D01*
X69445Y-39262D02*
X69483Y-39243D01*
X69502Y-39205D01*
X69502Y-38862D01*
X69120Y-39262D02*
X69120Y-39052D01*
X69139Y-39014D01*
X69177Y-38995D01*
X69254Y-38995D01*
X69292Y-39014D01*
X69120Y-39243D02*
X69158Y-39262D01*
X69254Y-39262D01*
X69292Y-39243D01*
X69311Y-39205D01*
X69311Y-39167D01*
X69292Y-39129D01*
X69254Y-39110D01*
X69158Y-39110D01*
X69120Y-39090D01*
X68987Y-38995D02*
X68835Y-38995D01*
X68930Y-38862D02*
X68930Y-39205D01*
X68911Y-39243D01*
X68873Y-39262D01*
X68835Y-39262D01*
X68548Y-39243D02*
X68586Y-39262D01*
X68663Y-39262D01*
X68701Y-39243D01*
X68720Y-39205D01*
X68720Y-39052D01*
X68701Y-39014D01*
X68663Y-38995D01*
X68586Y-38995D01*
X68548Y-39014D01*
X68529Y-39052D01*
X68529Y-39090D01*
X68720Y-39129D01*
X68186Y-39262D02*
X68186Y-38862D01*
X68186Y-39243D02*
X68224Y-39262D01*
X68301Y-39262D01*
X68339Y-39243D01*
X68358Y-39224D01*
X68377Y-39186D01*
X68377Y-39071D01*
X68358Y-39033D01*
X68339Y-39014D01*
X68301Y-38995D01*
X68224Y-38995D01*
X68186Y-39014D01*
X67481Y-39262D02*
X67710Y-39262D01*
X67596Y-39262D02*
X67596Y-38862D01*
X67634Y-38919D01*
X67672Y-38957D01*
X67710Y-38976D01*
X67329Y-38900D02*
X67310Y-38881D01*
X67272Y-38862D01*
X67176Y-38862D01*
X67138Y-38881D01*
X67119Y-38900D01*
X67100Y-38938D01*
X67100Y-38976D01*
X67119Y-39033D01*
X67348Y-39262D01*
X67100Y-39262D01*
X66986Y-38862D02*
X66853Y-39262D01*
X66719Y-38862D01*
X66281Y-38995D02*
X66281Y-39395D01*
X66281Y-39014D02*
X66243Y-38995D01*
X66166Y-38995D01*
X66128Y-39014D01*
X66109Y-39033D01*
X66090Y-39071D01*
X66090Y-39186D01*
X66109Y-39224D01*
X66128Y-39243D01*
X66166Y-39262D01*
X66243Y-39262D01*
X66281Y-39243D01*
X65862Y-39262D02*
X65900Y-39243D01*
X65919Y-39224D01*
X65938Y-39186D01*
X65938Y-39071D01*
X65919Y-39033D01*
X65900Y-39014D01*
X65862Y-38995D01*
X65804Y-38995D01*
X65766Y-39014D01*
X65747Y-39033D01*
X65728Y-39071D01*
X65728Y-39186D01*
X65747Y-39224D01*
X65766Y-39243D01*
X65804Y-39262D01*
X65862Y-39262D01*
X65576Y-39243D02*
X65538Y-39262D01*
X65462Y-39262D01*
X65423Y-39243D01*
X65404Y-39205D01*
X65404Y-39186D01*
X65423Y-39148D01*
X65462Y-39129D01*
X65519Y-39129D01*
X65557Y-39110D01*
X65576Y-39071D01*
X65576Y-39052D01*
X65557Y-39014D01*
X65519Y-38995D01*
X65462Y-38995D01*
X65423Y-39014D01*
X65233Y-39262D02*
X65233Y-38995D01*
X65233Y-38862D02*
X65252Y-38881D01*
X65233Y-38900D01*
X65214Y-38881D01*
X65233Y-38862D01*
X65233Y-38900D01*
X65100Y-38995D02*
X64948Y-38995D01*
X65043Y-38862D02*
X65043Y-39205D01*
X65024Y-39243D01*
X64986Y-39262D01*
X64948Y-39262D01*
X64814Y-39262D02*
X64814Y-38995D01*
X64814Y-38862D02*
X64833Y-38881D01*
X64814Y-38900D01*
X64795Y-38881D01*
X64814Y-38862D01*
X64814Y-38900D01*
X64662Y-38995D02*
X64567Y-39262D01*
X64471Y-38995D01*
X64166Y-39243D02*
X64204Y-39262D01*
X64281Y-39262D01*
X64319Y-39243D01*
X64338Y-39205D01*
X64338Y-39052D01*
X64319Y-39014D01*
X64281Y-38995D01*
X64204Y-38995D01*
X64166Y-39014D01*
X64147Y-39052D01*
X64147Y-39090D01*
X64338Y-39129D01*
X63976Y-39110D02*
X63671Y-39110D01*
X63309Y-39243D02*
X63347Y-39262D01*
X63424Y-39262D01*
X63462Y-39243D01*
X63481Y-39224D01*
X63500Y-39186D01*
X63500Y-39071D01*
X63481Y-39033D01*
X63462Y-39014D01*
X63424Y-38995D01*
X63347Y-38995D01*
X63309Y-39014D01*
X62985Y-39243D02*
X63023Y-39262D01*
X63100Y-39262D01*
X63138Y-39243D01*
X63157Y-39205D01*
X63157Y-39052D01*
X63138Y-39014D01*
X63100Y-38995D01*
X63023Y-38995D01*
X62985Y-39014D01*
X62966Y-39052D01*
X62966Y-39090D01*
X63157Y-39129D01*
X62795Y-38995D02*
X62795Y-39262D01*
X62795Y-39033D02*
X62776Y-39014D01*
X62738Y-38995D01*
X62680Y-38995D01*
X62642Y-39014D01*
X62623Y-39052D01*
X62623Y-39262D01*
X62490Y-38995D02*
X62338Y-38995D01*
X62433Y-38862D02*
X62433Y-39205D01*
X62414Y-39243D01*
X62376Y-39262D01*
X62338Y-39262D01*
X62051Y-39243D02*
X62089Y-39262D01*
X62166Y-39262D01*
X62204Y-39243D01*
X62223Y-39205D01*
X62223Y-39052D01*
X62204Y-39014D01*
X62166Y-38995D01*
X62089Y-38995D01*
X62051Y-39014D01*
X62032Y-39052D01*
X62032Y-39090D01*
X62223Y-39129D01*
X61861Y-39262D02*
X61861Y-38995D01*
X61861Y-39071D02*
X61842Y-39033D01*
X61823Y-39014D01*
X61785Y-38995D01*
X61746Y-38995D01*
X61308Y-38995D02*
X61308Y-39395D01*
X61308Y-39014D02*
X61270Y-38995D01*
X61193Y-38995D01*
X61155Y-39014D01*
X61136Y-39033D01*
X61117Y-39071D01*
X61117Y-39186D01*
X61136Y-39224D01*
X61155Y-39243D01*
X61193Y-39262D01*
X61270Y-39262D01*
X61308Y-39243D01*
X60889Y-39262D02*
X60927Y-39243D01*
X60946Y-39224D01*
X60965Y-39186D01*
X60965Y-39071D01*
X60946Y-39033D01*
X60927Y-39014D01*
X60889Y-38995D01*
X60831Y-38995D01*
X60793Y-39014D01*
X60774Y-39033D01*
X60755Y-39071D01*
X60755Y-39186D01*
X60774Y-39224D01*
X60793Y-39243D01*
X60831Y-39262D01*
X60889Y-39262D01*
X60622Y-38995D02*
X60546Y-39262D01*
X60469Y-39071D01*
X60393Y-39262D01*
X60317Y-38995D01*
X60012Y-39243D02*
X60050Y-39262D01*
X60127Y-39262D01*
X60165Y-39243D01*
X60184Y-39205D01*
X60184Y-39052D01*
X60165Y-39014D01*
X60127Y-38995D01*
X60050Y-38995D01*
X60012Y-39014D01*
X59993Y-39052D01*
X59993Y-39090D01*
X60184Y-39129D01*
X59822Y-39262D02*
X59822Y-38995D01*
X59822Y-39071D02*
X59803Y-39033D01*
X59784Y-39014D01*
X59746Y-38995D01*
X59707Y-38995D01*
X59288Y-39243D02*
X59250Y-39262D01*
X59174Y-39262D01*
X59135Y-39243D01*
X59116Y-39205D01*
X59116Y-39186D01*
X59135Y-39148D01*
X59174Y-39129D01*
X59231Y-39129D01*
X59269Y-39110D01*
X59288Y-39071D01*
X59288Y-39052D01*
X59269Y-39014D01*
X59231Y-38995D01*
X59174Y-38995D01*
X59135Y-39014D01*
X58773Y-38995D02*
X58773Y-39262D01*
X58945Y-38995D02*
X58945Y-39205D01*
X58926Y-39243D01*
X58888Y-39262D01*
X58830Y-39262D01*
X58792Y-39243D01*
X58773Y-39224D01*
X58583Y-38995D02*
X58583Y-39395D01*
X58583Y-39014D02*
X58545Y-38995D01*
X58468Y-38995D01*
X58430Y-39014D01*
X58411Y-39033D01*
X58392Y-39071D01*
X58392Y-39186D01*
X58411Y-39224D01*
X58430Y-39243D01*
X58468Y-39262D01*
X58545Y-39262D01*
X58583Y-39243D01*
X58221Y-38995D02*
X58221Y-39395D01*
X58221Y-39014D02*
X58183Y-38995D01*
X58106Y-38995D01*
X58068Y-39014D01*
X58049Y-39033D01*
X58030Y-39071D01*
X58030Y-39186D01*
X58049Y-39224D01*
X58068Y-39243D01*
X58106Y-39262D01*
X58183Y-39262D01*
X58221Y-39243D01*
X57802Y-39262D02*
X57840Y-39243D01*
X57859Y-39205D01*
X57859Y-38862D01*
X57687Y-38995D02*
X57592Y-39262D01*
X57496Y-38995D02*
X57592Y-39262D01*
X57630Y-39357D01*
X57649Y-39376D01*
X57687Y-39395D01*
X57325Y-39243D02*
X57325Y-39262D01*
X57344Y-39300D01*
X57363Y-39319D01*
X56868Y-39243D02*
X56830Y-39262D01*
X56754Y-39262D01*
X56715Y-39243D01*
X56696Y-39205D01*
X56696Y-39186D01*
X56715Y-39148D01*
X56754Y-39129D01*
X56811Y-39129D01*
X56849Y-39110D01*
X56868Y-39071D01*
X56868Y-39052D01*
X56849Y-39014D01*
X56811Y-38995D01*
X56754Y-38995D01*
X56715Y-39014D01*
X56353Y-38995D02*
X56353Y-39262D01*
X56525Y-38995D02*
X56525Y-39205D01*
X56506Y-39243D01*
X56468Y-39262D01*
X56410Y-39262D01*
X56372Y-39243D01*
X56353Y-39224D01*
X56163Y-38995D02*
X56163Y-39395D01*
X56163Y-39014D02*
X56125Y-38995D01*
X56048Y-38995D01*
X56010Y-39014D01*
X55991Y-39033D01*
X55972Y-39071D01*
X55972Y-39186D01*
X55991Y-39224D01*
X56010Y-39243D01*
X56048Y-39262D01*
X56125Y-39262D01*
X56163Y-39243D01*
X55801Y-38995D02*
X55801Y-39395D01*
X55801Y-39014D02*
X55763Y-38995D01*
X55686Y-38995D01*
X55648Y-39014D01*
X55629Y-39033D01*
X55610Y-39071D01*
X55610Y-39186D01*
X55629Y-39224D01*
X55648Y-39243D01*
X55686Y-39262D01*
X55763Y-39262D01*
X55801Y-39243D01*
X55382Y-39262D02*
X55420Y-39243D01*
X55439Y-39224D01*
X55458Y-39186D01*
X55458Y-39071D01*
X55439Y-39033D01*
X55420Y-39014D01*
X55382Y-38995D01*
X55324Y-38995D01*
X55286Y-39014D01*
X55267Y-39033D01*
X55248Y-39071D01*
X55248Y-39186D01*
X55267Y-39224D01*
X55286Y-39243D01*
X55324Y-39262D01*
X55382Y-39262D01*
X55077Y-39262D02*
X55077Y-38995D01*
X55077Y-39071D02*
X55058Y-39033D01*
X55039Y-39014D01*
X55001Y-38995D01*
X54962Y-38995D01*
X54886Y-38995D02*
X54734Y-38995D01*
X54829Y-38862D02*
X54829Y-39205D01*
X54810Y-39243D01*
X54772Y-39262D01*
X54734Y-39262D01*
X54619Y-39243D02*
X54581Y-39262D01*
X54505Y-39262D01*
X54466Y-39243D01*
X54447Y-39205D01*
X54447Y-39186D01*
X54466Y-39148D01*
X54505Y-39129D01*
X54562Y-39129D01*
X54600Y-39110D01*
X54619Y-39071D01*
X54619Y-39052D01*
X54600Y-39014D01*
X54562Y-38995D01*
X54505Y-38995D01*
X54466Y-39014D01*
X53990Y-39243D02*
X53952Y-39262D01*
X53876Y-39262D01*
X53837Y-39243D01*
X53818Y-39205D01*
X53818Y-39186D01*
X53837Y-39148D01*
X53876Y-39129D01*
X53933Y-39129D01*
X53971Y-39110D01*
X53990Y-39071D01*
X53990Y-39052D01*
X53971Y-39014D01*
X53933Y-38995D01*
X53876Y-38995D01*
X53837Y-39014D01*
X53494Y-39243D02*
X53532Y-39262D01*
X53609Y-39262D01*
X53647Y-39243D01*
X53666Y-39205D01*
X53666Y-39052D01*
X53647Y-39014D01*
X53609Y-38995D01*
X53532Y-38995D01*
X53494Y-39014D01*
X53475Y-39052D01*
X53475Y-39090D01*
X53666Y-39129D01*
X53304Y-39262D02*
X53304Y-38995D01*
X53304Y-39071D02*
X53285Y-39033D01*
X53266Y-39014D01*
X53228Y-38995D01*
X53189Y-38995D01*
X53056Y-39262D02*
X53056Y-38995D01*
X53056Y-38862D02*
X53075Y-38881D01*
X53056Y-38900D01*
X53037Y-38881D01*
X53056Y-38862D01*
X53056Y-38900D01*
X52694Y-39262D02*
X52694Y-39052D01*
X52713Y-39014D01*
X52751Y-38995D01*
X52828Y-38995D01*
X52866Y-39014D01*
X52694Y-39243D02*
X52732Y-39262D01*
X52828Y-39262D01*
X52866Y-39243D01*
X52885Y-39205D01*
X52885Y-39167D01*
X52866Y-39129D01*
X52828Y-39110D01*
X52732Y-39110D01*
X52694Y-39090D01*
X52447Y-39262D02*
X52485Y-39243D01*
X52504Y-39205D01*
X52504Y-38862D01*
X51989Y-39262D02*
X51989Y-38995D01*
X51989Y-38862D02*
X52008Y-38881D01*
X51989Y-38900D01*
X51970Y-38881D01*
X51989Y-38862D01*
X51989Y-38900D01*
X51799Y-38995D02*
X51799Y-39262D01*
X51799Y-39033D02*
X51780Y-39014D01*
X51742Y-38995D01*
X51684Y-38995D01*
X51646Y-39014D01*
X51627Y-39052D01*
X51627Y-39262D01*
X51494Y-38995D02*
X51342Y-38995D01*
X51437Y-38862D02*
X51437Y-39205D01*
X51418Y-39243D01*
X51380Y-39262D01*
X51342Y-39262D01*
X51055Y-39243D02*
X51093Y-39262D01*
X51170Y-39262D01*
X51208Y-39243D01*
X51227Y-39205D01*
X51227Y-39052D01*
X51208Y-39014D01*
X51170Y-38995D01*
X51093Y-38995D01*
X51055Y-39014D01*
X51036Y-39052D01*
X51036Y-39090D01*
X51227Y-39129D01*
X50865Y-39262D02*
X50865Y-38995D01*
X50865Y-39071D02*
X50846Y-39033D01*
X50827Y-39014D01*
X50789Y-38995D01*
X50750Y-38995D01*
X50674Y-38995D02*
X50522Y-38995D01*
X50617Y-39262D02*
X50617Y-38919D01*
X50598Y-38881D01*
X50560Y-38862D01*
X50522Y-38862D01*
X50216Y-39262D02*
X50216Y-39052D01*
X50235Y-39014D01*
X50273Y-38995D01*
X50350Y-38995D01*
X50388Y-39014D01*
X50216Y-39243D02*
X50254Y-39262D01*
X50350Y-39262D01*
X50388Y-39243D01*
X50407Y-39205D01*
X50407Y-39167D01*
X50388Y-39129D01*
X50350Y-39110D01*
X50254Y-39110D01*
X50216Y-39090D01*
X49854Y-39243D02*
X49892Y-39262D01*
X49969Y-39262D01*
X50007Y-39243D01*
X50026Y-39224D01*
X50045Y-39186D01*
X50045Y-39071D01*
X50026Y-39033D01*
X50007Y-39014D01*
X49969Y-38995D01*
X49892Y-38995D01*
X49854Y-39014D01*
X49530Y-39243D02*
X49568Y-39262D01*
X49645Y-39262D01*
X49683Y-39243D01*
X49702Y-39205D01*
X49702Y-39052D01*
X49683Y-39014D01*
X49645Y-38995D01*
X49568Y-38995D01*
X49530Y-39014D01*
X49511Y-39052D01*
X49511Y-39090D01*
X49702Y-39129D01*
X49092Y-38995D02*
X48940Y-38995D01*
X49035Y-39262D02*
X49035Y-38919D01*
X49016Y-38881D01*
X48978Y-38862D01*
X48940Y-38862D01*
X48749Y-39262D02*
X48787Y-39243D01*
X48806Y-39224D01*
X48825Y-39186D01*
X48825Y-39071D01*
X48806Y-39033D01*
X48787Y-39014D01*
X48749Y-38995D01*
X48691Y-38995D01*
X48653Y-39014D01*
X48634Y-39033D01*
X48615Y-39071D01*
X48615Y-39186D01*
X48634Y-39224D01*
X48653Y-39243D01*
X48691Y-39262D01*
X48749Y-39262D01*
X48444Y-39262D02*
X48444Y-38995D01*
X48444Y-39071D02*
X48425Y-39033D01*
X48406Y-39014D01*
X48368Y-38995D01*
X48329Y-38995D01*
X47891Y-39262D02*
X47891Y-38995D01*
X47891Y-39071D02*
X47872Y-39033D01*
X47853Y-39014D01*
X47815Y-38995D01*
X47776Y-38995D01*
X47490Y-39243D02*
X47528Y-39262D01*
X47605Y-39262D01*
X47643Y-39243D01*
X47662Y-39205D01*
X47662Y-39052D01*
X47643Y-39014D01*
X47605Y-38995D01*
X47528Y-38995D01*
X47490Y-39014D01*
X47471Y-39052D01*
X47471Y-39090D01*
X47662Y-39129D01*
X47300Y-39262D02*
X47300Y-38995D01*
X47300Y-39033D02*
X47281Y-39014D01*
X47243Y-38995D01*
X47185Y-38995D01*
X47147Y-39014D01*
X47128Y-39052D01*
X47128Y-39262D01*
X47128Y-39052D02*
X47109Y-39014D01*
X47071Y-38995D01*
X47014Y-38995D01*
X46976Y-39014D01*
X46957Y-39052D01*
X46957Y-39262D01*
X46710Y-39262D02*
X46748Y-39243D01*
X46767Y-39224D01*
X46786Y-39186D01*
X46786Y-39071D01*
X46767Y-39033D01*
X46748Y-39014D01*
X46710Y-38995D01*
X46652Y-38995D01*
X46614Y-39014D01*
X46595Y-39033D01*
X46576Y-39071D01*
X46576Y-39186D01*
X46595Y-39224D01*
X46614Y-39243D01*
X46652Y-39262D01*
X46710Y-39262D01*
X46462Y-38995D02*
X46310Y-38995D01*
X46405Y-38862D02*
X46405Y-39205D01*
X46386Y-39243D01*
X46348Y-39262D01*
X46310Y-39262D01*
X46023Y-39243D02*
X46061Y-39262D01*
X46138Y-39262D01*
X46176Y-39243D01*
X46195Y-39205D01*
X46195Y-39052D01*
X46176Y-39014D01*
X46138Y-38995D01*
X46061Y-38995D01*
X46023Y-39014D01*
X46004Y-39052D01*
X46004Y-39090D01*
X46195Y-39129D01*
X45356Y-39243D02*
X45394Y-39262D01*
X45471Y-39262D01*
X45509Y-39243D01*
X45528Y-39224D01*
X45547Y-39186D01*
X45547Y-39071D01*
X45528Y-39033D01*
X45509Y-39014D01*
X45471Y-38995D01*
X45394Y-38995D01*
X45356Y-39014D01*
X45128Y-39262D02*
X45166Y-39243D01*
X45185Y-39224D01*
X45204Y-39186D01*
X45204Y-39071D01*
X45185Y-39033D01*
X45166Y-39014D01*
X45128Y-38995D01*
X45070Y-38995D01*
X45032Y-39014D01*
X45013Y-39033D01*
X44994Y-39071D01*
X44994Y-39186D01*
X45013Y-39224D01*
X45032Y-39243D01*
X45070Y-39262D01*
X45128Y-39262D01*
X44823Y-38995D02*
X44823Y-39262D01*
X44823Y-39033D02*
X44804Y-39014D01*
X44766Y-38995D01*
X44708Y-38995D01*
X44670Y-39014D01*
X44651Y-39052D01*
X44651Y-39262D01*
X44518Y-38995D02*
X44366Y-38995D01*
X44461Y-38862D02*
X44461Y-39205D01*
X44442Y-39243D01*
X44404Y-39262D01*
X44366Y-39262D01*
X44232Y-39262D02*
X44232Y-38995D01*
X44232Y-39071D02*
X44213Y-39033D01*
X44194Y-39014D01*
X44156Y-38995D01*
X44117Y-38995D01*
X43927Y-39262D02*
X43965Y-39243D01*
X43984Y-39224D01*
X44003Y-39186D01*
X44003Y-39071D01*
X43984Y-39033D01*
X43965Y-39014D01*
X43927Y-38995D01*
X43869Y-38995D01*
X43831Y-39014D01*
X43812Y-39033D01*
X43793Y-39071D01*
X43793Y-39186D01*
X43812Y-39224D01*
X43831Y-39243D01*
X43869Y-39262D01*
X43927Y-39262D01*
X43565Y-39262D02*
X43603Y-39243D01*
X43622Y-39205D01*
X43622Y-38862D01*
X42935Y-39262D02*
X42935Y-39052D01*
X42954Y-39014D01*
X42992Y-38995D01*
X43069Y-38995D01*
X43107Y-39014D01*
X42935Y-39243D02*
X42973Y-39262D01*
X43069Y-39262D01*
X43107Y-39243D01*
X43126Y-39205D01*
X43126Y-39167D01*
X43107Y-39129D01*
X43069Y-39110D01*
X42973Y-39110D01*
X42935Y-39090D01*
X42745Y-38995D02*
X42745Y-39262D01*
X42745Y-39033D02*
X42726Y-39014D01*
X42688Y-38995D01*
X42630Y-38995D01*
X42592Y-39014D01*
X42573Y-39052D01*
X42573Y-39262D01*
X42211Y-39262D02*
X42211Y-38862D01*
X42211Y-39243D02*
X42249Y-39262D01*
X42326Y-39262D01*
X42364Y-39243D01*
X42383Y-39224D01*
X42402Y-39186D01*
X42402Y-39071D01*
X42383Y-39033D01*
X42364Y-39014D01*
X42326Y-38995D01*
X42249Y-38995D01*
X42211Y-39014D01*
X41716Y-39262D02*
X41716Y-38995D01*
X41716Y-39033D02*
X41697Y-39014D01*
X41659Y-38995D01*
X41601Y-38995D01*
X41563Y-39014D01*
X41544Y-39052D01*
X41544Y-39262D01*
X41544Y-39052D02*
X41525Y-39014D01*
X41487Y-38995D01*
X41430Y-38995D01*
X41392Y-39014D01*
X41373Y-39052D01*
X41373Y-39262D01*
X41126Y-39262D02*
X41164Y-39243D01*
X41183Y-39224D01*
X41202Y-39186D01*
X41202Y-39071D01*
X41183Y-39033D01*
X41164Y-39014D01*
X41126Y-38995D01*
X41068Y-38995D01*
X41030Y-39014D01*
X41011Y-39033D01*
X40992Y-39071D01*
X40992Y-39186D01*
X41011Y-39224D01*
X41030Y-39243D01*
X41068Y-39262D01*
X41126Y-39262D01*
X40821Y-38995D02*
X40821Y-39262D01*
X40821Y-39033D02*
X40802Y-39014D01*
X40764Y-38995D01*
X40706Y-38995D01*
X40668Y-39014D01*
X40649Y-39052D01*
X40649Y-39262D01*
X40459Y-39262D02*
X40459Y-38995D01*
X40459Y-38862D02*
X40478Y-38881D01*
X40459Y-38900D01*
X40440Y-38881D01*
X40459Y-38862D01*
X40459Y-38900D01*
X40326Y-38995D02*
X40174Y-38995D01*
X40269Y-38862D02*
X40269Y-39205D01*
X40250Y-39243D01*
X40212Y-39262D01*
X40174Y-39262D01*
X39983Y-39262D02*
X40021Y-39243D01*
X40040Y-39224D01*
X40059Y-39186D01*
X40059Y-39071D01*
X40040Y-39033D01*
X40021Y-39014D01*
X39983Y-38995D01*
X39925Y-38995D01*
X39887Y-39014D01*
X39868Y-39033D01*
X39849Y-39071D01*
X39849Y-39186D01*
X39868Y-39224D01*
X39887Y-39243D01*
X39925Y-39262D01*
X39983Y-39262D01*
X39678Y-39262D02*
X39678Y-38995D01*
X39678Y-39071D02*
X39659Y-39033D01*
X39640Y-39014D01*
X39602Y-38995D01*
X39563Y-38995D01*
X39430Y-39262D02*
X39430Y-38995D01*
X39430Y-38862D02*
X39449Y-38881D01*
X39430Y-38900D01*
X39411Y-38881D01*
X39430Y-38862D01*
X39430Y-38900D01*
X39240Y-38995D02*
X39240Y-39262D01*
X39240Y-39033D02*
X39221Y-39014D01*
X39183Y-38995D01*
X39125Y-38995D01*
X39087Y-39014D01*
X39068Y-39052D01*
X39068Y-39262D01*
X38706Y-38995D02*
X38706Y-39319D01*
X38725Y-39357D01*
X38744Y-39376D01*
X38783Y-39395D01*
X38840Y-39395D01*
X38878Y-39376D01*
X38706Y-39243D02*
X38744Y-39262D01*
X38821Y-39262D01*
X38859Y-39243D01*
X38878Y-39224D01*
X38897Y-39186D01*
X38897Y-39071D01*
X38878Y-39033D01*
X38859Y-39014D01*
X38821Y-38995D01*
X38744Y-38995D01*
X38706Y-39014D01*
X73792Y-38243D02*
X73735Y-38262D01*
X73639Y-38262D01*
X73601Y-38243D01*
X73582Y-38224D01*
X73563Y-38186D01*
X73563Y-38148D01*
X73582Y-38110D01*
X73601Y-38090D01*
X73639Y-38071D01*
X73716Y-38052D01*
X73754Y-38033D01*
X73773Y-38014D01*
X73792Y-37976D01*
X73792Y-37938D01*
X73773Y-37900D01*
X73754Y-37881D01*
X73716Y-37862D01*
X73620Y-37862D01*
X73563Y-37881D01*
X73392Y-37995D02*
X73392Y-38395D01*
X73392Y-38014D02*
X73354Y-37995D01*
X73277Y-37995D01*
X73239Y-38014D01*
X73220Y-38033D01*
X73201Y-38071D01*
X73201Y-38186D01*
X73220Y-38224D01*
X73239Y-38243D01*
X73277Y-38262D01*
X73354Y-38262D01*
X73392Y-38243D01*
X72858Y-38262D02*
X72858Y-38052D01*
X72877Y-38014D01*
X72915Y-37995D01*
X72992Y-37995D01*
X73030Y-38014D01*
X72858Y-38243D02*
X72896Y-38262D01*
X72992Y-38262D01*
X73030Y-38243D01*
X73049Y-38205D01*
X73049Y-38167D01*
X73030Y-38129D01*
X72992Y-38110D01*
X72896Y-38110D01*
X72858Y-38090D01*
X72496Y-38243D02*
X72534Y-38262D01*
X72611Y-38262D01*
X72649Y-38243D01*
X72668Y-38224D01*
X72687Y-38186D01*
X72687Y-38071D01*
X72668Y-38033D01*
X72649Y-38014D01*
X72611Y-37995D01*
X72534Y-37995D01*
X72496Y-38014D01*
X72172Y-38243D02*
X72210Y-38262D01*
X72287Y-38262D01*
X72325Y-38243D01*
X72344Y-38205D01*
X72344Y-38052D01*
X72325Y-38014D01*
X72287Y-37995D01*
X72210Y-37995D01*
X72172Y-38014D01*
X72153Y-38052D01*
X72153Y-38090D01*
X72344Y-38129D01*
X72039Y-37862D02*
X71810Y-37862D01*
X71925Y-38262D02*
X71925Y-37862D01*
X71677Y-38262D02*
X71677Y-37995D01*
X71677Y-37862D02*
X71696Y-37881D01*
X71677Y-37900D01*
X71658Y-37881D01*
X71677Y-37862D01*
X71677Y-37900D01*
X71487Y-38262D02*
X71487Y-37995D01*
X71487Y-38033D02*
X71468Y-38014D01*
X71430Y-37995D01*
X71372Y-37995D01*
X71334Y-38014D01*
X71315Y-38052D01*
X71315Y-38262D01*
X71315Y-38052D02*
X71296Y-38014D01*
X71258Y-37995D01*
X71201Y-37995D01*
X71163Y-38014D01*
X71144Y-38052D01*
X71144Y-38262D01*
X70801Y-38243D02*
X70839Y-38262D01*
X70916Y-38262D01*
X70954Y-38243D01*
X70973Y-38205D01*
X70973Y-38052D01*
X70954Y-38014D01*
X70916Y-37995D01*
X70839Y-37995D01*
X70801Y-38014D01*
X70782Y-38052D01*
X70782Y-38090D01*
X70973Y-38129D01*
X70611Y-38224D02*
X70592Y-38243D01*
X70611Y-38262D01*
X70630Y-38243D01*
X70611Y-38224D01*
X70611Y-38262D01*
X70611Y-38014D02*
X70592Y-38033D01*
X70611Y-38052D01*
X70630Y-38033D01*
X70611Y-38014D01*
X70611Y-38052D01*
X70135Y-38148D02*
X69944Y-38148D01*
X70173Y-38262D02*
X70040Y-37862D01*
X69906Y-38262D01*
X69830Y-37862D02*
X69601Y-37862D01*
X69716Y-38262D02*
X69716Y-37862D01*
X69468Y-38262D02*
X69468Y-37995D01*
X69468Y-38033D02*
X69449Y-38014D01*
X69411Y-37995D01*
X69353Y-37995D01*
X69315Y-38014D01*
X69296Y-38052D01*
X69296Y-38262D01*
X69296Y-38052D02*
X69277Y-38014D01*
X69239Y-37995D01*
X69182Y-37995D01*
X69144Y-38014D01*
X69125Y-38052D01*
X69125Y-38262D01*
X68782Y-38243D02*
X68820Y-38262D01*
X68897Y-38262D01*
X68935Y-38243D01*
X68954Y-38205D01*
X68954Y-38052D01*
X68935Y-38014D01*
X68897Y-37995D01*
X68820Y-37995D01*
X68782Y-38014D01*
X68763Y-38052D01*
X68763Y-38090D01*
X68954Y-38129D01*
X68420Y-37995D02*
X68420Y-38319D01*
X68439Y-38357D01*
X68458Y-38376D01*
X68497Y-38395D01*
X68554Y-38395D01*
X68592Y-38376D01*
X68420Y-38243D02*
X68458Y-38262D01*
X68535Y-38262D01*
X68573Y-38243D01*
X68592Y-38224D01*
X68611Y-38186D01*
X68611Y-38071D01*
X68592Y-38033D01*
X68573Y-38014D01*
X68535Y-37995D01*
X68458Y-37995D01*
X68420Y-38014D01*
X68058Y-38262D02*
X68058Y-38052D01*
X68077Y-38014D01*
X68115Y-37995D01*
X68192Y-37995D01*
X68230Y-38014D01*
X68058Y-38243D02*
X68096Y-38262D01*
X68192Y-38262D01*
X68230Y-38243D01*
X68249Y-38205D01*
X68249Y-38167D01*
X68230Y-38129D01*
X68192Y-38110D01*
X68096Y-38110D01*
X68058Y-38090D01*
X67906Y-37862D02*
X67658Y-37862D01*
X67792Y-38014D01*
X67734Y-38014D01*
X67696Y-38033D01*
X67677Y-38052D01*
X67658Y-38090D01*
X67658Y-38186D01*
X67677Y-38224D01*
X67696Y-38243D01*
X67734Y-38262D01*
X67849Y-38262D01*
X67887Y-38243D01*
X67906Y-38224D01*
X67506Y-37900D02*
X67487Y-37881D01*
X67449Y-37862D01*
X67353Y-37862D01*
X67315Y-37881D01*
X67296Y-37900D01*
X67277Y-37938D01*
X67277Y-37976D01*
X67296Y-38033D01*
X67525Y-38262D01*
X67277Y-38262D01*
X67049Y-38033D02*
X67087Y-38014D01*
X67106Y-37995D01*
X67125Y-37957D01*
X67125Y-37938D01*
X67106Y-37900D01*
X67087Y-37881D01*
X67049Y-37862D01*
X66972Y-37862D01*
X66934Y-37881D01*
X66915Y-37900D01*
X66896Y-37938D01*
X66896Y-37957D01*
X66915Y-37995D01*
X66934Y-38014D01*
X66972Y-38033D01*
X67049Y-38033D01*
X67087Y-38052D01*
X67106Y-38071D01*
X67125Y-38110D01*
X67125Y-38186D01*
X67106Y-38224D01*
X67087Y-38243D01*
X67049Y-38262D01*
X66972Y-38262D01*
X66934Y-38243D01*
X66915Y-38224D01*
X66896Y-38186D01*
X66896Y-38110D01*
X66915Y-38071D01*
X66934Y-38052D01*
X66972Y-38033D01*
X66725Y-38110D02*
X66420Y-38110D01*
X66230Y-38262D02*
X66230Y-37862D01*
X66230Y-38014D02*
X66192Y-37995D01*
X66115Y-37995D01*
X66077Y-38014D01*
X66058Y-38033D01*
X66039Y-38071D01*
X66039Y-38186D01*
X66058Y-38224D01*
X66077Y-38243D01*
X66115Y-38262D01*
X66192Y-38262D01*
X66230Y-38243D01*
X65696Y-38262D02*
X65696Y-38052D01*
X65715Y-38014D01*
X65753Y-37995D01*
X65830Y-37995D01*
X65868Y-38014D01*
X65696Y-38243D02*
X65734Y-38262D01*
X65830Y-38262D01*
X65868Y-38243D01*
X65887Y-38205D01*
X65887Y-38167D01*
X65868Y-38129D01*
X65830Y-38110D01*
X65734Y-38110D01*
X65696Y-38090D01*
X65525Y-38243D02*
X65487Y-38262D01*
X65411Y-38262D01*
X65372Y-38243D01*
X65353Y-38205D01*
X65353Y-38186D01*
X65372Y-38148D01*
X65411Y-38129D01*
X65468Y-38129D01*
X65506Y-38110D01*
X65525Y-38071D01*
X65525Y-38052D01*
X65506Y-38014D01*
X65468Y-37995D01*
X65411Y-37995D01*
X65372Y-38014D01*
X65029Y-38243D02*
X65067Y-38262D01*
X65144Y-38262D01*
X65182Y-38243D01*
X65201Y-38205D01*
X65201Y-38052D01*
X65182Y-38014D01*
X65144Y-37995D01*
X65067Y-37995D01*
X65029Y-38014D01*
X65010Y-38052D01*
X65010Y-38090D01*
X65201Y-38129D01*
X64667Y-38262D02*
X64667Y-37862D01*
X64667Y-38243D02*
X64705Y-38262D01*
X64782Y-38262D01*
X64820Y-38243D01*
X64839Y-38224D01*
X64858Y-38186D01*
X64858Y-38071D01*
X64839Y-38033D01*
X64820Y-38014D01*
X64782Y-37995D01*
X64705Y-37995D01*
X64667Y-38014D01*
X64000Y-38243D02*
X64038Y-38262D01*
X64115Y-38262D01*
X64153Y-38243D01*
X64172Y-38224D01*
X64191Y-38186D01*
X64191Y-38071D01*
X64172Y-38033D01*
X64153Y-38014D01*
X64115Y-37995D01*
X64038Y-37995D01*
X64000Y-38014D01*
X63772Y-38262D02*
X63810Y-38243D01*
X63829Y-38205D01*
X63829Y-37862D01*
X63562Y-38262D02*
X63600Y-38243D01*
X63619Y-38224D01*
X63638Y-38186D01*
X63638Y-38071D01*
X63619Y-38033D01*
X63600Y-38014D01*
X63562Y-37995D01*
X63504Y-37995D01*
X63466Y-38014D01*
X63447Y-38033D01*
X63428Y-38071D01*
X63428Y-38186D01*
X63447Y-38224D01*
X63466Y-38243D01*
X63504Y-38262D01*
X63562Y-38262D01*
X63085Y-38243D02*
X63123Y-38262D01*
X63200Y-38262D01*
X63238Y-38243D01*
X63257Y-38224D01*
X63276Y-38186D01*
X63276Y-38071D01*
X63257Y-38033D01*
X63238Y-38014D01*
X63200Y-37995D01*
X63123Y-37995D01*
X63085Y-38014D01*
X62914Y-38262D02*
X62914Y-37862D01*
X62876Y-38110D02*
X62761Y-38262D01*
X62761Y-37995D02*
X62914Y-38148D01*
X62113Y-38243D02*
X62151Y-38262D01*
X62228Y-38262D01*
X62266Y-38243D01*
X62285Y-38224D01*
X62304Y-38186D01*
X62304Y-38071D01*
X62285Y-38033D01*
X62266Y-38014D01*
X62228Y-37995D01*
X62151Y-37995D01*
X62113Y-38014D01*
X61885Y-38262D02*
X61923Y-38243D01*
X61942Y-38224D01*
X61961Y-38186D01*
X61961Y-38071D01*
X61942Y-38033D01*
X61923Y-38014D01*
X61885Y-37995D01*
X61827Y-37995D01*
X61789Y-38014D01*
X61770Y-38033D01*
X61751Y-38071D01*
X61751Y-38186D01*
X61770Y-38224D01*
X61789Y-38243D01*
X61827Y-38262D01*
X61885Y-38262D01*
X61580Y-37995D02*
X61580Y-38262D01*
X61580Y-38033D02*
X61561Y-38014D01*
X61523Y-37995D01*
X61465Y-37995D01*
X61427Y-38014D01*
X61408Y-38052D01*
X61408Y-38262D01*
X61275Y-37995D02*
X61123Y-37995D01*
X61218Y-37862D02*
X61218Y-38205D01*
X61199Y-38243D01*
X61161Y-38262D01*
X61123Y-38262D01*
X60989Y-38262D02*
X60989Y-37995D01*
X60989Y-38071D02*
X60970Y-38033D01*
X60951Y-38014D01*
X60913Y-37995D01*
X60874Y-37995D01*
X60684Y-38262D02*
X60722Y-38243D01*
X60741Y-38224D01*
X60760Y-38186D01*
X60760Y-38071D01*
X60741Y-38033D01*
X60722Y-38014D01*
X60684Y-37995D01*
X60626Y-37995D01*
X60588Y-38014D01*
X60569Y-38033D01*
X60550Y-38071D01*
X60550Y-38186D01*
X60569Y-38224D01*
X60588Y-38243D01*
X60626Y-38262D01*
X60684Y-38262D01*
X60322Y-38262D02*
X60360Y-38243D01*
X60379Y-38205D01*
X60379Y-37862D01*
X60112Y-38262D02*
X60150Y-38243D01*
X60169Y-38205D01*
X60169Y-37862D01*
X59806Y-38243D02*
X59844Y-38262D01*
X59921Y-38262D01*
X59959Y-38243D01*
X59978Y-38205D01*
X59978Y-38052D01*
X59959Y-38014D01*
X59921Y-37995D01*
X59844Y-37995D01*
X59806Y-38014D01*
X59787Y-38052D01*
X59787Y-38090D01*
X59978Y-38129D01*
X59616Y-38262D02*
X59616Y-37995D01*
X59616Y-38071D02*
X59597Y-38033D01*
X59578Y-38014D01*
X59540Y-37995D01*
X59501Y-37995D01*
X59368Y-38224D02*
X59349Y-38243D01*
X59368Y-38262D01*
X59387Y-38243D01*
X59368Y-38224D01*
X59368Y-38262D01*
X58339Y-38224D02*
X58358Y-38243D01*
X58415Y-38262D01*
X58453Y-38262D01*
X58511Y-38243D01*
X58549Y-38205D01*
X58568Y-38167D01*
X58587Y-38090D01*
X58587Y-38033D01*
X58568Y-37957D01*
X58549Y-37919D01*
X58511Y-37881D01*
X58453Y-37862D01*
X58415Y-37862D01*
X58358Y-37881D01*
X58339Y-37900D01*
X58111Y-38262D02*
X58149Y-38243D01*
X58168Y-38224D01*
X58187Y-38186D01*
X58187Y-38071D01*
X58168Y-38033D01*
X58149Y-38014D01*
X58111Y-37995D01*
X58053Y-37995D01*
X58015Y-38014D01*
X57996Y-38033D01*
X57977Y-38071D01*
X57977Y-38186D01*
X57996Y-38224D01*
X58015Y-38243D01*
X58053Y-38262D01*
X58111Y-38262D01*
X57806Y-37995D02*
X57806Y-38262D01*
X57806Y-38033D02*
X57787Y-38014D01*
X57749Y-37995D01*
X57691Y-37995D01*
X57653Y-38014D01*
X57634Y-38052D01*
X57634Y-38262D01*
X57501Y-37995D02*
X57349Y-37995D01*
X57444Y-37862D02*
X57444Y-38205D01*
X57425Y-38243D01*
X57387Y-38262D01*
X57349Y-38262D01*
X57215Y-38262D02*
X57215Y-37995D01*
X57215Y-38071D02*
X57196Y-38033D01*
X57177Y-38014D01*
X57139Y-37995D01*
X57100Y-37995D01*
X56910Y-38262D02*
X56948Y-38243D01*
X56967Y-38224D01*
X56986Y-38186D01*
X56986Y-38071D01*
X56967Y-38033D01*
X56948Y-38014D01*
X56910Y-37995D01*
X56852Y-37995D01*
X56814Y-38014D01*
X56795Y-38033D01*
X56776Y-38071D01*
X56776Y-38186D01*
X56795Y-38224D01*
X56814Y-38243D01*
X56852Y-38262D01*
X56910Y-38262D01*
X56548Y-38262D02*
X56586Y-38243D01*
X56605Y-38205D01*
X56605Y-37862D01*
X56414Y-38243D02*
X56376Y-38262D01*
X56300Y-38262D01*
X56261Y-38243D01*
X56242Y-38205D01*
X56242Y-38186D01*
X56261Y-38148D01*
X56300Y-38129D01*
X56357Y-38129D01*
X56395Y-38110D01*
X56414Y-38071D01*
X56414Y-38052D01*
X56395Y-38014D01*
X56357Y-37995D01*
X56300Y-37995D01*
X56261Y-38014D01*
X55823Y-37995D02*
X55671Y-37995D01*
X55766Y-37862D02*
X55766Y-38205D01*
X55747Y-38243D01*
X55709Y-38262D01*
X55671Y-38262D01*
X55575Y-37995D02*
X55499Y-38262D01*
X55422Y-38071D01*
X55346Y-38262D01*
X55270Y-37995D01*
X55061Y-38262D02*
X55099Y-38243D01*
X55118Y-38224D01*
X55137Y-38186D01*
X55137Y-38071D01*
X55118Y-38033D01*
X55099Y-38014D01*
X55061Y-37995D01*
X55003Y-37995D01*
X54965Y-38014D01*
X54946Y-38033D01*
X54927Y-38071D01*
X54927Y-38186D01*
X54946Y-38224D01*
X54965Y-38243D01*
X55003Y-38262D01*
X55061Y-38262D01*
X54451Y-38262D02*
X54451Y-37995D01*
X54451Y-38071D02*
X54432Y-38033D01*
X54413Y-38014D01*
X54375Y-37995D01*
X54336Y-37995D01*
X54146Y-38262D02*
X54184Y-38243D01*
X54203Y-38224D01*
X54222Y-38186D01*
X54222Y-38071D01*
X54203Y-38033D01*
X54184Y-38014D01*
X54146Y-37995D01*
X54088Y-37995D01*
X54050Y-38014D01*
X54031Y-38033D01*
X54012Y-38071D01*
X54012Y-38186D01*
X54031Y-38224D01*
X54050Y-38243D01*
X54088Y-38262D01*
X54146Y-38262D01*
X53879Y-37995D02*
X53803Y-38262D01*
X53726Y-38071D01*
X53650Y-38262D01*
X53574Y-37995D01*
X53441Y-38243D02*
X53403Y-38262D01*
X53327Y-38262D01*
X53288Y-38243D01*
X53269Y-38205D01*
X53269Y-38186D01*
X53288Y-38148D01*
X53327Y-38129D01*
X53384Y-38129D01*
X53422Y-38110D01*
X53441Y-38071D01*
X53441Y-38052D01*
X53422Y-38014D01*
X53384Y-37995D01*
X53327Y-37995D01*
X53288Y-38014D01*
X52736Y-38262D02*
X52774Y-38243D01*
X52793Y-38224D01*
X52812Y-38186D01*
X52812Y-38071D01*
X52793Y-38033D01*
X52774Y-38014D01*
X52736Y-37995D01*
X52678Y-37995D01*
X52640Y-38014D01*
X52621Y-38033D01*
X52602Y-38071D01*
X52602Y-38186D01*
X52621Y-38224D01*
X52640Y-38243D01*
X52678Y-38262D01*
X52736Y-38262D01*
X52488Y-37995D02*
X52336Y-37995D01*
X52431Y-38262D02*
X52431Y-37919D01*
X52412Y-37881D01*
X52374Y-37862D01*
X52336Y-37862D01*
X51916Y-38243D02*
X51878Y-38262D01*
X51802Y-38262D01*
X51763Y-38243D01*
X51744Y-38205D01*
X51744Y-38186D01*
X51763Y-38148D01*
X51802Y-38129D01*
X51859Y-38129D01*
X51897Y-38110D01*
X51916Y-38071D01*
X51916Y-38052D01*
X51897Y-38014D01*
X51859Y-37995D01*
X51802Y-37995D01*
X51763Y-38014D01*
X51420Y-38243D02*
X51458Y-38262D01*
X51535Y-38262D01*
X51573Y-38243D01*
X51592Y-38205D01*
X51592Y-38052D01*
X51573Y-38014D01*
X51535Y-37995D01*
X51458Y-37995D01*
X51420Y-38014D01*
X51401Y-38052D01*
X51401Y-38090D01*
X51592Y-38129D01*
X51268Y-37995D02*
X51173Y-38262D01*
X51077Y-37995D01*
X50772Y-38243D02*
X50810Y-38262D01*
X50887Y-38262D01*
X50925Y-38243D01*
X50944Y-38205D01*
X50944Y-38052D01*
X50925Y-38014D01*
X50887Y-37995D01*
X50810Y-37995D01*
X50772Y-38014D01*
X50753Y-38052D01*
X50753Y-38090D01*
X50944Y-38129D01*
X50582Y-37995D02*
X50582Y-38262D01*
X50582Y-38033D02*
X50563Y-38014D01*
X50525Y-37995D01*
X50467Y-37995D01*
X50429Y-38014D01*
X50410Y-38052D01*
X50410Y-38262D01*
X49934Y-38243D02*
X49896Y-38262D01*
X49820Y-38262D01*
X49781Y-38243D01*
X49762Y-38205D01*
X49762Y-38186D01*
X49781Y-38148D01*
X49820Y-38129D01*
X49877Y-38129D01*
X49915Y-38110D01*
X49934Y-38071D01*
X49934Y-38052D01*
X49915Y-38014D01*
X49877Y-37995D01*
X49820Y-37995D01*
X49781Y-38014D01*
X49438Y-38243D02*
X49476Y-38262D01*
X49553Y-38262D01*
X49591Y-38243D01*
X49610Y-38205D01*
X49610Y-38052D01*
X49591Y-38014D01*
X49553Y-37995D01*
X49476Y-37995D01*
X49438Y-38014D01*
X49419Y-38052D01*
X49419Y-38090D01*
X49610Y-38129D01*
X49076Y-37995D02*
X49076Y-38319D01*
X49095Y-38357D01*
X49114Y-38376D01*
X49153Y-38395D01*
X49210Y-38395D01*
X49248Y-38376D01*
X49076Y-38243D02*
X49114Y-38262D01*
X49191Y-38262D01*
X49229Y-38243D01*
X49248Y-38224D01*
X49267Y-38186D01*
X49267Y-38071D01*
X49248Y-38033D01*
X49229Y-38014D01*
X49191Y-37995D01*
X49114Y-37995D01*
X49076Y-38014D01*
X48886Y-38262D02*
X48886Y-37995D01*
X48886Y-38033D02*
X48867Y-38014D01*
X48829Y-37995D01*
X48771Y-37995D01*
X48733Y-38014D01*
X48714Y-38052D01*
X48714Y-38262D01*
X48714Y-38052D02*
X48695Y-38014D01*
X48657Y-37995D01*
X48600Y-37995D01*
X48562Y-38014D01*
X48543Y-38052D01*
X48543Y-38262D01*
X48200Y-38243D02*
X48238Y-38262D01*
X48315Y-38262D01*
X48353Y-38243D01*
X48372Y-38205D01*
X48372Y-38052D01*
X48353Y-38014D01*
X48315Y-37995D01*
X48238Y-37995D01*
X48200Y-38014D01*
X48181Y-38052D01*
X48181Y-38090D01*
X48372Y-38129D01*
X48010Y-37995D02*
X48010Y-38262D01*
X48010Y-38033D02*
X47991Y-38014D01*
X47953Y-37995D01*
X47895Y-37995D01*
X47857Y-38014D01*
X47838Y-38052D01*
X47838Y-38262D01*
X47705Y-37995D02*
X47553Y-37995D01*
X47648Y-37862D02*
X47648Y-38205D01*
X47629Y-38243D01*
X47591Y-38262D01*
X47553Y-38262D01*
X46923Y-38262D02*
X47114Y-38262D01*
X47114Y-37862D01*
X46790Y-38052D02*
X46656Y-38052D01*
X46599Y-38262D02*
X46790Y-38262D01*
X46790Y-37862D01*
X46599Y-37862D01*
X46428Y-38262D02*
X46428Y-37862D01*
X46333Y-37862D01*
X46275Y-37881D01*
X46237Y-37919D01*
X46218Y-37957D01*
X46199Y-38033D01*
X46199Y-38090D01*
X46218Y-38167D01*
X46237Y-38205D01*
X46275Y-38243D01*
X46333Y-38262D01*
X46428Y-38262D01*
X45551Y-38262D02*
X45551Y-37862D01*
X45551Y-38243D02*
X45589Y-38262D01*
X45666Y-38262D01*
X45704Y-38243D01*
X45723Y-38224D01*
X45742Y-38186D01*
X45742Y-38071D01*
X45723Y-38033D01*
X45704Y-38014D01*
X45666Y-37995D01*
X45589Y-37995D01*
X45551Y-38014D01*
X45361Y-38262D02*
X45361Y-37995D01*
X45361Y-37862D02*
X45380Y-37881D01*
X45361Y-37900D01*
X45342Y-37881D01*
X45361Y-37862D01*
X45361Y-37900D01*
X45190Y-38243D02*
X45152Y-38262D01*
X45076Y-38262D01*
X45037Y-38243D01*
X45018Y-38205D01*
X45018Y-38186D01*
X45037Y-38148D01*
X45076Y-38129D01*
X45133Y-38129D01*
X45171Y-38110D01*
X45190Y-38071D01*
X45190Y-38052D01*
X45171Y-38014D01*
X45133Y-37995D01*
X45076Y-37995D01*
X45037Y-38014D01*
X44847Y-37995D02*
X44847Y-38395D01*
X44847Y-38014D02*
X44809Y-37995D01*
X44732Y-37995D01*
X44694Y-38014D01*
X44675Y-38033D01*
X44656Y-38071D01*
X44656Y-38186D01*
X44675Y-38224D01*
X44694Y-38243D01*
X44732Y-38262D01*
X44809Y-38262D01*
X44847Y-38243D01*
X44428Y-38262D02*
X44466Y-38243D01*
X44485Y-38205D01*
X44485Y-37862D01*
X44103Y-38262D02*
X44103Y-38052D01*
X44122Y-38014D01*
X44160Y-37995D01*
X44237Y-37995D01*
X44275Y-38014D01*
X44103Y-38243D02*
X44141Y-38262D01*
X44237Y-38262D01*
X44275Y-38243D01*
X44294Y-38205D01*
X44294Y-38167D01*
X44275Y-38129D01*
X44237Y-38110D01*
X44141Y-38110D01*
X44103Y-38090D01*
X43951Y-37995D02*
X43856Y-38262D01*
X43760Y-37995D02*
X43856Y-38262D01*
X43894Y-38357D01*
X43913Y-38376D01*
X43951Y-38395D01*
X43627Y-38243D02*
X43589Y-38262D01*
X43513Y-38262D01*
X43474Y-38243D01*
X43455Y-38205D01*
X43455Y-38186D01*
X43474Y-38148D01*
X43513Y-38129D01*
X43570Y-38129D01*
X43608Y-38110D01*
X43627Y-38071D01*
X43627Y-38052D01*
X43608Y-38014D01*
X43570Y-37995D01*
X43513Y-37995D01*
X43474Y-38014D01*
X43265Y-38243D02*
X43265Y-38262D01*
X43284Y-38300D01*
X43303Y-38319D01*
X42732Y-38262D02*
X42770Y-38243D01*
X42789Y-38205D01*
X42789Y-37862D01*
X42579Y-38262D02*
X42579Y-37995D01*
X42579Y-37862D02*
X42598Y-37881D01*
X42579Y-37900D01*
X42560Y-37881D01*
X42579Y-37862D01*
X42579Y-37900D01*
X42389Y-38262D02*
X42389Y-37862D01*
X42351Y-38110D02*
X42236Y-38262D01*
X42236Y-37995D02*
X42389Y-38148D01*
X41912Y-38243D02*
X41950Y-38262D01*
X42027Y-38262D01*
X42065Y-38243D01*
X42084Y-38205D01*
X42084Y-38052D01*
X42065Y-38014D01*
X42027Y-37995D01*
X41950Y-37995D01*
X41912Y-38014D01*
X41893Y-38052D01*
X41893Y-38090D01*
X42084Y-38129D01*
X41455Y-37862D02*
X41188Y-37862D01*
X41360Y-38262D01*
X41055Y-38243D02*
X40998Y-38262D01*
X40902Y-38262D01*
X40864Y-38243D01*
X40845Y-38224D01*
X40826Y-38186D01*
X40826Y-38148D01*
X40845Y-38110D01*
X40864Y-38090D01*
X40902Y-38071D01*
X40979Y-38052D01*
X41017Y-38033D01*
X41036Y-38014D01*
X41055Y-37976D01*
X41055Y-37938D01*
X41036Y-37900D01*
X41017Y-37881D01*
X40979Y-37862D01*
X40883Y-37862D01*
X40826Y-37881D01*
X40426Y-38262D02*
X40560Y-38071D01*
X40655Y-38262D02*
X40655Y-37862D01*
X40502Y-37862D01*
X40464Y-37881D01*
X40445Y-37900D01*
X40426Y-37938D01*
X40426Y-37995D01*
X40445Y-38033D01*
X40464Y-38052D01*
X40502Y-38071D01*
X40655Y-38071D01*
X40274Y-37900D02*
X40255Y-37881D01*
X40217Y-37862D01*
X40121Y-37862D01*
X40083Y-37881D01*
X40064Y-37900D01*
X40045Y-37938D01*
X40045Y-37976D01*
X40064Y-38033D01*
X40293Y-38262D01*
X40045Y-38262D01*
X39912Y-37862D02*
X39664Y-37862D01*
X39798Y-38014D01*
X39740Y-38014D01*
X39702Y-38033D01*
X39683Y-38052D01*
X39664Y-38090D01*
X39664Y-38186D01*
X39683Y-38224D01*
X39702Y-38243D01*
X39740Y-38262D01*
X39855Y-38262D01*
X39893Y-38243D01*
X39912Y-38224D01*
X39417Y-37862D02*
X39378Y-37862D01*
X39340Y-37881D01*
X39321Y-37900D01*
X39302Y-37938D01*
X39283Y-38014D01*
X39283Y-38110D01*
X39302Y-38186D01*
X39321Y-38224D01*
X39340Y-38243D01*
X39378Y-38262D01*
X39417Y-38262D01*
X39455Y-38243D01*
X39474Y-38224D01*
X39493Y-38186D01*
X39512Y-38110D01*
X39512Y-38014D01*
X39493Y-37938D01*
X39474Y-37900D01*
X39455Y-37881D01*
X39417Y-37862D01*
X38902Y-38262D02*
X39131Y-38262D01*
X39017Y-38262D02*
X39017Y-37862D01*
X39055Y-37919D01*
X39093Y-37957D01*
X39131Y-37976D01*
X38521Y-38262D02*
X38750Y-38262D01*
X38636Y-38262D02*
X38636Y-37862D01*
X38674Y-37919D01*
X38712Y-37957D01*
X38750Y-37976D01*
X38369Y-38148D02*
X38178Y-38148D01*
X38407Y-38262D02*
X38274Y-37862D01*
X38140Y-38262D01*
X38026Y-38243D02*
X37969Y-38262D01*
X37873Y-38262D01*
X37835Y-38243D01*
X37816Y-38224D01*
X37797Y-38186D01*
X37797Y-38148D01*
X37816Y-38110D01*
X37835Y-38090D01*
X37873Y-38071D01*
X37950Y-38052D01*
X37988Y-38033D01*
X38007Y-38014D01*
X38026Y-37976D01*
X38026Y-37938D01*
X38007Y-37900D01*
X37988Y-37881D01*
X37950Y-37862D01*
X37854Y-37862D01*
X37797Y-37881D01*
X37626Y-38224D02*
X37607Y-38243D01*
X37626Y-38262D01*
X37645Y-38243D01*
X37626Y-38224D01*
X37626Y-38262D01*
G54D12*
X48300Y-25900D02*
X48700Y-25500D01*
X46800Y-24500D02*
X47200Y-24100D01*
X48300Y-25900D02*
X48600Y-25600D01*
X48300Y-24100D02*
X48700Y-24500D01*
M02*
