G04 (created by PCBNEW-RS274X (2012-01-19 BZR 3256)-stable) date 5/20/2013 9:38:39 PM*
G01*
G70*
G90*
%MOIN*%
G04 Gerber Fmt 3.4, Leading zero omitted, Abs format*
%FSLAX34Y34*%
G04 APERTURE LIST*
%ADD10C,0.006000*%
%ADD11C,0.055000*%
%ADD12R,0.055000X0.055000*%
%ADD13C,0.045000*%
%ADD14R,0.060000X0.060000*%
%ADD15C,0.060000*%
%ADD16C,0.066000*%
%ADD17C,0.056000*%
%ADD18R,0.070000X0.070000*%
%ADD19C,0.070000*%
%ADD20C,0.235000*%
%ADD21C,0.189000*%
%ADD22C,0.035000*%
%ADD23C,0.010000*%
%ADD24C,0.018000*%
%ADD25C,0.040000*%
%ADD26C,0.020000*%
G04 APERTURE END LIST*
G54D10*
G54D11*
X55500Y-27500D03*
X53500Y-27500D03*
X55500Y-24500D03*
X53500Y-24500D03*
G54D12*
X45600Y-38500D03*
G54D11*
X45600Y-39500D03*
X45600Y-40500D03*
X45600Y-41500D03*
X45600Y-42500D03*
X45600Y-43500D03*
X45600Y-44500D03*
X45600Y-45500D03*
G54D12*
X69500Y-24600D03*
G54D11*
X68500Y-24600D03*
X67500Y-24600D03*
X66500Y-24600D03*
X65500Y-24600D03*
X64500Y-24600D03*
G54D12*
X71300Y-36000D03*
G54D11*
X72300Y-36000D03*
X42600Y-58700D03*
X42600Y-55700D03*
X40100Y-48500D03*
X40100Y-45500D03*
X52200Y-26800D03*
X51200Y-26800D03*
X55000Y-28800D03*
X54000Y-28800D03*
G54D13*
X63200Y-29500D03*
X66500Y-26600D03*
X69500Y-25600D03*
X68500Y-25600D03*
X67500Y-25600D03*
X66500Y-25600D03*
X65500Y-25600D03*
X64500Y-25600D03*
X43600Y-50700D03*
X65500Y-26600D03*
X43250Y-26000D03*
X71300Y-51400D03*
X63400Y-42400D03*
X64400Y-42400D03*
X63400Y-51400D03*
X64400Y-51400D03*
X70300Y-51400D03*
X43250Y-27000D03*
X43250Y-25000D03*
X71300Y-42400D03*
X70300Y-42400D03*
X61200Y-35500D03*
X55200Y-30500D03*
X56200Y-30500D03*
G54D14*
X63400Y-43400D03*
G54D15*
X64400Y-43400D03*
X63400Y-44400D03*
X64400Y-44400D03*
X63400Y-45400D03*
X64400Y-45400D03*
X63400Y-46400D03*
X64400Y-46400D03*
X63400Y-47400D03*
X64400Y-47400D03*
X63400Y-48400D03*
X64400Y-48400D03*
X63400Y-49400D03*
X64400Y-49400D03*
X63400Y-50400D03*
X64400Y-50400D03*
G54D14*
X70300Y-43400D03*
G54D15*
X71300Y-43400D03*
X70300Y-44400D03*
X71300Y-44400D03*
X70300Y-45400D03*
X71300Y-45400D03*
X70300Y-46400D03*
X71300Y-46400D03*
X70300Y-47400D03*
X71300Y-47400D03*
X70300Y-48400D03*
X71300Y-48400D03*
X70300Y-49400D03*
X71300Y-49400D03*
X70300Y-50400D03*
X71300Y-50400D03*
G54D14*
X59500Y-24600D03*
G54D15*
X59500Y-25600D03*
X58500Y-24600D03*
X58500Y-25600D03*
X57500Y-24600D03*
X57500Y-25600D03*
G54D16*
X52200Y-24600D03*
X51200Y-24600D03*
G54D17*
X58700Y-28900D03*
X60700Y-28900D03*
G54D11*
X67200Y-31500D03*
X66200Y-31500D03*
X65200Y-31500D03*
X64200Y-31500D03*
X63200Y-31500D03*
X62200Y-31500D03*
X61200Y-31500D03*
X60200Y-31500D03*
X59200Y-31500D03*
X58200Y-31500D03*
X57200Y-31500D03*
X56200Y-31500D03*
X55200Y-31500D03*
G54D12*
X68200Y-31500D03*
G54D11*
X55200Y-34500D03*
X56200Y-34500D03*
X57200Y-34500D03*
X58200Y-34500D03*
X59200Y-34500D03*
X60200Y-34500D03*
X61200Y-34500D03*
X62200Y-34500D03*
X63200Y-34500D03*
X64200Y-34500D03*
X65200Y-34500D03*
X66200Y-34500D03*
X67200Y-34500D03*
X68200Y-34500D03*
G54D12*
X44100Y-48500D03*
G54D11*
X44100Y-47500D03*
X44100Y-46500D03*
X44100Y-45500D03*
X44100Y-44500D03*
X44100Y-43500D03*
X44100Y-42500D03*
X44100Y-41500D03*
X41100Y-41500D03*
X41100Y-42500D03*
X41100Y-43500D03*
X41100Y-44500D03*
X41100Y-45500D03*
X41100Y-46500D03*
X41100Y-47500D03*
X41100Y-48500D03*
G54D12*
X46600Y-58700D03*
G54D11*
X46600Y-57700D03*
X46600Y-56700D03*
X46600Y-55700D03*
X46600Y-54700D03*
X46600Y-53700D03*
X46600Y-52700D03*
X46600Y-51700D03*
X43600Y-51700D03*
X43600Y-52700D03*
X43600Y-53700D03*
X43600Y-54700D03*
X43600Y-55700D03*
X43600Y-56700D03*
X43600Y-57700D03*
X43600Y-58700D03*
G54D12*
X44250Y-32000D03*
G54D11*
X44250Y-29000D03*
G54D18*
X41250Y-34500D03*
G54D19*
X41250Y-36500D03*
G54D18*
X41250Y-32000D03*
G54D19*
X41250Y-30000D03*
G54D11*
X58700Y-27100D03*
X57700Y-27100D03*
X60700Y-27100D03*
X61700Y-27100D03*
X62200Y-35500D03*
X62200Y-36500D03*
X60200Y-35500D03*
X60200Y-36500D03*
X62700Y-30500D03*
X63700Y-30500D03*
X40600Y-49400D03*
X40600Y-50400D03*
X43100Y-59600D03*
X43100Y-60600D03*
G54D20*
X38750Y-25500D03*
X38750Y-59500D03*
X72750Y-59500D03*
X72750Y-25500D03*
G54D13*
X42200Y-26000D03*
X42200Y-25000D03*
X64200Y-29500D03*
X58200Y-30500D03*
X57200Y-30500D03*
G54D21*
X47700Y-25000D03*
X47700Y-27400D03*
X45700Y-26200D03*
G54D12*
X50100Y-33600D03*
G54D11*
X50100Y-32600D03*
G54D12*
X46300Y-33600D03*
G54D11*
X46300Y-32600D03*
G54D13*
X51800Y-33700D03*
X48000Y-33700D03*
G54D19*
X38000Y-34500D03*
G54D18*
X38000Y-33500D03*
G54D19*
X38000Y-32500D03*
G54D11*
X53100Y-33600D03*
X53100Y-32600D03*
G54D22*
X45100Y-49500D03*
X58700Y-32300D03*
X57700Y-32300D03*
X63400Y-25100D03*
X59200Y-32900D03*
X56600Y-55500D03*
X56600Y-43600D03*
X60300Y-39900D03*
X56600Y-41600D03*
X56600Y-45600D03*
X56600Y-49600D03*
X56600Y-47600D03*
X56600Y-51600D03*
X56600Y-53600D03*
X37800Y-48500D03*
X37800Y-42500D03*
X51800Y-29800D03*
X71950Y-54600D03*
X53600Y-51600D03*
X48000Y-29800D03*
X63450Y-54600D03*
X53600Y-45600D03*
X70900Y-30900D03*
X53600Y-55600D03*
X53600Y-53600D03*
X53600Y-49600D03*
X66850Y-54600D03*
X70250Y-54600D03*
X73650Y-54600D03*
X53600Y-47600D03*
X53600Y-41600D03*
X53600Y-43600D03*
X61750Y-54600D03*
X65150Y-54600D03*
X68550Y-54600D03*
G54D23*
X42900Y-49200D02*
X43200Y-49500D01*
X43200Y-49500D02*
X45100Y-49500D01*
X42900Y-47800D02*
X42900Y-49200D01*
X41100Y-47500D02*
X42600Y-47500D01*
X42600Y-47500D02*
X42900Y-47800D01*
G54D24*
X63400Y-45400D02*
X63900Y-44900D01*
X68300Y-45400D02*
X70300Y-45400D01*
X67800Y-44900D02*
X68300Y-45400D01*
X63900Y-44900D02*
X67800Y-44900D01*
X63400Y-46400D02*
X63900Y-45900D01*
X66900Y-45900D02*
X67400Y-46400D01*
X63900Y-45900D02*
X66900Y-45900D01*
X67400Y-46400D02*
X70300Y-46400D01*
X65900Y-46900D02*
X66400Y-47400D01*
X66400Y-47400D02*
X70300Y-47400D01*
X63900Y-46900D02*
X65900Y-46900D01*
X63400Y-47400D02*
X63900Y-46900D01*
G54D23*
X58200Y-32800D02*
X58200Y-34500D01*
X58700Y-32300D02*
X58200Y-32800D01*
X57200Y-34500D02*
X57200Y-32800D01*
X57700Y-32300D02*
X57200Y-32800D01*
X57500Y-24600D02*
X58000Y-25100D01*
X58000Y-25100D02*
X63400Y-25100D01*
X59200Y-32900D02*
X59200Y-34500D01*
G54D25*
X56100Y-47600D02*
X56100Y-49600D01*
X56100Y-40800D02*
X56100Y-41600D01*
X56100Y-55500D02*
X56100Y-53600D01*
X56100Y-43600D02*
X56100Y-45600D01*
X56100Y-51600D02*
X56100Y-53600D01*
X56100Y-45600D02*
X56100Y-47600D01*
X44300Y-29000D02*
X56100Y-40800D01*
X44250Y-29000D02*
X44300Y-29000D01*
G54D26*
X56600Y-45600D02*
X56100Y-45600D01*
X56600Y-43600D02*
X56100Y-43600D01*
X58600Y-41600D02*
X60300Y-39900D01*
X56600Y-41600D02*
X56100Y-41600D01*
X56600Y-51600D02*
X56100Y-51600D01*
X56600Y-47600D02*
X56100Y-47600D01*
X56600Y-41600D02*
X58600Y-41600D01*
X56600Y-49600D02*
X56100Y-49600D01*
G54D25*
X56100Y-41600D02*
X56100Y-43600D01*
X56100Y-49600D02*
X56100Y-51600D01*
G54D26*
X56600Y-55500D02*
X56100Y-55500D01*
X56600Y-53600D02*
X56100Y-53600D01*
X39250Y-32500D02*
X41250Y-34500D01*
G54D23*
X37800Y-42500D02*
X41100Y-42500D01*
G54D26*
X37800Y-48500D02*
X40100Y-48500D01*
X38000Y-32500D02*
X39250Y-32500D01*
G54D10*
G36*
X74200Y-57450D02*
X72819Y-57450D01*
X72819Y-36074D01*
X72808Y-35870D01*
X72752Y-35733D01*
X72661Y-35710D01*
X72590Y-35781D01*
X72590Y-35639D01*
X72567Y-35548D01*
X72374Y-35481D01*
X72170Y-35492D01*
X72033Y-35548D01*
X72010Y-35639D01*
X72300Y-35929D01*
X72590Y-35639D01*
X72590Y-35781D01*
X72371Y-36000D01*
X72661Y-36290D01*
X72752Y-36267D01*
X72819Y-36074D01*
X72819Y-57450D01*
X72590Y-57450D01*
X72590Y-36361D01*
X72300Y-36071D01*
X72229Y-36142D01*
X72229Y-36000D01*
X71939Y-35710D01*
X71848Y-35733D01*
X71824Y-35802D01*
X71824Y-35676D01*
X71786Y-35584D01*
X71716Y-35514D01*
X71625Y-35476D01*
X71526Y-35476D01*
X70976Y-35476D01*
X70884Y-35514D01*
X70814Y-35584D01*
X70776Y-35675D01*
X70776Y-35774D01*
X70776Y-36324D01*
X70814Y-36416D01*
X70884Y-36486D01*
X70975Y-36524D01*
X71074Y-36524D01*
X71624Y-36524D01*
X71716Y-36486D01*
X71786Y-36416D01*
X71824Y-36325D01*
X71824Y-36226D01*
X71824Y-36208D01*
X71848Y-36267D01*
X71939Y-36290D01*
X72229Y-36000D01*
X72229Y-36142D01*
X72010Y-36361D01*
X72033Y-36452D01*
X72226Y-36519D01*
X72430Y-36508D01*
X72567Y-36452D01*
X72590Y-36361D01*
X72590Y-57450D01*
X71849Y-57450D01*
X71849Y-50509D01*
X71849Y-50291D01*
X71765Y-50089D01*
X71611Y-49935D01*
X71526Y-49900D01*
X71611Y-49865D01*
X71765Y-49711D01*
X71849Y-49509D01*
X71849Y-49291D01*
X71765Y-49089D01*
X71611Y-48935D01*
X71526Y-48900D01*
X71611Y-48865D01*
X71765Y-48711D01*
X71849Y-48509D01*
X71849Y-48291D01*
X71765Y-48089D01*
X71611Y-47935D01*
X71526Y-47900D01*
X71611Y-47865D01*
X71765Y-47711D01*
X71849Y-47509D01*
X71849Y-47291D01*
X71765Y-47089D01*
X71611Y-46935D01*
X71526Y-46900D01*
X71611Y-46865D01*
X71765Y-46711D01*
X71849Y-46509D01*
X71849Y-46291D01*
X71765Y-46089D01*
X71611Y-45935D01*
X71526Y-45900D01*
X71611Y-45865D01*
X71765Y-45711D01*
X71849Y-45509D01*
X71849Y-45291D01*
X71765Y-45089D01*
X71611Y-44935D01*
X71526Y-44900D01*
X71611Y-44865D01*
X71765Y-44711D01*
X71849Y-44509D01*
X71849Y-44291D01*
X71765Y-44089D01*
X71611Y-43935D01*
X71526Y-43900D01*
X71611Y-43865D01*
X71765Y-43711D01*
X71849Y-43509D01*
X71849Y-43291D01*
X71765Y-43089D01*
X71611Y-42935D01*
X71430Y-42859D01*
X71569Y-42803D01*
X71702Y-42669D01*
X71775Y-42495D01*
X71775Y-42306D01*
X71703Y-42131D01*
X71569Y-41998D01*
X71395Y-41925D01*
X71206Y-41925D01*
X71031Y-41997D01*
X70898Y-42131D01*
X70825Y-42305D01*
X70825Y-42494D01*
X70897Y-42669D01*
X71031Y-42802D01*
X71169Y-42860D01*
X70989Y-42935D01*
X70849Y-43075D01*
X70849Y-43051D01*
X70811Y-42959D01*
X70741Y-42889D01*
X70650Y-42851D01*
X70551Y-42851D01*
X70452Y-42851D01*
X70569Y-42803D01*
X70702Y-42669D01*
X70775Y-42495D01*
X70775Y-42306D01*
X70703Y-42131D01*
X70569Y-41998D01*
X70395Y-41925D01*
X70206Y-41925D01*
X70031Y-41997D01*
X69970Y-42058D01*
X69970Y-25662D01*
X69958Y-25477D01*
X69911Y-25363D01*
X69825Y-25346D01*
X69571Y-25600D01*
X69825Y-25854D01*
X69911Y-25837D01*
X69970Y-25662D01*
X69970Y-42058D01*
X69898Y-42131D01*
X69825Y-42305D01*
X69825Y-42494D01*
X69897Y-42669D01*
X70031Y-42802D01*
X70147Y-42851D01*
X69951Y-42851D01*
X69859Y-42889D01*
X69789Y-42959D01*
X69754Y-43042D01*
X69754Y-25925D01*
X69500Y-25671D01*
X69429Y-25742D01*
X69429Y-25600D01*
X69175Y-25346D01*
X69089Y-25363D01*
X69030Y-25538D01*
X69042Y-25723D01*
X69089Y-25837D01*
X69175Y-25854D01*
X69429Y-25600D01*
X69429Y-25742D01*
X69246Y-25925D01*
X69263Y-26011D01*
X69438Y-26070D01*
X69623Y-26058D01*
X69737Y-26011D01*
X69754Y-25925D01*
X69754Y-43042D01*
X69751Y-43050D01*
X69751Y-43149D01*
X69751Y-43749D01*
X69789Y-43841D01*
X69859Y-43911D01*
X69950Y-43949D01*
X69975Y-43949D01*
X69835Y-44089D01*
X69751Y-44291D01*
X69751Y-44509D01*
X69835Y-44711D01*
X69989Y-44865D01*
X70073Y-44900D01*
X69989Y-44935D01*
X69864Y-45060D01*
X68725Y-45060D01*
X68725Y-34605D01*
X68725Y-34396D01*
X68724Y-34393D01*
X68724Y-31825D01*
X68724Y-31726D01*
X68724Y-31176D01*
X68686Y-31084D01*
X68616Y-31014D01*
X68525Y-30976D01*
X68426Y-30976D01*
X67876Y-30976D01*
X67784Y-31014D01*
X67714Y-31084D01*
X67676Y-31175D01*
X67676Y-31274D01*
X67676Y-31277D01*
X67645Y-31203D01*
X67498Y-31055D01*
X67305Y-30975D01*
X67096Y-30975D01*
X66975Y-31025D01*
X66975Y-26695D01*
X66975Y-26506D01*
X66903Y-26331D01*
X66769Y-26198D01*
X66595Y-26125D01*
X66406Y-26125D01*
X66231Y-26197D01*
X66098Y-26331D01*
X66025Y-26505D01*
X66025Y-26694D01*
X66097Y-26869D01*
X66231Y-27002D01*
X66405Y-27075D01*
X66594Y-27075D01*
X66769Y-27003D01*
X66902Y-26869D01*
X66975Y-26695D01*
X66975Y-31025D01*
X66903Y-31055D01*
X66755Y-31202D01*
X66699Y-31335D01*
X66645Y-31203D01*
X66498Y-31055D01*
X66305Y-30975D01*
X66096Y-30975D01*
X65975Y-31025D01*
X65975Y-26695D01*
X65975Y-26506D01*
X65903Y-26331D01*
X65769Y-26198D01*
X65595Y-26125D01*
X65406Y-26125D01*
X65231Y-26197D01*
X65098Y-26331D01*
X65025Y-26505D01*
X65025Y-26694D01*
X65097Y-26869D01*
X65231Y-27002D01*
X65405Y-27075D01*
X65594Y-27075D01*
X65769Y-27003D01*
X65902Y-26869D01*
X65975Y-26695D01*
X65975Y-31025D01*
X65903Y-31055D01*
X65755Y-31202D01*
X65699Y-31335D01*
X65645Y-31203D01*
X65498Y-31055D01*
X65305Y-30975D01*
X65096Y-30975D01*
X64903Y-31055D01*
X64755Y-31202D01*
X64699Y-31335D01*
X64675Y-31276D01*
X64675Y-29595D01*
X64675Y-29406D01*
X64603Y-29231D01*
X64469Y-29098D01*
X64295Y-29025D01*
X64106Y-29025D01*
X63931Y-29097D01*
X63825Y-29203D01*
X63825Y-25185D01*
X63825Y-25016D01*
X63761Y-24860D01*
X63641Y-24740D01*
X63485Y-24675D01*
X63316Y-24675D01*
X63160Y-24739D01*
X63099Y-24800D01*
X60049Y-24800D01*
X60049Y-24251D01*
X60011Y-24159D01*
X59941Y-24089D01*
X59850Y-24051D01*
X59751Y-24051D01*
X59151Y-24051D01*
X59059Y-24089D01*
X58989Y-24159D01*
X58951Y-24250D01*
X58951Y-24275D01*
X58811Y-24135D01*
X58609Y-24051D01*
X58391Y-24051D01*
X58189Y-24135D01*
X58035Y-24289D01*
X58000Y-24373D01*
X57965Y-24289D01*
X57811Y-24135D01*
X57609Y-24051D01*
X57391Y-24051D01*
X57189Y-24135D01*
X57035Y-24289D01*
X56951Y-24491D01*
X56951Y-24709D01*
X57035Y-24911D01*
X57189Y-25065D01*
X57280Y-25102D01*
X57219Y-25128D01*
X57192Y-25222D01*
X57465Y-25494D01*
X57500Y-25529D01*
X57571Y-25600D01*
X57606Y-25635D01*
X57878Y-25908D01*
X57972Y-25881D01*
X57995Y-25815D01*
X58035Y-25911D01*
X58189Y-26065D01*
X58391Y-26149D01*
X58609Y-26149D01*
X58811Y-26065D01*
X58965Y-25911D01*
X59000Y-25826D01*
X59035Y-25911D01*
X59189Y-26065D01*
X59391Y-26149D01*
X59609Y-26149D01*
X59811Y-26065D01*
X59965Y-25911D01*
X60049Y-25709D01*
X60049Y-25491D01*
X60011Y-25400D01*
X63099Y-25400D01*
X63159Y-25460D01*
X63315Y-25525D01*
X63484Y-25525D01*
X63640Y-25461D01*
X63760Y-25341D01*
X63825Y-25185D01*
X63825Y-29203D01*
X63798Y-29231D01*
X63725Y-29405D01*
X63725Y-29594D01*
X63797Y-29769D01*
X63931Y-29902D01*
X64105Y-29975D01*
X64294Y-29975D01*
X64469Y-29903D01*
X64602Y-29769D01*
X64675Y-29595D01*
X64675Y-31276D01*
X64645Y-31203D01*
X64498Y-31055D01*
X64305Y-30975D01*
X64219Y-30975D01*
X64219Y-30574D01*
X64208Y-30370D01*
X64152Y-30233D01*
X64061Y-30210D01*
X63990Y-30281D01*
X63990Y-30139D01*
X63967Y-30048D01*
X63774Y-29981D01*
X63675Y-29986D01*
X63675Y-29595D01*
X63675Y-29406D01*
X63603Y-29231D01*
X63469Y-29098D01*
X63295Y-29025D01*
X63106Y-29025D01*
X62931Y-29097D01*
X62798Y-29231D01*
X62725Y-29405D01*
X62725Y-29594D01*
X62797Y-29769D01*
X62931Y-29902D01*
X63105Y-29975D01*
X63294Y-29975D01*
X63469Y-29903D01*
X63602Y-29769D01*
X63675Y-29595D01*
X63675Y-29986D01*
X63570Y-29992D01*
X63433Y-30048D01*
X63410Y-30139D01*
X63700Y-30429D01*
X63990Y-30139D01*
X63990Y-30281D01*
X63771Y-30500D01*
X64061Y-30790D01*
X64152Y-30767D01*
X64219Y-30574D01*
X64219Y-30975D01*
X64096Y-30975D01*
X63990Y-31018D01*
X63990Y-30861D01*
X63700Y-30571D01*
X63629Y-30642D01*
X63629Y-30500D01*
X63339Y-30210D01*
X63248Y-30233D01*
X63206Y-30351D01*
X63145Y-30203D01*
X62998Y-30055D01*
X62805Y-29975D01*
X62596Y-29975D01*
X62403Y-30055D01*
X62255Y-30202D01*
X62219Y-30288D01*
X62219Y-27174D01*
X62208Y-26970D01*
X62152Y-26833D01*
X62061Y-26810D01*
X61990Y-26881D01*
X61990Y-26739D01*
X61967Y-26648D01*
X61774Y-26581D01*
X61570Y-26592D01*
X61433Y-26648D01*
X61410Y-26739D01*
X61700Y-27029D01*
X61990Y-26739D01*
X61990Y-26881D01*
X61771Y-27100D01*
X62061Y-27390D01*
X62152Y-27367D01*
X62219Y-27174D01*
X62219Y-30288D01*
X62175Y-30395D01*
X62175Y-30604D01*
X62255Y-30797D01*
X62402Y-30945D01*
X62595Y-31025D01*
X62804Y-31025D01*
X62997Y-30945D01*
X63145Y-30798D01*
X63203Y-30657D01*
X63248Y-30767D01*
X63339Y-30790D01*
X63629Y-30500D01*
X63629Y-30642D01*
X63410Y-30861D01*
X63433Y-30952D01*
X63626Y-31019D01*
X63830Y-31008D01*
X63967Y-30952D01*
X63990Y-30861D01*
X63990Y-31018D01*
X63903Y-31055D01*
X63755Y-31202D01*
X63699Y-31335D01*
X63645Y-31203D01*
X63498Y-31055D01*
X63305Y-30975D01*
X63096Y-30975D01*
X62903Y-31055D01*
X62755Y-31202D01*
X62699Y-31335D01*
X62645Y-31203D01*
X62498Y-31055D01*
X62305Y-30975D01*
X62096Y-30975D01*
X61990Y-31018D01*
X61990Y-27461D01*
X61700Y-27171D01*
X61629Y-27242D01*
X61629Y-27100D01*
X61339Y-26810D01*
X61248Y-26833D01*
X61206Y-26951D01*
X61145Y-26803D01*
X60998Y-26655D01*
X60805Y-26575D01*
X60596Y-26575D01*
X60403Y-26655D01*
X60255Y-26802D01*
X60175Y-26995D01*
X60175Y-27204D01*
X60255Y-27397D01*
X60402Y-27545D01*
X60595Y-27625D01*
X60804Y-27625D01*
X60997Y-27545D01*
X61145Y-27398D01*
X61203Y-27257D01*
X61248Y-27367D01*
X61339Y-27390D01*
X61629Y-27100D01*
X61629Y-27242D01*
X61410Y-27461D01*
X61433Y-27552D01*
X61626Y-27619D01*
X61830Y-27608D01*
X61967Y-27552D01*
X61990Y-27461D01*
X61990Y-31018D01*
X61903Y-31055D01*
X61755Y-31202D01*
X61696Y-31342D01*
X61652Y-31233D01*
X61561Y-31210D01*
X61490Y-31281D01*
X61490Y-31139D01*
X61467Y-31048D01*
X61274Y-30981D01*
X61230Y-30983D01*
X61230Y-29006D01*
X61230Y-28795D01*
X61149Y-28600D01*
X61001Y-28451D01*
X60806Y-28370D01*
X60595Y-28370D01*
X60400Y-28451D01*
X60251Y-28599D01*
X60170Y-28794D01*
X60170Y-29005D01*
X60251Y-29200D01*
X60399Y-29349D01*
X60594Y-29430D01*
X60805Y-29430D01*
X61000Y-29349D01*
X61149Y-29201D01*
X61230Y-29006D01*
X61230Y-30983D01*
X61070Y-30992D01*
X60933Y-31048D01*
X60910Y-31139D01*
X61200Y-31429D01*
X61490Y-31139D01*
X61490Y-31281D01*
X61271Y-31500D01*
X61561Y-31790D01*
X61652Y-31767D01*
X61693Y-31648D01*
X61755Y-31797D01*
X61902Y-31945D01*
X62095Y-32025D01*
X62304Y-32025D01*
X62497Y-31945D01*
X62645Y-31798D01*
X62700Y-31664D01*
X62755Y-31797D01*
X62902Y-31945D01*
X63095Y-32025D01*
X63304Y-32025D01*
X63497Y-31945D01*
X63645Y-31798D01*
X63700Y-31664D01*
X63755Y-31797D01*
X63902Y-31945D01*
X64095Y-32025D01*
X64304Y-32025D01*
X64497Y-31945D01*
X64645Y-31798D01*
X64700Y-31664D01*
X64755Y-31797D01*
X64902Y-31945D01*
X65095Y-32025D01*
X65304Y-32025D01*
X65497Y-31945D01*
X65645Y-31798D01*
X65700Y-31664D01*
X65755Y-31797D01*
X65902Y-31945D01*
X66095Y-32025D01*
X66304Y-32025D01*
X66497Y-31945D01*
X66645Y-31798D01*
X66700Y-31664D01*
X66755Y-31797D01*
X66902Y-31945D01*
X67095Y-32025D01*
X67304Y-32025D01*
X67497Y-31945D01*
X67645Y-31798D01*
X67676Y-31723D01*
X67676Y-31824D01*
X67714Y-31916D01*
X67784Y-31986D01*
X67875Y-32024D01*
X67974Y-32024D01*
X68524Y-32024D01*
X68616Y-31986D01*
X68686Y-31916D01*
X68724Y-31825D01*
X68724Y-34393D01*
X68645Y-34203D01*
X68498Y-34055D01*
X68305Y-33975D01*
X68096Y-33975D01*
X67903Y-34055D01*
X67755Y-34202D01*
X67699Y-34335D01*
X67645Y-34203D01*
X67498Y-34055D01*
X67305Y-33975D01*
X67096Y-33975D01*
X66903Y-34055D01*
X66755Y-34202D01*
X66699Y-34335D01*
X66645Y-34203D01*
X66498Y-34055D01*
X66305Y-33975D01*
X66096Y-33975D01*
X65903Y-34055D01*
X65755Y-34202D01*
X65699Y-34335D01*
X65645Y-34203D01*
X65498Y-34055D01*
X65305Y-33975D01*
X65096Y-33975D01*
X64903Y-34055D01*
X64755Y-34202D01*
X64699Y-34335D01*
X64645Y-34203D01*
X64498Y-34055D01*
X64305Y-33975D01*
X64096Y-33975D01*
X63903Y-34055D01*
X63755Y-34202D01*
X63699Y-34335D01*
X63645Y-34203D01*
X63498Y-34055D01*
X63305Y-33975D01*
X63096Y-33975D01*
X62903Y-34055D01*
X62755Y-34202D01*
X62696Y-34342D01*
X62652Y-34233D01*
X62561Y-34210D01*
X62490Y-34281D01*
X62490Y-34139D01*
X62467Y-34048D01*
X62274Y-33981D01*
X62070Y-33992D01*
X61933Y-34048D01*
X61910Y-34139D01*
X62200Y-34429D01*
X62490Y-34139D01*
X62490Y-34281D01*
X62271Y-34500D01*
X62561Y-34790D01*
X62652Y-34767D01*
X62693Y-34648D01*
X62755Y-34797D01*
X62902Y-34945D01*
X63095Y-35025D01*
X63304Y-35025D01*
X63497Y-34945D01*
X63645Y-34798D01*
X63700Y-34664D01*
X63755Y-34797D01*
X63902Y-34945D01*
X64095Y-35025D01*
X64304Y-35025D01*
X64497Y-34945D01*
X64645Y-34798D01*
X64700Y-34664D01*
X64755Y-34797D01*
X64902Y-34945D01*
X65095Y-35025D01*
X65304Y-35025D01*
X65497Y-34945D01*
X65645Y-34798D01*
X65700Y-34664D01*
X65755Y-34797D01*
X65902Y-34945D01*
X66095Y-35025D01*
X66304Y-35025D01*
X66497Y-34945D01*
X66645Y-34798D01*
X66700Y-34664D01*
X66755Y-34797D01*
X66902Y-34945D01*
X67095Y-35025D01*
X67304Y-35025D01*
X67497Y-34945D01*
X67645Y-34798D01*
X67700Y-34664D01*
X67755Y-34797D01*
X67902Y-34945D01*
X68095Y-35025D01*
X68304Y-35025D01*
X68497Y-34945D01*
X68645Y-34798D01*
X68725Y-34605D01*
X68725Y-45060D01*
X68440Y-45060D01*
X68040Y-44660D01*
X67930Y-44586D01*
X67800Y-44560D01*
X64927Y-44560D01*
X64949Y-44509D01*
X64949Y-44291D01*
X64865Y-44089D01*
X64711Y-43935D01*
X64626Y-43900D01*
X64711Y-43865D01*
X64865Y-43711D01*
X64949Y-43509D01*
X64949Y-43291D01*
X64865Y-43089D01*
X64711Y-42935D01*
X64530Y-42859D01*
X64669Y-42803D01*
X64802Y-42669D01*
X64875Y-42495D01*
X64875Y-42306D01*
X64803Y-42131D01*
X64669Y-41998D01*
X64495Y-41925D01*
X64306Y-41925D01*
X64131Y-41997D01*
X63998Y-42131D01*
X63925Y-42305D01*
X63925Y-42494D01*
X63997Y-42669D01*
X64131Y-42802D01*
X64269Y-42860D01*
X64089Y-42935D01*
X63949Y-43075D01*
X63949Y-43051D01*
X63911Y-42959D01*
X63841Y-42889D01*
X63750Y-42851D01*
X63651Y-42851D01*
X63552Y-42851D01*
X63669Y-42803D01*
X63802Y-42669D01*
X63875Y-42495D01*
X63875Y-42306D01*
X63803Y-42131D01*
X63669Y-41998D01*
X63495Y-41925D01*
X63306Y-41925D01*
X63131Y-41997D01*
X62998Y-42131D01*
X62925Y-42305D01*
X62925Y-42494D01*
X62997Y-42669D01*
X63131Y-42802D01*
X63247Y-42851D01*
X63051Y-42851D01*
X62959Y-42889D01*
X62889Y-42959D01*
X62851Y-43050D01*
X62851Y-43149D01*
X62851Y-43749D01*
X62889Y-43841D01*
X62959Y-43911D01*
X63050Y-43949D01*
X63075Y-43949D01*
X62935Y-44089D01*
X62851Y-44291D01*
X62851Y-44509D01*
X62935Y-44711D01*
X63089Y-44865D01*
X63173Y-44900D01*
X63089Y-44935D01*
X62935Y-45089D01*
X62851Y-45291D01*
X62851Y-45509D01*
X62935Y-45711D01*
X63089Y-45865D01*
X63173Y-45900D01*
X63089Y-45935D01*
X62935Y-46089D01*
X62851Y-46291D01*
X62851Y-46509D01*
X62935Y-46711D01*
X63089Y-46865D01*
X63173Y-46900D01*
X63089Y-46935D01*
X62935Y-47089D01*
X62851Y-47291D01*
X62851Y-47509D01*
X62935Y-47711D01*
X63089Y-47865D01*
X63173Y-47900D01*
X63089Y-47935D01*
X62935Y-48089D01*
X62851Y-48291D01*
X62851Y-48509D01*
X62935Y-48711D01*
X63089Y-48865D01*
X63173Y-48900D01*
X63089Y-48935D01*
X62935Y-49089D01*
X62851Y-49291D01*
X62851Y-49509D01*
X62935Y-49711D01*
X63089Y-49865D01*
X63173Y-49900D01*
X63089Y-49935D01*
X62935Y-50089D01*
X62851Y-50291D01*
X62851Y-50509D01*
X62935Y-50711D01*
X63089Y-50865D01*
X63269Y-50940D01*
X63131Y-50997D01*
X62998Y-51131D01*
X62925Y-51305D01*
X62925Y-51494D01*
X62997Y-51669D01*
X63131Y-51802D01*
X63305Y-51875D01*
X63494Y-51875D01*
X63669Y-51803D01*
X63802Y-51669D01*
X63875Y-51495D01*
X63875Y-51306D01*
X63803Y-51131D01*
X63669Y-50998D01*
X63530Y-50939D01*
X63711Y-50865D01*
X63865Y-50711D01*
X63900Y-50626D01*
X63935Y-50711D01*
X64089Y-50865D01*
X64269Y-50940D01*
X64131Y-50997D01*
X63998Y-51131D01*
X63925Y-51305D01*
X63925Y-51494D01*
X63997Y-51669D01*
X64131Y-51802D01*
X64305Y-51875D01*
X64494Y-51875D01*
X64669Y-51803D01*
X64802Y-51669D01*
X64875Y-51495D01*
X64875Y-51306D01*
X64803Y-51131D01*
X64669Y-50998D01*
X64530Y-50939D01*
X64711Y-50865D01*
X64865Y-50711D01*
X64949Y-50509D01*
X64949Y-50291D01*
X64865Y-50089D01*
X64711Y-49935D01*
X64626Y-49900D01*
X64711Y-49865D01*
X64865Y-49711D01*
X64949Y-49509D01*
X64949Y-49291D01*
X64865Y-49089D01*
X64711Y-48935D01*
X64626Y-48900D01*
X64711Y-48865D01*
X64865Y-48711D01*
X64949Y-48509D01*
X64949Y-48291D01*
X64865Y-48089D01*
X64711Y-47935D01*
X64626Y-47900D01*
X64711Y-47865D01*
X64865Y-47711D01*
X64949Y-47509D01*
X64949Y-47291D01*
X64927Y-47240D01*
X65760Y-47240D01*
X66160Y-47640D01*
X66270Y-47714D01*
X66400Y-47740D01*
X69864Y-47740D01*
X69989Y-47865D01*
X70073Y-47900D01*
X69989Y-47935D01*
X69835Y-48089D01*
X69751Y-48291D01*
X69751Y-48509D01*
X69835Y-48711D01*
X69989Y-48865D01*
X70073Y-48900D01*
X69989Y-48935D01*
X69835Y-49089D01*
X69751Y-49291D01*
X69751Y-49509D01*
X69835Y-49711D01*
X69989Y-49865D01*
X70073Y-49900D01*
X69989Y-49935D01*
X69835Y-50089D01*
X69751Y-50291D01*
X69751Y-50509D01*
X69835Y-50711D01*
X69989Y-50865D01*
X70169Y-50940D01*
X70031Y-50997D01*
X69898Y-51131D01*
X69825Y-51305D01*
X69825Y-51494D01*
X69897Y-51669D01*
X70031Y-51802D01*
X70205Y-51875D01*
X70394Y-51875D01*
X70569Y-51803D01*
X70702Y-51669D01*
X70775Y-51495D01*
X70775Y-51306D01*
X70703Y-51131D01*
X70569Y-50998D01*
X70430Y-50939D01*
X70611Y-50865D01*
X70765Y-50711D01*
X70800Y-50626D01*
X70835Y-50711D01*
X70989Y-50865D01*
X71169Y-50940D01*
X71031Y-50997D01*
X70898Y-51131D01*
X70825Y-51305D01*
X70825Y-51494D01*
X70897Y-51669D01*
X71031Y-51802D01*
X71205Y-51875D01*
X71394Y-51875D01*
X71569Y-51803D01*
X71702Y-51669D01*
X71775Y-51495D01*
X71775Y-51306D01*
X71703Y-51131D01*
X71569Y-50998D01*
X71430Y-50939D01*
X71611Y-50865D01*
X71765Y-50711D01*
X71849Y-50509D01*
X71849Y-57450D01*
X70700Y-57450D01*
X70700Y-60950D01*
X62725Y-60950D01*
X62725Y-35605D01*
X62725Y-35396D01*
X62645Y-35203D01*
X62498Y-35055D01*
X62357Y-34996D01*
X62467Y-34952D01*
X62490Y-34861D01*
X62200Y-34571D01*
X61910Y-34861D01*
X61933Y-34952D01*
X62051Y-34993D01*
X61903Y-35055D01*
X61755Y-35202D01*
X61675Y-35395D01*
X61675Y-35406D01*
X61603Y-35231D01*
X61469Y-35098D01*
X61295Y-35025D01*
X61304Y-35025D01*
X61497Y-34945D01*
X61645Y-34798D01*
X61703Y-34657D01*
X61748Y-34767D01*
X61839Y-34790D01*
X62129Y-34500D01*
X61839Y-34210D01*
X61748Y-34233D01*
X61706Y-34351D01*
X61645Y-34203D01*
X61498Y-34055D01*
X61490Y-34051D01*
X61490Y-31861D01*
X61200Y-31571D01*
X60910Y-31861D01*
X60933Y-31952D01*
X61126Y-32019D01*
X61330Y-32008D01*
X61467Y-31952D01*
X61490Y-31861D01*
X61490Y-34051D01*
X61305Y-33975D01*
X61096Y-33975D01*
X60903Y-34055D01*
X60755Y-34202D01*
X60699Y-34335D01*
X60645Y-34203D01*
X60498Y-34055D01*
X60305Y-33975D01*
X60096Y-33975D01*
X59903Y-34055D01*
X59755Y-34202D01*
X59699Y-34335D01*
X59645Y-34203D01*
X59500Y-34057D01*
X59500Y-33201D01*
X59560Y-33141D01*
X59625Y-32985D01*
X59625Y-32816D01*
X59561Y-32660D01*
X59441Y-32540D01*
X59285Y-32475D01*
X59116Y-32475D01*
X59081Y-32489D01*
X59125Y-32385D01*
X59125Y-32216D01*
X59061Y-32060D01*
X58977Y-31976D01*
X59095Y-32025D01*
X59304Y-32025D01*
X59497Y-31945D01*
X59645Y-31798D01*
X59700Y-31664D01*
X59755Y-31797D01*
X59902Y-31945D01*
X60095Y-32025D01*
X60304Y-32025D01*
X60497Y-31945D01*
X60645Y-31798D01*
X60703Y-31657D01*
X60748Y-31767D01*
X60839Y-31790D01*
X61129Y-31500D01*
X60839Y-31210D01*
X60748Y-31233D01*
X60706Y-31351D01*
X60645Y-31203D01*
X60498Y-31055D01*
X60305Y-30975D01*
X60096Y-30975D01*
X59903Y-31055D01*
X59755Y-31202D01*
X59699Y-31335D01*
X59645Y-31203D01*
X59498Y-31055D01*
X59305Y-30975D01*
X59230Y-30975D01*
X59230Y-29006D01*
X59230Y-28795D01*
X59225Y-28782D01*
X59225Y-27205D01*
X59225Y-26996D01*
X59145Y-26803D01*
X58998Y-26655D01*
X58805Y-26575D01*
X58596Y-26575D01*
X58403Y-26655D01*
X58255Y-26802D01*
X58196Y-26942D01*
X58152Y-26833D01*
X58061Y-26810D01*
X57990Y-26881D01*
X57990Y-26739D01*
X57967Y-26648D01*
X57808Y-26592D01*
X57808Y-25978D01*
X57500Y-25671D01*
X57429Y-25741D01*
X57429Y-25600D01*
X57122Y-25292D01*
X57028Y-25319D01*
X56957Y-25521D01*
X56968Y-25734D01*
X57028Y-25881D01*
X57122Y-25908D01*
X57429Y-25600D01*
X57429Y-25741D01*
X57192Y-25978D01*
X57219Y-26072D01*
X57421Y-26143D01*
X57634Y-26132D01*
X57781Y-26072D01*
X57808Y-25978D01*
X57808Y-26592D01*
X57774Y-26581D01*
X57570Y-26592D01*
X57433Y-26648D01*
X57410Y-26739D01*
X57700Y-27029D01*
X57990Y-26739D01*
X57990Y-26881D01*
X57771Y-27100D01*
X58061Y-27390D01*
X58152Y-27367D01*
X58193Y-27248D01*
X58255Y-27397D01*
X58402Y-27545D01*
X58595Y-27625D01*
X58804Y-27625D01*
X58997Y-27545D01*
X59145Y-27398D01*
X59225Y-27205D01*
X59225Y-28782D01*
X59149Y-28600D01*
X59001Y-28451D01*
X58806Y-28370D01*
X58595Y-28370D01*
X58400Y-28451D01*
X58251Y-28599D01*
X58170Y-28794D01*
X58170Y-29005D01*
X58251Y-29200D01*
X58399Y-29349D01*
X58594Y-29430D01*
X58805Y-29430D01*
X59000Y-29349D01*
X59149Y-29201D01*
X59230Y-29006D01*
X59230Y-30975D01*
X59096Y-30975D01*
X58903Y-31055D01*
X58755Y-31202D01*
X58699Y-31335D01*
X58645Y-31203D01*
X58498Y-31055D01*
X58305Y-30975D01*
X58294Y-30975D01*
X58469Y-30903D01*
X58602Y-30769D01*
X58675Y-30595D01*
X58675Y-30406D01*
X58603Y-30231D01*
X58469Y-30098D01*
X58295Y-30025D01*
X58106Y-30025D01*
X57990Y-30072D01*
X57990Y-27461D01*
X57700Y-27171D01*
X57629Y-27242D01*
X57629Y-27100D01*
X57339Y-26810D01*
X57248Y-26833D01*
X57181Y-27026D01*
X57192Y-27230D01*
X57248Y-27367D01*
X57339Y-27390D01*
X57629Y-27100D01*
X57629Y-27242D01*
X57410Y-27461D01*
X57433Y-27552D01*
X57626Y-27619D01*
X57830Y-27608D01*
X57967Y-27552D01*
X57990Y-27461D01*
X57990Y-30072D01*
X57931Y-30097D01*
X57798Y-30231D01*
X57725Y-30405D01*
X57725Y-30594D01*
X57797Y-30769D01*
X57931Y-30902D01*
X58105Y-30975D01*
X58096Y-30975D01*
X57903Y-31055D01*
X57755Y-31202D01*
X57699Y-31335D01*
X57645Y-31203D01*
X57498Y-31055D01*
X57305Y-30975D01*
X57294Y-30975D01*
X57469Y-30903D01*
X57602Y-30769D01*
X57675Y-30595D01*
X57675Y-30406D01*
X57603Y-30231D01*
X57469Y-30098D01*
X57295Y-30025D01*
X57106Y-30025D01*
X56931Y-30097D01*
X56798Y-30231D01*
X56725Y-30405D01*
X56725Y-30594D01*
X56797Y-30769D01*
X56931Y-30902D01*
X57105Y-30975D01*
X57096Y-30975D01*
X56903Y-31055D01*
X56755Y-31202D01*
X56699Y-31335D01*
X56645Y-31203D01*
X56498Y-31055D01*
X56305Y-30975D01*
X56294Y-30975D01*
X56469Y-30903D01*
X56602Y-30769D01*
X56675Y-30595D01*
X56675Y-30406D01*
X56603Y-30231D01*
X56469Y-30098D01*
X56295Y-30025D01*
X56106Y-30025D01*
X56025Y-30058D01*
X56025Y-27605D01*
X56025Y-27396D01*
X55945Y-27203D01*
X55798Y-27055D01*
X55605Y-26975D01*
X55396Y-26975D01*
X55203Y-27055D01*
X55055Y-27202D01*
X54975Y-27395D01*
X54975Y-27604D01*
X55055Y-27797D01*
X55202Y-27945D01*
X55395Y-28025D01*
X55604Y-28025D01*
X55797Y-27945D01*
X55945Y-27798D01*
X56025Y-27605D01*
X56025Y-30058D01*
X55931Y-30097D01*
X55798Y-30231D01*
X55725Y-30405D01*
X55725Y-30594D01*
X55797Y-30769D01*
X55931Y-30902D01*
X56105Y-30975D01*
X56096Y-30975D01*
X55903Y-31055D01*
X55755Y-31202D01*
X55699Y-31335D01*
X55645Y-31203D01*
X55498Y-31055D01*
X55305Y-30975D01*
X55294Y-30975D01*
X55469Y-30903D01*
X55602Y-30769D01*
X55675Y-30595D01*
X55675Y-30406D01*
X55603Y-30231D01*
X55525Y-30153D01*
X55525Y-28905D01*
X55525Y-28696D01*
X55445Y-28503D01*
X55298Y-28355D01*
X55105Y-28275D01*
X54896Y-28275D01*
X54703Y-28355D01*
X54555Y-28502D01*
X54499Y-28635D01*
X54445Y-28503D01*
X54298Y-28355D01*
X54105Y-28275D01*
X54019Y-28275D01*
X54019Y-27574D01*
X54019Y-24574D01*
X54008Y-24370D01*
X53952Y-24233D01*
X53861Y-24210D01*
X53571Y-24500D01*
X53861Y-24790D01*
X53952Y-24767D01*
X54019Y-24574D01*
X54019Y-27574D01*
X54008Y-27370D01*
X53952Y-27233D01*
X53861Y-27210D01*
X53790Y-27281D01*
X53790Y-27139D01*
X53790Y-24861D01*
X53500Y-24571D01*
X53429Y-24642D01*
X53429Y-24500D01*
X53139Y-24210D01*
X53048Y-24233D01*
X52981Y-24426D01*
X52992Y-24630D01*
X53048Y-24767D01*
X53139Y-24790D01*
X53429Y-24500D01*
X53429Y-24642D01*
X53210Y-24861D01*
X53233Y-24952D01*
X53426Y-25019D01*
X53630Y-25008D01*
X53767Y-24952D01*
X53790Y-24861D01*
X53790Y-27139D01*
X53767Y-27048D01*
X53574Y-26981D01*
X53370Y-26992D01*
X53233Y-27048D01*
X53210Y-27139D01*
X53500Y-27429D01*
X53790Y-27139D01*
X53790Y-27281D01*
X53571Y-27500D01*
X53861Y-27790D01*
X53952Y-27767D01*
X54019Y-27574D01*
X54019Y-28275D01*
X53896Y-28275D01*
X53790Y-28318D01*
X53790Y-27861D01*
X53500Y-27571D01*
X53429Y-27642D01*
X53429Y-27500D01*
X53139Y-27210D01*
X53048Y-27233D01*
X52981Y-27426D01*
X52992Y-27630D01*
X53048Y-27767D01*
X53139Y-27790D01*
X53429Y-27500D01*
X53429Y-27642D01*
X53210Y-27861D01*
X53233Y-27952D01*
X53426Y-28019D01*
X53630Y-28008D01*
X53767Y-27952D01*
X53790Y-27861D01*
X53790Y-28318D01*
X53703Y-28355D01*
X53555Y-28502D01*
X53475Y-28695D01*
X53475Y-28904D01*
X53555Y-29097D01*
X53702Y-29245D01*
X53895Y-29325D01*
X54104Y-29325D01*
X54297Y-29245D01*
X54445Y-29098D01*
X54500Y-28964D01*
X54555Y-29097D01*
X54702Y-29245D01*
X54895Y-29325D01*
X55104Y-29325D01*
X55297Y-29245D01*
X55445Y-29098D01*
X55525Y-28905D01*
X55525Y-30153D01*
X55469Y-30098D01*
X55295Y-30025D01*
X55106Y-30025D01*
X54931Y-30097D01*
X54798Y-30231D01*
X54725Y-30405D01*
X54725Y-30594D01*
X54797Y-30769D01*
X54931Y-30902D01*
X55105Y-30975D01*
X55096Y-30975D01*
X54903Y-31055D01*
X54755Y-31202D01*
X54675Y-31395D01*
X54675Y-31604D01*
X54755Y-31797D01*
X54902Y-31945D01*
X55095Y-32025D01*
X55304Y-32025D01*
X55497Y-31945D01*
X55645Y-31798D01*
X55700Y-31664D01*
X55755Y-31797D01*
X55902Y-31945D01*
X56095Y-32025D01*
X56304Y-32025D01*
X56497Y-31945D01*
X56645Y-31798D01*
X56700Y-31664D01*
X56755Y-31797D01*
X56902Y-31945D01*
X57095Y-32025D01*
X57304Y-32025D01*
X57423Y-31975D01*
X57340Y-32059D01*
X57275Y-32215D01*
X57275Y-32301D01*
X56988Y-32588D01*
X56923Y-32685D01*
X56900Y-32800D01*
X56900Y-34057D01*
X56755Y-34202D01*
X56699Y-34335D01*
X56645Y-34203D01*
X56498Y-34055D01*
X56305Y-33975D01*
X56096Y-33975D01*
X55903Y-34055D01*
X55755Y-34202D01*
X55699Y-34335D01*
X55645Y-34203D01*
X55498Y-34055D01*
X55305Y-33975D01*
X55096Y-33975D01*
X54903Y-34055D01*
X54755Y-34202D01*
X54675Y-34395D01*
X54675Y-34604D01*
X54755Y-34797D01*
X54902Y-34945D01*
X55095Y-35025D01*
X55304Y-35025D01*
X55497Y-34945D01*
X55645Y-34798D01*
X55700Y-34664D01*
X55755Y-34797D01*
X55902Y-34945D01*
X56095Y-35025D01*
X56304Y-35025D01*
X56497Y-34945D01*
X56645Y-34798D01*
X56700Y-34664D01*
X56755Y-34797D01*
X56902Y-34945D01*
X57095Y-35025D01*
X57304Y-35025D01*
X57497Y-34945D01*
X57645Y-34798D01*
X57700Y-34664D01*
X57755Y-34797D01*
X57902Y-34945D01*
X58095Y-35025D01*
X58304Y-35025D01*
X58497Y-34945D01*
X58645Y-34798D01*
X58700Y-34664D01*
X58755Y-34797D01*
X58902Y-34945D01*
X59095Y-35025D01*
X59304Y-35025D01*
X59497Y-34945D01*
X59645Y-34798D01*
X59700Y-34664D01*
X59755Y-34797D01*
X59902Y-34945D01*
X60035Y-35000D01*
X59903Y-35055D01*
X59755Y-35202D01*
X59675Y-35395D01*
X59675Y-35604D01*
X59755Y-35797D01*
X59902Y-35945D01*
X60042Y-36003D01*
X59933Y-36048D01*
X59910Y-36139D01*
X60200Y-36429D01*
X60490Y-36139D01*
X60467Y-36048D01*
X60348Y-36006D01*
X60497Y-35945D01*
X60645Y-35798D01*
X60725Y-35605D01*
X60725Y-35594D01*
X60797Y-35769D01*
X60931Y-35902D01*
X61105Y-35975D01*
X61294Y-35975D01*
X61469Y-35903D01*
X61602Y-35769D01*
X61675Y-35595D01*
X61675Y-35604D01*
X61755Y-35797D01*
X61902Y-35945D01*
X62042Y-36003D01*
X61933Y-36048D01*
X61910Y-36139D01*
X62200Y-36429D01*
X62490Y-36139D01*
X62467Y-36048D01*
X62348Y-36006D01*
X62497Y-35945D01*
X62645Y-35798D01*
X62725Y-35605D01*
X62725Y-60950D01*
X62719Y-60950D01*
X62719Y-36574D01*
X62708Y-36370D01*
X62652Y-36233D01*
X62561Y-36210D01*
X62271Y-36500D01*
X62561Y-36790D01*
X62652Y-36767D01*
X62719Y-36574D01*
X62719Y-60950D01*
X62490Y-60950D01*
X62490Y-36861D01*
X62200Y-36571D01*
X62129Y-36642D01*
X62129Y-36500D01*
X61839Y-36210D01*
X61748Y-36233D01*
X61681Y-36426D01*
X61692Y-36630D01*
X61748Y-36767D01*
X61839Y-36790D01*
X62129Y-36500D01*
X62129Y-36642D01*
X61910Y-36861D01*
X61933Y-36952D01*
X62126Y-37019D01*
X62330Y-37008D01*
X62467Y-36952D01*
X62490Y-36861D01*
X62490Y-60950D01*
X60725Y-60950D01*
X60725Y-39985D01*
X60725Y-39816D01*
X60719Y-39801D01*
X60719Y-36574D01*
X60708Y-36370D01*
X60652Y-36233D01*
X60561Y-36210D01*
X60271Y-36500D01*
X60561Y-36790D01*
X60652Y-36767D01*
X60719Y-36574D01*
X60719Y-39801D01*
X60661Y-39660D01*
X60541Y-39540D01*
X60490Y-39518D01*
X60490Y-36861D01*
X60200Y-36571D01*
X60129Y-36642D01*
X60129Y-36500D01*
X59839Y-36210D01*
X59748Y-36233D01*
X59681Y-36426D01*
X59692Y-36630D01*
X59748Y-36767D01*
X59839Y-36790D01*
X60129Y-36500D01*
X60129Y-36642D01*
X59910Y-36861D01*
X59933Y-36952D01*
X60126Y-37019D01*
X60330Y-37008D01*
X60467Y-36952D01*
X60490Y-36861D01*
X60490Y-39518D01*
X60385Y-39475D01*
X60216Y-39475D01*
X60060Y-39539D01*
X59940Y-39659D01*
X59875Y-39815D01*
X59875Y-39830D01*
X58455Y-41250D01*
X56851Y-41250D01*
X56841Y-41240D01*
X56685Y-41175D01*
X56550Y-41175D01*
X56550Y-40800D01*
X56549Y-40799D01*
X56516Y-40628D01*
X56515Y-40627D01*
X56483Y-40579D01*
X56418Y-40482D01*
X56418Y-40481D01*
X53625Y-37688D01*
X53625Y-33705D01*
X53625Y-33496D01*
X53619Y-33481D01*
X53619Y-32674D01*
X53608Y-32470D01*
X53552Y-32333D01*
X53461Y-32310D01*
X53390Y-32381D01*
X53390Y-32239D01*
X53367Y-32148D01*
X53174Y-32081D01*
X52970Y-32092D01*
X52833Y-32148D01*
X52810Y-32239D01*
X53100Y-32529D01*
X53390Y-32239D01*
X53390Y-32381D01*
X53171Y-32600D01*
X53461Y-32890D01*
X53552Y-32867D01*
X53619Y-32674D01*
X53619Y-33481D01*
X53545Y-33303D01*
X53398Y-33155D01*
X53257Y-33096D01*
X53367Y-33052D01*
X53390Y-32961D01*
X53100Y-32671D01*
X53029Y-32742D01*
X53029Y-32600D01*
X52739Y-32310D01*
X52719Y-32315D01*
X52719Y-26874D01*
X52708Y-26670D01*
X52652Y-26533D01*
X52561Y-26510D01*
X52490Y-26581D01*
X52490Y-26439D01*
X52467Y-26348D01*
X52274Y-26281D01*
X52070Y-26292D01*
X51933Y-26348D01*
X51910Y-26439D01*
X52200Y-26729D01*
X52490Y-26439D01*
X52490Y-26581D01*
X52271Y-26800D01*
X52561Y-27090D01*
X52652Y-27067D01*
X52719Y-26874D01*
X52719Y-32315D01*
X52648Y-32333D01*
X52581Y-32526D01*
X52592Y-32730D01*
X52648Y-32867D01*
X52739Y-32890D01*
X53029Y-32600D01*
X53029Y-32742D01*
X52810Y-32961D01*
X52833Y-33052D01*
X52951Y-33093D01*
X52803Y-33155D01*
X52655Y-33302D01*
X52575Y-33495D01*
X52575Y-33704D01*
X52655Y-33897D01*
X52802Y-34045D01*
X52995Y-34125D01*
X53204Y-34125D01*
X53397Y-34045D01*
X53545Y-33898D01*
X53625Y-33705D01*
X53625Y-37688D01*
X52490Y-36553D01*
X52490Y-27161D01*
X52200Y-26871D01*
X52129Y-26942D01*
X52129Y-26800D01*
X51839Y-26510D01*
X51748Y-26533D01*
X51706Y-26651D01*
X51645Y-26503D01*
X51498Y-26355D01*
X51305Y-26275D01*
X51096Y-26275D01*
X50903Y-26355D01*
X50755Y-26502D01*
X50675Y-26695D01*
X50675Y-26904D01*
X50755Y-27097D01*
X50902Y-27245D01*
X51095Y-27325D01*
X51304Y-27325D01*
X51497Y-27245D01*
X51645Y-27098D01*
X51703Y-26957D01*
X51748Y-27067D01*
X51839Y-27090D01*
X52129Y-26800D01*
X52129Y-26942D01*
X51910Y-27161D01*
X51933Y-27252D01*
X52126Y-27319D01*
X52330Y-27308D01*
X52467Y-27252D01*
X52490Y-27161D01*
X52490Y-36553D01*
X52275Y-36338D01*
X52275Y-33795D01*
X52275Y-33606D01*
X52203Y-33431D01*
X52069Y-33298D01*
X51895Y-33225D01*
X51706Y-33225D01*
X51531Y-33297D01*
X51398Y-33431D01*
X51325Y-33605D01*
X51325Y-33794D01*
X51397Y-33969D01*
X51531Y-34102D01*
X51705Y-34175D01*
X51894Y-34175D01*
X52069Y-34103D01*
X52202Y-33969D01*
X52275Y-33795D01*
X52275Y-36338D01*
X50060Y-34124D01*
X50424Y-34124D01*
X50516Y-34086D01*
X50586Y-34016D01*
X50624Y-33925D01*
X50624Y-33826D01*
X50624Y-33276D01*
X50586Y-33184D01*
X50516Y-33114D01*
X50425Y-33076D01*
X50326Y-33076D01*
X50322Y-33076D01*
X50397Y-33045D01*
X50545Y-32898D01*
X50625Y-32705D01*
X50625Y-32496D01*
X50545Y-32303D01*
X50398Y-32155D01*
X50205Y-32075D01*
X49996Y-32075D01*
X49803Y-32155D01*
X49655Y-32302D01*
X49575Y-32495D01*
X49575Y-32704D01*
X49655Y-32897D01*
X49802Y-33045D01*
X49876Y-33076D01*
X49776Y-33076D01*
X49684Y-33114D01*
X49614Y-33184D01*
X49576Y-33275D01*
X49576Y-33374D01*
X49576Y-33639D01*
X48895Y-32958D01*
X48895Y-27638D01*
X48895Y-27163D01*
X48872Y-27107D01*
X48872Y-25230D01*
X48871Y-24764D01*
X48694Y-24340D01*
X48535Y-24236D01*
X47771Y-25000D01*
X48535Y-25764D01*
X48694Y-25660D01*
X48872Y-25230D01*
X48872Y-27107D01*
X48713Y-26724D01*
X48464Y-26474D01*
X48377Y-26387D01*
X47938Y-26205D01*
X47463Y-26205D01*
X47024Y-26387D01*
X46840Y-26570D01*
X46895Y-26438D01*
X46895Y-25963D01*
X46861Y-25882D01*
X46910Y-25931D01*
X46963Y-25877D01*
X47040Y-25994D01*
X47470Y-26172D01*
X47936Y-26171D01*
X48360Y-25994D01*
X48464Y-25835D01*
X47735Y-25106D01*
X47700Y-25071D01*
X47629Y-25000D01*
X47594Y-24965D01*
X46865Y-24236D01*
X46706Y-24340D01*
X46528Y-24770D01*
X46529Y-25236D01*
X46603Y-25413D01*
X46377Y-25187D01*
X45938Y-25005D01*
X45463Y-25005D01*
X45024Y-25187D01*
X44687Y-25523D01*
X44505Y-25962D01*
X44505Y-26437D01*
X44687Y-26876D01*
X45023Y-27213D01*
X45462Y-27395D01*
X45937Y-27395D01*
X46376Y-27213D01*
X46559Y-27029D01*
X46505Y-27162D01*
X46505Y-27637D01*
X46687Y-28076D01*
X47023Y-28413D01*
X47462Y-28595D01*
X47937Y-28595D01*
X48376Y-28413D01*
X48713Y-28077D01*
X48895Y-27638D01*
X48895Y-32958D01*
X44734Y-28798D01*
X44695Y-28703D01*
X44548Y-28555D01*
X44355Y-28475D01*
X44146Y-28475D01*
X43953Y-28555D01*
X43805Y-28702D01*
X43800Y-28714D01*
X43800Y-25271D01*
X43800Y-24729D01*
X43521Y-24450D01*
X42979Y-24450D01*
X42700Y-24729D01*
X42700Y-25271D01*
X42979Y-25550D01*
X43095Y-25550D01*
X42981Y-25597D01*
X42848Y-25731D01*
X42775Y-25905D01*
X42775Y-26094D01*
X42847Y-26269D01*
X42981Y-26402D01*
X43155Y-26475D01*
X43344Y-26475D01*
X43519Y-26403D01*
X43652Y-26269D01*
X43725Y-26095D01*
X43725Y-25906D01*
X43653Y-25731D01*
X43519Y-25598D01*
X43404Y-25550D01*
X43521Y-25550D01*
X43800Y-25271D01*
X43800Y-28714D01*
X43725Y-28895D01*
X43725Y-27095D01*
X43725Y-26906D01*
X43653Y-26731D01*
X43519Y-26598D01*
X43345Y-26525D01*
X43156Y-26525D01*
X42981Y-26597D01*
X42848Y-26731D01*
X42775Y-26905D01*
X42775Y-27094D01*
X42847Y-27269D01*
X42981Y-27402D01*
X43155Y-27475D01*
X43344Y-27475D01*
X43519Y-27403D01*
X43652Y-27269D01*
X43725Y-27095D01*
X43725Y-28895D01*
X43725Y-29104D01*
X43800Y-29284D01*
X43805Y-29297D01*
X43952Y-29445D01*
X44145Y-29525D01*
X44188Y-29525D01*
X47893Y-33230D01*
X47731Y-33297D01*
X47598Y-33431D01*
X47525Y-33605D01*
X47525Y-33794D01*
X47597Y-33969D01*
X47731Y-34102D01*
X47905Y-34175D01*
X48094Y-34175D01*
X48269Y-34103D01*
X48402Y-33969D01*
X48470Y-33806D01*
X55650Y-40986D01*
X55650Y-41600D01*
X55650Y-43600D01*
X55650Y-45600D01*
X55650Y-47600D01*
X55650Y-49600D01*
X55650Y-51600D01*
X55650Y-53600D01*
X55650Y-55500D01*
X55684Y-55672D01*
X55782Y-55818D01*
X55928Y-55916D01*
X56100Y-55950D01*
X56272Y-55916D01*
X56357Y-55858D01*
X56359Y-55860D01*
X56515Y-55925D01*
X56684Y-55925D01*
X56840Y-55861D01*
X56960Y-55741D01*
X57025Y-55585D01*
X57025Y-55416D01*
X56961Y-55260D01*
X56841Y-55140D01*
X56685Y-55075D01*
X56550Y-55075D01*
X56550Y-54025D01*
X56684Y-54025D01*
X56840Y-53961D01*
X56960Y-53841D01*
X57025Y-53685D01*
X57025Y-53516D01*
X56961Y-53360D01*
X56841Y-53240D01*
X56685Y-53175D01*
X56550Y-53175D01*
X56550Y-52025D01*
X56684Y-52025D01*
X56840Y-51961D01*
X56960Y-51841D01*
X57025Y-51685D01*
X57025Y-51516D01*
X56961Y-51360D01*
X56841Y-51240D01*
X56685Y-51175D01*
X56550Y-51175D01*
X56550Y-50025D01*
X56684Y-50025D01*
X56840Y-49961D01*
X56960Y-49841D01*
X57025Y-49685D01*
X57025Y-49516D01*
X56961Y-49360D01*
X56841Y-49240D01*
X56685Y-49175D01*
X56550Y-49175D01*
X56550Y-48025D01*
X56684Y-48025D01*
X56840Y-47961D01*
X56960Y-47841D01*
X57025Y-47685D01*
X57025Y-47516D01*
X56961Y-47360D01*
X56841Y-47240D01*
X56685Y-47175D01*
X56550Y-47175D01*
X56550Y-46025D01*
X56684Y-46025D01*
X56840Y-45961D01*
X56960Y-45841D01*
X57025Y-45685D01*
X57025Y-45516D01*
X56961Y-45360D01*
X56841Y-45240D01*
X56685Y-45175D01*
X56550Y-45175D01*
X56550Y-44025D01*
X56684Y-44025D01*
X56840Y-43961D01*
X56960Y-43841D01*
X57025Y-43685D01*
X57025Y-43516D01*
X56961Y-43360D01*
X56841Y-43240D01*
X56685Y-43175D01*
X56550Y-43175D01*
X56550Y-42025D01*
X56684Y-42025D01*
X56840Y-41961D01*
X56851Y-41950D01*
X58600Y-41950D01*
X58600Y-41949D01*
X58734Y-41923D01*
X58847Y-41847D01*
X60369Y-40325D01*
X60384Y-40325D01*
X60540Y-40261D01*
X60660Y-40141D01*
X60725Y-39985D01*
X60725Y-60950D01*
X47125Y-60950D01*
X47125Y-57805D01*
X47125Y-57596D01*
X47045Y-57403D01*
X46898Y-57255D01*
X46764Y-57199D01*
X46897Y-57145D01*
X47045Y-56998D01*
X47125Y-56805D01*
X47125Y-56596D01*
X47045Y-56403D01*
X46898Y-56255D01*
X46764Y-56199D01*
X46897Y-56145D01*
X47045Y-55998D01*
X47125Y-55805D01*
X47125Y-55596D01*
X47045Y-55403D01*
X46898Y-55255D01*
X46764Y-55199D01*
X46897Y-55145D01*
X47045Y-54998D01*
X47125Y-54805D01*
X47125Y-54596D01*
X47045Y-54403D01*
X46898Y-54255D01*
X46764Y-54199D01*
X46897Y-54145D01*
X47045Y-53998D01*
X47125Y-53805D01*
X47125Y-53596D01*
X47045Y-53403D01*
X46898Y-53255D01*
X46764Y-53199D01*
X46897Y-53145D01*
X47045Y-52998D01*
X47125Y-52805D01*
X47125Y-52596D01*
X47119Y-52581D01*
X47119Y-51774D01*
X47108Y-51570D01*
X47052Y-51433D01*
X46961Y-51410D01*
X46890Y-51481D01*
X46890Y-51339D01*
X46867Y-51248D01*
X46825Y-51233D01*
X46825Y-32705D01*
X46825Y-32496D01*
X46745Y-32303D01*
X46598Y-32155D01*
X46405Y-32075D01*
X46196Y-32075D01*
X46003Y-32155D01*
X45855Y-32302D01*
X45775Y-32495D01*
X45775Y-32704D01*
X45855Y-32897D01*
X46002Y-33045D01*
X46076Y-33076D01*
X45976Y-33076D01*
X45884Y-33114D01*
X45814Y-33184D01*
X45776Y-33275D01*
X45776Y-33374D01*
X45776Y-33924D01*
X45814Y-34016D01*
X45884Y-34086D01*
X45975Y-34124D01*
X46074Y-34124D01*
X46624Y-34124D01*
X46716Y-34086D01*
X46786Y-34016D01*
X46824Y-33925D01*
X46824Y-33826D01*
X46824Y-33276D01*
X46786Y-33184D01*
X46716Y-33114D01*
X46625Y-33076D01*
X46526Y-33076D01*
X46522Y-33076D01*
X46597Y-33045D01*
X46745Y-32898D01*
X46825Y-32705D01*
X46825Y-51233D01*
X46674Y-51181D01*
X46470Y-51192D01*
X46333Y-51248D01*
X46310Y-51339D01*
X46600Y-51629D01*
X46890Y-51339D01*
X46890Y-51481D01*
X46671Y-51700D01*
X46961Y-51990D01*
X47052Y-51967D01*
X47119Y-51774D01*
X47119Y-52581D01*
X47045Y-52403D01*
X46898Y-52255D01*
X46757Y-52196D01*
X46867Y-52152D01*
X46890Y-52061D01*
X46600Y-51771D01*
X46529Y-51842D01*
X46529Y-51700D01*
X46239Y-51410D01*
X46148Y-51433D01*
X46125Y-51499D01*
X46125Y-45605D01*
X46125Y-45396D01*
X46045Y-45203D01*
X45898Y-45055D01*
X45764Y-44999D01*
X45897Y-44945D01*
X46045Y-44798D01*
X46125Y-44605D01*
X46125Y-44396D01*
X46045Y-44203D01*
X45898Y-44055D01*
X45764Y-43999D01*
X45897Y-43945D01*
X46045Y-43798D01*
X46125Y-43605D01*
X46125Y-43396D01*
X46045Y-43203D01*
X45898Y-43055D01*
X45764Y-42999D01*
X45897Y-42945D01*
X46045Y-42798D01*
X46125Y-42605D01*
X46125Y-42396D01*
X46045Y-42203D01*
X45898Y-42055D01*
X45764Y-41999D01*
X45897Y-41945D01*
X46045Y-41798D01*
X46125Y-41605D01*
X46125Y-41396D01*
X46045Y-41203D01*
X45898Y-41055D01*
X45764Y-40999D01*
X45897Y-40945D01*
X46045Y-40798D01*
X46125Y-40605D01*
X46125Y-40396D01*
X46045Y-40203D01*
X45898Y-40055D01*
X45764Y-39999D01*
X45897Y-39945D01*
X46045Y-39798D01*
X46125Y-39605D01*
X46125Y-39396D01*
X46045Y-39203D01*
X45898Y-39055D01*
X45823Y-39024D01*
X45924Y-39024D01*
X46016Y-38986D01*
X46086Y-38916D01*
X46124Y-38825D01*
X46124Y-38726D01*
X46124Y-38176D01*
X46086Y-38084D01*
X46016Y-38014D01*
X45925Y-37976D01*
X45826Y-37976D01*
X45276Y-37976D01*
X45184Y-38014D01*
X45114Y-38084D01*
X45076Y-38175D01*
X45076Y-38274D01*
X45076Y-38824D01*
X45114Y-38916D01*
X45184Y-38986D01*
X45275Y-39024D01*
X45374Y-39024D01*
X45303Y-39055D01*
X45155Y-39202D01*
X45075Y-39395D01*
X45075Y-39604D01*
X45155Y-39797D01*
X45302Y-39945D01*
X45435Y-40000D01*
X45303Y-40055D01*
X45155Y-40202D01*
X45075Y-40395D01*
X45075Y-40604D01*
X45155Y-40797D01*
X45302Y-40945D01*
X45435Y-41000D01*
X45303Y-41055D01*
X45155Y-41202D01*
X45075Y-41395D01*
X45075Y-41604D01*
X45155Y-41797D01*
X45302Y-41945D01*
X45435Y-42000D01*
X45303Y-42055D01*
X45155Y-42202D01*
X45075Y-42395D01*
X45075Y-42604D01*
X45155Y-42797D01*
X45302Y-42945D01*
X45435Y-43000D01*
X45303Y-43055D01*
X45155Y-43202D01*
X45075Y-43395D01*
X45075Y-43604D01*
X45155Y-43797D01*
X45302Y-43945D01*
X45435Y-44000D01*
X45303Y-44055D01*
X45155Y-44202D01*
X45075Y-44395D01*
X45075Y-44604D01*
X45155Y-44797D01*
X45302Y-44945D01*
X45435Y-45000D01*
X45303Y-45055D01*
X45155Y-45202D01*
X45075Y-45395D01*
X45075Y-45604D01*
X45155Y-45797D01*
X45302Y-45945D01*
X45495Y-46025D01*
X45704Y-46025D01*
X45897Y-45945D01*
X46045Y-45798D01*
X46125Y-45605D01*
X46125Y-51499D01*
X46081Y-51626D01*
X46092Y-51830D01*
X46148Y-51967D01*
X46239Y-51990D01*
X46529Y-51700D01*
X46529Y-51842D01*
X46310Y-52061D01*
X46333Y-52152D01*
X46451Y-52193D01*
X46303Y-52255D01*
X46155Y-52402D01*
X46075Y-52595D01*
X46075Y-52804D01*
X46155Y-52997D01*
X46302Y-53145D01*
X46435Y-53200D01*
X46303Y-53255D01*
X46155Y-53402D01*
X46075Y-53595D01*
X46075Y-53804D01*
X46155Y-53997D01*
X46302Y-54145D01*
X46435Y-54200D01*
X46303Y-54255D01*
X46155Y-54402D01*
X46075Y-54595D01*
X46075Y-54804D01*
X46155Y-54997D01*
X46302Y-55145D01*
X46435Y-55200D01*
X46303Y-55255D01*
X46155Y-55402D01*
X46075Y-55595D01*
X46075Y-55804D01*
X46155Y-55997D01*
X46302Y-56145D01*
X46435Y-56200D01*
X46303Y-56255D01*
X46155Y-56402D01*
X46075Y-56595D01*
X46075Y-56804D01*
X46155Y-56997D01*
X46302Y-57145D01*
X46435Y-57200D01*
X46303Y-57255D01*
X46155Y-57402D01*
X46075Y-57595D01*
X46075Y-57804D01*
X46155Y-57997D01*
X46302Y-58145D01*
X46376Y-58176D01*
X46276Y-58176D01*
X46184Y-58214D01*
X46114Y-58284D01*
X46076Y-58375D01*
X46076Y-58474D01*
X46076Y-59024D01*
X46114Y-59116D01*
X46184Y-59186D01*
X46275Y-59224D01*
X46374Y-59224D01*
X46924Y-59224D01*
X47016Y-59186D01*
X47086Y-59116D01*
X47124Y-59025D01*
X47124Y-58926D01*
X47124Y-58376D01*
X47086Y-58284D01*
X47016Y-58214D01*
X46925Y-58176D01*
X46826Y-58176D01*
X46822Y-58176D01*
X46897Y-58145D01*
X47045Y-57998D01*
X47125Y-57805D01*
X47125Y-60950D01*
X45525Y-60950D01*
X45525Y-49585D01*
X45525Y-49416D01*
X45461Y-49260D01*
X45341Y-49140D01*
X45185Y-49075D01*
X45016Y-49075D01*
X44860Y-49139D01*
X44799Y-49200D01*
X44774Y-49200D01*
X44774Y-32325D01*
X44774Y-32226D01*
X44774Y-31676D01*
X44736Y-31584D01*
X44666Y-31514D01*
X44575Y-31476D01*
X44476Y-31476D01*
X43926Y-31476D01*
X43834Y-31514D01*
X43800Y-31548D01*
X43764Y-31584D01*
X43726Y-31675D01*
X43726Y-31774D01*
X43726Y-32324D01*
X43764Y-32416D01*
X43800Y-32452D01*
X43834Y-32486D01*
X43925Y-32524D01*
X44024Y-32524D01*
X44574Y-32524D01*
X44666Y-32486D01*
X44736Y-32416D01*
X44774Y-32325D01*
X44774Y-49200D01*
X44625Y-49200D01*
X44625Y-47605D01*
X44625Y-47396D01*
X44545Y-47203D01*
X44398Y-47055D01*
X44264Y-46999D01*
X44397Y-46945D01*
X44545Y-46798D01*
X44625Y-46605D01*
X44625Y-46396D01*
X44545Y-46203D01*
X44398Y-46055D01*
X44264Y-45999D01*
X44397Y-45945D01*
X44545Y-45798D01*
X44625Y-45605D01*
X44625Y-45396D01*
X44545Y-45203D01*
X44398Y-45055D01*
X44264Y-44999D01*
X44397Y-44945D01*
X44545Y-44798D01*
X44625Y-44605D01*
X44625Y-44396D01*
X44545Y-44203D01*
X44398Y-44055D01*
X44264Y-43999D01*
X44397Y-43945D01*
X44545Y-43798D01*
X44625Y-43605D01*
X44625Y-43396D01*
X44545Y-43203D01*
X44398Y-43055D01*
X44264Y-42999D01*
X44397Y-42945D01*
X44545Y-42798D01*
X44625Y-42605D01*
X44625Y-42396D01*
X44619Y-42381D01*
X44619Y-41574D01*
X44608Y-41370D01*
X44552Y-41233D01*
X44461Y-41210D01*
X44390Y-41281D01*
X44390Y-41139D01*
X44367Y-41048D01*
X44174Y-40981D01*
X43970Y-40992D01*
X43833Y-41048D01*
X43810Y-41139D01*
X44100Y-41429D01*
X44390Y-41139D01*
X44390Y-41281D01*
X44171Y-41500D01*
X44461Y-41790D01*
X44552Y-41767D01*
X44619Y-41574D01*
X44619Y-42381D01*
X44545Y-42203D01*
X44398Y-42055D01*
X44257Y-41996D01*
X44367Y-41952D01*
X44390Y-41861D01*
X44100Y-41571D01*
X44029Y-41642D01*
X44029Y-41500D01*
X43800Y-41271D01*
X43739Y-41210D01*
X43648Y-41233D01*
X43581Y-41426D01*
X43592Y-41630D01*
X43648Y-41767D01*
X43739Y-41790D01*
X43800Y-41729D01*
X44029Y-41500D01*
X44029Y-41642D01*
X43810Y-41861D01*
X43833Y-41952D01*
X43951Y-41993D01*
X43803Y-42055D01*
X43800Y-42057D01*
X43655Y-42202D01*
X43575Y-42395D01*
X43575Y-42604D01*
X43655Y-42797D01*
X43800Y-42942D01*
X43802Y-42945D01*
X43935Y-43000D01*
X43803Y-43055D01*
X43800Y-43057D01*
X43655Y-43202D01*
X43575Y-43395D01*
X43575Y-43604D01*
X43655Y-43797D01*
X43800Y-43942D01*
X43802Y-43945D01*
X43935Y-44000D01*
X43803Y-44055D01*
X43800Y-44057D01*
X43655Y-44202D01*
X43575Y-44395D01*
X43575Y-44604D01*
X43655Y-44797D01*
X43800Y-44942D01*
X43802Y-44945D01*
X43935Y-45000D01*
X43803Y-45055D01*
X43800Y-45057D01*
X43655Y-45202D01*
X43575Y-45395D01*
X43575Y-45604D01*
X43655Y-45797D01*
X43800Y-45942D01*
X43802Y-45945D01*
X43935Y-46000D01*
X43803Y-46055D01*
X43800Y-46057D01*
X43655Y-46202D01*
X43575Y-46395D01*
X43575Y-46604D01*
X43655Y-46797D01*
X43800Y-46942D01*
X43802Y-46945D01*
X43935Y-47000D01*
X43803Y-47055D01*
X43800Y-47057D01*
X43655Y-47202D01*
X43575Y-47395D01*
X43575Y-47604D01*
X43655Y-47797D01*
X43800Y-47942D01*
X43802Y-47945D01*
X43876Y-47976D01*
X43800Y-47976D01*
X43776Y-47976D01*
X43684Y-48014D01*
X43614Y-48084D01*
X43576Y-48175D01*
X43576Y-48274D01*
X43576Y-48824D01*
X43614Y-48916D01*
X43684Y-48986D01*
X43775Y-49024D01*
X43800Y-49024D01*
X43874Y-49024D01*
X44424Y-49024D01*
X44516Y-48986D01*
X44586Y-48916D01*
X44624Y-48825D01*
X44624Y-48726D01*
X44624Y-48176D01*
X44586Y-48084D01*
X44516Y-48014D01*
X44425Y-47976D01*
X44326Y-47976D01*
X44322Y-47976D01*
X44397Y-47945D01*
X44545Y-47798D01*
X44625Y-47605D01*
X44625Y-49200D01*
X43800Y-49200D01*
X43324Y-49200D01*
X43200Y-49076D01*
X43200Y-47800D01*
X43177Y-47685D01*
X43112Y-47588D01*
X42812Y-47288D01*
X42715Y-47223D01*
X42675Y-47215D01*
X42675Y-26095D01*
X42675Y-25906D01*
X42670Y-25893D01*
X42670Y-25062D01*
X42658Y-24877D01*
X42611Y-24763D01*
X42525Y-24746D01*
X42454Y-24817D01*
X42454Y-24675D01*
X42437Y-24589D01*
X42262Y-24530D01*
X42077Y-24542D01*
X41963Y-24589D01*
X41946Y-24675D01*
X42200Y-24929D01*
X42454Y-24675D01*
X42454Y-24817D01*
X42271Y-25000D01*
X42525Y-25254D01*
X42611Y-25237D01*
X42670Y-25062D01*
X42670Y-25893D01*
X42603Y-25731D01*
X42469Y-25598D01*
X42454Y-25591D01*
X42454Y-25325D01*
X42200Y-25071D01*
X42129Y-25142D01*
X42129Y-25000D01*
X41875Y-24746D01*
X41789Y-24763D01*
X41730Y-24938D01*
X41742Y-25123D01*
X41789Y-25237D01*
X41875Y-25254D01*
X42129Y-25000D01*
X42129Y-25142D01*
X41946Y-25325D01*
X41963Y-25411D01*
X42138Y-25470D01*
X42323Y-25458D01*
X42437Y-25411D01*
X42454Y-25325D01*
X42454Y-25591D01*
X42295Y-25525D01*
X42106Y-25525D01*
X41931Y-25597D01*
X41798Y-25731D01*
X41725Y-25905D01*
X41725Y-26094D01*
X41797Y-26269D01*
X41931Y-26402D01*
X42105Y-26475D01*
X42294Y-26475D01*
X42469Y-26403D01*
X42602Y-26269D01*
X42675Y-26095D01*
X42675Y-47215D01*
X42600Y-47200D01*
X41849Y-47200D01*
X41849Y-34900D01*
X41849Y-34801D01*
X41849Y-34101D01*
X41849Y-32400D01*
X41849Y-32301D01*
X41849Y-31601D01*
X41843Y-31586D01*
X41843Y-30091D01*
X41832Y-29856D01*
X41763Y-29690D01*
X41664Y-29657D01*
X41593Y-29728D01*
X41593Y-29586D01*
X41560Y-29487D01*
X41341Y-29407D01*
X41106Y-29418D01*
X40940Y-29487D01*
X40907Y-29586D01*
X41250Y-29929D01*
X41593Y-29586D01*
X41593Y-29728D01*
X41321Y-30000D01*
X41664Y-30343D01*
X41763Y-30310D01*
X41843Y-30091D01*
X41843Y-31586D01*
X41811Y-31509D01*
X41741Y-31439D01*
X41650Y-31401D01*
X41593Y-31401D01*
X41593Y-30414D01*
X41250Y-30071D01*
X41179Y-30142D01*
X41179Y-30000D01*
X40836Y-29657D01*
X40737Y-29690D01*
X40657Y-29909D01*
X40668Y-30144D01*
X40737Y-30310D01*
X40836Y-30343D01*
X41179Y-30000D01*
X41179Y-30142D01*
X40907Y-30414D01*
X40940Y-30513D01*
X41159Y-30593D01*
X41394Y-30582D01*
X41560Y-30513D01*
X41593Y-30414D01*
X41593Y-31401D01*
X41551Y-31401D01*
X40851Y-31401D01*
X40759Y-31439D01*
X40689Y-31509D01*
X40651Y-31600D01*
X40651Y-31699D01*
X40651Y-32399D01*
X40689Y-32491D01*
X40759Y-32561D01*
X40850Y-32599D01*
X40949Y-32599D01*
X41649Y-32599D01*
X41741Y-32561D01*
X41811Y-32491D01*
X41849Y-32400D01*
X41849Y-34101D01*
X41811Y-34009D01*
X41741Y-33939D01*
X41650Y-33901D01*
X41551Y-33901D01*
X41145Y-33901D01*
X39497Y-32253D01*
X39384Y-32177D01*
X39250Y-32150D01*
X38497Y-32150D01*
X38339Y-31992D01*
X38119Y-31901D01*
X37881Y-31901D01*
X37661Y-31992D01*
X37492Y-32161D01*
X37401Y-32381D01*
X37401Y-32619D01*
X37492Y-32839D01*
X37567Y-32914D01*
X37509Y-32939D01*
X37439Y-33009D01*
X37401Y-33100D01*
X37401Y-33199D01*
X37400Y-33388D01*
X37462Y-33450D01*
X37900Y-33450D01*
X37950Y-33450D01*
X38050Y-33450D01*
X38100Y-33450D01*
X38538Y-33450D01*
X38600Y-33388D01*
X38599Y-33199D01*
X38599Y-33100D01*
X38561Y-33009D01*
X38491Y-32939D01*
X38432Y-32914D01*
X38497Y-32850D01*
X39105Y-32850D01*
X40651Y-34395D01*
X40651Y-34899D01*
X40689Y-34991D01*
X40759Y-35061D01*
X40850Y-35099D01*
X40949Y-35099D01*
X41649Y-35099D01*
X41741Y-35061D01*
X41811Y-34991D01*
X41849Y-34900D01*
X41849Y-47200D01*
X41843Y-47200D01*
X41843Y-36591D01*
X41832Y-36356D01*
X41763Y-36190D01*
X41664Y-36157D01*
X41593Y-36228D01*
X41593Y-36086D01*
X41560Y-35987D01*
X41341Y-35907D01*
X41106Y-35918D01*
X40940Y-35987D01*
X40907Y-36086D01*
X41250Y-36429D01*
X41593Y-36086D01*
X41593Y-36228D01*
X41321Y-36500D01*
X41664Y-36843D01*
X41763Y-36810D01*
X41843Y-36591D01*
X41843Y-47200D01*
X41542Y-47200D01*
X41398Y-47055D01*
X41264Y-46999D01*
X41397Y-46945D01*
X41545Y-46798D01*
X41625Y-46605D01*
X41625Y-46396D01*
X41545Y-46203D01*
X41398Y-46055D01*
X41264Y-45999D01*
X41397Y-45945D01*
X41545Y-45798D01*
X41625Y-45605D01*
X41625Y-45396D01*
X41545Y-45203D01*
X41398Y-45055D01*
X41264Y-44999D01*
X41397Y-44945D01*
X41545Y-44798D01*
X41625Y-44605D01*
X41625Y-44396D01*
X41545Y-44203D01*
X41398Y-44055D01*
X41264Y-43999D01*
X41397Y-43945D01*
X41545Y-43798D01*
X41625Y-43605D01*
X41625Y-43396D01*
X41545Y-43203D01*
X41398Y-43055D01*
X41264Y-42999D01*
X41397Y-42945D01*
X41545Y-42798D01*
X41625Y-42605D01*
X41625Y-42396D01*
X41545Y-42203D01*
X41398Y-42055D01*
X41264Y-41999D01*
X41397Y-41945D01*
X41545Y-41798D01*
X41625Y-41605D01*
X41625Y-41396D01*
X41593Y-41318D01*
X41593Y-36914D01*
X41250Y-36571D01*
X41179Y-36642D01*
X41179Y-36500D01*
X40836Y-36157D01*
X40737Y-36190D01*
X40657Y-36409D01*
X40668Y-36644D01*
X40737Y-36810D01*
X40836Y-36843D01*
X41179Y-36500D01*
X41179Y-36642D01*
X40907Y-36914D01*
X40940Y-37013D01*
X41159Y-37093D01*
X41394Y-37082D01*
X41560Y-37013D01*
X41593Y-36914D01*
X41593Y-41318D01*
X41545Y-41203D01*
X41398Y-41055D01*
X41205Y-40975D01*
X40996Y-40975D01*
X40803Y-41055D01*
X40655Y-41202D01*
X40575Y-41395D01*
X40575Y-41604D01*
X40655Y-41797D01*
X40802Y-41945D01*
X40935Y-42000D01*
X40803Y-42055D01*
X40657Y-42200D01*
X38600Y-42200D01*
X38600Y-33612D01*
X38538Y-33550D01*
X38100Y-33550D01*
X38050Y-33550D01*
X37950Y-33550D01*
X37900Y-33550D01*
X37462Y-33550D01*
X37400Y-33612D01*
X37401Y-33801D01*
X37401Y-33900D01*
X37439Y-33991D01*
X37509Y-34061D01*
X37567Y-34085D01*
X37492Y-34161D01*
X37401Y-34381D01*
X37401Y-34619D01*
X37492Y-34839D01*
X37661Y-35008D01*
X37881Y-35099D01*
X38119Y-35099D01*
X38339Y-35008D01*
X38508Y-34839D01*
X38599Y-34619D01*
X38599Y-34381D01*
X38508Y-34161D01*
X38432Y-34085D01*
X38491Y-34061D01*
X38561Y-33991D01*
X38599Y-33900D01*
X38599Y-33801D01*
X38600Y-33612D01*
X38600Y-42200D01*
X38101Y-42200D01*
X38041Y-42140D01*
X37885Y-42075D01*
X37716Y-42075D01*
X37560Y-42139D01*
X37440Y-42259D01*
X37375Y-42415D01*
X37375Y-42584D01*
X37439Y-42740D01*
X37559Y-42860D01*
X37715Y-42925D01*
X37884Y-42925D01*
X38040Y-42861D01*
X38101Y-42800D01*
X40657Y-42800D01*
X40802Y-42945D01*
X40935Y-43000D01*
X40803Y-43055D01*
X40655Y-43202D01*
X40575Y-43395D01*
X40575Y-43604D01*
X40655Y-43797D01*
X40802Y-43945D01*
X40935Y-44000D01*
X40803Y-44055D01*
X40655Y-44202D01*
X40575Y-44395D01*
X40575Y-44604D01*
X40655Y-44797D01*
X40802Y-44945D01*
X40935Y-45000D01*
X40803Y-45055D01*
X40655Y-45202D01*
X40599Y-45335D01*
X40545Y-45203D01*
X40398Y-45055D01*
X40205Y-44975D01*
X39996Y-44975D01*
X39803Y-45055D01*
X39655Y-45202D01*
X39575Y-45395D01*
X39575Y-45604D01*
X39655Y-45797D01*
X39802Y-45945D01*
X39995Y-46025D01*
X40204Y-46025D01*
X40397Y-45945D01*
X40545Y-45798D01*
X40600Y-45664D01*
X40655Y-45797D01*
X40802Y-45945D01*
X40935Y-46000D01*
X40803Y-46055D01*
X40655Y-46202D01*
X40575Y-46395D01*
X40575Y-46604D01*
X40655Y-46797D01*
X40802Y-46945D01*
X40935Y-47000D01*
X40803Y-47055D01*
X40655Y-47202D01*
X40575Y-47395D01*
X40575Y-47604D01*
X40655Y-47797D01*
X40802Y-47945D01*
X40935Y-48000D01*
X40803Y-48055D01*
X40655Y-48202D01*
X40599Y-48335D01*
X40545Y-48203D01*
X40398Y-48055D01*
X40205Y-47975D01*
X39996Y-47975D01*
X39803Y-48055D01*
X39707Y-48150D01*
X38051Y-48150D01*
X38041Y-48140D01*
X37885Y-48075D01*
X37716Y-48075D01*
X37560Y-48139D01*
X37440Y-48259D01*
X37375Y-48415D01*
X37375Y-48584D01*
X37439Y-48740D01*
X37559Y-48860D01*
X37715Y-48925D01*
X37884Y-48925D01*
X38040Y-48861D01*
X38051Y-48850D01*
X39707Y-48850D01*
X39802Y-48945D01*
X39995Y-49025D01*
X40204Y-49025D01*
X40252Y-49004D01*
X40155Y-49102D01*
X40075Y-49295D01*
X40075Y-49504D01*
X40155Y-49697D01*
X40302Y-49845D01*
X40442Y-49903D01*
X40333Y-49948D01*
X40310Y-50039D01*
X40600Y-50329D01*
X40890Y-50039D01*
X40867Y-49948D01*
X40748Y-49906D01*
X40897Y-49845D01*
X41045Y-49698D01*
X41125Y-49505D01*
X41125Y-49296D01*
X41045Y-49103D01*
X40948Y-49005D01*
X40995Y-49025D01*
X41204Y-49025D01*
X41397Y-48945D01*
X41545Y-48798D01*
X41625Y-48605D01*
X41625Y-48396D01*
X41545Y-48203D01*
X41398Y-48055D01*
X41264Y-47999D01*
X41397Y-47945D01*
X41542Y-47800D01*
X42476Y-47800D01*
X42600Y-47924D01*
X42600Y-49200D01*
X42623Y-49315D01*
X42688Y-49412D01*
X42988Y-49712D01*
X43085Y-49777D01*
X43200Y-49800D01*
X43800Y-49800D01*
X44799Y-49800D01*
X44859Y-49860D01*
X45015Y-49925D01*
X45184Y-49925D01*
X45340Y-49861D01*
X45460Y-49741D01*
X45525Y-49585D01*
X45525Y-60950D01*
X44125Y-60950D01*
X44125Y-58805D01*
X44125Y-58596D01*
X44045Y-58403D01*
X43898Y-58255D01*
X43800Y-58214D01*
X43764Y-58199D01*
X43800Y-58185D01*
X43897Y-58145D01*
X44045Y-57998D01*
X44125Y-57805D01*
X44125Y-57596D01*
X44045Y-57403D01*
X43898Y-57255D01*
X43800Y-57214D01*
X43764Y-57199D01*
X43800Y-57185D01*
X43897Y-57145D01*
X44045Y-56998D01*
X44125Y-56805D01*
X44125Y-56596D01*
X44045Y-56403D01*
X43898Y-56255D01*
X43800Y-56214D01*
X43764Y-56199D01*
X43800Y-56185D01*
X43897Y-56145D01*
X44045Y-55998D01*
X44125Y-55805D01*
X44125Y-55596D01*
X44045Y-55403D01*
X43898Y-55255D01*
X43800Y-55214D01*
X43764Y-55199D01*
X43800Y-55185D01*
X43897Y-55145D01*
X44045Y-54998D01*
X44125Y-54805D01*
X44125Y-54596D01*
X44045Y-54403D01*
X43898Y-54255D01*
X43800Y-54214D01*
X43764Y-54199D01*
X43800Y-54185D01*
X43897Y-54145D01*
X44045Y-53998D01*
X44125Y-53805D01*
X44125Y-53596D01*
X44045Y-53403D01*
X43898Y-53255D01*
X43800Y-53214D01*
X43764Y-53199D01*
X43800Y-53185D01*
X43897Y-53145D01*
X44045Y-52998D01*
X44125Y-52805D01*
X44125Y-52596D01*
X44045Y-52403D01*
X43898Y-52255D01*
X43800Y-52214D01*
X43764Y-52199D01*
X43800Y-52185D01*
X43897Y-52145D01*
X44045Y-51998D01*
X44125Y-51805D01*
X44125Y-51596D01*
X44045Y-51403D01*
X43898Y-51255D01*
X43800Y-51214D01*
X43705Y-51175D01*
X43694Y-51175D01*
X43800Y-51131D01*
X43869Y-51103D01*
X44002Y-50969D01*
X44075Y-50795D01*
X44075Y-50606D01*
X44003Y-50431D01*
X43869Y-50298D01*
X43800Y-50269D01*
X43695Y-50225D01*
X43506Y-50225D01*
X43331Y-50297D01*
X43198Y-50431D01*
X43125Y-50605D01*
X43125Y-50794D01*
X43197Y-50969D01*
X43331Y-51102D01*
X43505Y-51175D01*
X43496Y-51175D01*
X43303Y-51255D01*
X43155Y-51402D01*
X43075Y-51595D01*
X43075Y-51804D01*
X43155Y-51997D01*
X43302Y-52145D01*
X43435Y-52200D01*
X43303Y-52255D01*
X43155Y-52402D01*
X43075Y-52595D01*
X43075Y-52804D01*
X43155Y-52997D01*
X43302Y-53145D01*
X43435Y-53200D01*
X43303Y-53255D01*
X43155Y-53402D01*
X43075Y-53595D01*
X43075Y-53804D01*
X43155Y-53997D01*
X43302Y-54145D01*
X43435Y-54200D01*
X43303Y-54255D01*
X43155Y-54402D01*
X43075Y-54595D01*
X43075Y-54804D01*
X43155Y-54997D01*
X43302Y-55145D01*
X43435Y-55200D01*
X43303Y-55255D01*
X43155Y-55402D01*
X43099Y-55535D01*
X43045Y-55403D01*
X42898Y-55255D01*
X42705Y-55175D01*
X42496Y-55175D01*
X42303Y-55255D01*
X42155Y-55402D01*
X42075Y-55595D01*
X42075Y-55804D01*
X42155Y-55997D01*
X42302Y-56145D01*
X42495Y-56225D01*
X42704Y-56225D01*
X42897Y-56145D01*
X43045Y-55998D01*
X43100Y-55864D01*
X43155Y-55997D01*
X43302Y-56145D01*
X43435Y-56200D01*
X43303Y-56255D01*
X43155Y-56402D01*
X43075Y-56595D01*
X43075Y-56804D01*
X43155Y-56997D01*
X43302Y-57145D01*
X43435Y-57200D01*
X43303Y-57255D01*
X43155Y-57402D01*
X43075Y-57595D01*
X43075Y-57804D01*
X43155Y-57997D01*
X43302Y-58145D01*
X43435Y-58200D01*
X43303Y-58255D01*
X43155Y-58402D01*
X43099Y-58535D01*
X43045Y-58403D01*
X42898Y-58255D01*
X42705Y-58175D01*
X42496Y-58175D01*
X42303Y-58255D01*
X42155Y-58402D01*
X42075Y-58595D01*
X42075Y-58804D01*
X42155Y-58997D01*
X42302Y-59145D01*
X42495Y-59225D01*
X42704Y-59225D01*
X42752Y-59204D01*
X42655Y-59302D01*
X42575Y-59495D01*
X42575Y-59704D01*
X42655Y-59897D01*
X42802Y-60045D01*
X42942Y-60103D01*
X42833Y-60148D01*
X42810Y-60239D01*
X43100Y-60529D01*
X43390Y-60239D01*
X43367Y-60148D01*
X43248Y-60106D01*
X43397Y-60045D01*
X43545Y-59898D01*
X43625Y-59705D01*
X43625Y-59496D01*
X43545Y-59303D01*
X43448Y-59205D01*
X43495Y-59225D01*
X43704Y-59225D01*
X43800Y-59185D01*
X43897Y-59145D01*
X44045Y-58998D01*
X44125Y-58805D01*
X44125Y-60950D01*
X43800Y-60950D01*
X43619Y-60950D01*
X43505Y-60950D01*
X43548Y-60907D01*
X43516Y-60875D01*
X43552Y-60867D01*
X43619Y-60674D01*
X43608Y-60470D01*
X43552Y-60333D01*
X43461Y-60310D01*
X43206Y-60565D01*
X43171Y-60600D01*
X43100Y-60671D01*
X43029Y-60600D01*
X42994Y-60565D01*
X42739Y-60310D01*
X42648Y-60333D01*
X42581Y-60526D01*
X42592Y-60730D01*
X42648Y-60867D01*
X42683Y-60875D01*
X42652Y-60907D01*
X42695Y-60950D01*
X41119Y-60950D01*
X41119Y-50474D01*
X41108Y-50270D01*
X41052Y-50133D01*
X40961Y-50110D01*
X40671Y-50400D01*
X40961Y-50690D01*
X41052Y-50667D01*
X41119Y-50474D01*
X41119Y-60950D01*
X40890Y-60950D01*
X40890Y-50761D01*
X40600Y-50471D01*
X40529Y-50542D01*
X40529Y-50400D01*
X40239Y-50110D01*
X40148Y-50133D01*
X40081Y-50326D01*
X40092Y-50530D01*
X40148Y-50667D01*
X40239Y-50690D01*
X40529Y-50400D01*
X40529Y-50542D01*
X40310Y-50761D01*
X40333Y-50852D01*
X40526Y-50919D01*
X40730Y-50908D01*
X40867Y-50852D01*
X40890Y-50761D01*
X40890Y-60950D01*
X40800Y-60950D01*
X40800Y-57450D01*
X37300Y-57450D01*
X37300Y-27550D01*
X40800Y-27550D01*
X40800Y-24050D01*
X47011Y-24050D01*
X46936Y-24165D01*
X47700Y-24929D01*
X48464Y-24165D01*
X48388Y-24050D01*
X51012Y-24050D01*
X50872Y-24108D01*
X50709Y-24271D01*
X50620Y-24484D01*
X50620Y-24715D01*
X50708Y-24928D01*
X50871Y-25091D01*
X51084Y-25180D01*
X51315Y-25180D01*
X51528Y-25092D01*
X51691Y-24929D01*
X51699Y-24908D01*
X51708Y-24928D01*
X51871Y-25091D01*
X52084Y-25180D01*
X52315Y-25180D01*
X52528Y-25092D01*
X52691Y-24929D01*
X52780Y-24716D01*
X52780Y-24485D01*
X52692Y-24272D01*
X52529Y-24109D01*
X52387Y-24050D01*
X53232Y-24050D01*
X53210Y-24139D01*
X53500Y-24429D01*
X53790Y-24139D01*
X53767Y-24050D01*
X55215Y-24050D01*
X55203Y-24055D01*
X55055Y-24202D01*
X54975Y-24395D01*
X54975Y-24604D01*
X55055Y-24797D01*
X55202Y-24945D01*
X55395Y-25025D01*
X55604Y-25025D01*
X55797Y-24945D01*
X55945Y-24798D01*
X56025Y-24605D01*
X56025Y-24396D01*
X55945Y-24203D01*
X55798Y-24055D01*
X55785Y-24050D01*
X68950Y-24050D01*
X68950Y-24315D01*
X68945Y-24303D01*
X68798Y-24155D01*
X68605Y-24075D01*
X68396Y-24075D01*
X68203Y-24155D01*
X68055Y-24302D01*
X67999Y-24435D01*
X67945Y-24303D01*
X67798Y-24155D01*
X67605Y-24075D01*
X67396Y-24075D01*
X67203Y-24155D01*
X67055Y-24302D01*
X66999Y-24435D01*
X66945Y-24303D01*
X66798Y-24155D01*
X66605Y-24075D01*
X66396Y-24075D01*
X66203Y-24155D01*
X66055Y-24302D01*
X65999Y-24435D01*
X65945Y-24303D01*
X65798Y-24155D01*
X65605Y-24075D01*
X65396Y-24075D01*
X65203Y-24155D01*
X65055Y-24302D01*
X64999Y-24435D01*
X64945Y-24303D01*
X64798Y-24155D01*
X64605Y-24075D01*
X64396Y-24075D01*
X64203Y-24155D01*
X64055Y-24302D01*
X63975Y-24495D01*
X63975Y-24704D01*
X64055Y-24897D01*
X64202Y-25045D01*
X64395Y-25125D01*
X64406Y-25125D01*
X64231Y-25197D01*
X64098Y-25331D01*
X64025Y-25505D01*
X64025Y-25694D01*
X64097Y-25869D01*
X64231Y-26002D01*
X64405Y-26075D01*
X64594Y-26075D01*
X64769Y-26003D01*
X64902Y-25869D01*
X64975Y-25695D01*
X64975Y-25506D01*
X64903Y-25331D01*
X64769Y-25198D01*
X64595Y-25125D01*
X64604Y-25125D01*
X64797Y-25045D01*
X64945Y-24898D01*
X65000Y-24764D01*
X65055Y-24897D01*
X65202Y-25045D01*
X65395Y-25125D01*
X65406Y-25125D01*
X65231Y-25197D01*
X65098Y-25331D01*
X65025Y-25505D01*
X65025Y-25694D01*
X65097Y-25869D01*
X65231Y-26002D01*
X65405Y-26075D01*
X65594Y-26075D01*
X65769Y-26003D01*
X65902Y-25869D01*
X65975Y-25695D01*
X65975Y-25506D01*
X65903Y-25331D01*
X65769Y-25198D01*
X65595Y-25125D01*
X65604Y-25125D01*
X65797Y-25045D01*
X65945Y-24898D01*
X66000Y-24764D01*
X66055Y-24897D01*
X66202Y-25045D01*
X66395Y-25125D01*
X66406Y-25125D01*
X66231Y-25197D01*
X66098Y-25331D01*
X66025Y-25505D01*
X66025Y-25694D01*
X66097Y-25869D01*
X66231Y-26002D01*
X66405Y-26075D01*
X66594Y-26075D01*
X66769Y-26003D01*
X66902Y-25869D01*
X66975Y-25695D01*
X66975Y-25506D01*
X66903Y-25331D01*
X66769Y-25198D01*
X66595Y-25125D01*
X66604Y-25125D01*
X66797Y-25045D01*
X66945Y-24898D01*
X67000Y-24764D01*
X67055Y-24897D01*
X67202Y-25045D01*
X67395Y-25125D01*
X67406Y-25125D01*
X67231Y-25197D01*
X67098Y-25331D01*
X67025Y-25505D01*
X67025Y-25694D01*
X67097Y-25869D01*
X67231Y-26002D01*
X67405Y-26075D01*
X67594Y-26075D01*
X67769Y-26003D01*
X67902Y-25869D01*
X67975Y-25695D01*
X67975Y-25506D01*
X67903Y-25331D01*
X67769Y-25198D01*
X67595Y-25125D01*
X67604Y-25125D01*
X67797Y-25045D01*
X67945Y-24898D01*
X68000Y-24764D01*
X68055Y-24897D01*
X68202Y-25045D01*
X68395Y-25125D01*
X68406Y-25125D01*
X68231Y-25197D01*
X68098Y-25331D01*
X68025Y-25505D01*
X68025Y-25694D01*
X68097Y-25869D01*
X68231Y-26002D01*
X68405Y-26075D01*
X68594Y-26075D01*
X68769Y-26003D01*
X68902Y-25869D01*
X68975Y-25695D01*
X68975Y-25506D01*
X68903Y-25331D01*
X68769Y-25198D01*
X68595Y-25125D01*
X68604Y-25125D01*
X68797Y-25045D01*
X68945Y-24898D01*
X68950Y-24885D01*
X68950Y-25150D01*
X69357Y-25150D01*
X69263Y-25189D01*
X69246Y-25275D01*
X69500Y-25529D01*
X69754Y-25275D01*
X69737Y-25189D01*
X69621Y-25150D01*
X70050Y-25150D01*
X70050Y-24050D01*
X70700Y-24050D01*
X70700Y-27550D01*
X74200Y-27550D01*
X74200Y-57450D01*
X74200Y-57450D01*
G37*
G54D23*
X74200Y-57450D02*
X72819Y-57450D01*
X72819Y-36074D01*
X72808Y-35870D01*
X72752Y-35733D01*
X72661Y-35710D01*
X72590Y-35781D01*
X72590Y-35639D01*
X72567Y-35548D01*
X72374Y-35481D01*
X72170Y-35492D01*
X72033Y-35548D01*
X72010Y-35639D01*
X72300Y-35929D01*
X72590Y-35639D01*
X72590Y-35781D01*
X72371Y-36000D01*
X72661Y-36290D01*
X72752Y-36267D01*
X72819Y-36074D01*
X72819Y-57450D01*
X72590Y-57450D01*
X72590Y-36361D01*
X72300Y-36071D01*
X72229Y-36142D01*
X72229Y-36000D01*
X71939Y-35710D01*
X71848Y-35733D01*
X71824Y-35802D01*
X71824Y-35676D01*
X71786Y-35584D01*
X71716Y-35514D01*
X71625Y-35476D01*
X71526Y-35476D01*
X70976Y-35476D01*
X70884Y-35514D01*
X70814Y-35584D01*
X70776Y-35675D01*
X70776Y-35774D01*
X70776Y-36324D01*
X70814Y-36416D01*
X70884Y-36486D01*
X70975Y-36524D01*
X71074Y-36524D01*
X71624Y-36524D01*
X71716Y-36486D01*
X71786Y-36416D01*
X71824Y-36325D01*
X71824Y-36226D01*
X71824Y-36208D01*
X71848Y-36267D01*
X71939Y-36290D01*
X72229Y-36000D01*
X72229Y-36142D01*
X72010Y-36361D01*
X72033Y-36452D01*
X72226Y-36519D01*
X72430Y-36508D01*
X72567Y-36452D01*
X72590Y-36361D01*
X72590Y-57450D01*
X71849Y-57450D01*
X71849Y-50509D01*
X71849Y-50291D01*
X71765Y-50089D01*
X71611Y-49935D01*
X71526Y-49900D01*
X71611Y-49865D01*
X71765Y-49711D01*
X71849Y-49509D01*
X71849Y-49291D01*
X71765Y-49089D01*
X71611Y-48935D01*
X71526Y-48900D01*
X71611Y-48865D01*
X71765Y-48711D01*
X71849Y-48509D01*
X71849Y-48291D01*
X71765Y-48089D01*
X71611Y-47935D01*
X71526Y-47900D01*
X71611Y-47865D01*
X71765Y-47711D01*
X71849Y-47509D01*
X71849Y-47291D01*
X71765Y-47089D01*
X71611Y-46935D01*
X71526Y-46900D01*
X71611Y-46865D01*
X71765Y-46711D01*
X71849Y-46509D01*
X71849Y-46291D01*
X71765Y-46089D01*
X71611Y-45935D01*
X71526Y-45900D01*
X71611Y-45865D01*
X71765Y-45711D01*
X71849Y-45509D01*
X71849Y-45291D01*
X71765Y-45089D01*
X71611Y-44935D01*
X71526Y-44900D01*
X71611Y-44865D01*
X71765Y-44711D01*
X71849Y-44509D01*
X71849Y-44291D01*
X71765Y-44089D01*
X71611Y-43935D01*
X71526Y-43900D01*
X71611Y-43865D01*
X71765Y-43711D01*
X71849Y-43509D01*
X71849Y-43291D01*
X71765Y-43089D01*
X71611Y-42935D01*
X71430Y-42859D01*
X71569Y-42803D01*
X71702Y-42669D01*
X71775Y-42495D01*
X71775Y-42306D01*
X71703Y-42131D01*
X71569Y-41998D01*
X71395Y-41925D01*
X71206Y-41925D01*
X71031Y-41997D01*
X70898Y-42131D01*
X70825Y-42305D01*
X70825Y-42494D01*
X70897Y-42669D01*
X71031Y-42802D01*
X71169Y-42860D01*
X70989Y-42935D01*
X70849Y-43075D01*
X70849Y-43051D01*
X70811Y-42959D01*
X70741Y-42889D01*
X70650Y-42851D01*
X70551Y-42851D01*
X70452Y-42851D01*
X70569Y-42803D01*
X70702Y-42669D01*
X70775Y-42495D01*
X70775Y-42306D01*
X70703Y-42131D01*
X70569Y-41998D01*
X70395Y-41925D01*
X70206Y-41925D01*
X70031Y-41997D01*
X69970Y-42058D01*
X69970Y-25662D01*
X69958Y-25477D01*
X69911Y-25363D01*
X69825Y-25346D01*
X69571Y-25600D01*
X69825Y-25854D01*
X69911Y-25837D01*
X69970Y-25662D01*
X69970Y-42058D01*
X69898Y-42131D01*
X69825Y-42305D01*
X69825Y-42494D01*
X69897Y-42669D01*
X70031Y-42802D01*
X70147Y-42851D01*
X69951Y-42851D01*
X69859Y-42889D01*
X69789Y-42959D01*
X69754Y-43042D01*
X69754Y-25925D01*
X69500Y-25671D01*
X69429Y-25742D01*
X69429Y-25600D01*
X69175Y-25346D01*
X69089Y-25363D01*
X69030Y-25538D01*
X69042Y-25723D01*
X69089Y-25837D01*
X69175Y-25854D01*
X69429Y-25600D01*
X69429Y-25742D01*
X69246Y-25925D01*
X69263Y-26011D01*
X69438Y-26070D01*
X69623Y-26058D01*
X69737Y-26011D01*
X69754Y-25925D01*
X69754Y-43042D01*
X69751Y-43050D01*
X69751Y-43149D01*
X69751Y-43749D01*
X69789Y-43841D01*
X69859Y-43911D01*
X69950Y-43949D01*
X69975Y-43949D01*
X69835Y-44089D01*
X69751Y-44291D01*
X69751Y-44509D01*
X69835Y-44711D01*
X69989Y-44865D01*
X70073Y-44900D01*
X69989Y-44935D01*
X69864Y-45060D01*
X68725Y-45060D01*
X68725Y-34605D01*
X68725Y-34396D01*
X68724Y-34393D01*
X68724Y-31825D01*
X68724Y-31726D01*
X68724Y-31176D01*
X68686Y-31084D01*
X68616Y-31014D01*
X68525Y-30976D01*
X68426Y-30976D01*
X67876Y-30976D01*
X67784Y-31014D01*
X67714Y-31084D01*
X67676Y-31175D01*
X67676Y-31274D01*
X67676Y-31277D01*
X67645Y-31203D01*
X67498Y-31055D01*
X67305Y-30975D01*
X67096Y-30975D01*
X66975Y-31025D01*
X66975Y-26695D01*
X66975Y-26506D01*
X66903Y-26331D01*
X66769Y-26198D01*
X66595Y-26125D01*
X66406Y-26125D01*
X66231Y-26197D01*
X66098Y-26331D01*
X66025Y-26505D01*
X66025Y-26694D01*
X66097Y-26869D01*
X66231Y-27002D01*
X66405Y-27075D01*
X66594Y-27075D01*
X66769Y-27003D01*
X66902Y-26869D01*
X66975Y-26695D01*
X66975Y-31025D01*
X66903Y-31055D01*
X66755Y-31202D01*
X66699Y-31335D01*
X66645Y-31203D01*
X66498Y-31055D01*
X66305Y-30975D01*
X66096Y-30975D01*
X65975Y-31025D01*
X65975Y-26695D01*
X65975Y-26506D01*
X65903Y-26331D01*
X65769Y-26198D01*
X65595Y-26125D01*
X65406Y-26125D01*
X65231Y-26197D01*
X65098Y-26331D01*
X65025Y-26505D01*
X65025Y-26694D01*
X65097Y-26869D01*
X65231Y-27002D01*
X65405Y-27075D01*
X65594Y-27075D01*
X65769Y-27003D01*
X65902Y-26869D01*
X65975Y-26695D01*
X65975Y-31025D01*
X65903Y-31055D01*
X65755Y-31202D01*
X65699Y-31335D01*
X65645Y-31203D01*
X65498Y-31055D01*
X65305Y-30975D01*
X65096Y-30975D01*
X64903Y-31055D01*
X64755Y-31202D01*
X64699Y-31335D01*
X64675Y-31276D01*
X64675Y-29595D01*
X64675Y-29406D01*
X64603Y-29231D01*
X64469Y-29098D01*
X64295Y-29025D01*
X64106Y-29025D01*
X63931Y-29097D01*
X63825Y-29203D01*
X63825Y-25185D01*
X63825Y-25016D01*
X63761Y-24860D01*
X63641Y-24740D01*
X63485Y-24675D01*
X63316Y-24675D01*
X63160Y-24739D01*
X63099Y-24800D01*
X60049Y-24800D01*
X60049Y-24251D01*
X60011Y-24159D01*
X59941Y-24089D01*
X59850Y-24051D01*
X59751Y-24051D01*
X59151Y-24051D01*
X59059Y-24089D01*
X58989Y-24159D01*
X58951Y-24250D01*
X58951Y-24275D01*
X58811Y-24135D01*
X58609Y-24051D01*
X58391Y-24051D01*
X58189Y-24135D01*
X58035Y-24289D01*
X58000Y-24373D01*
X57965Y-24289D01*
X57811Y-24135D01*
X57609Y-24051D01*
X57391Y-24051D01*
X57189Y-24135D01*
X57035Y-24289D01*
X56951Y-24491D01*
X56951Y-24709D01*
X57035Y-24911D01*
X57189Y-25065D01*
X57280Y-25102D01*
X57219Y-25128D01*
X57192Y-25222D01*
X57465Y-25494D01*
X57500Y-25529D01*
X57571Y-25600D01*
X57606Y-25635D01*
X57878Y-25908D01*
X57972Y-25881D01*
X57995Y-25815D01*
X58035Y-25911D01*
X58189Y-26065D01*
X58391Y-26149D01*
X58609Y-26149D01*
X58811Y-26065D01*
X58965Y-25911D01*
X59000Y-25826D01*
X59035Y-25911D01*
X59189Y-26065D01*
X59391Y-26149D01*
X59609Y-26149D01*
X59811Y-26065D01*
X59965Y-25911D01*
X60049Y-25709D01*
X60049Y-25491D01*
X60011Y-25400D01*
X63099Y-25400D01*
X63159Y-25460D01*
X63315Y-25525D01*
X63484Y-25525D01*
X63640Y-25461D01*
X63760Y-25341D01*
X63825Y-25185D01*
X63825Y-29203D01*
X63798Y-29231D01*
X63725Y-29405D01*
X63725Y-29594D01*
X63797Y-29769D01*
X63931Y-29902D01*
X64105Y-29975D01*
X64294Y-29975D01*
X64469Y-29903D01*
X64602Y-29769D01*
X64675Y-29595D01*
X64675Y-31276D01*
X64645Y-31203D01*
X64498Y-31055D01*
X64305Y-30975D01*
X64219Y-30975D01*
X64219Y-30574D01*
X64208Y-30370D01*
X64152Y-30233D01*
X64061Y-30210D01*
X63990Y-30281D01*
X63990Y-30139D01*
X63967Y-30048D01*
X63774Y-29981D01*
X63675Y-29986D01*
X63675Y-29595D01*
X63675Y-29406D01*
X63603Y-29231D01*
X63469Y-29098D01*
X63295Y-29025D01*
X63106Y-29025D01*
X62931Y-29097D01*
X62798Y-29231D01*
X62725Y-29405D01*
X62725Y-29594D01*
X62797Y-29769D01*
X62931Y-29902D01*
X63105Y-29975D01*
X63294Y-29975D01*
X63469Y-29903D01*
X63602Y-29769D01*
X63675Y-29595D01*
X63675Y-29986D01*
X63570Y-29992D01*
X63433Y-30048D01*
X63410Y-30139D01*
X63700Y-30429D01*
X63990Y-30139D01*
X63990Y-30281D01*
X63771Y-30500D01*
X64061Y-30790D01*
X64152Y-30767D01*
X64219Y-30574D01*
X64219Y-30975D01*
X64096Y-30975D01*
X63990Y-31018D01*
X63990Y-30861D01*
X63700Y-30571D01*
X63629Y-30642D01*
X63629Y-30500D01*
X63339Y-30210D01*
X63248Y-30233D01*
X63206Y-30351D01*
X63145Y-30203D01*
X62998Y-30055D01*
X62805Y-29975D01*
X62596Y-29975D01*
X62403Y-30055D01*
X62255Y-30202D01*
X62219Y-30288D01*
X62219Y-27174D01*
X62208Y-26970D01*
X62152Y-26833D01*
X62061Y-26810D01*
X61990Y-26881D01*
X61990Y-26739D01*
X61967Y-26648D01*
X61774Y-26581D01*
X61570Y-26592D01*
X61433Y-26648D01*
X61410Y-26739D01*
X61700Y-27029D01*
X61990Y-26739D01*
X61990Y-26881D01*
X61771Y-27100D01*
X62061Y-27390D01*
X62152Y-27367D01*
X62219Y-27174D01*
X62219Y-30288D01*
X62175Y-30395D01*
X62175Y-30604D01*
X62255Y-30797D01*
X62402Y-30945D01*
X62595Y-31025D01*
X62804Y-31025D01*
X62997Y-30945D01*
X63145Y-30798D01*
X63203Y-30657D01*
X63248Y-30767D01*
X63339Y-30790D01*
X63629Y-30500D01*
X63629Y-30642D01*
X63410Y-30861D01*
X63433Y-30952D01*
X63626Y-31019D01*
X63830Y-31008D01*
X63967Y-30952D01*
X63990Y-30861D01*
X63990Y-31018D01*
X63903Y-31055D01*
X63755Y-31202D01*
X63699Y-31335D01*
X63645Y-31203D01*
X63498Y-31055D01*
X63305Y-30975D01*
X63096Y-30975D01*
X62903Y-31055D01*
X62755Y-31202D01*
X62699Y-31335D01*
X62645Y-31203D01*
X62498Y-31055D01*
X62305Y-30975D01*
X62096Y-30975D01*
X61990Y-31018D01*
X61990Y-27461D01*
X61700Y-27171D01*
X61629Y-27242D01*
X61629Y-27100D01*
X61339Y-26810D01*
X61248Y-26833D01*
X61206Y-26951D01*
X61145Y-26803D01*
X60998Y-26655D01*
X60805Y-26575D01*
X60596Y-26575D01*
X60403Y-26655D01*
X60255Y-26802D01*
X60175Y-26995D01*
X60175Y-27204D01*
X60255Y-27397D01*
X60402Y-27545D01*
X60595Y-27625D01*
X60804Y-27625D01*
X60997Y-27545D01*
X61145Y-27398D01*
X61203Y-27257D01*
X61248Y-27367D01*
X61339Y-27390D01*
X61629Y-27100D01*
X61629Y-27242D01*
X61410Y-27461D01*
X61433Y-27552D01*
X61626Y-27619D01*
X61830Y-27608D01*
X61967Y-27552D01*
X61990Y-27461D01*
X61990Y-31018D01*
X61903Y-31055D01*
X61755Y-31202D01*
X61696Y-31342D01*
X61652Y-31233D01*
X61561Y-31210D01*
X61490Y-31281D01*
X61490Y-31139D01*
X61467Y-31048D01*
X61274Y-30981D01*
X61230Y-30983D01*
X61230Y-29006D01*
X61230Y-28795D01*
X61149Y-28600D01*
X61001Y-28451D01*
X60806Y-28370D01*
X60595Y-28370D01*
X60400Y-28451D01*
X60251Y-28599D01*
X60170Y-28794D01*
X60170Y-29005D01*
X60251Y-29200D01*
X60399Y-29349D01*
X60594Y-29430D01*
X60805Y-29430D01*
X61000Y-29349D01*
X61149Y-29201D01*
X61230Y-29006D01*
X61230Y-30983D01*
X61070Y-30992D01*
X60933Y-31048D01*
X60910Y-31139D01*
X61200Y-31429D01*
X61490Y-31139D01*
X61490Y-31281D01*
X61271Y-31500D01*
X61561Y-31790D01*
X61652Y-31767D01*
X61693Y-31648D01*
X61755Y-31797D01*
X61902Y-31945D01*
X62095Y-32025D01*
X62304Y-32025D01*
X62497Y-31945D01*
X62645Y-31798D01*
X62700Y-31664D01*
X62755Y-31797D01*
X62902Y-31945D01*
X63095Y-32025D01*
X63304Y-32025D01*
X63497Y-31945D01*
X63645Y-31798D01*
X63700Y-31664D01*
X63755Y-31797D01*
X63902Y-31945D01*
X64095Y-32025D01*
X64304Y-32025D01*
X64497Y-31945D01*
X64645Y-31798D01*
X64700Y-31664D01*
X64755Y-31797D01*
X64902Y-31945D01*
X65095Y-32025D01*
X65304Y-32025D01*
X65497Y-31945D01*
X65645Y-31798D01*
X65700Y-31664D01*
X65755Y-31797D01*
X65902Y-31945D01*
X66095Y-32025D01*
X66304Y-32025D01*
X66497Y-31945D01*
X66645Y-31798D01*
X66700Y-31664D01*
X66755Y-31797D01*
X66902Y-31945D01*
X67095Y-32025D01*
X67304Y-32025D01*
X67497Y-31945D01*
X67645Y-31798D01*
X67676Y-31723D01*
X67676Y-31824D01*
X67714Y-31916D01*
X67784Y-31986D01*
X67875Y-32024D01*
X67974Y-32024D01*
X68524Y-32024D01*
X68616Y-31986D01*
X68686Y-31916D01*
X68724Y-31825D01*
X68724Y-34393D01*
X68645Y-34203D01*
X68498Y-34055D01*
X68305Y-33975D01*
X68096Y-33975D01*
X67903Y-34055D01*
X67755Y-34202D01*
X67699Y-34335D01*
X67645Y-34203D01*
X67498Y-34055D01*
X67305Y-33975D01*
X67096Y-33975D01*
X66903Y-34055D01*
X66755Y-34202D01*
X66699Y-34335D01*
X66645Y-34203D01*
X66498Y-34055D01*
X66305Y-33975D01*
X66096Y-33975D01*
X65903Y-34055D01*
X65755Y-34202D01*
X65699Y-34335D01*
X65645Y-34203D01*
X65498Y-34055D01*
X65305Y-33975D01*
X65096Y-33975D01*
X64903Y-34055D01*
X64755Y-34202D01*
X64699Y-34335D01*
X64645Y-34203D01*
X64498Y-34055D01*
X64305Y-33975D01*
X64096Y-33975D01*
X63903Y-34055D01*
X63755Y-34202D01*
X63699Y-34335D01*
X63645Y-34203D01*
X63498Y-34055D01*
X63305Y-33975D01*
X63096Y-33975D01*
X62903Y-34055D01*
X62755Y-34202D01*
X62696Y-34342D01*
X62652Y-34233D01*
X62561Y-34210D01*
X62490Y-34281D01*
X62490Y-34139D01*
X62467Y-34048D01*
X62274Y-33981D01*
X62070Y-33992D01*
X61933Y-34048D01*
X61910Y-34139D01*
X62200Y-34429D01*
X62490Y-34139D01*
X62490Y-34281D01*
X62271Y-34500D01*
X62561Y-34790D01*
X62652Y-34767D01*
X62693Y-34648D01*
X62755Y-34797D01*
X62902Y-34945D01*
X63095Y-35025D01*
X63304Y-35025D01*
X63497Y-34945D01*
X63645Y-34798D01*
X63700Y-34664D01*
X63755Y-34797D01*
X63902Y-34945D01*
X64095Y-35025D01*
X64304Y-35025D01*
X64497Y-34945D01*
X64645Y-34798D01*
X64700Y-34664D01*
X64755Y-34797D01*
X64902Y-34945D01*
X65095Y-35025D01*
X65304Y-35025D01*
X65497Y-34945D01*
X65645Y-34798D01*
X65700Y-34664D01*
X65755Y-34797D01*
X65902Y-34945D01*
X66095Y-35025D01*
X66304Y-35025D01*
X66497Y-34945D01*
X66645Y-34798D01*
X66700Y-34664D01*
X66755Y-34797D01*
X66902Y-34945D01*
X67095Y-35025D01*
X67304Y-35025D01*
X67497Y-34945D01*
X67645Y-34798D01*
X67700Y-34664D01*
X67755Y-34797D01*
X67902Y-34945D01*
X68095Y-35025D01*
X68304Y-35025D01*
X68497Y-34945D01*
X68645Y-34798D01*
X68725Y-34605D01*
X68725Y-45060D01*
X68440Y-45060D01*
X68040Y-44660D01*
X67930Y-44586D01*
X67800Y-44560D01*
X64927Y-44560D01*
X64949Y-44509D01*
X64949Y-44291D01*
X64865Y-44089D01*
X64711Y-43935D01*
X64626Y-43900D01*
X64711Y-43865D01*
X64865Y-43711D01*
X64949Y-43509D01*
X64949Y-43291D01*
X64865Y-43089D01*
X64711Y-42935D01*
X64530Y-42859D01*
X64669Y-42803D01*
X64802Y-42669D01*
X64875Y-42495D01*
X64875Y-42306D01*
X64803Y-42131D01*
X64669Y-41998D01*
X64495Y-41925D01*
X64306Y-41925D01*
X64131Y-41997D01*
X63998Y-42131D01*
X63925Y-42305D01*
X63925Y-42494D01*
X63997Y-42669D01*
X64131Y-42802D01*
X64269Y-42860D01*
X64089Y-42935D01*
X63949Y-43075D01*
X63949Y-43051D01*
X63911Y-42959D01*
X63841Y-42889D01*
X63750Y-42851D01*
X63651Y-42851D01*
X63552Y-42851D01*
X63669Y-42803D01*
X63802Y-42669D01*
X63875Y-42495D01*
X63875Y-42306D01*
X63803Y-42131D01*
X63669Y-41998D01*
X63495Y-41925D01*
X63306Y-41925D01*
X63131Y-41997D01*
X62998Y-42131D01*
X62925Y-42305D01*
X62925Y-42494D01*
X62997Y-42669D01*
X63131Y-42802D01*
X63247Y-42851D01*
X63051Y-42851D01*
X62959Y-42889D01*
X62889Y-42959D01*
X62851Y-43050D01*
X62851Y-43149D01*
X62851Y-43749D01*
X62889Y-43841D01*
X62959Y-43911D01*
X63050Y-43949D01*
X63075Y-43949D01*
X62935Y-44089D01*
X62851Y-44291D01*
X62851Y-44509D01*
X62935Y-44711D01*
X63089Y-44865D01*
X63173Y-44900D01*
X63089Y-44935D01*
X62935Y-45089D01*
X62851Y-45291D01*
X62851Y-45509D01*
X62935Y-45711D01*
X63089Y-45865D01*
X63173Y-45900D01*
X63089Y-45935D01*
X62935Y-46089D01*
X62851Y-46291D01*
X62851Y-46509D01*
X62935Y-46711D01*
X63089Y-46865D01*
X63173Y-46900D01*
X63089Y-46935D01*
X62935Y-47089D01*
X62851Y-47291D01*
X62851Y-47509D01*
X62935Y-47711D01*
X63089Y-47865D01*
X63173Y-47900D01*
X63089Y-47935D01*
X62935Y-48089D01*
X62851Y-48291D01*
X62851Y-48509D01*
X62935Y-48711D01*
X63089Y-48865D01*
X63173Y-48900D01*
X63089Y-48935D01*
X62935Y-49089D01*
X62851Y-49291D01*
X62851Y-49509D01*
X62935Y-49711D01*
X63089Y-49865D01*
X63173Y-49900D01*
X63089Y-49935D01*
X62935Y-50089D01*
X62851Y-50291D01*
X62851Y-50509D01*
X62935Y-50711D01*
X63089Y-50865D01*
X63269Y-50940D01*
X63131Y-50997D01*
X62998Y-51131D01*
X62925Y-51305D01*
X62925Y-51494D01*
X62997Y-51669D01*
X63131Y-51802D01*
X63305Y-51875D01*
X63494Y-51875D01*
X63669Y-51803D01*
X63802Y-51669D01*
X63875Y-51495D01*
X63875Y-51306D01*
X63803Y-51131D01*
X63669Y-50998D01*
X63530Y-50939D01*
X63711Y-50865D01*
X63865Y-50711D01*
X63900Y-50626D01*
X63935Y-50711D01*
X64089Y-50865D01*
X64269Y-50940D01*
X64131Y-50997D01*
X63998Y-51131D01*
X63925Y-51305D01*
X63925Y-51494D01*
X63997Y-51669D01*
X64131Y-51802D01*
X64305Y-51875D01*
X64494Y-51875D01*
X64669Y-51803D01*
X64802Y-51669D01*
X64875Y-51495D01*
X64875Y-51306D01*
X64803Y-51131D01*
X64669Y-50998D01*
X64530Y-50939D01*
X64711Y-50865D01*
X64865Y-50711D01*
X64949Y-50509D01*
X64949Y-50291D01*
X64865Y-50089D01*
X64711Y-49935D01*
X64626Y-49900D01*
X64711Y-49865D01*
X64865Y-49711D01*
X64949Y-49509D01*
X64949Y-49291D01*
X64865Y-49089D01*
X64711Y-48935D01*
X64626Y-48900D01*
X64711Y-48865D01*
X64865Y-48711D01*
X64949Y-48509D01*
X64949Y-48291D01*
X64865Y-48089D01*
X64711Y-47935D01*
X64626Y-47900D01*
X64711Y-47865D01*
X64865Y-47711D01*
X64949Y-47509D01*
X64949Y-47291D01*
X64927Y-47240D01*
X65760Y-47240D01*
X66160Y-47640D01*
X66270Y-47714D01*
X66400Y-47740D01*
X69864Y-47740D01*
X69989Y-47865D01*
X70073Y-47900D01*
X69989Y-47935D01*
X69835Y-48089D01*
X69751Y-48291D01*
X69751Y-48509D01*
X69835Y-48711D01*
X69989Y-48865D01*
X70073Y-48900D01*
X69989Y-48935D01*
X69835Y-49089D01*
X69751Y-49291D01*
X69751Y-49509D01*
X69835Y-49711D01*
X69989Y-49865D01*
X70073Y-49900D01*
X69989Y-49935D01*
X69835Y-50089D01*
X69751Y-50291D01*
X69751Y-50509D01*
X69835Y-50711D01*
X69989Y-50865D01*
X70169Y-50940D01*
X70031Y-50997D01*
X69898Y-51131D01*
X69825Y-51305D01*
X69825Y-51494D01*
X69897Y-51669D01*
X70031Y-51802D01*
X70205Y-51875D01*
X70394Y-51875D01*
X70569Y-51803D01*
X70702Y-51669D01*
X70775Y-51495D01*
X70775Y-51306D01*
X70703Y-51131D01*
X70569Y-50998D01*
X70430Y-50939D01*
X70611Y-50865D01*
X70765Y-50711D01*
X70800Y-50626D01*
X70835Y-50711D01*
X70989Y-50865D01*
X71169Y-50940D01*
X71031Y-50997D01*
X70898Y-51131D01*
X70825Y-51305D01*
X70825Y-51494D01*
X70897Y-51669D01*
X71031Y-51802D01*
X71205Y-51875D01*
X71394Y-51875D01*
X71569Y-51803D01*
X71702Y-51669D01*
X71775Y-51495D01*
X71775Y-51306D01*
X71703Y-51131D01*
X71569Y-50998D01*
X71430Y-50939D01*
X71611Y-50865D01*
X71765Y-50711D01*
X71849Y-50509D01*
X71849Y-57450D01*
X70700Y-57450D01*
X70700Y-60950D01*
X62725Y-60950D01*
X62725Y-35605D01*
X62725Y-35396D01*
X62645Y-35203D01*
X62498Y-35055D01*
X62357Y-34996D01*
X62467Y-34952D01*
X62490Y-34861D01*
X62200Y-34571D01*
X61910Y-34861D01*
X61933Y-34952D01*
X62051Y-34993D01*
X61903Y-35055D01*
X61755Y-35202D01*
X61675Y-35395D01*
X61675Y-35406D01*
X61603Y-35231D01*
X61469Y-35098D01*
X61295Y-35025D01*
X61304Y-35025D01*
X61497Y-34945D01*
X61645Y-34798D01*
X61703Y-34657D01*
X61748Y-34767D01*
X61839Y-34790D01*
X62129Y-34500D01*
X61839Y-34210D01*
X61748Y-34233D01*
X61706Y-34351D01*
X61645Y-34203D01*
X61498Y-34055D01*
X61490Y-34051D01*
X61490Y-31861D01*
X61200Y-31571D01*
X60910Y-31861D01*
X60933Y-31952D01*
X61126Y-32019D01*
X61330Y-32008D01*
X61467Y-31952D01*
X61490Y-31861D01*
X61490Y-34051D01*
X61305Y-33975D01*
X61096Y-33975D01*
X60903Y-34055D01*
X60755Y-34202D01*
X60699Y-34335D01*
X60645Y-34203D01*
X60498Y-34055D01*
X60305Y-33975D01*
X60096Y-33975D01*
X59903Y-34055D01*
X59755Y-34202D01*
X59699Y-34335D01*
X59645Y-34203D01*
X59500Y-34057D01*
X59500Y-33201D01*
X59560Y-33141D01*
X59625Y-32985D01*
X59625Y-32816D01*
X59561Y-32660D01*
X59441Y-32540D01*
X59285Y-32475D01*
X59116Y-32475D01*
X59081Y-32489D01*
X59125Y-32385D01*
X59125Y-32216D01*
X59061Y-32060D01*
X58977Y-31976D01*
X59095Y-32025D01*
X59304Y-32025D01*
X59497Y-31945D01*
X59645Y-31798D01*
X59700Y-31664D01*
X59755Y-31797D01*
X59902Y-31945D01*
X60095Y-32025D01*
X60304Y-32025D01*
X60497Y-31945D01*
X60645Y-31798D01*
X60703Y-31657D01*
X60748Y-31767D01*
X60839Y-31790D01*
X61129Y-31500D01*
X60839Y-31210D01*
X60748Y-31233D01*
X60706Y-31351D01*
X60645Y-31203D01*
X60498Y-31055D01*
X60305Y-30975D01*
X60096Y-30975D01*
X59903Y-31055D01*
X59755Y-31202D01*
X59699Y-31335D01*
X59645Y-31203D01*
X59498Y-31055D01*
X59305Y-30975D01*
X59230Y-30975D01*
X59230Y-29006D01*
X59230Y-28795D01*
X59225Y-28782D01*
X59225Y-27205D01*
X59225Y-26996D01*
X59145Y-26803D01*
X58998Y-26655D01*
X58805Y-26575D01*
X58596Y-26575D01*
X58403Y-26655D01*
X58255Y-26802D01*
X58196Y-26942D01*
X58152Y-26833D01*
X58061Y-26810D01*
X57990Y-26881D01*
X57990Y-26739D01*
X57967Y-26648D01*
X57808Y-26592D01*
X57808Y-25978D01*
X57500Y-25671D01*
X57429Y-25741D01*
X57429Y-25600D01*
X57122Y-25292D01*
X57028Y-25319D01*
X56957Y-25521D01*
X56968Y-25734D01*
X57028Y-25881D01*
X57122Y-25908D01*
X57429Y-25600D01*
X57429Y-25741D01*
X57192Y-25978D01*
X57219Y-26072D01*
X57421Y-26143D01*
X57634Y-26132D01*
X57781Y-26072D01*
X57808Y-25978D01*
X57808Y-26592D01*
X57774Y-26581D01*
X57570Y-26592D01*
X57433Y-26648D01*
X57410Y-26739D01*
X57700Y-27029D01*
X57990Y-26739D01*
X57990Y-26881D01*
X57771Y-27100D01*
X58061Y-27390D01*
X58152Y-27367D01*
X58193Y-27248D01*
X58255Y-27397D01*
X58402Y-27545D01*
X58595Y-27625D01*
X58804Y-27625D01*
X58997Y-27545D01*
X59145Y-27398D01*
X59225Y-27205D01*
X59225Y-28782D01*
X59149Y-28600D01*
X59001Y-28451D01*
X58806Y-28370D01*
X58595Y-28370D01*
X58400Y-28451D01*
X58251Y-28599D01*
X58170Y-28794D01*
X58170Y-29005D01*
X58251Y-29200D01*
X58399Y-29349D01*
X58594Y-29430D01*
X58805Y-29430D01*
X59000Y-29349D01*
X59149Y-29201D01*
X59230Y-29006D01*
X59230Y-30975D01*
X59096Y-30975D01*
X58903Y-31055D01*
X58755Y-31202D01*
X58699Y-31335D01*
X58645Y-31203D01*
X58498Y-31055D01*
X58305Y-30975D01*
X58294Y-30975D01*
X58469Y-30903D01*
X58602Y-30769D01*
X58675Y-30595D01*
X58675Y-30406D01*
X58603Y-30231D01*
X58469Y-30098D01*
X58295Y-30025D01*
X58106Y-30025D01*
X57990Y-30072D01*
X57990Y-27461D01*
X57700Y-27171D01*
X57629Y-27242D01*
X57629Y-27100D01*
X57339Y-26810D01*
X57248Y-26833D01*
X57181Y-27026D01*
X57192Y-27230D01*
X57248Y-27367D01*
X57339Y-27390D01*
X57629Y-27100D01*
X57629Y-27242D01*
X57410Y-27461D01*
X57433Y-27552D01*
X57626Y-27619D01*
X57830Y-27608D01*
X57967Y-27552D01*
X57990Y-27461D01*
X57990Y-30072D01*
X57931Y-30097D01*
X57798Y-30231D01*
X57725Y-30405D01*
X57725Y-30594D01*
X57797Y-30769D01*
X57931Y-30902D01*
X58105Y-30975D01*
X58096Y-30975D01*
X57903Y-31055D01*
X57755Y-31202D01*
X57699Y-31335D01*
X57645Y-31203D01*
X57498Y-31055D01*
X57305Y-30975D01*
X57294Y-30975D01*
X57469Y-30903D01*
X57602Y-30769D01*
X57675Y-30595D01*
X57675Y-30406D01*
X57603Y-30231D01*
X57469Y-30098D01*
X57295Y-30025D01*
X57106Y-30025D01*
X56931Y-30097D01*
X56798Y-30231D01*
X56725Y-30405D01*
X56725Y-30594D01*
X56797Y-30769D01*
X56931Y-30902D01*
X57105Y-30975D01*
X57096Y-30975D01*
X56903Y-31055D01*
X56755Y-31202D01*
X56699Y-31335D01*
X56645Y-31203D01*
X56498Y-31055D01*
X56305Y-30975D01*
X56294Y-30975D01*
X56469Y-30903D01*
X56602Y-30769D01*
X56675Y-30595D01*
X56675Y-30406D01*
X56603Y-30231D01*
X56469Y-30098D01*
X56295Y-30025D01*
X56106Y-30025D01*
X56025Y-30058D01*
X56025Y-27605D01*
X56025Y-27396D01*
X55945Y-27203D01*
X55798Y-27055D01*
X55605Y-26975D01*
X55396Y-26975D01*
X55203Y-27055D01*
X55055Y-27202D01*
X54975Y-27395D01*
X54975Y-27604D01*
X55055Y-27797D01*
X55202Y-27945D01*
X55395Y-28025D01*
X55604Y-28025D01*
X55797Y-27945D01*
X55945Y-27798D01*
X56025Y-27605D01*
X56025Y-30058D01*
X55931Y-30097D01*
X55798Y-30231D01*
X55725Y-30405D01*
X55725Y-30594D01*
X55797Y-30769D01*
X55931Y-30902D01*
X56105Y-30975D01*
X56096Y-30975D01*
X55903Y-31055D01*
X55755Y-31202D01*
X55699Y-31335D01*
X55645Y-31203D01*
X55498Y-31055D01*
X55305Y-30975D01*
X55294Y-30975D01*
X55469Y-30903D01*
X55602Y-30769D01*
X55675Y-30595D01*
X55675Y-30406D01*
X55603Y-30231D01*
X55525Y-30153D01*
X55525Y-28905D01*
X55525Y-28696D01*
X55445Y-28503D01*
X55298Y-28355D01*
X55105Y-28275D01*
X54896Y-28275D01*
X54703Y-28355D01*
X54555Y-28502D01*
X54499Y-28635D01*
X54445Y-28503D01*
X54298Y-28355D01*
X54105Y-28275D01*
X54019Y-28275D01*
X54019Y-27574D01*
X54019Y-24574D01*
X54008Y-24370D01*
X53952Y-24233D01*
X53861Y-24210D01*
X53571Y-24500D01*
X53861Y-24790D01*
X53952Y-24767D01*
X54019Y-24574D01*
X54019Y-27574D01*
X54008Y-27370D01*
X53952Y-27233D01*
X53861Y-27210D01*
X53790Y-27281D01*
X53790Y-27139D01*
X53790Y-24861D01*
X53500Y-24571D01*
X53429Y-24642D01*
X53429Y-24500D01*
X53139Y-24210D01*
X53048Y-24233D01*
X52981Y-24426D01*
X52992Y-24630D01*
X53048Y-24767D01*
X53139Y-24790D01*
X53429Y-24500D01*
X53429Y-24642D01*
X53210Y-24861D01*
X53233Y-24952D01*
X53426Y-25019D01*
X53630Y-25008D01*
X53767Y-24952D01*
X53790Y-24861D01*
X53790Y-27139D01*
X53767Y-27048D01*
X53574Y-26981D01*
X53370Y-26992D01*
X53233Y-27048D01*
X53210Y-27139D01*
X53500Y-27429D01*
X53790Y-27139D01*
X53790Y-27281D01*
X53571Y-27500D01*
X53861Y-27790D01*
X53952Y-27767D01*
X54019Y-27574D01*
X54019Y-28275D01*
X53896Y-28275D01*
X53790Y-28318D01*
X53790Y-27861D01*
X53500Y-27571D01*
X53429Y-27642D01*
X53429Y-27500D01*
X53139Y-27210D01*
X53048Y-27233D01*
X52981Y-27426D01*
X52992Y-27630D01*
X53048Y-27767D01*
X53139Y-27790D01*
X53429Y-27500D01*
X53429Y-27642D01*
X53210Y-27861D01*
X53233Y-27952D01*
X53426Y-28019D01*
X53630Y-28008D01*
X53767Y-27952D01*
X53790Y-27861D01*
X53790Y-28318D01*
X53703Y-28355D01*
X53555Y-28502D01*
X53475Y-28695D01*
X53475Y-28904D01*
X53555Y-29097D01*
X53702Y-29245D01*
X53895Y-29325D01*
X54104Y-29325D01*
X54297Y-29245D01*
X54445Y-29098D01*
X54500Y-28964D01*
X54555Y-29097D01*
X54702Y-29245D01*
X54895Y-29325D01*
X55104Y-29325D01*
X55297Y-29245D01*
X55445Y-29098D01*
X55525Y-28905D01*
X55525Y-30153D01*
X55469Y-30098D01*
X55295Y-30025D01*
X55106Y-30025D01*
X54931Y-30097D01*
X54798Y-30231D01*
X54725Y-30405D01*
X54725Y-30594D01*
X54797Y-30769D01*
X54931Y-30902D01*
X55105Y-30975D01*
X55096Y-30975D01*
X54903Y-31055D01*
X54755Y-31202D01*
X54675Y-31395D01*
X54675Y-31604D01*
X54755Y-31797D01*
X54902Y-31945D01*
X55095Y-32025D01*
X55304Y-32025D01*
X55497Y-31945D01*
X55645Y-31798D01*
X55700Y-31664D01*
X55755Y-31797D01*
X55902Y-31945D01*
X56095Y-32025D01*
X56304Y-32025D01*
X56497Y-31945D01*
X56645Y-31798D01*
X56700Y-31664D01*
X56755Y-31797D01*
X56902Y-31945D01*
X57095Y-32025D01*
X57304Y-32025D01*
X57423Y-31975D01*
X57340Y-32059D01*
X57275Y-32215D01*
X57275Y-32301D01*
X56988Y-32588D01*
X56923Y-32685D01*
X56900Y-32800D01*
X56900Y-34057D01*
X56755Y-34202D01*
X56699Y-34335D01*
X56645Y-34203D01*
X56498Y-34055D01*
X56305Y-33975D01*
X56096Y-33975D01*
X55903Y-34055D01*
X55755Y-34202D01*
X55699Y-34335D01*
X55645Y-34203D01*
X55498Y-34055D01*
X55305Y-33975D01*
X55096Y-33975D01*
X54903Y-34055D01*
X54755Y-34202D01*
X54675Y-34395D01*
X54675Y-34604D01*
X54755Y-34797D01*
X54902Y-34945D01*
X55095Y-35025D01*
X55304Y-35025D01*
X55497Y-34945D01*
X55645Y-34798D01*
X55700Y-34664D01*
X55755Y-34797D01*
X55902Y-34945D01*
X56095Y-35025D01*
X56304Y-35025D01*
X56497Y-34945D01*
X56645Y-34798D01*
X56700Y-34664D01*
X56755Y-34797D01*
X56902Y-34945D01*
X57095Y-35025D01*
X57304Y-35025D01*
X57497Y-34945D01*
X57645Y-34798D01*
X57700Y-34664D01*
X57755Y-34797D01*
X57902Y-34945D01*
X58095Y-35025D01*
X58304Y-35025D01*
X58497Y-34945D01*
X58645Y-34798D01*
X58700Y-34664D01*
X58755Y-34797D01*
X58902Y-34945D01*
X59095Y-35025D01*
X59304Y-35025D01*
X59497Y-34945D01*
X59645Y-34798D01*
X59700Y-34664D01*
X59755Y-34797D01*
X59902Y-34945D01*
X60035Y-35000D01*
X59903Y-35055D01*
X59755Y-35202D01*
X59675Y-35395D01*
X59675Y-35604D01*
X59755Y-35797D01*
X59902Y-35945D01*
X60042Y-36003D01*
X59933Y-36048D01*
X59910Y-36139D01*
X60200Y-36429D01*
X60490Y-36139D01*
X60467Y-36048D01*
X60348Y-36006D01*
X60497Y-35945D01*
X60645Y-35798D01*
X60725Y-35605D01*
X60725Y-35594D01*
X60797Y-35769D01*
X60931Y-35902D01*
X61105Y-35975D01*
X61294Y-35975D01*
X61469Y-35903D01*
X61602Y-35769D01*
X61675Y-35595D01*
X61675Y-35604D01*
X61755Y-35797D01*
X61902Y-35945D01*
X62042Y-36003D01*
X61933Y-36048D01*
X61910Y-36139D01*
X62200Y-36429D01*
X62490Y-36139D01*
X62467Y-36048D01*
X62348Y-36006D01*
X62497Y-35945D01*
X62645Y-35798D01*
X62725Y-35605D01*
X62725Y-60950D01*
X62719Y-60950D01*
X62719Y-36574D01*
X62708Y-36370D01*
X62652Y-36233D01*
X62561Y-36210D01*
X62271Y-36500D01*
X62561Y-36790D01*
X62652Y-36767D01*
X62719Y-36574D01*
X62719Y-60950D01*
X62490Y-60950D01*
X62490Y-36861D01*
X62200Y-36571D01*
X62129Y-36642D01*
X62129Y-36500D01*
X61839Y-36210D01*
X61748Y-36233D01*
X61681Y-36426D01*
X61692Y-36630D01*
X61748Y-36767D01*
X61839Y-36790D01*
X62129Y-36500D01*
X62129Y-36642D01*
X61910Y-36861D01*
X61933Y-36952D01*
X62126Y-37019D01*
X62330Y-37008D01*
X62467Y-36952D01*
X62490Y-36861D01*
X62490Y-60950D01*
X60725Y-60950D01*
X60725Y-39985D01*
X60725Y-39816D01*
X60719Y-39801D01*
X60719Y-36574D01*
X60708Y-36370D01*
X60652Y-36233D01*
X60561Y-36210D01*
X60271Y-36500D01*
X60561Y-36790D01*
X60652Y-36767D01*
X60719Y-36574D01*
X60719Y-39801D01*
X60661Y-39660D01*
X60541Y-39540D01*
X60490Y-39518D01*
X60490Y-36861D01*
X60200Y-36571D01*
X60129Y-36642D01*
X60129Y-36500D01*
X59839Y-36210D01*
X59748Y-36233D01*
X59681Y-36426D01*
X59692Y-36630D01*
X59748Y-36767D01*
X59839Y-36790D01*
X60129Y-36500D01*
X60129Y-36642D01*
X59910Y-36861D01*
X59933Y-36952D01*
X60126Y-37019D01*
X60330Y-37008D01*
X60467Y-36952D01*
X60490Y-36861D01*
X60490Y-39518D01*
X60385Y-39475D01*
X60216Y-39475D01*
X60060Y-39539D01*
X59940Y-39659D01*
X59875Y-39815D01*
X59875Y-39830D01*
X58455Y-41250D01*
X56851Y-41250D01*
X56841Y-41240D01*
X56685Y-41175D01*
X56550Y-41175D01*
X56550Y-40800D01*
X56549Y-40799D01*
X56516Y-40628D01*
X56515Y-40627D01*
X56483Y-40579D01*
X56418Y-40482D01*
X56418Y-40481D01*
X53625Y-37688D01*
X53625Y-33705D01*
X53625Y-33496D01*
X53619Y-33481D01*
X53619Y-32674D01*
X53608Y-32470D01*
X53552Y-32333D01*
X53461Y-32310D01*
X53390Y-32381D01*
X53390Y-32239D01*
X53367Y-32148D01*
X53174Y-32081D01*
X52970Y-32092D01*
X52833Y-32148D01*
X52810Y-32239D01*
X53100Y-32529D01*
X53390Y-32239D01*
X53390Y-32381D01*
X53171Y-32600D01*
X53461Y-32890D01*
X53552Y-32867D01*
X53619Y-32674D01*
X53619Y-33481D01*
X53545Y-33303D01*
X53398Y-33155D01*
X53257Y-33096D01*
X53367Y-33052D01*
X53390Y-32961D01*
X53100Y-32671D01*
X53029Y-32742D01*
X53029Y-32600D01*
X52739Y-32310D01*
X52719Y-32315D01*
X52719Y-26874D01*
X52708Y-26670D01*
X52652Y-26533D01*
X52561Y-26510D01*
X52490Y-26581D01*
X52490Y-26439D01*
X52467Y-26348D01*
X52274Y-26281D01*
X52070Y-26292D01*
X51933Y-26348D01*
X51910Y-26439D01*
X52200Y-26729D01*
X52490Y-26439D01*
X52490Y-26581D01*
X52271Y-26800D01*
X52561Y-27090D01*
X52652Y-27067D01*
X52719Y-26874D01*
X52719Y-32315D01*
X52648Y-32333D01*
X52581Y-32526D01*
X52592Y-32730D01*
X52648Y-32867D01*
X52739Y-32890D01*
X53029Y-32600D01*
X53029Y-32742D01*
X52810Y-32961D01*
X52833Y-33052D01*
X52951Y-33093D01*
X52803Y-33155D01*
X52655Y-33302D01*
X52575Y-33495D01*
X52575Y-33704D01*
X52655Y-33897D01*
X52802Y-34045D01*
X52995Y-34125D01*
X53204Y-34125D01*
X53397Y-34045D01*
X53545Y-33898D01*
X53625Y-33705D01*
X53625Y-37688D01*
X52490Y-36553D01*
X52490Y-27161D01*
X52200Y-26871D01*
X52129Y-26942D01*
X52129Y-26800D01*
X51839Y-26510D01*
X51748Y-26533D01*
X51706Y-26651D01*
X51645Y-26503D01*
X51498Y-26355D01*
X51305Y-26275D01*
X51096Y-26275D01*
X50903Y-26355D01*
X50755Y-26502D01*
X50675Y-26695D01*
X50675Y-26904D01*
X50755Y-27097D01*
X50902Y-27245D01*
X51095Y-27325D01*
X51304Y-27325D01*
X51497Y-27245D01*
X51645Y-27098D01*
X51703Y-26957D01*
X51748Y-27067D01*
X51839Y-27090D01*
X52129Y-26800D01*
X52129Y-26942D01*
X51910Y-27161D01*
X51933Y-27252D01*
X52126Y-27319D01*
X52330Y-27308D01*
X52467Y-27252D01*
X52490Y-27161D01*
X52490Y-36553D01*
X52275Y-36338D01*
X52275Y-33795D01*
X52275Y-33606D01*
X52203Y-33431D01*
X52069Y-33298D01*
X51895Y-33225D01*
X51706Y-33225D01*
X51531Y-33297D01*
X51398Y-33431D01*
X51325Y-33605D01*
X51325Y-33794D01*
X51397Y-33969D01*
X51531Y-34102D01*
X51705Y-34175D01*
X51894Y-34175D01*
X52069Y-34103D01*
X52202Y-33969D01*
X52275Y-33795D01*
X52275Y-36338D01*
X50060Y-34124D01*
X50424Y-34124D01*
X50516Y-34086D01*
X50586Y-34016D01*
X50624Y-33925D01*
X50624Y-33826D01*
X50624Y-33276D01*
X50586Y-33184D01*
X50516Y-33114D01*
X50425Y-33076D01*
X50326Y-33076D01*
X50322Y-33076D01*
X50397Y-33045D01*
X50545Y-32898D01*
X50625Y-32705D01*
X50625Y-32496D01*
X50545Y-32303D01*
X50398Y-32155D01*
X50205Y-32075D01*
X49996Y-32075D01*
X49803Y-32155D01*
X49655Y-32302D01*
X49575Y-32495D01*
X49575Y-32704D01*
X49655Y-32897D01*
X49802Y-33045D01*
X49876Y-33076D01*
X49776Y-33076D01*
X49684Y-33114D01*
X49614Y-33184D01*
X49576Y-33275D01*
X49576Y-33374D01*
X49576Y-33639D01*
X48895Y-32958D01*
X48895Y-27638D01*
X48895Y-27163D01*
X48872Y-27107D01*
X48872Y-25230D01*
X48871Y-24764D01*
X48694Y-24340D01*
X48535Y-24236D01*
X47771Y-25000D01*
X48535Y-25764D01*
X48694Y-25660D01*
X48872Y-25230D01*
X48872Y-27107D01*
X48713Y-26724D01*
X48464Y-26474D01*
X48377Y-26387D01*
X47938Y-26205D01*
X47463Y-26205D01*
X47024Y-26387D01*
X46840Y-26570D01*
X46895Y-26438D01*
X46895Y-25963D01*
X46861Y-25882D01*
X46910Y-25931D01*
X46963Y-25877D01*
X47040Y-25994D01*
X47470Y-26172D01*
X47936Y-26171D01*
X48360Y-25994D01*
X48464Y-25835D01*
X47735Y-25106D01*
X47700Y-25071D01*
X47629Y-25000D01*
X47594Y-24965D01*
X46865Y-24236D01*
X46706Y-24340D01*
X46528Y-24770D01*
X46529Y-25236D01*
X46603Y-25413D01*
X46377Y-25187D01*
X45938Y-25005D01*
X45463Y-25005D01*
X45024Y-25187D01*
X44687Y-25523D01*
X44505Y-25962D01*
X44505Y-26437D01*
X44687Y-26876D01*
X45023Y-27213D01*
X45462Y-27395D01*
X45937Y-27395D01*
X46376Y-27213D01*
X46559Y-27029D01*
X46505Y-27162D01*
X46505Y-27637D01*
X46687Y-28076D01*
X47023Y-28413D01*
X47462Y-28595D01*
X47937Y-28595D01*
X48376Y-28413D01*
X48713Y-28077D01*
X48895Y-27638D01*
X48895Y-32958D01*
X44734Y-28798D01*
X44695Y-28703D01*
X44548Y-28555D01*
X44355Y-28475D01*
X44146Y-28475D01*
X43953Y-28555D01*
X43805Y-28702D01*
X43800Y-28714D01*
X43800Y-25271D01*
X43800Y-24729D01*
X43521Y-24450D01*
X42979Y-24450D01*
X42700Y-24729D01*
X42700Y-25271D01*
X42979Y-25550D01*
X43095Y-25550D01*
X42981Y-25597D01*
X42848Y-25731D01*
X42775Y-25905D01*
X42775Y-26094D01*
X42847Y-26269D01*
X42981Y-26402D01*
X43155Y-26475D01*
X43344Y-26475D01*
X43519Y-26403D01*
X43652Y-26269D01*
X43725Y-26095D01*
X43725Y-25906D01*
X43653Y-25731D01*
X43519Y-25598D01*
X43404Y-25550D01*
X43521Y-25550D01*
X43800Y-25271D01*
X43800Y-28714D01*
X43725Y-28895D01*
X43725Y-27095D01*
X43725Y-26906D01*
X43653Y-26731D01*
X43519Y-26598D01*
X43345Y-26525D01*
X43156Y-26525D01*
X42981Y-26597D01*
X42848Y-26731D01*
X42775Y-26905D01*
X42775Y-27094D01*
X42847Y-27269D01*
X42981Y-27402D01*
X43155Y-27475D01*
X43344Y-27475D01*
X43519Y-27403D01*
X43652Y-27269D01*
X43725Y-27095D01*
X43725Y-28895D01*
X43725Y-29104D01*
X43800Y-29284D01*
X43805Y-29297D01*
X43952Y-29445D01*
X44145Y-29525D01*
X44188Y-29525D01*
X47893Y-33230D01*
X47731Y-33297D01*
X47598Y-33431D01*
X47525Y-33605D01*
X47525Y-33794D01*
X47597Y-33969D01*
X47731Y-34102D01*
X47905Y-34175D01*
X48094Y-34175D01*
X48269Y-34103D01*
X48402Y-33969D01*
X48470Y-33806D01*
X55650Y-40986D01*
X55650Y-41600D01*
X55650Y-43600D01*
X55650Y-45600D01*
X55650Y-47600D01*
X55650Y-49600D01*
X55650Y-51600D01*
X55650Y-53600D01*
X55650Y-55500D01*
X55684Y-55672D01*
X55782Y-55818D01*
X55928Y-55916D01*
X56100Y-55950D01*
X56272Y-55916D01*
X56357Y-55858D01*
X56359Y-55860D01*
X56515Y-55925D01*
X56684Y-55925D01*
X56840Y-55861D01*
X56960Y-55741D01*
X57025Y-55585D01*
X57025Y-55416D01*
X56961Y-55260D01*
X56841Y-55140D01*
X56685Y-55075D01*
X56550Y-55075D01*
X56550Y-54025D01*
X56684Y-54025D01*
X56840Y-53961D01*
X56960Y-53841D01*
X57025Y-53685D01*
X57025Y-53516D01*
X56961Y-53360D01*
X56841Y-53240D01*
X56685Y-53175D01*
X56550Y-53175D01*
X56550Y-52025D01*
X56684Y-52025D01*
X56840Y-51961D01*
X56960Y-51841D01*
X57025Y-51685D01*
X57025Y-51516D01*
X56961Y-51360D01*
X56841Y-51240D01*
X56685Y-51175D01*
X56550Y-51175D01*
X56550Y-50025D01*
X56684Y-50025D01*
X56840Y-49961D01*
X56960Y-49841D01*
X57025Y-49685D01*
X57025Y-49516D01*
X56961Y-49360D01*
X56841Y-49240D01*
X56685Y-49175D01*
X56550Y-49175D01*
X56550Y-48025D01*
X56684Y-48025D01*
X56840Y-47961D01*
X56960Y-47841D01*
X57025Y-47685D01*
X57025Y-47516D01*
X56961Y-47360D01*
X56841Y-47240D01*
X56685Y-47175D01*
X56550Y-47175D01*
X56550Y-46025D01*
X56684Y-46025D01*
X56840Y-45961D01*
X56960Y-45841D01*
X57025Y-45685D01*
X57025Y-45516D01*
X56961Y-45360D01*
X56841Y-45240D01*
X56685Y-45175D01*
X56550Y-45175D01*
X56550Y-44025D01*
X56684Y-44025D01*
X56840Y-43961D01*
X56960Y-43841D01*
X57025Y-43685D01*
X57025Y-43516D01*
X56961Y-43360D01*
X56841Y-43240D01*
X56685Y-43175D01*
X56550Y-43175D01*
X56550Y-42025D01*
X56684Y-42025D01*
X56840Y-41961D01*
X56851Y-41950D01*
X58600Y-41950D01*
X58600Y-41949D01*
X58734Y-41923D01*
X58847Y-41847D01*
X60369Y-40325D01*
X60384Y-40325D01*
X60540Y-40261D01*
X60660Y-40141D01*
X60725Y-39985D01*
X60725Y-60950D01*
X47125Y-60950D01*
X47125Y-57805D01*
X47125Y-57596D01*
X47045Y-57403D01*
X46898Y-57255D01*
X46764Y-57199D01*
X46897Y-57145D01*
X47045Y-56998D01*
X47125Y-56805D01*
X47125Y-56596D01*
X47045Y-56403D01*
X46898Y-56255D01*
X46764Y-56199D01*
X46897Y-56145D01*
X47045Y-55998D01*
X47125Y-55805D01*
X47125Y-55596D01*
X47045Y-55403D01*
X46898Y-55255D01*
X46764Y-55199D01*
X46897Y-55145D01*
X47045Y-54998D01*
X47125Y-54805D01*
X47125Y-54596D01*
X47045Y-54403D01*
X46898Y-54255D01*
X46764Y-54199D01*
X46897Y-54145D01*
X47045Y-53998D01*
X47125Y-53805D01*
X47125Y-53596D01*
X47045Y-53403D01*
X46898Y-53255D01*
X46764Y-53199D01*
X46897Y-53145D01*
X47045Y-52998D01*
X47125Y-52805D01*
X47125Y-52596D01*
X47119Y-52581D01*
X47119Y-51774D01*
X47108Y-51570D01*
X47052Y-51433D01*
X46961Y-51410D01*
X46890Y-51481D01*
X46890Y-51339D01*
X46867Y-51248D01*
X46825Y-51233D01*
X46825Y-32705D01*
X46825Y-32496D01*
X46745Y-32303D01*
X46598Y-32155D01*
X46405Y-32075D01*
X46196Y-32075D01*
X46003Y-32155D01*
X45855Y-32302D01*
X45775Y-32495D01*
X45775Y-32704D01*
X45855Y-32897D01*
X46002Y-33045D01*
X46076Y-33076D01*
X45976Y-33076D01*
X45884Y-33114D01*
X45814Y-33184D01*
X45776Y-33275D01*
X45776Y-33374D01*
X45776Y-33924D01*
X45814Y-34016D01*
X45884Y-34086D01*
X45975Y-34124D01*
X46074Y-34124D01*
X46624Y-34124D01*
X46716Y-34086D01*
X46786Y-34016D01*
X46824Y-33925D01*
X46824Y-33826D01*
X46824Y-33276D01*
X46786Y-33184D01*
X46716Y-33114D01*
X46625Y-33076D01*
X46526Y-33076D01*
X46522Y-33076D01*
X46597Y-33045D01*
X46745Y-32898D01*
X46825Y-32705D01*
X46825Y-51233D01*
X46674Y-51181D01*
X46470Y-51192D01*
X46333Y-51248D01*
X46310Y-51339D01*
X46600Y-51629D01*
X46890Y-51339D01*
X46890Y-51481D01*
X46671Y-51700D01*
X46961Y-51990D01*
X47052Y-51967D01*
X47119Y-51774D01*
X47119Y-52581D01*
X47045Y-52403D01*
X46898Y-52255D01*
X46757Y-52196D01*
X46867Y-52152D01*
X46890Y-52061D01*
X46600Y-51771D01*
X46529Y-51842D01*
X46529Y-51700D01*
X46239Y-51410D01*
X46148Y-51433D01*
X46125Y-51499D01*
X46125Y-45605D01*
X46125Y-45396D01*
X46045Y-45203D01*
X45898Y-45055D01*
X45764Y-44999D01*
X45897Y-44945D01*
X46045Y-44798D01*
X46125Y-44605D01*
X46125Y-44396D01*
X46045Y-44203D01*
X45898Y-44055D01*
X45764Y-43999D01*
X45897Y-43945D01*
X46045Y-43798D01*
X46125Y-43605D01*
X46125Y-43396D01*
X46045Y-43203D01*
X45898Y-43055D01*
X45764Y-42999D01*
X45897Y-42945D01*
X46045Y-42798D01*
X46125Y-42605D01*
X46125Y-42396D01*
X46045Y-42203D01*
X45898Y-42055D01*
X45764Y-41999D01*
X45897Y-41945D01*
X46045Y-41798D01*
X46125Y-41605D01*
X46125Y-41396D01*
X46045Y-41203D01*
X45898Y-41055D01*
X45764Y-40999D01*
X45897Y-40945D01*
X46045Y-40798D01*
X46125Y-40605D01*
X46125Y-40396D01*
X46045Y-40203D01*
X45898Y-40055D01*
X45764Y-39999D01*
X45897Y-39945D01*
X46045Y-39798D01*
X46125Y-39605D01*
X46125Y-39396D01*
X46045Y-39203D01*
X45898Y-39055D01*
X45823Y-39024D01*
X45924Y-39024D01*
X46016Y-38986D01*
X46086Y-38916D01*
X46124Y-38825D01*
X46124Y-38726D01*
X46124Y-38176D01*
X46086Y-38084D01*
X46016Y-38014D01*
X45925Y-37976D01*
X45826Y-37976D01*
X45276Y-37976D01*
X45184Y-38014D01*
X45114Y-38084D01*
X45076Y-38175D01*
X45076Y-38274D01*
X45076Y-38824D01*
X45114Y-38916D01*
X45184Y-38986D01*
X45275Y-39024D01*
X45374Y-39024D01*
X45303Y-39055D01*
X45155Y-39202D01*
X45075Y-39395D01*
X45075Y-39604D01*
X45155Y-39797D01*
X45302Y-39945D01*
X45435Y-40000D01*
X45303Y-40055D01*
X45155Y-40202D01*
X45075Y-40395D01*
X45075Y-40604D01*
X45155Y-40797D01*
X45302Y-40945D01*
X45435Y-41000D01*
X45303Y-41055D01*
X45155Y-41202D01*
X45075Y-41395D01*
X45075Y-41604D01*
X45155Y-41797D01*
X45302Y-41945D01*
X45435Y-42000D01*
X45303Y-42055D01*
X45155Y-42202D01*
X45075Y-42395D01*
X45075Y-42604D01*
X45155Y-42797D01*
X45302Y-42945D01*
X45435Y-43000D01*
X45303Y-43055D01*
X45155Y-43202D01*
X45075Y-43395D01*
X45075Y-43604D01*
X45155Y-43797D01*
X45302Y-43945D01*
X45435Y-44000D01*
X45303Y-44055D01*
X45155Y-44202D01*
X45075Y-44395D01*
X45075Y-44604D01*
X45155Y-44797D01*
X45302Y-44945D01*
X45435Y-45000D01*
X45303Y-45055D01*
X45155Y-45202D01*
X45075Y-45395D01*
X45075Y-45604D01*
X45155Y-45797D01*
X45302Y-45945D01*
X45495Y-46025D01*
X45704Y-46025D01*
X45897Y-45945D01*
X46045Y-45798D01*
X46125Y-45605D01*
X46125Y-51499D01*
X46081Y-51626D01*
X46092Y-51830D01*
X46148Y-51967D01*
X46239Y-51990D01*
X46529Y-51700D01*
X46529Y-51842D01*
X46310Y-52061D01*
X46333Y-52152D01*
X46451Y-52193D01*
X46303Y-52255D01*
X46155Y-52402D01*
X46075Y-52595D01*
X46075Y-52804D01*
X46155Y-52997D01*
X46302Y-53145D01*
X46435Y-53200D01*
X46303Y-53255D01*
X46155Y-53402D01*
X46075Y-53595D01*
X46075Y-53804D01*
X46155Y-53997D01*
X46302Y-54145D01*
X46435Y-54200D01*
X46303Y-54255D01*
X46155Y-54402D01*
X46075Y-54595D01*
X46075Y-54804D01*
X46155Y-54997D01*
X46302Y-55145D01*
X46435Y-55200D01*
X46303Y-55255D01*
X46155Y-55402D01*
X46075Y-55595D01*
X46075Y-55804D01*
X46155Y-55997D01*
X46302Y-56145D01*
X46435Y-56200D01*
X46303Y-56255D01*
X46155Y-56402D01*
X46075Y-56595D01*
X46075Y-56804D01*
X46155Y-56997D01*
X46302Y-57145D01*
X46435Y-57200D01*
X46303Y-57255D01*
X46155Y-57402D01*
X46075Y-57595D01*
X46075Y-57804D01*
X46155Y-57997D01*
X46302Y-58145D01*
X46376Y-58176D01*
X46276Y-58176D01*
X46184Y-58214D01*
X46114Y-58284D01*
X46076Y-58375D01*
X46076Y-58474D01*
X46076Y-59024D01*
X46114Y-59116D01*
X46184Y-59186D01*
X46275Y-59224D01*
X46374Y-59224D01*
X46924Y-59224D01*
X47016Y-59186D01*
X47086Y-59116D01*
X47124Y-59025D01*
X47124Y-58926D01*
X47124Y-58376D01*
X47086Y-58284D01*
X47016Y-58214D01*
X46925Y-58176D01*
X46826Y-58176D01*
X46822Y-58176D01*
X46897Y-58145D01*
X47045Y-57998D01*
X47125Y-57805D01*
X47125Y-60950D01*
X45525Y-60950D01*
X45525Y-49585D01*
X45525Y-49416D01*
X45461Y-49260D01*
X45341Y-49140D01*
X45185Y-49075D01*
X45016Y-49075D01*
X44860Y-49139D01*
X44799Y-49200D01*
X44774Y-49200D01*
X44774Y-32325D01*
X44774Y-32226D01*
X44774Y-31676D01*
X44736Y-31584D01*
X44666Y-31514D01*
X44575Y-31476D01*
X44476Y-31476D01*
X43926Y-31476D01*
X43834Y-31514D01*
X43800Y-31548D01*
X43764Y-31584D01*
X43726Y-31675D01*
X43726Y-31774D01*
X43726Y-32324D01*
X43764Y-32416D01*
X43800Y-32452D01*
X43834Y-32486D01*
X43925Y-32524D01*
X44024Y-32524D01*
X44574Y-32524D01*
X44666Y-32486D01*
X44736Y-32416D01*
X44774Y-32325D01*
X44774Y-49200D01*
X44625Y-49200D01*
X44625Y-47605D01*
X44625Y-47396D01*
X44545Y-47203D01*
X44398Y-47055D01*
X44264Y-46999D01*
X44397Y-46945D01*
X44545Y-46798D01*
X44625Y-46605D01*
X44625Y-46396D01*
X44545Y-46203D01*
X44398Y-46055D01*
X44264Y-45999D01*
X44397Y-45945D01*
X44545Y-45798D01*
X44625Y-45605D01*
X44625Y-45396D01*
X44545Y-45203D01*
X44398Y-45055D01*
X44264Y-44999D01*
X44397Y-44945D01*
X44545Y-44798D01*
X44625Y-44605D01*
X44625Y-44396D01*
X44545Y-44203D01*
X44398Y-44055D01*
X44264Y-43999D01*
X44397Y-43945D01*
X44545Y-43798D01*
X44625Y-43605D01*
X44625Y-43396D01*
X44545Y-43203D01*
X44398Y-43055D01*
X44264Y-42999D01*
X44397Y-42945D01*
X44545Y-42798D01*
X44625Y-42605D01*
X44625Y-42396D01*
X44619Y-42381D01*
X44619Y-41574D01*
X44608Y-41370D01*
X44552Y-41233D01*
X44461Y-41210D01*
X44390Y-41281D01*
X44390Y-41139D01*
X44367Y-41048D01*
X44174Y-40981D01*
X43970Y-40992D01*
X43833Y-41048D01*
X43810Y-41139D01*
X44100Y-41429D01*
X44390Y-41139D01*
X44390Y-41281D01*
X44171Y-41500D01*
X44461Y-41790D01*
X44552Y-41767D01*
X44619Y-41574D01*
X44619Y-42381D01*
X44545Y-42203D01*
X44398Y-42055D01*
X44257Y-41996D01*
X44367Y-41952D01*
X44390Y-41861D01*
X44100Y-41571D01*
X44029Y-41642D01*
X44029Y-41500D01*
X43800Y-41271D01*
X43739Y-41210D01*
X43648Y-41233D01*
X43581Y-41426D01*
X43592Y-41630D01*
X43648Y-41767D01*
X43739Y-41790D01*
X43800Y-41729D01*
X44029Y-41500D01*
X44029Y-41642D01*
X43810Y-41861D01*
X43833Y-41952D01*
X43951Y-41993D01*
X43803Y-42055D01*
X43800Y-42057D01*
X43655Y-42202D01*
X43575Y-42395D01*
X43575Y-42604D01*
X43655Y-42797D01*
X43800Y-42942D01*
X43802Y-42945D01*
X43935Y-43000D01*
X43803Y-43055D01*
X43800Y-43057D01*
X43655Y-43202D01*
X43575Y-43395D01*
X43575Y-43604D01*
X43655Y-43797D01*
X43800Y-43942D01*
X43802Y-43945D01*
X43935Y-44000D01*
X43803Y-44055D01*
X43800Y-44057D01*
X43655Y-44202D01*
X43575Y-44395D01*
X43575Y-44604D01*
X43655Y-44797D01*
X43800Y-44942D01*
X43802Y-44945D01*
X43935Y-45000D01*
X43803Y-45055D01*
X43800Y-45057D01*
X43655Y-45202D01*
X43575Y-45395D01*
X43575Y-45604D01*
X43655Y-45797D01*
X43800Y-45942D01*
X43802Y-45945D01*
X43935Y-46000D01*
X43803Y-46055D01*
X43800Y-46057D01*
X43655Y-46202D01*
X43575Y-46395D01*
X43575Y-46604D01*
X43655Y-46797D01*
X43800Y-46942D01*
X43802Y-46945D01*
X43935Y-47000D01*
X43803Y-47055D01*
X43800Y-47057D01*
X43655Y-47202D01*
X43575Y-47395D01*
X43575Y-47604D01*
X43655Y-47797D01*
X43800Y-47942D01*
X43802Y-47945D01*
X43876Y-47976D01*
X43800Y-47976D01*
X43776Y-47976D01*
X43684Y-48014D01*
X43614Y-48084D01*
X43576Y-48175D01*
X43576Y-48274D01*
X43576Y-48824D01*
X43614Y-48916D01*
X43684Y-48986D01*
X43775Y-49024D01*
X43800Y-49024D01*
X43874Y-49024D01*
X44424Y-49024D01*
X44516Y-48986D01*
X44586Y-48916D01*
X44624Y-48825D01*
X44624Y-48726D01*
X44624Y-48176D01*
X44586Y-48084D01*
X44516Y-48014D01*
X44425Y-47976D01*
X44326Y-47976D01*
X44322Y-47976D01*
X44397Y-47945D01*
X44545Y-47798D01*
X44625Y-47605D01*
X44625Y-49200D01*
X43800Y-49200D01*
X43324Y-49200D01*
X43200Y-49076D01*
X43200Y-47800D01*
X43177Y-47685D01*
X43112Y-47588D01*
X42812Y-47288D01*
X42715Y-47223D01*
X42675Y-47215D01*
X42675Y-26095D01*
X42675Y-25906D01*
X42670Y-25893D01*
X42670Y-25062D01*
X42658Y-24877D01*
X42611Y-24763D01*
X42525Y-24746D01*
X42454Y-24817D01*
X42454Y-24675D01*
X42437Y-24589D01*
X42262Y-24530D01*
X42077Y-24542D01*
X41963Y-24589D01*
X41946Y-24675D01*
X42200Y-24929D01*
X42454Y-24675D01*
X42454Y-24817D01*
X42271Y-25000D01*
X42525Y-25254D01*
X42611Y-25237D01*
X42670Y-25062D01*
X42670Y-25893D01*
X42603Y-25731D01*
X42469Y-25598D01*
X42454Y-25591D01*
X42454Y-25325D01*
X42200Y-25071D01*
X42129Y-25142D01*
X42129Y-25000D01*
X41875Y-24746D01*
X41789Y-24763D01*
X41730Y-24938D01*
X41742Y-25123D01*
X41789Y-25237D01*
X41875Y-25254D01*
X42129Y-25000D01*
X42129Y-25142D01*
X41946Y-25325D01*
X41963Y-25411D01*
X42138Y-25470D01*
X42323Y-25458D01*
X42437Y-25411D01*
X42454Y-25325D01*
X42454Y-25591D01*
X42295Y-25525D01*
X42106Y-25525D01*
X41931Y-25597D01*
X41798Y-25731D01*
X41725Y-25905D01*
X41725Y-26094D01*
X41797Y-26269D01*
X41931Y-26402D01*
X42105Y-26475D01*
X42294Y-26475D01*
X42469Y-26403D01*
X42602Y-26269D01*
X42675Y-26095D01*
X42675Y-47215D01*
X42600Y-47200D01*
X41849Y-47200D01*
X41849Y-34900D01*
X41849Y-34801D01*
X41849Y-34101D01*
X41849Y-32400D01*
X41849Y-32301D01*
X41849Y-31601D01*
X41843Y-31586D01*
X41843Y-30091D01*
X41832Y-29856D01*
X41763Y-29690D01*
X41664Y-29657D01*
X41593Y-29728D01*
X41593Y-29586D01*
X41560Y-29487D01*
X41341Y-29407D01*
X41106Y-29418D01*
X40940Y-29487D01*
X40907Y-29586D01*
X41250Y-29929D01*
X41593Y-29586D01*
X41593Y-29728D01*
X41321Y-30000D01*
X41664Y-30343D01*
X41763Y-30310D01*
X41843Y-30091D01*
X41843Y-31586D01*
X41811Y-31509D01*
X41741Y-31439D01*
X41650Y-31401D01*
X41593Y-31401D01*
X41593Y-30414D01*
X41250Y-30071D01*
X41179Y-30142D01*
X41179Y-30000D01*
X40836Y-29657D01*
X40737Y-29690D01*
X40657Y-29909D01*
X40668Y-30144D01*
X40737Y-30310D01*
X40836Y-30343D01*
X41179Y-30000D01*
X41179Y-30142D01*
X40907Y-30414D01*
X40940Y-30513D01*
X41159Y-30593D01*
X41394Y-30582D01*
X41560Y-30513D01*
X41593Y-30414D01*
X41593Y-31401D01*
X41551Y-31401D01*
X40851Y-31401D01*
X40759Y-31439D01*
X40689Y-31509D01*
X40651Y-31600D01*
X40651Y-31699D01*
X40651Y-32399D01*
X40689Y-32491D01*
X40759Y-32561D01*
X40850Y-32599D01*
X40949Y-32599D01*
X41649Y-32599D01*
X41741Y-32561D01*
X41811Y-32491D01*
X41849Y-32400D01*
X41849Y-34101D01*
X41811Y-34009D01*
X41741Y-33939D01*
X41650Y-33901D01*
X41551Y-33901D01*
X41145Y-33901D01*
X39497Y-32253D01*
X39384Y-32177D01*
X39250Y-32150D01*
X38497Y-32150D01*
X38339Y-31992D01*
X38119Y-31901D01*
X37881Y-31901D01*
X37661Y-31992D01*
X37492Y-32161D01*
X37401Y-32381D01*
X37401Y-32619D01*
X37492Y-32839D01*
X37567Y-32914D01*
X37509Y-32939D01*
X37439Y-33009D01*
X37401Y-33100D01*
X37401Y-33199D01*
X37400Y-33388D01*
X37462Y-33450D01*
X37900Y-33450D01*
X37950Y-33450D01*
X38050Y-33450D01*
X38100Y-33450D01*
X38538Y-33450D01*
X38600Y-33388D01*
X38599Y-33199D01*
X38599Y-33100D01*
X38561Y-33009D01*
X38491Y-32939D01*
X38432Y-32914D01*
X38497Y-32850D01*
X39105Y-32850D01*
X40651Y-34395D01*
X40651Y-34899D01*
X40689Y-34991D01*
X40759Y-35061D01*
X40850Y-35099D01*
X40949Y-35099D01*
X41649Y-35099D01*
X41741Y-35061D01*
X41811Y-34991D01*
X41849Y-34900D01*
X41849Y-47200D01*
X41843Y-47200D01*
X41843Y-36591D01*
X41832Y-36356D01*
X41763Y-36190D01*
X41664Y-36157D01*
X41593Y-36228D01*
X41593Y-36086D01*
X41560Y-35987D01*
X41341Y-35907D01*
X41106Y-35918D01*
X40940Y-35987D01*
X40907Y-36086D01*
X41250Y-36429D01*
X41593Y-36086D01*
X41593Y-36228D01*
X41321Y-36500D01*
X41664Y-36843D01*
X41763Y-36810D01*
X41843Y-36591D01*
X41843Y-47200D01*
X41542Y-47200D01*
X41398Y-47055D01*
X41264Y-46999D01*
X41397Y-46945D01*
X41545Y-46798D01*
X41625Y-46605D01*
X41625Y-46396D01*
X41545Y-46203D01*
X41398Y-46055D01*
X41264Y-45999D01*
X41397Y-45945D01*
X41545Y-45798D01*
X41625Y-45605D01*
X41625Y-45396D01*
X41545Y-45203D01*
X41398Y-45055D01*
X41264Y-44999D01*
X41397Y-44945D01*
X41545Y-44798D01*
X41625Y-44605D01*
X41625Y-44396D01*
X41545Y-44203D01*
X41398Y-44055D01*
X41264Y-43999D01*
X41397Y-43945D01*
X41545Y-43798D01*
X41625Y-43605D01*
X41625Y-43396D01*
X41545Y-43203D01*
X41398Y-43055D01*
X41264Y-42999D01*
X41397Y-42945D01*
X41545Y-42798D01*
X41625Y-42605D01*
X41625Y-42396D01*
X41545Y-42203D01*
X41398Y-42055D01*
X41264Y-41999D01*
X41397Y-41945D01*
X41545Y-41798D01*
X41625Y-41605D01*
X41625Y-41396D01*
X41593Y-41318D01*
X41593Y-36914D01*
X41250Y-36571D01*
X41179Y-36642D01*
X41179Y-36500D01*
X40836Y-36157D01*
X40737Y-36190D01*
X40657Y-36409D01*
X40668Y-36644D01*
X40737Y-36810D01*
X40836Y-36843D01*
X41179Y-36500D01*
X41179Y-36642D01*
X40907Y-36914D01*
X40940Y-37013D01*
X41159Y-37093D01*
X41394Y-37082D01*
X41560Y-37013D01*
X41593Y-36914D01*
X41593Y-41318D01*
X41545Y-41203D01*
X41398Y-41055D01*
X41205Y-40975D01*
X40996Y-40975D01*
X40803Y-41055D01*
X40655Y-41202D01*
X40575Y-41395D01*
X40575Y-41604D01*
X40655Y-41797D01*
X40802Y-41945D01*
X40935Y-42000D01*
X40803Y-42055D01*
X40657Y-42200D01*
X38600Y-42200D01*
X38600Y-33612D01*
X38538Y-33550D01*
X38100Y-33550D01*
X38050Y-33550D01*
X37950Y-33550D01*
X37900Y-33550D01*
X37462Y-33550D01*
X37400Y-33612D01*
X37401Y-33801D01*
X37401Y-33900D01*
X37439Y-33991D01*
X37509Y-34061D01*
X37567Y-34085D01*
X37492Y-34161D01*
X37401Y-34381D01*
X37401Y-34619D01*
X37492Y-34839D01*
X37661Y-35008D01*
X37881Y-35099D01*
X38119Y-35099D01*
X38339Y-35008D01*
X38508Y-34839D01*
X38599Y-34619D01*
X38599Y-34381D01*
X38508Y-34161D01*
X38432Y-34085D01*
X38491Y-34061D01*
X38561Y-33991D01*
X38599Y-33900D01*
X38599Y-33801D01*
X38600Y-33612D01*
X38600Y-42200D01*
X38101Y-42200D01*
X38041Y-42140D01*
X37885Y-42075D01*
X37716Y-42075D01*
X37560Y-42139D01*
X37440Y-42259D01*
X37375Y-42415D01*
X37375Y-42584D01*
X37439Y-42740D01*
X37559Y-42860D01*
X37715Y-42925D01*
X37884Y-42925D01*
X38040Y-42861D01*
X38101Y-42800D01*
X40657Y-42800D01*
X40802Y-42945D01*
X40935Y-43000D01*
X40803Y-43055D01*
X40655Y-43202D01*
X40575Y-43395D01*
X40575Y-43604D01*
X40655Y-43797D01*
X40802Y-43945D01*
X40935Y-44000D01*
X40803Y-44055D01*
X40655Y-44202D01*
X40575Y-44395D01*
X40575Y-44604D01*
X40655Y-44797D01*
X40802Y-44945D01*
X40935Y-45000D01*
X40803Y-45055D01*
X40655Y-45202D01*
X40599Y-45335D01*
X40545Y-45203D01*
X40398Y-45055D01*
X40205Y-44975D01*
X39996Y-44975D01*
X39803Y-45055D01*
X39655Y-45202D01*
X39575Y-45395D01*
X39575Y-45604D01*
X39655Y-45797D01*
X39802Y-45945D01*
X39995Y-46025D01*
X40204Y-46025D01*
X40397Y-45945D01*
X40545Y-45798D01*
X40600Y-45664D01*
X40655Y-45797D01*
X40802Y-45945D01*
X40935Y-46000D01*
X40803Y-46055D01*
X40655Y-46202D01*
X40575Y-46395D01*
X40575Y-46604D01*
X40655Y-46797D01*
X40802Y-46945D01*
X40935Y-47000D01*
X40803Y-47055D01*
X40655Y-47202D01*
X40575Y-47395D01*
X40575Y-47604D01*
X40655Y-47797D01*
X40802Y-47945D01*
X40935Y-48000D01*
X40803Y-48055D01*
X40655Y-48202D01*
X40599Y-48335D01*
X40545Y-48203D01*
X40398Y-48055D01*
X40205Y-47975D01*
X39996Y-47975D01*
X39803Y-48055D01*
X39707Y-48150D01*
X38051Y-48150D01*
X38041Y-48140D01*
X37885Y-48075D01*
X37716Y-48075D01*
X37560Y-48139D01*
X37440Y-48259D01*
X37375Y-48415D01*
X37375Y-48584D01*
X37439Y-48740D01*
X37559Y-48860D01*
X37715Y-48925D01*
X37884Y-48925D01*
X38040Y-48861D01*
X38051Y-48850D01*
X39707Y-48850D01*
X39802Y-48945D01*
X39995Y-49025D01*
X40204Y-49025D01*
X40252Y-49004D01*
X40155Y-49102D01*
X40075Y-49295D01*
X40075Y-49504D01*
X40155Y-49697D01*
X40302Y-49845D01*
X40442Y-49903D01*
X40333Y-49948D01*
X40310Y-50039D01*
X40600Y-50329D01*
X40890Y-50039D01*
X40867Y-49948D01*
X40748Y-49906D01*
X40897Y-49845D01*
X41045Y-49698D01*
X41125Y-49505D01*
X41125Y-49296D01*
X41045Y-49103D01*
X40948Y-49005D01*
X40995Y-49025D01*
X41204Y-49025D01*
X41397Y-48945D01*
X41545Y-48798D01*
X41625Y-48605D01*
X41625Y-48396D01*
X41545Y-48203D01*
X41398Y-48055D01*
X41264Y-47999D01*
X41397Y-47945D01*
X41542Y-47800D01*
X42476Y-47800D01*
X42600Y-47924D01*
X42600Y-49200D01*
X42623Y-49315D01*
X42688Y-49412D01*
X42988Y-49712D01*
X43085Y-49777D01*
X43200Y-49800D01*
X43800Y-49800D01*
X44799Y-49800D01*
X44859Y-49860D01*
X45015Y-49925D01*
X45184Y-49925D01*
X45340Y-49861D01*
X45460Y-49741D01*
X45525Y-49585D01*
X45525Y-60950D01*
X44125Y-60950D01*
X44125Y-58805D01*
X44125Y-58596D01*
X44045Y-58403D01*
X43898Y-58255D01*
X43800Y-58214D01*
X43764Y-58199D01*
X43800Y-58185D01*
X43897Y-58145D01*
X44045Y-57998D01*
X44125Y-57805D01*
X44125Y-57596D01*
X44045Y-57403D01*
X43898Y-57255D01*
X43800Y-57214D01*
X43764Y-57199D01*
X43800Y-57185D01*
X43897Y-57145D01*
X44045Y-56998D01*
X44125Y-56805D01*
X44125Y-56596D01*
X44045Y-56403D01*
X43898Y-56255D01*
X43800Y-56214D01*
X43764Y-56199D01*
X43800Y-56185D01*
X43897Y-56145D01*
X44045Y-55998D01*
X44125Y-55805D01*
X44125Y-55596D01*
X44045Y-55403D01*
X43898Y-55255D01*
X43800Y-55214D01*
X43764Y-55199D01*
X43800Y-55185D01*
X43897Y-55145D01*
X44045Y-54998D01*
X44125Y-54805D01*
X44125Y-54596D01*
X44045Y-54403D01*
X43898Y-54255D01*
X43800Y-54214D01*
X43764Y-54199D01*
X43800Y-54185D01*
X43897Y-54145D01*
X44045Y-53998D01*
X44125Y-53805D01*
X44125Y-53596D01*
X44045Y-53403D01*
X43898Y-53255D01*
X43800Y-53214D01*
X43764Y-53199D01*
X43800Y-53185D01*
X43897Y-53145D01*
X44045Y-52998D01*
X44125Y-52805D01*
X44125Y-52596D01*
X44045Y-52403D01*
X43898Y-52255D01*
X43800Y-52214D01*
X43764Y-52199D01*
X43800Y-52185D01*
X43897Y-52145D01*
X44045Y-51998D01*
X44125Y-51805D01*
X44125Y-51596D01*
X44045Y-51403D01*
X43898Y-51255D01*
X43800Y-51214D01*
X43705Y-51175D01*
X43694Y-51175D01*
X43800Y-51131D01*
X43869Y-51103D01*
X44002Y-50969D01*
X44075Y-50795D01*
X44075Y-50606D01*
X44003Y-50431D01*
X43869Y-50298D01*
X43800Y-50269D01*
X43695Y-50225D01*
X43506Y-50225D01*
X43331Y-50297D01*
X43198Y-50431D01*
X43125Y-50605D01*
X43125Y-50794D01*
X43197Y-50969D01*
X43331Y-51102D01*
X43505Y-51175D01*
X43496Y-51175D01*
X43303Y-51255D01*
X43155Y-51402D01*
X43075Y-51595D01*
X43075Y-51804D01*
X43155Y-51997D01*
X43302Y-52145D01*
X43435Y-52200D01*
X43303Y-52255D01*
X43155Y-52402D01*
X43075Y-52595D01*
X43075Y-52804D01*
X43155Y-52997D01*
X43302Y-53145D01*
X43435Y-53200D01*
X43303Y-53255D01*
X43155Y-53402D01*
X43075Y-53595D01*
X43075Y-53804D01*
X43155Y-53997D01*
X43302Y-54145D01*
X43435Y-54200D01*
X43303Y-54255D01*
X43155Y-54402D01*
X43075Y-54595D01*
X43075Y-54804D01*
X43155Y-54997D01*
X43302Y-55145D01*
X43435Y-55200D01*
X43303Y-55255D01*
X43155Y-55402D01*
X43099Y-55535D01*
X43045Y-55403D01*
X42898Y-55255D01*
X42705Y-55175D01*
X42496Y-55175D01*
X42303Y-55255D01*
X42155Y-55402D01*
X42075Y-55595D01*
X42075Y-55804D01*
X42155Y-55997D01*
X42302Y-56145D01*
X42495Y-56225D01*
X42704Y-56225D01*
X42897Y-56145D01*
X43045Y-55998D01*
X43100Y-55864D01*
X43155Y-55997D01*
X43302Y-56145D01*
X43435Y-56200D01*
X43303Y-56255D01*
X43155Y-56402D01*
X43075Y-56595D01*
X43075Y-56804D01*
X43155Y-56997D01*
X43302Y-57145D01*
X43435Y-57200D01*
X43303Y-57255D01*
X43155Y-57402D01*
X43075Y-57595D01*
X43075Y-57804D01*
X43155Y-57997D01*
X43302Y-58145D01*
X43435Y-58200D01*
X43303Y-58255D01*
X43155Y-58402D01*
X43099Y-58535D01*
X43045Y-58403D01*
X42898Y-58255D01*
X42705Y-58175D01*
X42496Y-58175D01*
X42303Y-58255D01*
X42155Y-58402D01*
X42075Y-58595D01*
X42075Y-58804D01*
X42155Y-58997D01*
X42302Y-59145D01*
X42495Y-59225D01*
X42704Y-59225D01*
X42752Y-59204D01*
X42655Y-59302D01*
X42575Y-59495D01*
X42575Y-59704D01*
X42655Y-59897D01*
X42802Y-60045D01*
X42942Y-60103D01*
X42833Y-60148D01*
X42810Y-60239D01*
X43100Y-60529D01*
X43390Y-60239D01*
X43367Y-60148D01*
X43248Y-60106D01*
X43397Y-60045D01*
X43545Y-59898D01*
X43625Y-59705D01*
X43625Y-59496D01*
X43545Y-59303D01*
X43448Y-59205D01*
X43495Y-59225D01*
X43704Y-59225D01*
X43800Y-59185D01*
X43897Y-59145D01*
X44045Y-58998D01*
X44125Y-58805D01*
X44125Y-60950D01*
X43800Y-60950D01*
X43619Y-60950D01*
X43505Y-60950D01*
X43548Y-60907D01*
X43516Y-60875D01*
X43552Y-60867D01*
X43619Y-60674D01*
X43608Y-60470D01*
X43552Y-60333D01*
X43461Y-60310D01*
X43206Y-60565D01*
X43171Y-60600D01*
X43100Y-60671D01*
X43029Y-60600D01*
X42994Y-60565D01*
X42739Y-60310D01*
X42648Y-60333D01*
X42581Y-60526D01*
X42592Y-60730D01*
X42648Y-60867D01*
X42683Y-60875D01*
X42652Y-60907D01*
X42695Y-60950D01*
X41119Y-60950D01*
X41119Y-50474D01*
X41108Y-50270D01*
X41052Y-50133D01*
X40961Y-50110D01*
X40671Y-50400D01*
X40961Y-50690D01*
X41052Y-50667D01*
X41119Y-50474D01*
X41119Y-60950D01*
X40890Y-60950D01*
X40890Y-50761D01*
X40600Y-50471D01*
X40529Y-50542D01*
X40529Y-50400D01*
X40239Y-50110D01*
X40148Y-50133D01*
X40081Y-50326D01*
X40092Y-50530D01*
X40148Y-50667D01*
X40239Y-50690D01*
X40529Y-50400D01*
X40529Y-50542D01*
X40310Y-50761D01*
X40333Y-50852D01*
X40526Y-50919D01*
X40730Y-50908D01*
X40867Y-50852D01*
X40890Y-50761D01*
X40890Y-60950D01*
X40800Y-60950D01*
X40800Y-57450D01*
X37300Y-57450D01*
X37300Y-27550D01*
X40800Y-27550D01*
X40800Y-24050D01*
X47011Y-24050D01*
X46936Y-24165D01*
X47700Y-24929D01*
X48464Y-24165D01*
X48388Y-24050D01*
X51012Y-24050D01*
X50872Y-24108D01*
X50709Y-24271D01*
X50620Y-24484D01*
X50620Y-24715D01*
X50708Y-24928D01*
X50871Y-25091D01*
X51084Y-25180D01*
X51315Y-25180D01*
X51528Y-25092D01*
X51691Y-24929D01*
X51699Y-24908D01*
X51708Y-24928D01*
X51871Y-25091D01*
X52084Y-25180D01*
X52315Y-25180D01*
X52528Y-25092D01*
X52691Y-24929D01*
X52780Y-24716D01*
X52780Y-24485D01*
X52692Y-24272D01*
X52529Y-24109D01*
X52387Y-24050D01*
X53232Y-24050D01*
X53210Y-24139D01*
X53500Y-24429D01*
X53790Y-24139D01*
X53767Y-24050D01*
X55215Y-24050D01*
X55203Y-24055D01*
X55055Y-24202D01*
X54975Y-24395D01*
X54975Y-24604D01*
X55055Y-24797D01*
X55202Y-24945D01*
X55395Y-25025D01*
X55604Y-25025D01*
X55797Y-24945D01*
X55945Y-24798D01*
X56025Y-24605D01*
X56025Y-24396D01*
X55945Y-24203D01*
X55798Y-24055D01*
X55785Y-24050D01*
X68950Y-24050D01*
X68950Y-24315D01*
X68945Y-24303D01*
X68798Y-24155D01*
X68605Y-24075D01*
X68396Y-24075D01*
X68203Y-24155D01*
X68055Y-24302D01*
X67999Y-24435D01*
X67945Y-24303D01*
X67798Y-24155D01*
X67605Y-24075D01*
X67396Y-24075D01*
X67203Y-24155D01*
X67055Y-24302D01*
X66999Y-24435D01*
X66945Y-24303D01*
X66798Y-24155D01*
X66605Y-24075D01*
X66396Y-24075D01*
X66203Y-24155D01*
X66055Y-24302D01*
X65999Y-24435D01*
X65945Y-24303D01*
X65798Y-24155D01*
X65605Y-24075D01*
X65396Y-24075D01*
X65203Y-24155D01*
X65055Y-24302D01*
X64999Y-24435D01*
X64945Y-24303D01*
X64798Y-24155D01*
X64605Y-24075D01*
X64396Y-24075D01*
X64203Y-24155D01*
X64055Y-24302D01*
X63975Y-24495D01*
X63975Y-24704D01*
X64055Y-24897D01*
X64202Y-25045D01*
X64395Y-25125D01*
X64406Y-25125D01*
X64231Y-25197D01*
X64098Y-25331D01*
X64025Y-25505D01*
X64025Y-25694D01*
X64097Y-25869D01*
X64231Y-26002D01*
X64405Y-26075D01*
X64594Y-26075D01*
X64769Y-26003D01*
X64902Y-25869D01*
X64975Y-25695D01*
X64975Y-25506D01*
X64903Y-25331D01*
X64769Y-25198D01*
X64595Y-25125D01*
X64604Y-25125D01*
X64797Y-25045D01*
X64945Y-24898D01*
X65000Y-24764D01*
X65055Y-24897D01*
X65202Y-25045D01*
X65395Y-25125D01*
X65406Y-25125D01*
X65231Y-25197D01*
X65098Y-25331D01*
X65025Y-25505D01*
X65025Y-25694D01*
X65097Y-25869D01*
X65231Y-26002D01*
X65405Y-26075D01*
X65594Y-26075D01*
X65769Y-26003D01*
X65902Y-25869D01*
X65975Y-25695D01*
X65975Y-25506D01*
X65903Y-25331D01*
X65769Y-25198D01*
X65595Y-25125D01*
X65604Y-25125D01*
X65797Y-25045D01*
X65945Y-24898D01*
X66000Y-24764D01*
X66055Y-24897D01*
X66202Y-25045D01*
X66395Y-25125D01*
X66406Y-25125D01*
X66231Y-25197D01*
X66098Y-25331D01*
X66025Y-25505D01*
X66025Y-25694D01*
X66097Y-25869D01*
X66231Y-26002D01*
X66405Y-26075D01*
X66594Y-26075D01*
X66769Y-26003D01*
X66902Y-25869D01*
X66975Y-25695D01*
X66975Y-25506D01*
X66903Y-25331D01*
X66769Y-25198D01*
X66595Y-25125D01*
X66604Y-25125D01*
X66797Y-25045D01*
X66945Y-24898D01*
X67000Y-24764D01*
X67055Y-24897D01*
X67202Y-25045D01*
X67395Y-25125D01*
X67406Y-25125D01*
X67231Y-25197D01*
X67098Y-25331D01*
X67025Y-25505D01*
X67025Y-25694D01*
X67097Y-25869D01*
X67231Y-26002D01*
X67405Y-26075D01*
X67594Y-26075D01*
X67769Y-26003D01*
X67902Y-25869D01*
X67975Y-25695D01*
X67975Y-25506D01*
X67903Y-25331D01*
X67769Y-25198D01*
X67595Y-25125D01*
X67604Y-25125D01*
X67797Y-25045D01*
X67945Y-24898D01*
X68000Y-24764D01*
X68055Y-24897D01*
X68202Y-25045D01*
X68395Y-25125D01*
X68406Y-25125D01*
X68231Y-25197D01*
X68098Y-25331D01*
X68025Y-25505D01*
X68025Y-25694D01*
X68097Y-25869D01*
X68231Y-26002D01*
X68405Y-26075D01*
X68594Y-26075D01*
X68769Y-26003D01*
X68902Y-25869D01*
X68975Y-25695D01*
X68975Y-25506D01*
X68903Y-25331D01*
X68769Y-25198D01*
X68595Y-25125D01*
X68604Y-25125D01*
X68797Y-25045D01*
X68945Y-24898D01*
X68950Y-24885D01*
X68950Y-25150D01*
X69357Y-25150D01*
X69263Y-25189D01*
X69246Y-25275D01*
X69500Y-25529D01*
X69754Y-25275D01*
X69737Y-25189D01*
X69621Y-25150D01*
X70050Y-25150D01*
X70050Y-24050D01*
X70700Y-24050D01*
X70700Y-27550D01*
X74200Y-27550D01*
X74200Y-57450D01*
M02*
