M48
;DRILL file {Pcbnew (2012-01-19 BZR 3256)-stable} date 5/20/2013 12:55:46 AM
;FORMAT={-:-/ absolute / inch / decimal}
FMAT,2
INCH,TZ
T1C0.025
T2C0.030
T3C0.032
T4C0.040
T5C0.045
T6C0.100
%
G90
G05
M72
T1
X3.780Y-4.250
X3.780Y-4.850
X4.220Y-2.500
X4.220Y-2.600
X4.325Y-2.500
X4.325Y-2.600
X4.325Y-2.700
X4.360Y-5.070
X4.510Y-4.950
X4.800Y-2.980
X4.800Y-3.370
X5.180Y-2.980
X5.180Y-3.370
X5.360Y-4.160
X5.360Y-4.360
X5.360Y-4.560
X5.360Y-4.760
X5.360Y-4.960
X5.360Y-5.160
X5.360Y-5.360
X5.360Y-5.560
X5.520Y-3.050
X5.620Y-3.050
X5.660Y-4.160
X5.660Y-4.360
X5.660Y-4.560
X5.660Y-4.760
X5.660Y-4.960
X5.660Y-5.160
X5.660Y-5.360
X5.660Y-5.550
X5.720Y-3.050
X5.770Y-3.230
X5.820Y-3.050
X5.870Y-3.230
X5.920Y-3.290
X6.030Y-3.990
X6.120Y-3.550
X6.175Y-5.460
X6.320Y-2.950
X6.340Y-2.510
X6.340Y-4.240
X6.340Y-5.140
X6.345Y-5.460
X6.420Y-2.950
X6.440Y-4.240
X6.440Y-5.140
X6.450Y-2.560
X6.515Y-5.460
X6.550Y-2.560
X6.550Y-2.660
X6.650Y-2.560
X6.650Y-2.660
X6.685Y-5.460
X6.750Y-2.560
X6.850Y-2.560
X6.855Y-5.460
X6.950Y-2.560
X7.025Y-5.460
X7.030Y-4.240
X7.030Y-5.140
X7.090Y-3.090
X7.130Y-4.240
X7.130Y-5.140
X7.195Y-5.460
X7.365Y-5.460
T2
X5.870Y-2.890
X6.070Y-2.890
T3
X4.010Y-4.550
X4.010Y-4.850
X4.060Y-4.940
X4.060Y-5.040
X4.110Y-4.150
X4.110Y-4.250
X4.110Y-4.350
X4.110Y-4.450
X4.110Y-4.550
X4.110Y-4.650
X4.110Y-4.750
X4.110Y-4.850
X4.260Y-5.570
X4.260Y-5.870
X4.310Y-5.960
X4.310Y-6.060
X4.360Y-5.170
X4.360Y-5.270
X4.360Y-5.370
X4.360Y-5.470
X4.360Y-5.570
X4.360Y-5.670
X4.360Y-5.770
X4.360Y-5.870
X4.410Y-4.150
X4.410Y-4.250
X4.410Y-4.350
X4.410Y-4.450
X4.410Y-4.550
X4.410Y-4.650
X4.410Y-4.750
X4.410Y-4.850
X4.425Y-2.900
X4.425Y-3.200
X4.560Y-3.850
X4.560Y-3.950
X4.560Y-4.050
X4.560Y-4.150
X4.560Y-4.250
X4.560Y-4.350
X4.560Y-4.450
X4.560Y-4.550
X4.630Y-3.260
X4.630Y-3.360
X4.660Y-5.170
X4.660Y-5.270
X4.660Y-5.370
X4.660Y-5.470
X4.660Y-5.570
X4.660Y-5.670
X4.660Y-5.770
X4.660Y-5.870
X5.010Y-3.260
X5.010Y-3.360
X5.120Y-2.460
X5.120Y-2.680
X5.220Y-2.460
X5.220Y-2.680
X5.310Y-3.260
X5.310Y-3.360
X5.350Y-2.450
X5.350Y-2.750
X5.400Y-2.880
X5.500Y-2.880
X5.520Y-3.150
X5.520Y-3.450
X5.550Y-2.450
X5.550Y-2.750
X5.620Y-3.150
X5.620Y-3.450
X5.720Y-3.150
X5.720Y-3.450
X5.770Y-2.710
X5.820Y-3.150
X5.820Y-3.450
X5.870Y-2.710
X5.920Y-3.150
X5.920Y-3.450
X6.020Y-3.150
X6.020Y-3.450
X6.020Y-3.550
X6.020Y-3.650
X6.070Y-2.710
X6.120Y-3.150
X6.120Y-3.450
X6.170Y-2.710
X6.220Y-3.150
X6.220Y-3.450
X6.220Y-3.550
X6.220Y-3.650
X6.270Y-3.050
X6.320Y-3.150
X6.320Y-3.450
X6.370Y-3.050
X6.420Y-3.150
X6.420Y-3.450
X6.450Y-2.460
X6.520Y-3.150
X6.520Y-3.450
X6.550Y-2.460
X6.620Y-3.150
X6.620Y-3.450
X6.650Y-2.460
X6.720Y-3.150
X6.720Y-3.450
X6.750Y-2.460
X6.820Y-3.150
X6.820Y-3.450
X6.850Y-2.460
X6.950Y-2.460
X7.130Y-3.600
X7.230Y-3.600
T4
X4.125Y-3.000
X4.125Y-3.200
X4.125Y-3.450
X4.125Y-3.650
X5.750Y-2.460
X5.750Y-2.560
X5.850Y-2.460
X5.850Y-2.560
X5.950Y-2.460
X5.950Y-2.560
X6.340Y-4.340
X6.340Y-4.440
X6.340Y-4.540
X6.340Y-4.640
X6.340Y-4.740
X6.340Y-4.840
X6.340Y-4.940
X6.340Y-5.040
X6.440Y-4.340
X6.440Y-4.440
X6.440Y-4.540
X6.440Y-4.640
X6.440Y-4.740
X6.440Y-4.840
X6.440Y-4.940
X6.440Y-5.040
X7.030Y-4.340
X7.030Y-4.440
X7.030Y-4.540
X7.030Y-4.640
X7.030Y-4.740
X7.030Y-4.840
X7.030Y-4.940
X7.030Y-5.040
X7.130Y-4.340
X7.130Y-4.440
X7.130Y-4.540
X7.130Y-4.640
X7.130Y-4.740
X7.130Y-4.840
X7.130Y-4.940
X7.130Y-5.040
T5
X3.800Y-3.250
X3.800Y-3.350
X3.800Y-3.450
T6
X4.570Y-2.620
X4.770Y-2.500
X4.770Y-2.740
T0
M30
