G04 (created by PCBNEW-RS274X (2012-01-19 BZR 3256)-stable) date 5/20/2013 9:38:39 PM*
G01*
G70*
G90*
%MOIN*%
G04 Gerber Fmt 3.4, Leading zero omitted, Abs format*
%FSLAX34Y34*%
G04 APERTURE LIST*
%ADD10C,0.006000*%
%ADD11C,0.015000*%
G04 APERTURE END LIST*
G54D10*
G54D11*
X72750Y-61500D02*
X72924Y-61492D01*
X73097Y-61469D01*
X73267Y-61431D01*
X73434Y-61379D01*
X73595Y-61312D01*
X73750Y-61232D01*
X73897Y-61138D01*
X74035Y-61032D01*
X74164Y-60914D01*
X74282Y-60785D01*
X74388Y-60647D01*
X74482Y-60499D01*
X74562Y-60345D01*
X74629Y-60184D01*
X74681Y-60017D01*
X74719Y-59847D01*
X74742Y-59674D01*
X74750Y-59500D01*
X74750Y-25500D02*
X74742Y-25326D01*
X74719Y-25153D01*
X74681Y-24983D01*
X74629Y-24816D01*
X74562Y-24655D01*
X74482Y-24501D01*
X74388Y-24353D01*
X74282Y-24215D01*
X74164Y-24086D01*
X74035Y-23968D01*
X73897Y-23862D01*
X73750Y-23768D01*
X73595Y-23688D01*
X73434Y-23621D01*
X73267Y-23569D01*
X73097Y-23531D01*
X72924Y-23508D01*
X72750Y-23500D01*
X36750Y-59500D02*
X36758Y-59674D01*
X36781Y-59847D01*
X36819Y-60017D01*
X36871Y-60184D01*
X36938Y-60345D01*
X37018Y-60499D01*
X37112Y-60647D01*
X37218Y-60785D01*
X37336Y-60914D01*
X37465Y-61032D01*
X37603Y-61138D01*
X37751Y-61232D01*
X37905Y-61312D01*
X38066Y-61379D01*
X38233Y-61431D01*
X38403Y-61469D01*
X38576Y-61492D01*
X38750Y-61500D01*
X38750Y-23500D02*
X38576Y-23508D01*
X38403Y-23531D01*
X38233Y-23569D01*
X38066Y-23621D01*
X37905Y-23688D01*
X37751Y-23768D01*
X37603Y-23862D01*
X37465Y-23968D01*
X37336Y-24086D01*
X37218Y-24215D01*
X37112Y-24353D01*
X37018Y-24501D01*
X36938Y-24655D01*
X36871Y-24816D01*
X36819Y-24983D01*
X36781Y-25153D01*
X36758Y-25326D01*
X36750Y-25500D01*
X72750Y-23500D02*
X38750Y-23500D01*
X74750Y-59500D02*
X74750Y-25500D01*
X38750Y-61500D02*
X72750Y-61500D01*
X36750Y-25500D02*
X36750Y-59500D01*
M02*
